<?xml version="1.0" encoding="utf-8"?>
<!-- Generator: Adobe Illustrator 16.0.0, SVG Export Plug-In . SVG Version: 6.00 Build 0)  -->
<!DOCTYPE svg PUBLIC "-//W3C//DTD SVG 1.1//EN" "http://www.w3.org/Graphics/SVG/1.1/DTD/svg11.dtd">
<svg version="1.1" id="Capa_1" xmlns="http://www.w3.org/2000/svg" xmlns:xlink="http://www.w3.org/1999/xlink" x="0px" y="0px"
	 width="67px" height="67px" viewBox="0 0 67 67" enable-background="new 0 0 67 67" xml:space="preserve">
<g>
	<defs>
		<circle id="SVGID_1_" cx="33.529" cy="33.529" r="33.529"/>
	</defs>
	<clipPath id="SVGID_2_">
		<use xlink:href="#SVGID_1_"  overflow="visible"/>
	</clipPath>
	<g clip-path="url(#SVGID_2_)">
		<g>
			<path fill="#E34F7E" d="M25.602,53.008c-4.233,2.753-3.55,7.209-2.451,14.051h19.822c1.2-6.596,1.98-12.215-2.166-14.441
				C35.936,50.003,28.838,50.904,25.602,53.008z"/>
			<path fill="#3A3A4A" d="M33.539,57.612c-2.037-0.169-2.555,1.563-2.555,1.563l1.633,1.977l-2.049,5.906h5.846l-2.215-5.86
				l1.582-1.85C35.781,59.349,35.359,57.76,33.539,57.612z"/>
			<g>
				<g>
					<g>
						<path fill="#1E1E29" d="M16.338,67.059c0-0.251,0.313-5.008,0.578-6.873c0.427-2.989,1.537-5.123,5.606-6.629l2.047,4.798
							c-2.312,1.204-2.626,8.704-2.626,8.704H16.338z"/>
					</g>
				</g>
				<path fill="#1E1E29" d="M25.615,52.178c0,0-4.303,1.592-4.712,2.66c-0.314,0.816-0.087,7.042,0.794,12.221h5.914
					C27.525,62.477,27.02,56.74,25.615,52.178z"/>
				<path fill="#3A3A4A" d="M25.731,51.406c-2.396,1.195-3.496,4.438-3.44,5.099c0.056,0.66,4.509,1.044,4.346,0.385
					C26.47,56.23,25.731,51.406,25.731,51.406z"/>
				<path fill="#3A3A4A" d="M26.47,56.23c-0.507-0.874-2.364,3.684-2.088,4.453c0.166,0.463,1.333,3.572,2.213,6.376l1.085,0.063
					C27.646,62.56,27.213,57.509,26.47,56.23z"/>
			</g>
			<g>
				<g>
					<g>
						<path fill="#1E1E29" d="M50.739,67.059c0-0.251-0.312-5.008-0.577-6.873c-0.427-2.989-1.537-5.123-5.606-6.629l-2.047,4.798
							c2.312,1.204,2.626,8.704,2.626,8.704H50.739z"/>
					</g>
				</g>
				<path fill="#1E1E29" d="M41.463,52.178c0,0,4.303,1.592,4.712,2.66c0.315,0.816,0.087,7.042-0.794,12.221h-5.915
					C39.553,62.477,40.059,56.74,41.463,52.178z"/>
				<path fill="#3A3A4A" d="M41.347,51.406c2.396,1.195,3.495,4.438,3.44,5.099c-0.056,0.66-4.509,1.044-4.346,0.385
					C40.608,56.23,41.347,51.406,41.347,51.406z"/>
				<path fill="#3A3A4A" d="M40.608,56.23c0.507-0.874,2.364,3.684,2.088,4.453c-0.165,0.463-1.335,3.572-2.213,6.376l-1.086,0.063
					C39.432,62.56,39.864,57.509,40.608,56.23z"/>
			</g>
			<path opacity="0.1" d="M40.941,54.52c-0.038,2.245-2.133,4.51-4.131,5.918l-3.318-2.812l-3.118,2.97c0,0-3.632-1.887-4.685-5.223
				C24.638,52.036,40.967,52.906,40.941,54.52z"/>
			<path fill="#F06799" d="M33.492,57.626l3.128,1.966c0,0,7.069-3.581,4.727-8.186c-2.106-4.143-12.706-3.699-15.615,0
				c-2.892,3.672,4.409,8.311,4.409,8.311L33.492,57.626z"/>
			<path fill="#FFB67D" d="M33.328,57.171c1.91,0.036,10.016-4.579,4.318-9.067c-1.636-1.291-4.831-1.498-6.788-1.077
				c-2.039,0.438-3.395,2.338-3.536,4.293C27.145,53.795,30.795,57.104,33.328,57.171z"/>
		</g>
		<g>
			<path fill="#2B2521" d="M48.014,32.053c0.656-0.889,1.614-9.969,2.594-8.845c3.729,4.275-0.567,10.354,1.245,15.328
				c0.238,0.65-2.299,0.27-2.505,0.184C46.822,37.662,46.494,34.107,48.014,32.053z"/>
			<path fill="#2B2521" d="M47.57,30.835c1.955-0.51,4.195-0.807,2.987-9.035C49.239,12.841,38.555,7.304,29.522,9.004
				c-21.87,4.12-18.046,29.217-11.658,28.168S45.616,31.345,47.57,30.835z"/>
			<path fill="#FFCB9E" d="M16.264,35.084c0.324,11.459,8.222,20.529,17.638,20.262s16.785-9.773,16.462-21.229
				c-0.325-11.458-8.223-20.529-17.641-20.263C23.31,14.122,15.938,23.627,16.264,35.084z"/>
			<path fill="#FFCB9E" d="M14.113,41.015c1.188,0.411,2.474,0.497,3.718,0.455c0.026-0.031,0.053-0.063,0.079-0.098
				c0.606-0.747-0.133-4.673-0.363-5.483c-0.58-2.043-1.654-3.509-3.915-3.041C8.931,33.829,10.407,39.736,14.113,41.015z"/>
			<path opacity="0.3" fill="#BF3C1B" d="M19.779,29.711c0.344-1.86,0.789-3.717,1.729-5.379c1.861-3.293,5.537-4.481,9.086-4.954
				c4.453-0.594,9.154-0.33,13.553,0.545c1.017,0.203,5.671,0.893,4.678,2.713c-0.813,1.498-3.038,2.759-4.478,3.03
				c-2.005,0.38-6.021,0.131-8.054-0.087c-6.871-0.738-10.004,1.39-10.915,2.741c-0.109-0.787,0.45-2.327,0.851-3.026
				c-0.141,0.131-4.783,2.015-5.95,9.477C19.722,34.576,19.354,32.015,19.779,29.711z"/>
			<path fill="#2B2521" d="M25.009,14.596c-6.388,2.598-10.34,12.764-9.847,18.914c0.281,3.498,5.116,3.73,5.111,1.756
				c0-6.014,0.986-10.272,9.867-12.362c7.078-1.665,15.438-0.748,17.547,0.714c2.109,1.463,0.004-4.275-6.104-8.025
				C35.472,11.842,29.908,12.601,25.009,14.596z"/>
			<path opacity="0.3" fill="#BF3C1B" d="M16.557,39.908c2.179-0.602,0.859-4.028-0.555-4.779c-1.166-0.615-4.4-0.359-3.277,1.644
				c1.077-1.517,2.247-0.223,1.82,0.909c-0.288,0.763-1.44,0.588-0.483,1.775C14.58,40.1,15.871,40.099,16.557,39.908z"/>
			<path fill="#2B2521" d="M52.061,22.829c-6.387,4.732-17.982-1.225-24.791,2.828c0.021-0.907,0.345-1.809,0.76-2.559
				c-0.253,0.459-3.471,1.49-4.087,1.392c-1.647-0.266-2.45-2.158-2.868-3.489c-1.269-4.036-0.623-7.919,2.988-10.004
				c5.008-2.896,11.047-2.84,16.617-1.333C50.42,12.302,55.067,20.599,52.061,22.829z"/>
			<path fill="#2B2521" d="M20.16,39.905c0.149,0.021,0.304,0.036,0.462,0.048c0.152-2.023-0.273-3.969-0.249-6.057
				c0.016-1.498-0.117-1.681-1.129-2.303c-1.112-0.678-2.795-0.128-4.014-0.84c0.578,0.345,0.102,2.765,0.075,3.311
				C15.165,37.338,17.069,39.495,20.16,39.905z"/>
			<path fill="#2B2521" d="M15.534,11.771c1.66,5.33,8.423,4.108,11.413,2.409c1.418-0.805,3.185-5.299,0.809-4.822
				c-3.227,0.646-6.717,1.326-9.34-0.276c0.005,0.58-0.123,2.111,1.236,2.845C18.848,12.581,17.146,12.637,15.534,11.771z"/>
		</g>
		<g>
			<g>
				<path fill="#211011" d="M27.85,36.342c-0.662-0.357-1.518-0.474-2.251-0.297c-1.499-1.39,0.123-5.372,2.356-4.29
					C29.622,32.565,29.414,35.617,27.85,36.342z"/>
			</g>
			<path opacity="0.3" fill="#BF3C1B" d="M39.244,37.276c0.436,0.46-0.543,2.012-2.562,2.036c-2.03,0.023-3.081-1.686-2.292-2.085
				c0.789-0.401,1.258,0.063,2.406,0.072C38.067,37.313,38.734,36.744,39.244,37.276z"/>
			<path fill="#FFD8B5" d="M39.063,37.409c0.592-0.502,0.024-2.528-2.374-2.481c-2.019,0.041-3.054,1.738-2.029,2.525
				C35.93,38.426,38.27,38.084,39.063,37.409z"/>
			<g>
				<path fill="#211011" d="M46.019,31.138c1.278,0.62,1.376,2.66,0.555,3.737c-0.667-0.045-1.405,0.209-1.964,0.65
					C42.003,35.006,43.632,29.981,46.019,31.138z"/>
			</g>
			<path fill="#A89191" d="M27.272,32.304c0.834-0.241,1.288,1.046,0.617,1.492C26.955,34.408,26.332,32.578,27.272,32.304z"/>
			<path fill="#A89191" d="M45.455,31.795c0.779-0.225,1.202,0.976,0.576,1.393C45.161,33.76,44.578,32.051,45.455,31.795z"/>
			<path fill="#2B2521" d="M47.003,28.031c1.282-0.052,1.684-0.689,0.417-1.257c-0.724-0.325-1.635-0.34-2.417-0.365
				c-0.481-0.016-2.305-0.317-2.67,0.073C40.979,27.954,46.515,28.049,47.003,28.031z"/>
			<path fill="#2B2521" d="M24.977,28.698c-1.284,0.075-1.746-0.521-0.539-1.208c0.688-0.396,1.594-0.499,2.369-0.601
				c0.477-0.063,2.265-0.54,2.666-0.186C30.965,28.031,25.465,28.671,24.977,28.698z"/>
			<g>
				<path fill="#F7A286" d="M45.617,40.158c-1.16-0.805-2.559,0.788-9.123,1.163c-5.669,0.323-7.796-0.616-9.214-0.638
					c0.81,5.518,3.847,9.252,7.949,9.605c2.542,0.219,5.813-0.352,7.407-2.824c0.619-0.965,0.743-1.984,1.036-3.088
					c0.478-1.82,1.028-2.764,2.321-3.843C45.881,40.377,45.754,40.254,45.617,40.158z"/>
				<path fill="#8F2722" d="M28.148,41.336c0,0,7.302,2.536,17.378-0.992c0,0-1.636,1.051-2.172,3.667
					c-0.403,1.956-1.293,4.755-7.078,5.087C29.854,49.465,28.148,41.336,28.148,41.336z"/>
				<path fill="#FFF7EB" d="M29.85,41.85c0,0-0.014,1.807,1.938,2.348c2.503,0.693,5.334,0.732,8.244,0.12
					c1.961-0.414,3.02-3.012,3.02-3.012S37.25,42.633,29.85,41.85z"/>
				<path fill="#FFF7EB" d="M31.447,47.191c-0.132-0.404-0.089-0.854,0.754-0.508c1.01,0.411,2.904,0.734,5.13,0.758
					c2.226,0.025,2.805-0.779,3.167-0.346c0.367,0.434-1.332,2.454-4.858,2.116C31.605,48.825,31.447,47.191,31.447,47.191z"/>
				<path fill="#E8DAC5" d="M30.127,42.905c0,0,9.969-0.95,12.247-0.387c0,0,0.552-0.849,0.678-1.213c0,0-5.276,1.276-13.202,0.544
					C29.85,41.85,29.825,42.414,30.127,42.905z"/>
				<path fill="#E8DAC5" d="M32.533,47.045c0,0,2.966,1.016,7.355,0.295C39.889,47.34,35.914,48.691,32.533,47.045z"/>
			</g>
		</g>
		<g>
			<path opacity="0.3" fill="#A67663" d="M40.976,37.331c-0.407-0.327-0.758-0.724-1.012-1.188c-0.527-0.973-0.53-2.148-0.151-3.18
				c0.521-1.421,2.023-1.506,3.268-1.595c0.831-0.059,1.669-0.074,2.501-0.087c0.657-0.009,1.493,0.088,2.116-0.17
				c0.873-0.365,0.693-1.578,0.158-2.192c-0.569-0.654-1.383-0.43-2.141-0.352c-0.979,0.101-1.95,0.272-2.903,0.516
				c-1.19,0.303-2.584,0.426-3.686,0.997c-1.014,0.528-1.438,0.857-2.708,0.811c-2.274-0.081-4.198-1.484-6.47-1.708
				c-2.365-0.23-4.786-0.496-7.11,0.161c-0.605,0.172-2.435,0.875-1.192,1.52c1.21,0.626,3.017,0.415,4.341,0.458
				c0.61,0.02,1.225,0.032,1.834,0.083c2.162,0.186,5.483-0.133,5.328,2.567c-0.108,1.852-1.291,3.762-2.795,4.118
				c-1.439,0.344-2.984,0.48-4.445,0.484c-1.119,0.002-2.199-0.209-3.223-0.674c-0.289-0.133-1.158-0.678-1.438-0.287
				c-0.473,0.668,1.292,1.762,1.754,1.965c1.054,0.468,2.172,0.605,3.315,0.721c2.818,0.283,5.721,0.116,7.296-2.483
				c0.913-1.507,1.366-3.276,2.211-4.823c1.384-2.532,1.975,0.914,2.367,2.419c0.22,0.846,0.55,1.668,1.028,2.387
				c0.847,1.271,2.541,1.984,3.97,2.081c0.882,0.059,3.682-0.138,4.514-0.481c0.503-0.207,0.768-1.043,0.176-1.292
				c-0.361-0.149-2.888,0.349-3.267,0.323c-0.553-0.031-1.116-0.051-1.66-0.168C42.256,38.111,41.559,37.795,40.976,37.331z"/>
			<g>
				<path fill="#3A3A4A" d="M16.513,29.288c0.411-0.402,2.028,0.012,3.882-0.169c2.612-0.253,15.858-1.978,15.146,3.7
					c-0.291,2.317-1.199,4.704-3.605,6.118c-1.941,1.139-8.425,1.051-10.516-0.574c-2.502-1.948-2.648-5.284-2.853-6.565
					c-0.874-0.016-1.492-0.395-1.492-0.395S15.972,29.81,16.513,29.288z M21.539,36.911c1.762,1.911,8.083,2.249,10.432,0.505
					c1.783-1.324,2.826-5.208,1.787-5.901c-2.145-1.426-11.016-1.395-13.273,0.174C19.746,32.202,20.18,35.436,21.539,36.911z"/>
			</g>
			<g>
				<path fill="#3A3A4A" d="M53.601,30.613c0,0-0.52,0.406-1.272,0.462c-0.137,1.288-0.164,4.626-2.265,6.688
					c-1.753,1.721-7.343,2.109-9.053,1.063c-2.113-1.298-2.969-3.641-3.289-5.939c-0.783-5.637,10.69-4.534,12.949-4.401
					c1.604,0.092,2.986-0.396,3.356-0.012C54.504,28.972,53.601,30.613,53.601,30.613z M50.671,31.058
					c-1.994-1.462-9.646-1.081-11.451,0.443c-0.877,0.74,0.141,4.572,1.718,5.809c2.077,1.631,7.52,1.001,8.981-0.99
					C51.046,34.787,51.322,31.535,50.671,31.058z"/>
			</g>
			<path opacity="0.3" fill="#FFFFFF" d="M40.735,31.086c1.417-0.545,8.582-0.795,9.36,0.018c0.558,0.583-1.533,1.373-2.49,1.501
				c-1.824,0.247-3.752,0.261-5.436-0.1C41.688,32.404,39.453,31.578,40.735,31.086z"/>
			<path fill="#FFFFFF" d="M46.343,31.078c1.46-0.158,3.959,0.18,3.666,0.638c-0.296,0.466-4.304,0.601-4.638-0.052
				C45.203,31.336,45.656,31.152,46.343,31.078z"/>
			<path opacity="0.7" fill="#FFFFFF" d="M41.914,35.883c0.911,0.057,2.407,0.635,2.183,0.965c-0.229,0.332-2.707-0.063-2.843-0.622
				C41.187,35.942,41.484,35.854,41.914,35.883z"/>
			<path opacity="0.7" fill="#FFFFFF" d="M22.951,36.352c1.003,0.094,2.629,0.734,2.365,1.055c-0.271,0.322-2.982-0.172-3.107-0.734
				C22.146,36.385,22.478,36.309,22.951,36.352z"/>
			<path opacity="0.3" fill="#FFFFFF" d="M21.989,31.473c0.801-0.782,9.071-0.703,10.769-0.222c1.531,0.438-0.942,1.265-1.488,1.372
				c-1.891,0.377-4.109,0.405-6.238,0.212C23.912,32.732,21.415,32.035,21.989,31.473z"/>
			<path fill="#FFFFFF" d="M29.146,31.008c1.61-0.158,4.372,0.179,4.047,0.639c-0.327,0.467-4.754,0.601-5.122-0.051
				C27.887,31.266,28.391,31.082,29.146,31.008z"/>
			<path fill="#3A3A4A" d="M33.558,29.668c2.327,0.629,4.109,0.443,5.907-0.096c1.742-0.522-0.052,0.913-0.373,1.292
				c-0.318,0.377-0.472,4.513-1.217,2.925c-0.744-1.587-1.922-1.518-2.538,0.201s-0.361-1.333-0.58-2.273
				C34.537,30.779,31.7,29.167,33.558,29.668z"/>
			<path fill="#C1C5C9" d="M33.445,30.394c-2.08-1.496-5.502-1.631-12.146-0.781C26.328,29.54,30.341,29.421,33.445,30.394z"/>
			<path fill="#C1C5C9" d="M40,30.125c1.659-1.463,4.387-1.348,10.242-1.227C45.865,29.293,42.602,29.015,40,30.125z"/>
		</g>
	</g>
</g>
</svg>
