<?xml version="1.0" encoding="utf-8"?>
<!-- Generator: Adobe Illustrator 16.0.0, SVG Export Plug-In . SVG Version: 6.00 Build 0)  -->
<!DOCTYPE svg PUBLIC "-//W3C//DTD SVG 1.1//EN" "http://www.w3.org/Graphics/SVG/1.1/DTD/svg11.dtd">
<svg version="1.1" id="Capa_1" xmlns="http://www.w3.org/2000/svg" xmlns:xlink="http://www.w3.org/1999/xlink" x="0px" y="0px"
	 width="67px" height="67px" viewBox="0 0 67 67" enable-background="new 0 0 67 67" xml:space="preserve">
<g>
	<defs>
		<circle id="SVGID_1_" cx="33.5" cy="33.5" r="33.5"/>
	</defs>
	<clipPath id="SVGID_2_">
		<use xlink:href="#SVGID_1_"  overflow="visible"/>
	</clipPath>
	<g clip-path="url(#SVGID_2_)">
		<g>
			<path fill="#94ABD4" d="M42.361,65.82c0-6.762,4.594-8.705,0.408-11.435c-2.375-1.548-14.293-2.006-17.245,0.132
				c-4.286,3.104,0.826,4.767,0.679,11.51c-0.008,0.336-0.022,0.658-0.039,0.973h16.223C42.371,66.611,42.361,66.219,42.361,65.82z"
				/>
		</g>
		<path fill="#7E92A8" d="M47.376,13.667c-8.367-1.438-18.872-0.267-26.294,2.586c-3.871,1.488-9.816,5.585-14.66,10.424
			c-1.078,0.933-0.18,1.84,1.804,2.834c5.847,2.928,19.109,2.104,24.595,1.541c7.163-0.734,19.521-3.932,24.158-6.731
			c2.189-1.322,3.364-2.583,2.703-3.602C56.006,19.043,48.789,13.91,47.376,13.667z"/>
		<g>
			<circle fill="#FFFFFF" cx="34.209" cy="58.205" r="0.921"/>
			<circle fill="#FFFFFF" cx="34.316" cy="63.604" r="0.92"/>
			<path fill="#BACBE3" d="M30.228,51.655c0.193-0.351,0.431-0.624,0.685-0.725c0.815-0.323,2.256,0.802,3.173,0.817
				c1.006,0.016,2.434-1.049,3.306-0.884c0.964,0.181,1.166,2.036,1.089,2.994c-0.185,2.351-5.1,2.021-6.511,1.64
				c-0.667-0.179-1.955-0.801-2.171-1.688C29.661,53.247,29.867,52.314,30.228,51.655z"/>
		</g>
		<g>
			<path fill="#C9BEB7" d="M54.198,32.825c2.983-0.049,1.531-7.043,1.294-8.617c-0.629-4.218-2.725-8.114-6.125-10.729
				c-6.605-5.081-13.503-1.521-21.322-0.488c-7.852,1.036-14.4,5.052-16.519,9.925c-0.845,1.94-3.85,10.418-0.093,10.777
				c-1.52,1.638-2.234,6.107,0.92,6.378c-0.873,2.207-0.263,5.168,2.598,4.925c0.11,2.448,1.326,4.19,3.943,4.032
				c-0.042,2.911,2.623,4.49,4.648,2.327c1.466,2.136,3.537,0.819,5.283-0.122c1.803-0.971,3.928-1.752,5.887-0.692
				c0.628,0.339,0.89,0.993,1.617,1.192c0.293,0.08,2.593-0.357,2.371-0.664c1.025,1.42,3.992,3.005,4.643,0.17
				c1.923,1.756,4.391-0.33,4.135-2.521c2.896,0.434,3.531-2.151,3.256-4.488c2.93-0.242,2.927-2.979,2.313-5.318
				C55.896,38.566,54.908,34.508,54.198,32.825z"/>
			<circle fill="#FFFFFF" cx="48.083" cy="41.77" r="1.377"/>
			<path fill="#FFC38F" d="M19.194,37.446c1.179,7.842,7.358,16.39,16.479,15.617c9.311-0.79,13.792-12.41,12.459-22.062
				c-1.451-10.494-6.545-19.191-17.414-16.917C22.956,15.706,17.626,26.967,19.194,37.446z"/>
			<path opacity="0.2" fill="#BF3C1B" d="M47.848,25.595c-1.823,2.652-6.266,3.493-9.533,2.628
				c-1.598-0.422-2.088-0.379-3.646,0.236c-1.58,0.624-2.937,1.278-4.693,1.252c-1.986-0.027-3.959-0.647-5.44-1.897
				c-0.252,1.553-1.276,2.965-3.006,3.122c0.703,0.913,1.715,3.718-0.453,3.312c-2.157-0.406-2.883-5.109-2.96-6.73
				c-0.231-4.828-0.587-9.954,4.642-12.259c2.627-1.161,5.713-1.04,8.554-1.017c3.203,0.024,6.378,0.48,9.459,1.322
				c1.814,0.5,3.693,0.957,5.334,1.879c0.763,0.433,1.479,0.98,1.955,1.702c0.656,0.989,0.495,2.063,0.6,3.168
				C48.777,23.614,48.459,24.706,47.848,25.595z"/>
			<path fill="#FFC38F" d="M17.357,40.848c1.009,0.344,2.071,0.378,3.094,0.292c0.019-0.03,0.039-0.062,0.059-0.095
				c0.447-0.731-0.245-4.79-0.491-5.553c-0.614-1.917-1.769-2.911-3.598-2.387C12.615,34.215,14.226,39.766,17.357,40.848z"/>
			<path opacity="0.4" fill="#D14F2E" d="M18.82,39.449c1.378-0.896,0.024-3.842-1.03-4.305c-0.864-0.387-2.998,0.354-1.967,2.021
				c0.511-1.565,1.472-0.552,1.342,0.552c-0.087,0.745-0.885,0.766-0.077,1.707C17.522,39.937,18.386,39.729,18.82,39.449z"/>
			<path fill="#C9BEB7" d="M49.324,18.248c-0.269-0.646-0.691-1.29-1.291-1.914c-2.817-2.926-6.935-4.831-11.015-5.533
				c-2.602-0.439-5.392-0.451-8.005-0.12c-4.397,0.562-9.69,2.62-11.023,7.087c-0.818,2.744-0.333,5.905-0.073,8.688
				c0.191,2.07-0.004,4.287,0.739,6.273c0.35,0.934,2.987,4.641,3.216,1.603c0.1-1.325-0.905-2.676-1.183-3.949
				c2.198,0.804,3.278-2.466,3.727-3.872c2.904,1.833,6.313,2.105,9.541,0.908c1.179-0.438,2.121-0.931,3.414-0.731
				c1.238,0.193,2.25,0.762,3.557,0.737C45.779,27.336,51.166,22.687,49.324,18.248z"/>
			<path opacity="0.7" fill="#F0EAE6" d="M27.479,25.382c-1.679,0.959-3.589,1.679-5.481,0.707c-0.221,1.32-1.005,3.835-2.343,4.662
				c-1.96,1.209-3.082-0.464-3.653-1.888c-1.721,1.868-3.71-0.141-3.906-1.827c-0.402-3.48,4.023-4.546,7.025-5.134
				c5.465-1.073,10.927-1.608,16.506-1.941c2.901-0.174,5.768-0.237,8.681-0.167c2.547,0.062,6.79-0.543,8.867,1.201
				c0.737,0.622,1.642,2.572,1.127,3.494c-0.379,0.678-1.919,1.104-1.676-0.17c-0.289,1.527-2.048,2.571-3.071,0.843
				c-0.637-1.07-0.362-2.458-1.193-3.55c-0.824,1.194-2.043,2.579-3.436,3.323c-1.359,0.724-3.198,0.783-4.741,0.454
				c-2.077-0.445-1.898-0.495-3.89,0.338C34.433,26.507,28.553,27.937,27.479,25.382z"/>
			<path fill="#FFFFFF" d="M19.924,43.055c0.008,0.759-0.601,1.385-1.36,1.396c-0.76,0.009-1.386-0.601-1.396-1.36
				c-0.009-0.756,0.599-1.381,1.358-1.392C19.286,41.688,19.912,42.297,19.924,43.055z"/>
		</g>
		<g>
			<path opacity="0.4" fill="#D14F2E" d="M25.471,35.953c1.068-0.902-2.172-1.009-2.668-0.875c0.046,0.636,1.493,0.33,1.927,0.432
				c-0.381,0.395-1.509,0.393-1.973,0.662c-0.493,0.283-0.44,0.476,0.146,0.463C23.253,36.625,25.218,36.167,25.471,35.953z"/>
			<path opacity="0.4" fill="#D14F2E" d="M45.39,35.401c-1.067-0.901,2.171-1.009,2.667-0.875c-0.045,0.636-1.492,0.33-1.927,0.433
				c0.381,0.394,1.509,0.392,1.973,0.661c0.495,0.284,0.44,0.476-0.146,0.463C47.607,36.072,45.643,35.615,45.39,35.401z"/>
			<path fill="#FF7752" d="M47.086,37.805c0.083,0.146,0.144,0.312,0.173,0.506c0.31,1.85-3.625,1.109-4.034,0.295
				c-0.763-1.525,0.601-1.85,1.598-1.801C45.588,36.842,46.65,37.031,47.086,37.805z"/>
			<path fill="#FF7752" d="M27.8,37.791c0.114,0.152,0.208,0.329,0.277,0.549c0.653,2.07-3.798,2.115-4.383,1.268
				c-1.101-1.594,0.34-2.285,1.446-2.461C25.991,37.016,27.188,36.994,27.8,37.791z"/>
			<path fill="#614D45" d="M48.858,30.248c-1.13-1.856-5.877-2.169-7.61-0.554C43.495,30.04,46.052,30.184,48.858,30.248z"/>
			<path opacity="0.4" fill="#D14F2E" d="M38.031,38.454c0.281,0.302-0.553,1.175-1.59,1.283c-0.915,0.099-2.066-0.884-1.557-1.181
				c0.514-0.297,0.816,0.008,1.56-0.019C37.27,38.51,37.702,38.098,38.031,38.454z"/>
			<path fill="#614D45" d="M21.893,30.356c1.637-1.753,6.613-2.388,8.289-0.631C27.362,30.084,25.971,30.042,21.893,30.356z"/>
			<g>
				<path fill="#425361" d="M27.092,36.192c-0.644-0.258-1.439-0.263-2.092-0.005c-1.529-1.139-0.519-5.131,1.652-4.372
					C28.267,32.377,28.439,35.313,27.092,36.192z"/>
			</g>
			<path fill="#C3D5E3" d="M26.281,33.26c0.791-0.137,1.068,1.145,0.404,1.491C25.769,35.236,25.394,33.422,26.281,33.26z"/>
			<g>
				<path fill="#425361" d="M45.904,31.631c1.158,0.741,1.065,3.024,0.237,4.103c-0.619-0.101-1.318-0.099-1.899,0.3
					C41.84,35.307,43.744,30.255,45.904,31.631z"/>
			</g>
			<path fill="#C3D5E3" d="M45.041,32.854c0.758-0.017,0.855,1.322,0.189,1.57C44.31,34.767,44.189,32.875,45.041,32.854z"/>
			<path fill="#121B21" d="M50.676,32.314c0,0-1.976,2.077-5.033,0.368c-1.351-0.754-2.31,0.427-2.31,0.427s0.65-2.348,2.63-1.585
				C47.026,31.937,48.25,33.127,50.676,32.314z"/>
			<path fill="#121B21" d="M20.165,32.969c0,0,2.372,1.966,5.278,0.072c1.274-0.832,2.404,0.127,2.404,0.127
				s-0.592-2.31-2.633-1.212C24.432,32.374,22.621,33.625,20.165,32.969z"/>
			<g>
				<path fill="#FF3B3B" d="M28.047,40.1c1.124,2.116-1.543,3.125-2.639,1.045C26.344,41.595,27.597,41.156,28.047,40.1z"/>
				<path fill="#FF3B3B" d="M43.048,39.736c-0.585,2.199,2.305,2.959,2.872,0.809C45.104,41.07,43.757,40.75,43.048,39.736z"/>
				<g>
					<path fill="#FF3B3B" d="M35.305,47.187c-3.955-0.13-7.131-2.249-8.466-5.063c-0.141-0.29,0.011-0.608,0.331-0.716
						c0.319-0.104,0.693,0.045,0.832,0.341c1.165,2.449,4.011,4.302,7.572,4.323c3.696,0.025,6.874-1.92,7.931-4.884
						c0.103-0.286,0.458-0.432,0.793-0.323c0.333,0.107,0.521,0.427,0.419,0.721c-1.222,3.418-4.824,5.637-9.077,5.606
						C35.529,47.192,35.417,47.19,35.305,47.187z"/>
				</g>
			</g>
		</g>
		<g>
			<path fill="#94ABD4" d="M39.953,2.79c8.678,0.075,8.375,8.311,10.93,13.328c-11.142-3.43-26.379-2.699-37.409,4.741
				c0.316-4.257,0.247-10.251,2.42-12.577C19.051,4.903,29.367,2.698,39.953,2.79z"/>
			<path fill="#BACBE3" d="M14.521,11.038c0,0-0.603-5.02,10.502-6.923c9.693-1.661,16.443-1.723,18.734-0.848
				c2.855,1.091,4.021,4.567,4.021,4.567s-6.265-4.267-21.852-1.567C17.436,7.739,14.521,11.038,14.521,11.038z"/>
			<g>
				<path fill="#BACBE3" d="M58.852,19.521c-3.443-1.499-6.703-3.583-9.094-5.686c-11.298-3.171-26.197-0.469-35.98,4.989
					c-2.49,2.78-4.24,4.419-6.983,6.79c-1.811,1.566-1.686,2.802,1.432,3.897c-4.097-1.755-0.68-4.004,1.468-5.171
					c9.711-5.28,34.587-7.396,47.306-4.487c1.839,0.42,3.442,1.032,2.442,2.501C60.739,20.928,59.979,20.012,58.852,19.521z"/>
			</g>
			<g>
				<path opacity="0.5" fill="#7884AB" d="M37.876,7.807c-1.526,0.636-2.162,2.498-1.79,4.132c0.328,1.449,1.53,2.788,2.953,3.178
					c0.604,1.365,1.119,2.51,2.598,3.001c1.131,0.377,2.325,0.497,3.509,0.363c1.639-0.185,2.961-1.009,4.631-0.711
					c0.729,0.13,2.357,0.677,2.94-0.042c0.846-1.046-1.51-3.029-2.114-3.61c-1.667-1.604-3.471-3.244-5.413-4.512
					c-1.898-1.24-4.371-2.39-6.702-1.978C38.27,7.667,38.066,7.728,37.876,7.807z"/>
				<path fill="#F06799" d="M45.585,3.609c0.841,0.06,1.646,0.491,1.975,1.298c2.003-2.297,6.61-1.22,4.823,2.156
					c5.606-1.237,7.173,6.849,2.204,6.771c0.935,3.388-3.481,4.302-5.067,2.674c-2.341,2.122-9.22,2.511-9.071-1.833
					c-5.478-1.075-5.142-9.167,0.175-9.921c0.797-0.114,1.796-0.068,2.568,0.153C43.573,3.973,44.604,3.539,45.585,3.609z"/>
				<path fill="#DE3E78" d="M42.983,7.124c-4.731,0.759-2.921,7.511,1.241,6.493c-0.2,2.478,3.761,2.229,4.953,1.061
					c-2.037,0.011-2.951-0.664-3.319-2.647c-2.897,1.097-4.628-1.873-2.722-4.049c0.355-0.405,0.764-0.701,1.239-0.953L42.983,7.124
					z"/>
				<path fill="#FF87B3" d="M50.57,11.521c1.52,0.944,3.034,0.49,3.426-0.85c0.459-1.557-2.271-2.931-3.467-2.772
					c0.848-1.901-4.334-2.881-2.4,0.414c-1.026-0.253-3.591-0.554-4.057,0.805c-0.324,0.948,1.203,1.892,1.982,1.981
					c-0.438-1.242,1.233-1.917,2.176-1.413c1.087,0.581,0.945,2.141-0.039,2.716c-0.334,0.195-0.928,0.323-1.396,0.244
					C49.786,14.917,51.297,12.569,50.57,11.521z"/>
			</g>
		</g>
		<g>
			<path fill="#94ABD4" d="M27.731,58.688c0,0.001-2.886-3.484-2.886-3.484c-1.763,1.28-2.631,6.618-3.162,11.796h4.941
				C27.248,63.245,27.731,60.061,27.731,58.688z"/>
		</g>
		<g>
			<path fill="#94ABD4" d="M43.57,55.204c0,0-2.886,3.485-2.886,3.484c0,1.372,0.483,4.557,1.106,8.312h4.94
				C46.2,61.822,45.333,56.484,43.57,55.204z"/>
		</g>
	</g>
</g>
</svg>
