<?xml version="1.0" encoding="utf-8"?>
<!-- Generator: Adobe Illustrator 16.0.0, SVG Export Plug-In . SVG Version: 6.00 Build 0)  -->
<!DOCTYPE svg PUBLIC "-//W3C//DTD SVG 1.1//EN" "http://www.w3.org/Graphics/SVG/1.1/DTD/svg11.dtd">
<svg version="1.1" id="Capa_1" xmlns="http://www.w3.org/2000/svg" xmlns:xlink="http://www.w3.org/1999/xlink" x="0px" y="0px"
	 width="67px" height="67px" viewBox="0 0 67 67" enable-background="new 0 0 67 67" xml:space="preserve">
<g>
	<defs>
		<circle id="SVGID_1_" cx="33.5" cy="33.5" r="33.5"/>
	</defs>
	<clipPath id="SVGID_2_">
		<use xlink:href="#SVGID_1_"  overflow="visible"/>
	</clipPath>
	<g clip-path="url(#SVGID_2_)">
		<g>
			<g>
				<g>
					<path fill="#FFCB9E" d="M25.378,57.582c0.878-0.592,1.109-1.783,0.518-2.662c-0.594-0.876-1.786-1.107-2.662-0.516
						c-6.323,4.271-7.586,8.344-7.531,11.008c0.011,0.542,0.097,1.069,0.218,1.588h4.043c-0.248-0.5-0.415-1.051-0.428-1.668
						C19.486,62.912,21.561,60.16,25.378,57.582z"/>
				</g>
			</g>
			<path fill="#6C98CC" d="M25.43,52.809c-3.7,1.055-8.61,4.004-10.539,9.343c1.552,1.239,4.103,2.48,5.956,2.89
				c0.534-1.96,1.483-3.801,3.118-4.839C25.048,59.514,26.499,52.504,25.43,52.809z"/>
		</g>
		<g>
			<g>
				<g>
					<path fill="#FFCB9E" d="M43.154,54.404c-0.876-0.592-2.068-0.36-2.662,0.516c-0.592,0.879-0.361,2.07,0.518,2.662
						c3.817,2.578,5.892,5.33,5.843,7.75C46.84,65.949,46.672,66.5,46.424,67h4.043c0.121-0.519,0.207-1.046,0.219-1.588
						C50.74,62.748,49.478,58.676,43.154,54.404z"/>
				</g>
			</g>
			<path fill="#6C98CC" d="M40.958,52.809c-1.069-0.305,0.382,6.705,1.464,7.394c1.635,1.038,2.585,2.879,3.119,4.839
				c1.853-0.409,4.403-1.65,5.956-2.89C49.568,56.813,44.658,53.863,40.958,52.809z"/>
		</g>
		<g>
			<path fill="#D9D9D9" d="M41.232,52.383c-4.967-2.667-12.207-1.747-15.509,0.398C21.432,55.574,22.099,60.09,23.207,67h20.309
				C44.696,60.346,45.375,54.607,41.232,52.383z"/>
			<path fill="#FBFBFB" d="M37.991,49.002c-1.819-1.398-5.366-1.623-7.54-1.166c-2.268,0.475-3.771,2.532-3.928,4.648
				c-0.197,2.682,5.382,7.638,6.67,7.71C34.163,60.234,44.317,53.863,37.991,49.002z"/>
			<path fill="#F5B28C" d="M37.27,47.592c-1.54-1.318-4.544-1.529-6.385-1.1c-1.918,0.447-3.191,2.385-3.325,4.379
				c-0.165,2.524,4.558,7.189,5.647,7.258C34.028,58.166,42.627,52.168,37.27,47.592z"/>
			<g>
				<path fill="#255794" d="M26.255,51.854c0,0-4.905,1.705-5.324,2.795C20.66,55.354,21.49,60.041,22.008,67h5.939
					C28.004,62.316,27.68,56.48,26.255,51.854z"/>
			</g>
			<g>
				<path fill="#255794" d="M45.587,54.648c-0.418-1.09-5.345-2.738-5.345-2.738c-1.363,4.43-1.638,10.266-1.547,15.09h5.941
					C45.047,60.383,45.853,55.339,45.587,54.648z"/>
			</g>
		</g>
		<g>
			<path fill="#BA9552" d="M47.815,15.369c1.525-0.389,1.175-4.208,1.055-5.221c-0.114-0.953-0.313-1.961-0.655-2.909
				c-0.393-1.09-0.974-2.102-1.83-2.862c-1.46,2.96-5.495,4.567-8.621,4.024c0.438-0.385,0.767-0.912,0.754-1.505
				c-1.243,0.265-2.393,0.851-3.648,1.084c-4.981,0.93-9.952,1.067-14.13,4.429c-5.889,4.741-5.013,12.444-3.831,18.933
				c0.64,3.514,1.215,7.475,2.854,10.68c1.187,2.32,2.374,1.344,4.115,0.424c2.254-1.188,5.583-1.391,8.084-1.508
				c2.578-0.122,6.34-0.336,8.733,0.79c1.567,0.735,2.396,1.333,3.998,0.104c1.167-0.895,2.032-2.329,2.635-3.65
				c0.97-2.126,1.002-4.257,1.187-6.544c0.238-2.951,1.004-5.391,0.767-8.352c-0.083-1.038-1.345-5.005,0.957-8.36
				C49.432,15.008,48.61,15.167,47.815,15.369z"/>
			<path fill="#FFCB9E" d="M30.787,15.083c-7.916,1.545-13.497,12.93-12.043,23.611c1.089,8.002,7.26,16.779,16.555,16.117
				c9.484-0.676,14.203-12.438,12.977-22.276C46.945,21.836,41.878,12.92,30.787,15.083z"/>
			<path opacity="0.15" fill="#BF3C1B" d="M40.992,16.766c-3.12-0.934-6.344-1.451-9.603-1.508c-2.892-0.05-6.032-0.213-8.726,1.007
				c-1.481,0.669-3.3,1.588-3.854,3.228c-0.453,1.342-0.33,2.903-0.266,4.295c0.063,1.278,0.089,2.66,0.373,3.915
				c0.217,0.959,0.915,2.117,1.658,2.793c1.195-2.37,1.653-6.183,4.459-7.208c1.979-0.724,4.832-0.221,6.898,0.367
				c0.143,0.041,0.28,0.082,0.416,0.123c3.572,1.087,5.779,2.123,9.637,1.172c2.164-0.533,6.555-1.601,5.652-4.625
				C46.924,17.931,43.051,17.382,40.992,16.766z"/>
			<path fill="#FFCB9E" d="M15.981,34.246c-3.888,1.068-2.327,6.746,0.849,7.885c1.018,0.365,2.099,0.416,3.141,0.343
				c0.02-0.03,0.041-0.063,0.063-0.097c0.465-0.738-0.186-4.877-0.425-5.656C19.012,34.76,17.849,33.731,15.981,34.246z"/>
			<path opacity="0.3" fill="#BF3C1B" d="M17.346,36.336c-0.873-0.404-3.055,0.322-2.029,2.029c0.541-1.583,1.507-0.546,1.358,0.58
				c-0.1,0.756-0.91,0.766-0.104,1.734c0.437,0.525,1.32,0.33,1.765,0.051C19.751,39.838,18.412,36.826,17.346,36.336z"/>
			<path fill="#BA9552" d="M42.295,12.889c-3.344-2.833-7.324-3.289-11.525-2.316c-2.565,0.593-5.493,0.946-7.631,2.602
				c-1.741,1.346-3.605,2.784-4.828,4.644c-2.044,3.108-1.018,15.406,0.333,17.217c0.146,0.197,1.778,2.221,2.543,2.162
				c-0.39-2.646-0.405-5.369-0.216-8.035c0.254-3.577,1.079-7.439,5.162-8.084c2.321-0.368,9.698,2.809,11.381,3.165
				c2.256,0.476,7.547-2.047,8.316-2.366c1.896-0.789,1.784-2.958,0.893-4.443C45.62,15.595,43.908,14.257,42.295,12.889z"/>
			<g>
				<path fill="#FFA073" d="M45.061,36.106c-1.342-0.032-3.303,0.545-2.791,2.931c0.273,1.272,5.36,2.27,5.577-0.65
					c0.024-0.302,0-0.563-0.063-0.789C47.458,36.387,46.088,36.13,45.061,36.106z"/>
				<path fill="#FFA073" d="M27.504,37.197c-0.707-1.078-2.158-0.928-3.191-0.65c-1.346,0.357-3.116,1.492-1.842,3.658
					c0.679,1.157,6.066,0.645,5.35-2.258C27.747,37.648,27.639,37.402,27.504,37.197z"/>
				<g>
					<path fill="#305D80" d="M26.379,31.708c-2.041-0.876-3.325,2.743-1.933,3.926c0.647-0.191,1.415-0.121,2.021,0.172
						C27.836,35.098,27.896,32.364,26.379,31.708z"/>
				</g>
				<path opacity="0.3" fill="#B54D26" d="M36.334,38.478c-1.193,0.015-1.665-0.529-2.5-0.032c-0.835,0.494,0.359,2.084,2.47,2.008
					c2.102-0.074,3.016-1.52,2.576-2.057C38.373,37.771,37.656,38.464,36.334,38.478z"/>
				<path fill="#FFDFC2" d="M35.949,32.555c-1.248,0.177-2.338,5.983-1.826,6.388c1.257,0.992,3.882,0.289,4.645-0.508
					C39.07,38.121,38.073,32.252,35.949,32.555z"/>
				<g>
					<path fill="#305D80" d="M46.027,31.572c-2.074-1.245-3.602,2.76-1.889,3.89c0.542-0.358,1.631-0.248,2.16-0.003
						C47.132,34.538,47.141,32.24,46.027,31.572z"/>
				</g>
				<path fill="#86BAE3" d="M25.652,32.341c-0.828,0.282-0.198,1.891,0.609,1.307C26.846,33.224,26.389,32.093,25.652,32.341z"/>
				<path fill="#86BAE3" d="M45.216,32.008c-0.815,0.165-0.425,1.772,0.411,1.315C46.232,32.995,45.942,31.863,45.216,32.008z"/>
				<g>
					<g>
						<path fill="#F7A286" d="M44.96,41.598c-0.573-0.393-1.256-0.709-1.82-1.055c0.052,0.258,0.022,0.425,0.29,0.685
							c-2.424,0.146-4.859,0.336-7.294,0.443c-1.609,0.074-3.217,0.189-4.831,0.217c-1.18,0.019-3.417,0.248-4.342-0.404
							c0.301-0.112,0.64-0.28,0.852-0.493c-0.848-0.059-3.152,0.75-4.285,1.722c0.898-0.373,2.097-0.907,2.904-0.136
							c1.275,1.215,2.683,2.556,4.389,3.686c3.402,2.252,10.045,1.979,11.82-2.332c0.154-0.377,0.943-1.639,1.501-1.773
							c0.259-0.064,1.749,0.342,1.825,0.495C45.76,42.229,45.392,41.893,44.96,41.598z"/>
					</g>
					<path fill="#8F3935" d="M27.158,42.111c0,0,2.795,3.91,8.332,3.896c3.548-0.009,5.869-0.984,6.508-2.341
						c0.699-1.482,2.201-2.04,2.201-2.04C34.57,43.706,27.158,42.111,27.158,42.111z"/>
					<path fill="#FFF9F0" d="M29.221,42.426c0,0,0.184,1.195,2.161,1.621c2.534,0.547,5.257,0.533,8.061,0.129
						c1.891-0.27,2.792-2.17,2.792-2.17S36.841,43.143,29.221,42.426z"/>
					<path fill="#FFF9F0" d="M36.875,44.381c-2.531,0.122-4.638,0.025-5.914-0.607c-0.911-0.448-0.986,0.056-0.788,0.365
						c0,0,0.843,1.627,5.051,1.927c4.044,0.288,6.109-1.713,5.642-2.044C40.4,43.689,39.221,44.268,36.875,44.381z"/>
					<path fill="#E8DAC5" d="M29.221,42.426c0,0,0.148,0.554,0.514,0.834c0,0,9.464-0.82,11.74-0.191c0,0,0.657-0.675,0.76-1.063
						C42.234,42.006,35.629,43.109,29.221,42.426z"/>
					<path fill="#E8DAC5" d="M31.719,44.004c3.419,1.574,7.467,0.117,7.467,0.117C34.919,44.982,31.719,44.004,31.719,44.004z"/>
				</g>
				<path fill="#A16B43" d="M21.867,30.19c3.896,0.069,5.208,0.286,7.912,0.15C28.387,27.849,23.608,28.092,21.867,30.19z"/>
				<path fill="#A16B43" d="M41.732,30.479c2.33,0.121,3.462-0.103,6.819-0.192C47.063,28.198,42.947,27.981,41.732,30.479z"/>
			</g>
			<path fill="#F0D197" d="M45.832,17.017c0.006-0.007,0.014-0.016,0.021-0.023c0,0-0.003,0.001-0.005,0.001
				C45.822,17.023,45.817,17.031,45.832,17.017z"/>
			<path fill="#F0D197" d="M45.853,16.994c-0.007,0.007-0.015,0.016-0.021,0.023c-0.015,0.014-0.01,0.007,0.016-0.022
				c0.002,0,0.003,0,0.003,0c2.521-2.562,2.729-7.642,0.418-10.303c-2.347,3.055-6.981,2.766-10.405,2.716
				c-1.85-0.027-3.592,0.174-5.295,0.554c-2.243,0.501-4.42,1.315-6.691,2.334c-1.646,0.738-3.154,1.523-4.088,3.1
				c-0.486,0.821-0.886,1.788-1.125,2.71c-0.145,0.555,0.066,2.595-0.153,2.875c2.241-2.869,5.393-4.481,9.104-4.627
				c-0.176,0.632-0.24,1.329-0.116,1.997c-0.066-0.357,6.206-2.96,6.399-2.975c-0.494,0.75-3.309,3.048-3.045,3.929
				c-0.016-0.054,7.848-4.9,8.22-5.004c-0.328,1.097-4.635,6.297-3.896,7.191c0.401-0.466,8.195-7.729,8.601-7.931
				c-0.086,0.692-6.594,8.357-6.184,8.803c0.331-0.577,5.412-4.278,5.916-4.636c-0.336,1.388-1.494,3.079-1.932,4.193
				c2.682-1.669,7.315-3.336,6.861-5.465C47.578,16.463,46.623,16.694,45.853,16.994z"/>
		</g>
	</g>
</g>
</svg>
