<?xml version="1.0" encoding="utf-8"?>
<!-- Generator: Adobe Illustrator 16.0.0, SVG Export Plug-In . SVG Version: 6.00 Build 0)  -->
<!DOCTYPE svg PUBLIC "-//W3C//DTD SVG 1.1//EN" "http://www.w3.org/Graphics/SVG/1.1/DTD/svg11.dtd">
<svg version="1.1" id="Capa_1" xmlns="http://www.w3.org/2000/svg" xmlns:xlink="http://www.w3.org/1999/xlink" x="0px" y="0px"
	 width="67px" height="67px" viewBox="0 0 67 67" enable-background="new 0 0 67 67" xml:space="preserve">
<g>
	<defs>
		<circle id="SVGID_1_" cx="33.506" cy="33.494" r="33.494"/>
	</defs>
	<clipPath id="SVGID_2_">
		<use xlink:href="#SVGID_1_"  overflow="visible"/>
	</clipPath>
	<g clip-path="url(#SVGID_2_)">
		<path id="XMLID_49_" fill="#FF9819" d="M28.694,54.754c-4.18,1.622-8.012,5.807-8.148,12.233h5.548
			C25.684,63.198,30.141,54.191,28.694,54.754z"/>
		<path id="XMLID_45_" fill="#FF9819" d="M40.684,54.754c4.18,1.622,8.012,5.807,8.148,12.233h-5.548
			C43.693,63.198,39.237,54.191,40.684,54.754z"/>
		<g>
			<path fill="#FF9819" d="M40.523,54.422c-2.637-2.554-8.951-1.588-11.342,0c-3.136,2.085-2.727,8.137-1.332,10.918
				c0.283,0.566,0.559,1.104,0.787,1.653l12.709-0.006c0.119-0.341,0.246-0.696,0.373-1.074
				C43.129,61.687,43.407,57.215,40.523,54.422z"/>
			<path fill="#FFC566" d="M29.714,55.847c-0.255-0.636-0.28-1.303,0.067-1.963c1.456-2.765,9.23-2.776,9.957,0.518
				c0.125,0.569-0.015,1.144-0.313,1.698C37.264,60.091,31.355,59.956,29.714,55.847z"/>
			<path opacity="0.3" fill="#FFFFFF" d="M41.52,62.148c-0.604,2.65-3.852,3.453-6.689,3.494c-5.598,0.086-7.477-2.828-6.574-6.096
				c0.241-0.875,1.188-1.363,2.297-0.122c1.664,1.861,7.109,1.825,9.099-0.704C40.77,57.295,41.973,60.152,41.52,62.148z"/>
			
				<linearGradient id="SVGID_3_" gradientUnits="userSpaceOnUse" x1="900.1865" y1="53.5254" x2="900.3649" y2="56.4791" gradientTransform="matrix(-1 0 0 1 934.832 0)">
				<stop  offset="0" style="stop-color:#854326"/>
				<stop  offset="1" style="stop-color:#9C552C"/>
			</linearGradient>
			<path fill="url(#SVGID_3_)" d="M38.809,53.305c-0.167-2.933-2.516-4.049-4.182-4.045c-1.666-0.004-4.016,1.112-4.182,4.045
				c-0.079,1.364,0.099,2.155,0.714,2.912c1.612,1.982,5.21,2.119,6.935,0C38.709,55.46,38.886,54.669,38.809,53.305z"/>
		</g>
		<g>
			<g>
				<path fill="#D4A070" d="M31.143,42.268c-0.144-2.889-1.191-5.471-3.104-7.625c-0.742-0.839-1.786-1.384-2.922-1.646
					c-1.603-0.367-3.391-0.167-4.786,0.582c-1.638,0.881-3.062,2.045-4.199,3.516c-0.926,1.197-2.453,2.343-2.829,3.855
					c-0.271,1.088,0.106,2.302,1.272,1.253c-0.37,1.115-0.447,2.375-0.463,3.544c-0.019,1.351,0.674,2.415,1.85,0.984
					c-0.105,1.117-0.437,5.939,1.532,3.429c0.22,0.897,0.041,2.343,0.672,3.103c0.777,0.935,1.636-0.271,1.961-0.951
					c0.089,0.781,0.185,1.996,1.205,2.162c0.906,0.148,1.771-1.088,2.07-1.824c0.282,1.965,1.519,0.6,2.245-0.148
					c0.563,1.487,2.256,1.084,3.286,0.173C31.721,50.195,31.304,45.592,31.143,42.268z"/>
				<g>
					<g>
						<path fill="#F2D89B" d="M10.861,45.367c0.492,0,0.949-0.313,1.109-0.807l0.072-0.219c1.088-3.346,3.12-9.565,16.348-9.036
							c0.644,0.021,1.189-0.476,1.215-1.12c0.026-0.645-0.475-1.189-1.12-1.215C13.472,32.368,10.916,40.252,9.82,43.619
							l-0.069,0.215c-0.201,0.614,0.133,1.274,0.747,1.475C10.618,45.348,10.74,45.367,10.861,45.367z"/>
					</g>
					<g>
						<path fill="#F2D89B" d="M11.508,50.66c0.555,0,1.048-0.398,1.148-0.965c0.098-0.557,2.577-13.627,15.348-12.669
							c0.67,0.052,1.206-0.435,1.253-1.079c0.048-0.643-0.434-1.203-1.077-1.252c-11.938-0.899-16.867,9.157-17.825,14.594
							c-0.113,0.637,0.313,1.242,0.948,1.354C11.371,50.654,11.439,50.66,11.508,50.66z"/>
					</g>
				</g>
				<g>
					<path fill="#F2D89B" d="M13.44,52.737c0.502,0,0.967-0.327,1.118-0.833c1.422-4.74,4.46-11.58,14.387-16.232
						c0.584-0.275,0.835-0.971,0.562-1.555s-0.968-0.836-1.554-0.562C19.752,37.4,14.785,43.017,12.32,51.231
						c-0.187,0.618,0.164,1.271,0.783,1.456C13.215,52.721,13.328,52.737,13.44,52.737z"/>
				</g>
				<g>
					<path fill="#F2D89B" d="M16.126,55.643c0.558,0,1.053-0.402,1.149-0.972c1.074-6.269,4.188-14.284,12.926-16.88
						c0.619-0.184,0.971-0.834,0.787-1.453c-0.184-0.618-0.84-0.969-1.453-0.787c-10.41,3.093-13.594,13.059-14.563,18.726
						c-0.109,0.637,0.318,1.239,0.954,1.351C15.994,55.637,16.06,55.643,16.126,55.643z"/>
				</g>
				<g>
					<path fill="#F2D89B" d="M19.007,57.615c0.581,0,1.084-0.433,1.157-1.023c0.816-6.575,2.922-14.482,12.045-17.3
						c0.616-0.19,0.961-0.846,0.771-1.462c-0.189-0.617-0.843-0.963-1.463-0.771C21,40.307,18.678,49.598,17.845,56.303
						c-0.079,0.641,0.376,1.225,1.017,1.305C18.909,57.613,18.958,57.615,19.007,57.615z"/>
				</g>
				<g>
					<path fill="#F2D89B" d="M22.436,56.725c0.604,0,1.114-0.462,1.165-1.072c0.351-4.279,1.938-11.826,8.636-14.3
						c0.605-0.224,0.915-0.896,0.691-1.501c-0.223-0.605-0.895-0.914-1.501-0.691c-7.913,2.922-9.76,11.467-10.156,16.302
						c-0.053,0.643,0.426,1.208,1.069,1.259C22.373,56.725,22.405,56.725,22.436,56.725z"/>
				</g>
				<g>
					<path fill="#F2D89B" d="M25.705,54.84c0.621,0,1.139-0.49,1.166-1.117c0.161-3.714,1.398-8.669,6.371-11.191
						c0.576-0.293,0.807-0.995,0.513-1.571c-0.291-0.575-0.994-0.805-1.569-0.515c-5.981,3.035-7.461,8.84-7.649,13.176
						c-0.027,0.645,0.472,1.19,1.117,1.219C25.671,54.84,25.688,54.84,25.705,54.84z"/>
				</g>
				<g>
					<path fill="#F2D89B" d="M28.897,53.668c0.62,0,1.137-0.488,1.167-1.113c0.087-1.816,0.629-6.268,3.754-8.332
						c0.539-0.355,0.688-1.081,0.331-1.619c-0.356-0.539-1.082-0.688-1.618-0.331c-3.875,2.558-4.672,7.47-4.803,10.171
						c-0.029,0.644,0.467,1.191,1.112,1.223C28.858,53.667,28.879,53.668,28.897,53.668z"/>
				</g>
				<path opacity="0.5" fill="#CF854D" d="M18.243,34.871c-2.657,0.783-3.087,4.652-2.103,7.587c1.344,4.003,4.169,4.916,5.56,3.435
					c0.496,2.383,4.3,7.165,7.233,6.78c2.279-0.302,2.113-2.763,2.665-4.494c1.299-4.089-1.433-8.13-4.346-10.78
					c-1.958-1.783-5.848-3.17-8.543-2.641C18.553,34.788,18.396,34.826,18.243,34.871z"/>
				<g opacity="0.7">
					<path fill="#AB6A3F" d="M13.672,41.059c0.138,0,0.271-0.074,0.343-0.203c1.067-1.973,3.331-4.212,5.594-4.678
						c0.211-0.043,0.347-0.25,0.303-0.46c-0.043-0.21-0.245-0.348-0.46-0.304c-2.495,0.514-4.969,2.938-6.122,5.069
						c-0.103,0.189-0.032,0.427,0.157,0.528C13.545,41.045,13.608,41.059,13.672,41.059z"/>
				</g>
				<g opacity="0.7">
					<path fill="#AB6A3F" d="M15.381,44.502c0.15,0,0.293-0.088,0.356-0.233c0.671-1.527,2.128-3.604,3.74-4.556
						c0.185-0.111,0.247-0.35,0.138-0.533c-0.11-0.188-0.35-0.246-0.533-0.14c-1.771,1.047-3.313,3.223-4.059,4.915
						c-0.086,0.197,0.004,0.428,0.201,0.514C15.274,44.492,15.328,44.502,15.381,44.502z"/>
				</g>
				<g opacity="0.7">
					<path fill="#AB6A3F" d="M16.374,48.222c0.167,0,0.32-0.108,0.372-0.274c0.436-1.41,1.162-2.787,2.354-4.461
						c0.125-0.176,0.084-0.419-0.091-0.544c-0.177-0.124-0.419-0.084-0.544,0.093c-1.241,1.744-2.001,3.188-2.463,4.682
						c-0.063,0.205,0.052,0.424,0.257,0.486C16.298,48.215,16.335,48.222,16.374,48.222z"/>
				</g>
				<g opacity="0.7">
					<path fill="#AB6A3F" d="M18.889,49.516c0.151,0,0.295-0.09,0.358-0.238l0.239-0.566c0.659-1.57,1.281-3.052,2.299-4.382
						c0.131-0.171,0.099-0.414-0.072-0.545s-0.415-0.099-0.546,0.072c-1.078,1.408-1.75,3.007-2.399,4.554l-0.238,0.563
						c-0.083,0.198,0.008,0.427,0.207,0.511C18.786,49.505,18.838,49.516,18.889,49.516z"/>
				</g>
				<g opacity="0.7">
					<path fill="#AB6A3F" d="M21.438,51.747c0.182,0,0.343-0.126,0.381-0.31c0.29-1.373,0.875-3.295,2.022-4.65
						c0.139-0.164,0.119-0.409-0.046-0.549c-0.165-0.137-0.411-0.117-0.549,0.047c-1.252,1.479-1.882,3.531-2.188,4.992
						c-0.045,0.21,0.09,0.416,0.3,0.462C21.385,51.744,21.413,51.747,21.438,51.747z"/>
				</g>
				<g opacity="0.7">
					<path fill="#AB6A3F" d="M24.623,52.135c0.211,0,0.382-0.166,0.39-0.376c0.023-0.67,0.174-1.322,0.334-2.012
						c0.067-0.29,0.134-0.58,0.191-0.87c0.042-0.213-0.096-0.416-0.308-0.458c-0.216-0.043-0.416,0.097-0.456,0.308
						c-0.056,0.281-0.121,0.563-0.187,0.844c-0.162,0.695-0.328,1.416-0.354,2.161c-0.008,0.216,0.161,0.396,0.376,0.403
						C24.614,52.135,24.619,52.135,24.623,52.135z"/>
				</g>
				<g opacity="0.7">
					<path fill="#AB6A3F" d="M27.228,53.196c0.211,0,0.384-0.167,0.39-0.379c0.021-0.747,0.125-1.396,0.318-1.982
						c0.066-0.204-0.045-0.424-0.249-0.491c-0.206-0.067-0.426,0.045-0.492,0.248c-0.216,0.66-0.333,1.381-0.356,2.204
						c-0.005,0.215,0.163,0.395,0.379,0.4C27.221,53.196,27.225,53.196,27.228,53.196z"/>
				</g>
			</g>
			<path fill="#9C552C" d="M25.76,37.425c2.589-0.516,5.188-0.974,7.789-1.421c4.274-0.736,8.813,5.798,11.418,9.299
				c2.512,3.383,5.242-6.13,5.373-8.908c0.162-3.444,1.292-9.078,0.606-12.902C47.605,4.9,22.493,7.384,19.181,20.369
				c-1.26,4.942-1.812,11.549,0.331,16.44C20.634,39.361,23.655,37.845,25.76,37.425z"/>
			<path fill="#9C552C" d="M20.855,38.146c0.476,7.885,7.084,16.98,14.967,16.939c7.901-0.041,14.77-11.092,14.297-20.779
				c-0.512-10.534-2.343-19.484-15.778-18.31C22.586,17.024,20.224,27.62,20.855,38.146z"/>
			<path fill="#9C552C" d="M19.232,45.106c1.114,0.696,2.422,0.331,3.08-1.595c0.694-0.961,0.075-4.811-0.467-7.225
				c-0.438-1.959-1.499-3.049-3.357-2.685C14.617,34.361,16.434,43.357,19.232,45.106z"/>
			<path opacity="0.4" fill="#661004" d="M20.309,40.103c1.446-0.767,0.362-3.805-0.641-4.36c-0.826-0.457-3.006,0.09-2.131,1.832
				c0.644-1.506,1.51-0.422,1.283,0.665c-0.154,0.729-0.945,0.681-0.23,1.687C18.977,40.468,19.854,40.344,20.309,40.103z"/>
			<path opacity="0.2" fill="#661004" d="M35.582,14.003c-9.47-0.535-16.534,5.943-16.559,19.532
				c0.395,0.01,1.205,0.049,1.768,0.657c0.748,0.812,0.68,1.653,0.873,2.089c0.088,0.222,0.188,0.584,0.936,0.584
				c-0.477-1.859-0.591-3.81-0.477-5.722c0.053-0.901,0.16-1.797,0.322-2.685c0.118-0.637,0.674-1.786,0.189-2.353
				c0.932-0.435,0.541-1.726,0.416-2.466c1.409-0.157,1.854-0.649,2.159-1.897c0.751,0.238,1.318,0.034,1.913-0.456
				c0.682,2.363,3.957,2.484,4.729,0.181c0.297,0.306,0.65,0.55,1.09,0.388c-0.111,2.135,4.68,2.383,4.514,0.329
				c0.83,0.192,0.799,1.423,1.781,1.732c0.954,0.303,2.279-0.071,2.592-1.126c0-0.026,0-0.026-0.004,0.001
				c0.246,0.915,1.748,0.94,2.459,0.791c0.861-0.182,1.316-0.696,1.939-1.267c0.119,0.881,1.135,1.386,1.841,0.784
				c-0.814,0.695,0.861,2.243,1.053,2.766C50.358,29.254,50.778,14.861,35.582,14.003z"/>
			
				<ellipse transform="matrix(0.9895 -0.1442 0.1442 0.9895 -5.9721 3.3408)" fill="#261B18" cx="20.058" cy="42.864" rx="1.564" ry="1.855"/>
			<g>
				<g>
					<path fill="#F2D89B" d="M51.201,35.381c0.569,0,1.068-0.418,1.154-0.999c0.196-1.336,1.736-13.268-4.717-20.491
						c-3.119-3.493-7.5-5.175-13.074-4.982c-5.12,0.172-9.216,1.915-12.173,5.178c-5.452,6.015-5.305,15.313-5.13,18.021
						c0.041,0.635,0.599,1.17,1.224,1.141c0.638-0.03,1.135-0.516,1.117-1.153l-0.009-0.139c-0.159-2.475-0.306-10.965,4.53-16.301
						c2.516-2.776,6.055-4.26,10.52-4.41c4.837-0.16,8.615,1.251,11.253,4.203c4.665,5.224,4.801,14.144,4.146,18.593
						c-0.095,0.639,0.347,1.232,0.985,1.327C51.087,35.377,51.144,35.381,51.201,35.381z"/>
				</g>
				<g>
					<path fill="#F2D89B" d="M40.081,23.139c0.438,0,0.86-0.249,1.06-0.673c1.439-3.066,1.296-8.35-0.344-12.563
						c-0.234-0.602-0.912-0.899-1.512-0.665c-0.602,0.234-0.899,0.912-0.666,1.512c1.602,4.116,1.404,8.597,0.405,10.723
						c-0.273,0.585-0.024,1.281,0.561,1.554C39.746,23.103,39.915,23.139,40.081,23.139z"/>
				</g>
				<g>
					<path fill="#F2D89B" d="M44.205,22.958c0.297,0,0.594-0.112,0.821-0.337c1.363-1.346,3.613-4.25,3.368-8.576
						c-0.035-0.643-0.587-1.141-1.232-1.1c-0.644,0.037-1.137,0.589-1.101,1.233c0.192,3.408-1.595,5.711-2.679,6.78
						c-0.457,0.454-0.463,1.194-0.01,1.653C43.603,22.842,43.904,22.958,44.205,22.958z"/>
				</g>
				<g>
					<path fill="#F2D89B" d="M23.496,22.68c0.362,0,0.718-0.167,0.947-0.482c0.379-0.522,0.264-1.253-0.259-1.633
						c-1.331-0.967-2.462-2.663-2.689-4.028c-0.104-0.637-0.719-1.066-1.343-0.961c-0.638,0.105-1.068,0.708-0.963,1.344
						c0.327,1.975,1.783,4.201,3.621,5.537C23.018,22.606,23.259,22.68,23.496,22.68z"/>
				</g>
				<g>
					<path fill="#F2D89B" d="M37.929,21.013c0.603,0,1.114-0.462,1.164-1.073c0.02-0.241,0.45-5.95-2.099-10.767
						c-0.301-0.572-1.009-0.79-1.579-0.488c-0.57,0.301-0.788,1.009-0.486,1.58c2.232,4.221,1.839,9.434,1.833,9.485
						c-0.051,0.644,0.429,1.208,1.071,1.26C37.865,21.012,37.897,21.013,37.929,21.013z"/>
				</g>
				<g>
					<path fill="#F2D89B" d="M31.999,20.481c0.095,0,0.19-0.012,0.285-0.036c0.626-0.158,1.007-0.793,0.85-1.418
						c-0.047-0.187-1.171-4.636-2.719-8.822c-0.226-0.604-0.897-0.914-1.503-0.69c-0.604,0.224-0.914,0.896-0.689,1.501
						c1.502,4.063,2.633,8.536,2.644,8.582C31,20.128,31.477,20.481,31.999,20.481z"/>
				</g>
				<g>
					<path fill="#F2D89B" d="M43.68,19.106c0.502,0,0.965-0.325,1.117-0.831c0.041-0.135,0.978-3.334-0.251-7.036
						c-0.203-0.612-0.866-0.944-1.478-0.741c-0.611,0.204-0.943,0.865-0.739,1.477c0.985,2.974,0.236,5.604,0.229,5.63
						c-0.182,0.619,0.172,1.269,0.788,1.451C43.457,19.09,43.569,19.106,43.68,19.106z"/>
				</g>
				<g>
					<path fill="#F2D89B" d="M25.619,20.641c0.317,0,0.635-0.13,0.865-0.382c0.433-0.477,0.398-1.212-0.075-1.647
						c-0.048-0.047-1.922-1.838-2.243-4.848c-0.068-0.642-0.641-1.108-1.287-1.038c-0.641,0.068-1.105,0.646-1.037,1.287
						c0.424,3.948,2.886,6.229,2.992,6.325C25.058,20.541,25.338,20.641,25.619,20.641z"/>
				</g>
				<g>
					<path fill="#F2D89B" d="M35.117,22.798c0.061,0,0.122-0.005,0.184-0.015c0.638-0.1,1.073-0.698,0.972-1.336
						c-0.066-0.423-0.095-0.981-0.129-1.627c-0.122-2.381-0.31-5.98-2.678-10.344c-0.309-0.567-1.017-0.778-1.585-0.47
						c-0.568,0.307-0.778,1.017-0.471,1.584c2.116,3.899,2.28,7.05,2.399,9.351c0.036,0.711,0.069,1.326,0.155,1.87
						C34.056,22.387,34.552,22.798,35.117,22.798z"/>
				</g>
				<g>
					<path fill="#F2D89B" d="M29.922,22.218c0.244,0,0.489-0.076,0.7-0.232c0.517-0.387,0.621-1.119,0.235-1.636
						c-1.145-1.532-2.615-3.909-3.834-8.746c-0.157-0.626-0.794-1.007-1.419-0.848c-0.626,0.157-1.005,0.793-0.847,1.419
						c1.029,4.087,2.334,7.041,4.228,9.575C29.216,22.057,29.566,22.218,29.922,22.218z"/>
				</g>
				<g>
					<path fill="#F2D89B" d="M48.211,22.25c0.304,0,0.607-0.117,0.836-0.351c0.183-0.188,1.792-1.877,2.178-3.662
						c0.138-0.631-0.264-1.252-0.895-1.389c-0.627-0.137-1.254,0.264-1.389,0.894c-0.208,0.959-1.203,2.147-1.568,2.525
						c-0.449,0.463-0.439,1.202,0.022,1.651C47.623,22.141,47.918,22.25,48.211,22.25z"/>
				</g>
				<g>
					<path fill="#F2D89B" d="M49.892,24.321c0.22,0,0.442-0.062,0.64-0.19l1.932-1.267c0.539-0.355,0.688-1.079,0.335-1.619
						c-0.354-0.54-1.08-0.688-1.619-0.336l-1.93,1.267c-0.54,0.354-0.689,1.079-0.336,1.618
						C49.137,24.137,49.511,24.321,49.892,24.321z"/>
				</g>
				<g>
					<path fill="#F2D89B" d="M21.578,25.393c0.366,0,0.727-0.171,0.954-0.493c0.372-0.526,0.247-1.256-0.277-1.629
						c-0.559-0.396-2.103-1.687-2.544-2.884c-0.224-0.606-0.897-0.917-1.5-0.692c-0.605,0.222-0.915,0.894-0.692,1.501
						c0.771,2.092,3.121,3.796,3.386,3.983C21.109,25.323,21.345,25.393,21.578,25.393z"/>
				</g>
				<g>
					<path fill="#F2D89B" d="M50.936,26.817c0.086,0,0.171-0.01,0.258-0.029l1.135-0.254c0.631-0.141,1.026-0.765,0.887-1.396
						c-0.142-0.63-0.771-1.023-1.396-0.885l-1.137,0.255c-0.63,0.141-1.026,0.765-0.887,1.396
						C49.919,26.446,50.4,26.817,50.936,26.817z"/>
				</g>
				<g>
					<path fill="#F2D89B" d="M51.281,29.699c0.07,0,0.142-0.008,0.213-0.021l0.808-0.15c0.635-0.117,1.054-0.727,0.936-1.362
						c-0.116-0.634-0.728-1.057-1.36-0.936L51.07,27.38c-0.636,0.118-1.055,0.728-0.938,1.362
						C50.237,29.305,50.729,29.699,51.281,29.699z"/>
				</g>
				<g>
					<path fill="#F2D89B" d="M51.407,32.721c0.056,0,0.113-0.004,0.171-0.012l0.344-0.051c0.638-0.093,1.079-0.687,0.985-1.325
						c-0.095-0.64-0.689-1.082-1.327-0.986l-0.342,0.049c-0.639,0.095-1.079,0.688-0.986,1.327
						C50.338,32.303,50.837,32.721,51.407,32.721z"/>
				</g>
				<g>
					<path fill="#F2D89B" d="M51.571,35.422c0.587,0,1.091-0.439,1.16-1.035c0.073-0.641-0.387-1.22-1.028-1.293l-0.371-0.042
						c-0.649-0.076-1.222,0.387-1.295,1.029c-0.072,0.641,0.388,1.22,1.029,1.293l0.37,0.041
						C51.482,35.42,51.527,35.422,51.571,35.422z"/>
				</g>
				<g>
					<path fill="#F2D89B" d="M21.045,28.284c0.402,0,0.795-0.208,1.012-0.582c0.324-0.558,0.135-1.273-0.424-1.597l-3.597-2.089
						c-0.558-0.323-1.273-0.136-1.598,0.424c-0.324,0.558-0.135,1.272,0.423,1.598l3.598,2.087
						C20.643,28.232,20.846,28.284,21.045,28.284z"/>
				</g>
				<g>
					<path fill="#F2D89B" d="M20.496,31.14c0.428,0,0.842-0.237,1.046-0.646c0.288-0.577,0.056-1.28-0.521-1.569l-3.128-1.567
						c-0.579-0.29-1.281-0.056-1.568,0.521c-0.289,0.577-0.057,1.28,0.521,1.569l3.129,1.567
						C20.143,31.099,20.32,31.14,20.496,31.14z"/>
				</g>
				<g>
					<path fill="#F2D89B" d="M20.652,34.176c0.465,0,0.905-0.28,1.087-0.739c0.237-0.601-0.057-1.279-0.657-1.518l-2.925-1.156
						c-0.598-0.235-1.28,0.056-1.517,0.657c-0.237,0.601,0.057,1.279,0.657,1.517l2.925,1.157
						C20.363,34.15,20.509,34.176,20.652,34.176z"/>
				</g>
				<g opacity="0.7">
					<path fill="#AB6A3F" d="M42.314,19.1c0.176,0,0.336-0.121,0.379-0.3c0.406-1.705,0.342-4.692-0.4-6.424
						c-0.085-0.198-0.315-0.289-0.512-0.205c-0.197,0.084-0.289,0.313-0.204,0.512c0.671,1.566,0.728,4.385,0.358,5.936
						c-0.051,0.209,0.079,0.419,0.288,0.47C42.254,19.096,42.284,19.1,42.314,19.1z"/>
				</g>
				<g opacity="0.7">
					<path fill="#AB6A3F" d="M44.5,18.978c0.157,0,0.306-0.096,0.364-0.253c0.251-0.67,0.61-1.532,0.889-2.199l0.216-0.517
						c0.081-0.198-0.014-0.426-0.213-0.507c-0.198-0.082-0.426,0.012-0.509,0.21l-0.214,0.514c-0.28,0.676-0.645,1.548-0.898,2.226
						c-0.075,0.201,0.026,0.426,0.228,0.501C44.407,18.97,44.454,18.978,44.5,18.978z"/>
				</g>
				<g opacity="0.7">
					<path fill="#AB6A3F" d="M47.295,20.241c0.147,0,0.288-0.084,0.354-0.229c0.111-0.24,0.244-0.481,0.377-0.724
						c0.162-0.295,0.324-0.593,0.457-0.896c0.085-0.198-0.006-0.426-0.203-0.511c-0.199-0.085-0.427,0.004-0.513,0.202
						c-0.121,0.28-0.274,0.556-0.425,0.83c-0.143,0.26-0.284,0.519-0.402,0.777c-0.089,0.195-0.003,0.426,0.193,0.517
						C47.186,20.23,47.24,20.241,47.295,20.241z"/>
				</g>
				<g opacity="0.7">
					<path fill="#AB6A3F" d="M49.217,22.437c0.095,0,0.189-0.035,0.264-0.102c0.228-0.21,0.502-0.375,0.793-0.478
						c0.203-0.07,0.311-0.293,0.239-0.496c-0.07-0.203-0.291-0.312-0.495-0.239c-0.392,0.136-0.759,0.357-1.064,0.637
						c-0.158,0.146-0.169,0.393-0.023,0.551C49.008,22.395,49.111,22.437,49.217,22.437z"/>
				</g>
				<g opacity="0.7">
					<path fill="#AB6A3F" d="M39.146,17.744c0.186,0,0.348-0.131,0.382-0.318c0.36-1.922,0.048-3.882-0.952-5.995
						c-0.094-0.195-0.328-0.275-0.52-0.186c-0.194,0.092-0.277,0.325-0.186,0.52c0.93,1.958,1.22,3.763,0.893,5.518
						c-0.04,0.211,0.1,0.415,0.311,0.455C39.1,17.742,39.123,17.744,39.146,17.744z"/>
				</g>
				<g opacity="0.7">
					<path fill="#AB6A3F" d="M36.601,19.124c0.041,0,0.081-0.006,0.123-0.02c0.204-0.067,0.314-0.29,0.246-0.494
						c-0.296-0.885-0.365-1.848-0.439-2.867c-0.108-1.519-0.224-3.089-1.136-4.44c-0.123-0.178-0.367-0.224-0.541-0.105
						c-0.179,0.121-0.225,0.363-0.105,0.541c0.797,1.179,0.898,2.579,1.006,4.061c0.074,1.022,0.151,2.079,0.477,3.058
						C36.285,19.021,36.438,19.124,36.601,19.124z"/>
				</g>
				<g opacity="0.7">
					<path fill="#AB6A3F" d="M32.979,17.897c0.008,0,0.015,0,0.022-0.001c0.214-0.012,0.38-0.196,0.366-0.41
						c-0.069-1.235-0.509-2.465-0.934-3.656c-0.178-0.497-0.352-0.985-0.493-1.463c-0.062-0.206-0.276-0.324-0.485-0.262
						c-0.205,0.062-0.322,0.279-0.262,0.484c0.146,0.491,0.324,0.993,0.507,1.502c0.405,1.138,0.826,2.315,0.89,3.438
						C32.602,17.738,32.773,17.897,32.979,17.897z"/>
				</g>
				<g opacity="0.7">
					<path fill="#AB6A3F" d="M29.636,18.638c0.087,0,0.174-0.028,0.246-0.087c0.166-0.135,0.192-0.381,0.057-0.547
						c-0.905-1.118-1.454-2.937-1.47-4.866c-0.002-0.214-0.176-0.387-0.391-0.387h-0.002c-0.217,0.001-0.389,0.177-0.387,0.393
						c0.017,2.101,0.631,4.102,1.645,5.351C29.411,18.589,29.522,18.638,29.636,18.638z"/>
				</g>
				<g opacity="0.7">
					<path fill="#AB6A3F" d="M26.236,19.001c0.104,0,0.207-0.042,0.284-0.122c0.146-0.157,0.14-0.403-0.017-0.551
						c-0.845-0.796-1.402-2.352-1.748-3.454c-0.066-0.206-0.28-0.322-0.49-0.256c-0.205,0.065-0.319,0.284-0.255,0.489
						c0.405,1.286,0.993,2.878,1.958,3.789C26.045,18.966,26.14,19.001,26.236,19.001z"/>
				</g>
				<g opacity="0.7">
					<path fill="#AB6A3F" d="M23.712,19.933c0.13,0,0.257-0.065,0.33-0.183c0.114-0.183,0.06-0.424-0.123-0.538
						c-0.476-0.298-0.796-0.8-1.136-1.331c-0.151-0.236-0.301-0.47-0.462-0.686c-0.13-0.172-0.376-0.206-0.546-0.077
						c-0.171,0.13-0.206,0.375-0.077,0.546c0.149,0.199,0.29,0.417,0.429,0.635c0.37,0.581,0.755,1.182,1.379,1.573
						C23.568,19.913,23.641,19.933,23.712,19.933z"/>
				</g>
				<g opacity="0.7">
					<path fill="#AB6A3F" d="M21.98,23.081c0.112,0,0.224-0.048,0.302-0.142c0.136-0.166,0.113-0.411-0.053-0.548
						c-0.651-0.539-1.052-1.045-1.224-1.544c-0.069-0.204-0.293-0.313-0.496-0.243c-0.203,0.069-0.311,0.292-0.241,0.495
						c0.22,0.64,0.698,1.261,1.465,1.893C21.806,23.051,21.894,23.081,21.98,23.081z"/>
				</g>
				<g opacity="0.7">
					<path fill="#AB6A3F" d="M21.047,25.364c0.161,0,0.312-0.101,0.368-0.262c0.07-0.203-0.038-0.424-0.241-0.496
						c-0.501-0.175-0.99-0.559-1.411-0.908c-0.167-0.138-0.412-0.115-0.548,0.052c-0.138,0.166-0.115,0.411,0.051,0.549
						c0.473,0.392,1.029,0.827,1.654,1.043C20.961,25.358,21.005,25.364,21.047,25.364z"/>
				</g>
				<g opacity="0.7">
					<path fill="#AB6A3F" d="M19.539,28.597c0.097,0,0.195-0.036,0.271-0.109c0.153-0.149,0.158-0.396,0.009-0.551
						c-0.282-0.292-0.606-0.559-0.938-0.775c-0.182-0.116-0.423-0.065-0.54,0.116c-0.116,0.18-0.064,0.421,0.115,0.539
						c0.283,0.184,0.561,0.412,0.803,0.662C19.336,28.558,19.438,28.597,19.539,28.597z"/>
				</g>
				<g opacity="0.7">
					<path fill="#AB6A3F" d="M20.075,31.479c0.122,0,0.243-0.058,0.319-0.166c0.123-0.176,0.08-0.419-0.096-0.542
						c-0.432-0.303-0.922-0.502-1.417-0.578c-0.21-0.034-0.413,0.113-0.444,0.326c-0.033,0.212,0.114,0.412,0.326,0.444
						c0.373,0.056,0.76,0.215,1.088,0.445C19.92,31.458,19.998,31.479,20.075,31.479z"/>
				</g>
				<g>
					<path fill="#FAE7BB" d="M38.041,18.584c0.01,0,0.021,0,0.031,0c0.644-0.016,1.154-0.552,1.139-1.197
						c-0.046-1.804-0.71-3.725-1.354-5.583c-0.295-0.853-0.574-1.659-0.766-2.385c-0.166-0.625-0.803-0.998-1.429-0.832
						c-0.624,0.165-0.996,0.804-0.831,1.428c0.214,0.811,0.507,1.657,0.816,2.553c0.585,1.688,1.189,3.434,1.225,4.877
						C36.889,18.081,37.41,18.584,38.041,18.584z"/>
				</g>
				<g>
					<path fill="#FAE7BB" d="M40.815,20.347c0.487,0,0.915-0.357,0.988-0.854c0.562-3.816-0.493-8.306-1.216-9.642
						c-0.264-0.484-0.871-0.664-1.355-0.403c-0.486,0.263-0.666,0.869-0.403,1.355c0.509,0.941,1.489,5.051,0.996,8.399
						c-0.08,0.547,0.297,1.054,0.845,1.136C40.718,20.343,40.767,20.347,40.815,20.347z"/>
				</g>
				<g>
					<path fill="#FAE7BB" d="M43.874,18.003c0.488,0,0.917-0.358,0.988-0.855c0.125-0.847,0.692-5.125-0.25-6.259
						c-0.353-0.424-0.982-0.484-1.407-0.13c-0.404,0.336-0.477,0.923-0.179,1.345c0.182,0.492,0.159,2.681-0.143,4.756
						c-0.08,0.545,0.3,1.053,0.845,1.133C43.777,18,43.827,18.003,43.874,18.003z"/>
				</g>
				<g>
					<path fill="#FAE7BB" d="M45.326,21.486c0.309,0,0.614-0.144,0.811-0.414c1.998-2.758,2.102-6.466,2.105-6.623
						c0.011-0.552-0.428-1.009-0.979-1.021c-0.567-0.036-1.008,0.424-1.021,0.978c0,0.032-0.089,3.235-1.726,5.493
						c-0.324,0.448-0.225,1.072,0.223,1.396C44.917,21.423,45.122,21.486,45.326,21.486z"/>
				</g>
				<g>
					<path fill="#FAE7BB" d="M49.027,21.096c0.232,0,0.466-0.082,0.654-0.246c0.594-0.513,0.916-1.209,1.149-1.719
						c0.066-0.141,0.118-0.268,0.173-0.351c0.365-0.415,0.311-1.03-0.104-1.395c-0.415-0.366-1.06-0.309-1.424,0.107
						c-0.19,0.217-0.315,0.488-0.461,0.801c-0.167,0.362-0.375,0.814-0.643,1.046c-0.418,0.362-0.462,0.993-0.102,1.41
						C48.47,20.979,48.748,21.096,49.027,21.096z"/>
				</g>
				<g>
					<path fill="#FAE7BB" d="M50.541,23.677c0.191,0,0.387-0.056,0.557-0.17c0.045-0.028,0.166-0.099,0.305-0.181
						c0.534-0.313,0.694-0.412,0.81-0.507c0.422-0.356,0.477-0.987,0.122-1.41c-0.348-0.411-0.955-0.474-1.377-0.148
						c-0.103,0.07-0.355,0.217-0.567,0.341c-0.192,0.113-0.356,0.212-0.408,0.246c-0.458,0.31-0.579,0.93-0.271,1.389
						C49.903,23.522,50.22,23.677,50.541,23.677z"/>
				</g>
				<g>
					<path fill="#FAE7BB" d="M34.895,19.554c0.031,0,0.063-0.002,0.095-0.006c0.55-0.052,0.953-0.539,0.901-1.088
						c-0.209-2.21-1.683-6.879-2.536-8.828c-0.223-0.505-0.813-0.734-1.318-0.515c-0.505,0.222-0.735,0.811-0.515,1.317
						c0.789,1.797,2.197,6.286,2.379,8.214C33.949,19.165,34.385,19.554,34.895,19.554z"/>
				</g>
				<g>
					<path fill="#FAE7BB" d="M31.328,17.849c0.125,0,0.248-0.022,0.369-0.069c0.514-0.204,0.766-0.785,0.562-1.299
						c-0.153-0.384-0.396-1.252-0.656-2.171c-0.573-2.025-1.009-3.514-1.425-4.21c-0.284-0.474-0.896-0.629-1.371-0.347
						c-0.475,0.283-0.63,0.897-0.348,1.371c0.313,0.525,0.857,2.454,1.219,3.729c0.286,1.012,0.532,1.886,0.723,2.365
						C30.555,17.611,30.932,17.849,31.328,17.849z"/>
				</g>
				<g>
					<path fill="#FAE7BB" d="M28.813,20.395c0.226,0,0.455-0.078,0.642-0.234c0.423-0.356,0.478-0.987,0.122-1.41
						c-0.643-0.765-1.325-2.982-1.823-4.601c-0.429-1.388-0.705-2.264-1.001-2.767c-0.281-0.476-0.895-0.635-1.368-0.355
						c-0.477,0.279-0.636,0.893-0.354,1.369c0.191,0.326,0.521,1.397,0.813,2.342c0.608,1.979,1.299,4.222,2.204,5.299
						C28.242,20.273,28.526,20.395,28.813,20.395z"/>
				</g>
				<g>
					<path fill="#FAE7BB" d="M24.587,19.593c0.235,0,0.471-0.083,0.66-0.25c0.415-0.365,0.456-0.995,0.091-1.412
						c-0.341-0.414-1.325-3.018-1.334-4.053c-0.005-0.55-0.452-0.992-1-0.992c-0.003,0-0.006,0-0.009,0
						c-0.552,0.006-0.996,0.457-0.991,1.009c0.012,1.458,1.146,4.577,1.832,5.356C24.033,19.478,24.31,19.593,24.587,19.593z"/>
				</g>
				<g>
					<path fill="#FAE7BB" d="M22.65,21.792c0.239,0,0.481-0.086,0.674-0.262c0.407-0.373,0.436-1.005,0.064-1.413
						c-0.352-0.398-1.873-2.875-2.037-3.425c-0.157-0.528-0.708-0.833-1.245-0.671c-0.529,0.158-0.828,0.716-0.671,1.245
						c0.287,0.959,2.068,3.755,2.475,4.201C22.109,21.683,22.379,21.792,22.65,21.792z"/>
				</g>
				<g>
					<path fill="#FAE7BB" d="M19.954,23.554c0.26,0,0.521-0.101,0.716-0.302c0.385-0.396,0.377-1.028-0.018-1.415
						c-0.23-0.222-0.939-1.074-1.07-1.298c-0.277-0.477-0.89-0.638-1.366-0.36c-0.478,0.279-0.639,0.891-0.36,1.367
						c0.256,0.44,1.107,1.439,1.4,1.726C19.45,23.461,19.702,23.554,19.954,23.554z"/>
				</g>
				<g>
					<path fill="#FAE7BB" d="M18.879,26.751c0.301,0,0.601-0.137,0.797-0.395c0.334-0.439,0.248-1.067-0.19-1.401
						c-0.275-0.21-0.573-0.413-0.857-0.585c-0.472-0.289-1.087-0.138-1.374,0.334c-0.286,0.472-0.136,1.087,0.336,1.374
						c0.228,0.139,0.464,0.301,0.684,0.47C18.455,26.684,18.668,26.751,18.879,26.751z"/>
				</g>
				<g>
					<path fill="#FAE7BB" d="M51.31,26.728c0.222,0,0.438-0.038,0.648-0.115c0.521-0.186,0.79-0.758,0.604-1.278
						c-0.187-0.52-0.759-0.791-1.277-0.603c-0.558-0.103-1.052,0.256-1.151,0.799c-0.102,0.543,0.271,1.063,0.814,1.164
						C51.068,26.716,51.189,26.728,51.31,26.728z"/>
				</g>
				<g>
					<path fill="#FAE7BB" d="M51.463,29.914c0.153,0,0.304-0.034,0.442-0.101c0.427-0.004,0.821-0.282,0.95-0.713
						c0.16-0.528-0.141-1.086-0.67-1.246c-0.566-0.17-1.144-0.008-1.499,0.432c-0.347,0.429-0.28,1.059,0.15,1.405
						C51.021,29.841,51.243,29.914,51.463,29.914z"/>
				</g>
			</g>
		</g>
		<g>
			<path fill="#BF6C3C" d="M47.342,37.242c0.122,0.148,0.223,0.321,0.295,0.528c0.701,2-3.901,1.831-4.52,0.998
				c-1.155-1.563,0.326-2.153,1.471-2.262C45.462,36.418,46.699,36.457,47.342,37.242z"/>
			<path fill="#BF6C3C" d="M29.521,37.623c0.132,0.137,0.245,0.299,0.332,0.496c0.852,1.891-3.427,2.166-4.607,1.334
				c-1.639-1.154,0.324-2.229,1.461-2.396C27.576,36.928,28.818,36.898,29.521,37.623z"/>
			<path fill="#261B18" d="M28.813,32.278c-2.685-0.716-4.359,2.28-2.528,3.247c0.852-0.156,1.859-0.104,2.654,0.135
				C30.734,35.068,30.808,32.813,28.813,32.278z"/>
			<path opacity="0.4" fill="#661004" d="M38.626,36.938c-0.419-0.395-1.168,0.125-1.911,0.188
				c-0.667,0.058-1.287-0.266-1.887,0.109c-0.601,0.375,0.211,1.39,1.982,1.215C38.577,38.277,38.985,37.273,38.626,36.938z"/>
			<path fill="#BF6C3C" d="M36.433,33.972c-1.267-0.017-2.055,2.394-1.454,3.124c0.421,0.51,3.192,0.293,3.574-0.365
				C38.689,36.488,37.643,33.985,36.433,33.972z"/>
			<path opacity="0.7" fill="#F0DED1" d="M28.611,33.854c-0.814,0.233-0.189,1.562,0.604,1.074
				C29.788,34.577,29.336,33.646,28.611,33.854z"/>
			<path fill="#261B18" d="M45.874,31.573c-2.753-0.355-4.017,2.837-2.071,3.556c0.82-0.273,1.826-0.354,2.647-0.222
				C48.15,34.08,47.922,31.834,45.874,31.573z"/>
			<path opacity="0.7" fill="#F0DED1" d="M45.799,33.212c-0.76,0.339,0.023,1.574,0.73,0.989
				C47.038,33.777,46.476,32.913,45.799,33.212z"/>
			<g>
				<path fill="#D47B48" d="M28.579,41.566c4.239-0.121,11.501-1.188,16.141-0.409c0.427,0.071,0.68,0.146,0.345,0.356
					c-1.023,0.65-2.344,1.713-2.464,2.59c-0.248,1.785-0.703,5.174-5.553,5.213c-5.796,0.048-8.278-5.707-8.933-7.273
					C27.962,41.677,28.236,41.576,28.579,41.566z"/>
				<path fill="#78231F" d="M28.77,42.141c0,0,6.583,1.467,15.354-0.635c0,0-1.403,0.625-1.763,2.161
					c-0.27,1.149-0.932,2.794-6.043,3.007C30.642,46.907,28.77,42.141,28.77,42.141z"/>
				<path fill="#FFF7EA" d="M30.609,42.608c0,0,0.006,1.554,1.73,2.117c2.214,0.719,4.719,0.769,7.303,0.153
					c1.739-0.417,2.82-2.785,2.82-2.785S37.621,42.935,30.609,42.608z"/>
				<path fill="#FFF7EA" d="M31.218,44.91c-0.165-0.389-0.138-0.83,0.796-0.529c1.12,0.365,3.196,0.603,5.623,0.539
					c2.426-0.066,3.021-0.881,3.437-0.47c0.416,0.41-1.341,2.464-5.199,2.275C31.464,46.508,31.218,44.91,31.218,44.91z"/>
				<path fill="#ECDCC4" d="M30.765,43.266c0,0,9.2-0.885,11.215-0.301c0,0,0.371-0.499,0.483-0.871c0,0-6.513,0.867-11.86,0.494
					C30.603,42.588,30.638,43.059,30.765,43.266z"/>
				<path fill="#ECDCC4" d="M32.518,44.385c0,0,3.276,0.876,8.026-0.01C40.544,44.375,36.273,45.863,32.518,44.385z"/>
			</g>
			<path fill="#161110" d="M21.819,31.642c0,0,0.813,2.776,5.495,1.063c1.903-0.695,2.969,1.322,2.969,1.322
				s-0.013-3.215-2.834-2.569C26.008,31.793,24.182,33.315,21.819,31.642z"/>
			<path fill="#161110" d="M51.053,31.321c0,0-0.926,2.613-5.16,1.047c-1.94-0.717-2.96,1.152-2.96,1.152s0.151-3.114,2.795-2.45
				C47.08,31.411,48.742,32.911,51.053,31.321z"/>
			<path fill="#261B18" d="M48.545,29.054c-0.195-0.693-1.881-1.456-3.568-1.317c-1.848,0.149-3.65,1.261-3.434,2.171
				c0.238,1.021,1.591-0.61,3.396-1.047C47.201,28.317,48.611,29.289,48.545,29.054z"/>
			<path fill="#261B18" d="M23.606,29.307c0.082-0.682,2.316-1.328,4.391-1.136c2.269,0.208,4.472,1.339,4.204,2.201
				c-0.301,0.973-1.853-0.568-4.066-1.051C25.361,28.718,23.555,29.752,23.606,29.307z"/>
		</g>
	</g>
</g>
</svg>
