<?xml version="1.0" encoding="utf-8"?>
<!-- Generator: Adobe Illustrator 16.0.0, SVG Export Plug-In . SVG Version: 6.00 Build 0)  -->
<!DOCTYPE svg PUBLIC "-//W3C//DTD SVG 1.1//EN" "http://www.w3.org/Graphics/SVG/1.1/DTD/svg11.dtd">
<svg version="1.1" id="Capa_1" xmlns="http://www.w3.org/2000/svg" xmlns:xlink="http://www.w3.org/1999/xlink" x="0px" y="0px"
	 width="67px" height="67px" viewBox="0 0 67 67" enable-background="new 0 0 67 67" xml:space="preserve">
<g>
	<defs>
		<circle id="SVGID_1_" cx="33.52" cy="33.492" r="33.507"/>
	</defs>
	<clipPath id="SVGID_2_">
		<use xlink:href="#SVGID_1_"  overflow="visible"/>
	</clipPath>
	<g clip-path="url(#SVGID_2_)">
		<g>
			<g>
				<path fill="#FFCB9E" d="M27.484,59.91l-2.14-3.621c-3.497,1.297-4.295,4.246-5.136,7.366c-0.293,1.082-0.608,2.214-1.044,3.344
					h5.192c0.274-0.846,0.502-1.668,0.713-2.447C25.766,61.973,26.254,60.368,27.484,59.91z"/>
			</g>
		</g>
		<g>
			<g>
				<path fill="#FFCB9E" d="M41.968,56.289l-2.14,3.621c1.23,0.458,1.718,2.063,2.414,4.642c0.21,0.779,0.438,1.602,0.713,2.447
					h5.191c-0.435-1.13-0.75-2.262-1.043-3.344C46.262,60.535,45.465,57.586,41.968,56.289z"/>
			</g>
		</g>
		<g>
			<path fill="#FFCB9E" d="M34.076,53.65c-5.73-0.072-9.521,1.729-9.541,2.287c-0.213,6.028,1.807,7.297,3.708,8.637
				c1.329,0.937,9.653,0.869,10.984,0.014c2.117-1.361,4.019-2.695,3.843-8.486C43.055,55.59,39.585,53.72,34.076,53.65z"/>
			<path fill="#765AA3" d="M41.863,62.912c-0.619-1.534-0.355-3.117-0.055-7.865c-0.377-0.24-0.709-0.381-1.385-0.611
				c0.229,8.165-1.71,9.653-6.733,9.653c-4.442,0-6.742-0.968-6.452-9.84c-0.931,0.267-1.226,0.354-1.656,0.651
				c0.277,3.994,0.592,6.363-0.095,7.934c0.03,1.373,0.101,2.791,0.173,4.165h16.035C41.762,65.651,41.83,64.258,41.863,62.912z"/>
		</g>
		<g>
			<path fill="#2B221C" d="M45.863,11.899c-5.16-5.664-13.731-6.27-23.423-2.078c0.888,0.063,2.703,0.235,5.032-0.207
				c-5.088,2.343-11.104,5.429-12.419,11.421c-3.251,14.826,8.97,7.985,13.123,9.172c4.709,1.344,16.427-0.176,19.706-5.054
				c1.477-2.195,1.561-5.504,0.717-8.422C48.045,14.81,46.999,13.144,45.863,11.899z"/>
			<path fill="#FFCB9E" d="M30.479,15.136c-7.957,1.552-13.563,12.992-12.103,23.725c1.095,8.038,7.295,16.857,16.635,16.193
				c9.526-0.679,14.269-12.498,13.038-22.383C46.71,21.924,41.62,12.965,30.479,15.136z"/>
			<path opacity="0.3" fill="#BF3C1B" d="M40.966,17.09c-3.077-0.896-6.258-1.392-9.472-1.447c-2.852-0.047-5.948-0.204-8.606,0.965
				c-1.46,0.643-3.254,1.522-3.801,3.093c-0.447,1.285-0.977,2.987-0.26,4.115c1.519,2.388,4.489,0.958,5.612,0.375
				c2.443-1.265,13.539-0.401,18.715-0.411c2.15-0.002,5.259-0.378,4.366-3.282C46.817,18.205,42.997,17.679,40.966,17.09z"/>
			<path fill="#FFCB9E" d="M15.601,34.39c-3.907,1.077-2.341,6.782,0.852,7.925c1.022,0.367,2.109,0.418,3.156,0.344
				c0.02-0.032,0.04-0.064,0.062-0.098c0.468-0.742-0.186-4.898-0.425-5.68C18.644,34.907,17.476,33.873,15.601,34.39z"/>
			<path opacity="0.3" fill="#C94614" d="M16.971,36.49c-0.877-0.404-3.07,0.323-2.039,2.041c0.544-1.592,1.513-0.549,1.365,0.582
				c-0.1,0.759-0.915,0.77-0.105,1.744c0.439,0.525,1.326,0.33,1.773,0.048C19.389,40.01,18.041,36.982,16.971,36.49z"/>
			<path fill="#2B221C" d="M42.982,12.068c-6.012-3.151-15.249-2.329-20.301,1.421c-3.433,2.546-5.242,5.608-5.037,9.888
				c0.11,2.348,3.269,2.709,4.599,1.027c1.138-1.439,2.736-1.813,4.56-1.879c3.019-0.11,14.842-0.668,17.618,0.283
				c1.522,0.521,3.544,1.311,3.849-1.11c0.333-2.648-0.376-5.399-2.193-7.326C45.204,13.447,44.154,12.682,42.982,12.068z"/>
			<path fill="#45362E" d="M44.358,13.08c-2.272-2.163-5.453-3.821-8.524-4.106c-1.603-0.151-4.819-0.087-6.35,0.585
				c0.509,0.281,1.834,0.571,2.275,0.928c-2.219,0.518-4.347,1.153-6.438,2.101c-0.641,0.292-5.896,3.859-5.895,3.86
				c1.462,0.794,3.184,0.498,4.76,0.146c2.407-0.535,4.788-0.75,7.212-0.196c2.25,0.512,4.271,1.634,6.503,2.155
				c0.066-1.008-0.897-1.889-1.325-2.572c1.277-0.021,6.171,3.075,7.175,3.89c-0.241-0.858-1.43-2.67-1.56-3.585
				c1.247,0.186,4.077,2.708,4.938,4.165c0.088-1.151-0.022-2.647-0.337-3.653C46.328,15.313,45.476,14.145,44.358,13.08z"/>
			<path fill="#BF795C" d="M16.139,28.102c-0.116,2.703,0.126,5.734,0.283,6.157c1.865,0.22,4.163,2.735,4.163,2.735
				c-0.646-4.53,0.06-6.962,0.957-11.974C19.788,24.997,16.243,25.672,16.139,28.102z"/>
		</g>
		<g>
			<path fill="#FFA073" d="M46.572,37.353c-0.617-0.907-1.952-1.099-2.907-1.116c-1.248-0.025-2.911,0.407-1.813,2.197
				c0.586,0.953,5.55,1.703,4.987-0.486C46.779,37.72,46.69,37.524,46.572,37.353z"/>
			<path fill="#FFA073" d="M27.951,37.109c-0.861-0.762-2.271-0.609-3.248-0.381c-1.273,0.299-2.852,1.172-1.271,2.705
				c0.844,0.818,6.085,0.29,4.942-1.791C28.258,37.43,28.114,37.254,27.951,37.109z"/>
			<g>
				<path fill="#261B18" d="M26.047,31.842c-2.051-0.881-3.34,2.755-1.941,3.943c0.651-0.19,1.423-0.12,2.029,0.174
					C27.512,35.248,27.572,32.502,26.047,31.842z"/>
			</g>
			<path opacity="0.3" fill="#B54D26" d="M35.792,38.387c-1.199,0.016-1.672-0.532-2.511-0.033c-0.838,0.498,0.359,2.097,2.48,2.019
				c2.112-0.074,3.031-1.526,2.591-2.066C37.842,37.676,37.121,38.372,35.792,38.387z"/>
			<path fill="#FFDFC2" d="M35.479,33.885c-2.252-0.195-2.422,4.561-1.906,4.97c1.262,0.996,3.899,0.292,4.667-0.51
				C38.543,38.027,37.627,34.071,35.479,33.885z"/>
			<g>
				<path fill="#261B18" d="M45.789,31.705c-2.084-1.25-3.617,2.774-1.898,3.909c0.546-0.361,1.64-0.25,2.172-0.002
					C46.897,34.686,46.908,32.375,45.789,31.705z"/>
			</g>
			<path opacity="0.7" fill="#E6D2C3" d="M25.061,32.735c-0.832,0.283-0.199,1.9,0.612,1.312
				C26.26,33.623,25.801,32.485,25.061,32.735z"/>
			<path opacity="0.7" fill="#E6D2C3" d="M44.717,32.401c-0.819,0.165-0.427,1.778,0.414,1.32
				C45.737,33.39,45.447,32.256,44.717,32.401z"/>
			<path fill="#2B221C" d="M27.963,27.348c-1.416-0.187-2.76-0.147-4.212,0.252c-2.184,0.6-2.273,1.697-2.128,2.399
				c0.146,0.697,0.907,0.376,3.354,0.25c2.253-0.112,3.909,0.379,4.271-0.676C29.707,28.24,28.724,27.445,27.963,27.348z"/>
			<path fill="#2B221C" d="M46.609,27.482c-1.472-0.315-2.816-0.281-4.22-0.015c-0.755,0.142-1.69,0.992-1.156,2.297
				c0.422,1.032,2.047,0.448,4.303,0.431c2.448-0.013,3.229,0.265,3.333-0.441C48.977,29.047,48.824,27.956,46.609,27.482z"/>
			<path fill="#2B221C" d="M48.92,43.883c-0.068-0.88,0.572-1.902,0.756-2.81c0.447-2.22,0.535-6.303-1.554-7.729
				c0.43,4.167-0.871,7.331-1.684,8.106c-1.694,1.62-3.751-0.574-4.556-1.139c-2.162-1.516-3.393-0.84-5.977-0.53
				c-3.443,0.052-5.132-0.911-7.482,2.175c-1.822,2.393-6.316,1.38-7.287-4.789c-0.155-0.979,0.061-3.165-1.486-2.684
				c-1.748,0.546-0.332,9.304-0.334,11.006c-0.002,1.385,0.161,4.413,1.834,4.777c-0.467,1.688-0.215,4.445,2.238,3.762
				c-0.135,1.354-0.216,2.922,1.042,3.73c0.983,0.631,2.986,0.633,3.788-0.268c0.629,1.182,1.46,2.244,2.842,2.539
				c1.106,0.238,3.204,0.094,3.495-1.269c1.112,1.345,7.282,2.593,7.081-0.302c2.246,1.746,4.946,0.006,4.202-2.679
				c2.36,0.224,2.97-0.982,2.751-3.116c2.006-0.491,2.025-2.855,1.759-4.541C50.123,46.696,49.027,45.266,48.92,43.883z"/>
			<path fill="#F5B37A" d="M39.176,43.297c-0.447,1.126-2.437,0.416-3.184-0.057c-0.744,0.813-2.844,1.049-3.631,0.258
				c-0.141,0.629-2.192,1.185-2.289,2.018c1.778,2.983,10.98,1.883,11.965-0.315C41.844,44.328,39.822,43.953,39.176,43.297z"/>
			<path fill="#BF795C" d="M32.55,44.803c0,0,4.144,0.557,6.535-0.256C38.018,43.993,33.403,44.377,32.55,44.803z"/>
			<path opacity="0.5" fill="#45362E" d="M38.236,48.438c-2.465,0.419-5.572-0.13-7.983-0.714c-1.477-0.359-2.091-0.75-3.306,0.27
				c-0.769,0.645-1.517,1.47-2.055,2.315c-0.748,1.173-0.583,5.706,1.056,3.583c0.199,2.454,2.321,1.844,3.579,0.49
				c0.357,1.24,0.208,2.156,1.777,2.391c1.077,0.161,2.068-0.32,2.686-1.191c0.973,0.436,2.114,2.305,3.366,1.755
				c0.899-0.395,0.397-1.849,0.961-2.093c0.903-0.391,2.481,1.95,3.569,0.794c0.674-0.718-0.285-1.876-0.616-2.528
				c0.898,0.472,3.347,1.27,4.095,0.073c0.385-0.614-0.178-1.86-0.385-2.495c0.201,0.622,1.736,0.111,1.905-0.375
				c0.249-0.713-0.737-1.758-1.13-2.221C43.479,45.809,41.158,47.945,38.236,48.438z"/>
		</g>
	</g>
</g>
</svg>
