<?xml version="1.0" encoding="utf-8"?>
<!-- Generator: Adobe Illustrator 16.0.0, SVG Export Plug-In . SVG Version: 6.00 Build 0)  -->
<svg version="1.1" id="Capa_1"
	 xmlns="http://www.w3.org/2000/svg" xmlns:xlink="http://www.w3.org/1999/xlink" x="0px" y="0px" width="67px" height="67px"
	 viewBox="0 0 67 67" enable-background="new 0 0 67 67" xml:space="preserve">

		<g>
			<defs>
				<circle id="SVGID_1_" cx="33.5" cy="33.5" r="33.477"/>
			</defs>
			<clipPath id="SVGID_2_">
				<use xlink:href="#SVGID_1_"  overflow="visible"/>
			</clipPath>
			<g clip-path="url(#SVGID_2_)">
				<g>
					<path fill="#9C552C" d="M40.93,55.889c-0.711-0.492-1.689-0.318-2.186,0.395c-0.445,0.643-0.346,1.502,0.201,2.027
						c0.137,0.404,0.207,1.541,0.258,2.385c0.107,1.777,0.258,4.117,1.033,6.279h3.438c-0.938-1.672-1.186-3.955-1.338-6.469
						C42.203,58.299,42.105,56.705,40.93,55.889z"/>
				</g>
				<g>
					<path fill="#9C552C" d="M30.178,58.432c0.547-0.525,0.648-1.385,0.203-2.027c-0.496-0.713-1.475-0.887-2.186-0.395
						c-1.178,0.816-1.273,2.41-1.408,4.617c-0.148,2.451-0.387,4.688-1.266,6.348h3.408c0.74-2.127,0.889-4.414,0.992-6.158
						C29.975,59.973,30.043,58.836,30.178,58.432z"/>
				</g>
				<g>
					<path fill="#9C552C" d="M40.309,55.588c-2.076-1.504-9.037-1.848-11.752,0.199c-2.807,2.115,0.51,6.184,1.135,11.188h9.91
						C40.119,62.01,43.162,57.656,40.309,55.588z"/>
					<path fill="#E8DBDB" d="M40.693,62.408c-0.889-1.924-0.85-5.279-0.385-6.82c-0.258-0.266-0.482-0.441-0.93-0.588
						c-2.461-0.811-6.998-1.08-9.695,0.074c-0.477,0.203-0.764,0.416-1.127,0.713c0.385,1.379,0.646,4.117-0.246,6.238
						c0.559,1.645,1.033,3.406,1.195,4.949h10.311C39.959,65.473,40.283,63.807,40.693,62.408z"/>
					<linearGradient id="SVGID_3_" gradientUnits="userSpaceOnUse" x1="34.5313" y1="52.2539" x2="34.5313" y2="55.8767">
						<stop  offset="0" style="stop-color:#854326"/>
						<stop  offset="1" style="stop-color:#9C552C"/>
					</linearGradient>
					<path fill="url(#SVGID_3_)" d="M37.393,50.768c0.207-3.621-6.049-3.756-6.043,0.195c0.002,1.752,0.076,2.859-0.404,3.332
						c-0.283,0.279-1.262,0.779-1.262,0.779c0.568,3.668,0.959,5.139,4.879,5.139c3.547,0,4.488-1.137,4.816-5.213
						c0,0-1.219-0.461-1.652-0.809C37.164,53.744,37.301,52.365,37.393,50.768z"/>
					<g>
						<circle fill="#FFF9F0" cx="30.783" cy="54.862" r="0.534"/>
						<circle fill="#FFF9F0" cx="32.003" cy="55.69" r="0.533"/>
						<path fill="#FFF9F0" d="M33.563,55.713c-0.293,0.012-0.52,0.258-0.512,0.553c0.01,0.295,0.256,0.523,0.547,0.514
							c0.293-0.008,0.523-0.258,0.514-0.549C34.102,55.936,33.855,55.703,33.563,55.713z"/>
						<circle fill="#FFF9F0" cx="35.162" cy="56.332" r="0.533"/>
						<circle fill="#FFF9F0" cx="38.027" cy="54.809" r="0.533"/>
						<path fill="#FFF9F0" d="M36.742,55.213c-0.293,0.01-0.523,0.256-0.512,0.549c0.008,0.297,0.254,0.527,0.545,0.516
							c0.295-0.008,0.523-0.256,0.514-0.549C37.279,55.434,37.033,55.201,36.742,55.213z"/>
					</g>
					<path opacity="0.4" fill="#FFFFFF" d="M37.148,60.604c-1.771,0.627-3.932,0.365-5.75-0.092
						c-1.047-0.264-1.635,0.922-1.311,1.934c0.426,1.344,2.596,1.695,4.488,1.664c3.729-0.059,5.127-1.443,4.494-3.094
						C38.902,60.572,38.104,60.268,37.148,60.604z"/>
				</g>
				<g>
					<path fill="#261B18" d="M17.105,18.316c-2.635,7.234-2.795,12.797-4.492,24.195c-0.43,2.885-2.174,7.346-1.365,9.084
						c1.135,2.438,3.91,0.984,6.219,1.693c2.496,0.77,5.27,1.887,5.805-1.623c0.262,0.664,0.324,1.422,0.299,2.123
						c1.93,0.016,8.51-2.182,12.973-2.074c3.975,0.096,12.266,3.572,13.867-1.021c1.191-3.426,2.18-18.51,1.57-23.428
						c-0.039-0.303,1.166-0.736,1.201-0.996c0.107-0.879,0.172-1.502,0.182-1.748C54.127,4.906,23.664,0.293,17.105,18.316z"/>
					<path fill="#9C552C" d="M32.734,15.465C25.041,16.955,19.602,28.008,21,38.389c1.037,7.703,8.17,15.285,15.66,15.285
						c7.934,0,14.168-12.078,13.039-21.23C48.422,22.051,43.512,13.379,32.734,15.465z"/>
					<path opacity="0.3" fill="#661004" d="M46.246,18.373c-4.186-1.67-8.248-2.633-12.842-2.756
						c-2.809-0.074-6.582-0.258-9.213,0.875c-3.936,1.689-5.633,4.281-6.184,8.258c-0.375,2.705,2.34,5.289,4.422,6.977
						c1.48-1.445,0.785-3.398,0.742-5.104c0.357,1.943,1.943,1.375,3.625,1.459c1.494,0.07,4.061,0.721,5.424-0.016
						c0.613-0.332,0.721-0.771,0.955-1.428c0.236,0.301,0.518,0.514,0.834,0.666c1.004,0.48,2.322,0.32,3.432,0.369
						c1.639,0.07,3.369,0.242,4.953-0.299c0.691-0.236,1.102-0.436,1.305-1.221c0.27,1.652,2.766,1.365,4.125,1.322
						C53.725,27.281,49.512,19.674,46.246,18.373z"/>
					<path fill="#9C552C" d="M18.322,34.063c-3.779,1.035-2.273,6.551,0.814,7.662c0.986,0.357,2.039,0.406,3.051,0.338
						c0.018-0.033,0.039-0.063,0.059-0.094c0.455-0.717-0.174-4.738-0.404-5.496C21.264,34.566,20.137,33.564,18.322,34.063z"/>
					<path opacity="0.4" fill="#661004" d="M19.645,36.092c-0.85-0.389-2.967,0.313-1.975,1.973c0.529-1.537,1.465-0.527,1.32,0.566
						c-0.098,0.732-0.887,0.74-0.105,1.684c0.424,0.51,1.281,0.324,1.715,0.051C21.977,39.502,20.68,36.572,19.645,36.092z"/>
					<path fill="#261B18" d="M32.922,24.287c0.006,0.016,0.014,0.041,0.021,0.061c0.002-0.012,0.006-0.025,0.008-0.037
						C32.939,24.264,32.93,24.256,32.922,24.287z"/>
					<path fill="#261B18" d="M43.297,24.248c0.002,0,0.002,0.002,0.002,0.004c0.002-0.004,0.002-0.006,0.002-0.008
						C43.291,24.195,43.291,24.195,43.297,24.248z"/>
					<path fill="#261B18" d="M43.916,13.35c-4.25-3.613-9.789-3.592-15.025-2.693c-2.006,0.342-4.861,0.848-6.654,1.844
						c-1.563,0.871-2.188,2.924-2.91,4.479c-1.291,2.781-1.701,6.148-1.953,9.172c-0.139,1.625,0.5,3.287,0.664,4.914
						c0.16,1.59,0.865,2.953,1.164,4.516c0.455,2.379,0.299,4.805-0.461,7.105c-0.318,0.971-1.088,1.77-0.383,2.637
						c0.555,0.68,1.908,0.988,2.498,0.369c0.496-0.518,1.455-4.779,1.664-5.871c0.52-2.68,0.449-5.797,0.35-8.504
						c-0.098-2.553-0.012-5.18,0.838-7.605c-0.086,1.035,0.32,2.383,0.387,3.479c2.6-0.313,5.377-0.098,7.99-0.199
						c0.418-0.83,0.689-1.734,0.859-2.643c-0.008-0.02-0.016-0.045-0.021-0.061c0.008-0.031,0.018-0.023,0.029,0.023
						c-0.002,0.012-0.006,0.025-0.008,0.037c0.172,0.471,0.352,1.502,0.689,1.771c0.629,0.506,2.449,0.195,3.209,0.248
						c1.428,0.096,3.848,0.598,5.217,0.006c0.883-0.379,1.018-1.207,1.24-2.121c0-0.002,0-0.004-0.002-0.004
						c-0.006-0.053-0.006-0.053,0.004-0.004c0,0.002,0,0.004-0.002,0.008c0.277,0.471,0.4,1.295,0.844,1.516
						c0.518,0.256,1.973,0.445,2.588,0.465c0.721,0.025,2.377,0.082,3.098-0.051c2.053-0.379,0.582-4.006,0.043-5.314
						C48.664,17.924,46.162,15.258,43.916,13.35z"/>
					<path fill="#573D2F" d="M31.457,8.74c-3.963,0.414-9.59,3.586-11.352,7.152c-3.98,8.055-5.508,16.996-5.846,25.887
						c-0.084,2.25-1.387,5.684-1.254,7.744c0.121,1.902,1.037,1.939,2.551,0.863c1.98-1.404-0.211-8.752,0.16-13.326
						c0.291-3.596,3.258-3.766,4.244-8.516c1.125,6.379,0.115,14.736-2.313,21.719c8.393-14.123,1.801-21.451,6.195-30.912
						c1.912,2.129,5.275,2.783,8.109,1.6c2.521-1.055,6.059-1.236,8.68-0.24c3.439,1.307,6.652,1.959,10.959,0.117
						C49.502,10.773,38.645,7.982,31.457,8.74z"/>
				</g>
				<g>
					<path fill="#BF6C3C" d="M47.945,36.961c-0.643-0.787-1.879-0.824-2.754-0.734c-1.145,0.107-2.627,0.697-1.469,2.26
						c0.615,0.832,5.217,1,4.516-1C48.164,37.283,48.064,37.109,47.945,36.961z"/>
					<path fill="#BF6C3C" d="M30.133,37.34c-0.701-0.725-1.943-0.695-2.814-0.566c-1.135,0.168-3.098,1.242-1.459,2.396
						c1.178,0.83,5.455,0.557,4.604-1.334C30.377,37.639,30.264,37.477,30.133,37.34z"/>
					<path fill="#261B18" d="M29.424,32c-2.682-0.719-4.355,2.275-2.527,3.246c0.854-0.156,1.859-0.105,2.652,0.135
						C31.344,34.787,31.418,32.531,29.424,32z"/>
					<path opacity="0.4" fill="#661004" d="M37.322,36.844c-0.668,0.057-1.285-0.268-1.887,0.107
						c-0.6,0.375,0.211,1.391,1.982,1.215c1.766-0.172,2.176-1.174,1.813-1.512C38.814,36.26,38.064,36.779,37.322,36.844z"/>
					<path fill="#BF6C3C" d="M37.039,33.691c-1.266-0.016-2.053,2.393-1.453,3.123c0.422,0.508,3.191,0.293,3.574-0.365
						C39.297,36.205,38.25,33.705,37.039,33.691z"/>
					<path opacity="0.7" fill="#F0DED1" d="M29.223,33.574c-0.814,0.234-0.191,1.559,0.604,1.074
						C30.4,34.295,29.947,33.365,29.223,33.574z"/>
					<path fill="#261B18" d="M46.477,31.293c-2.752-0.355-4.016,2.836-2.07,3.553c0.822-0.271,1.826-0.352,2.646-0.221
						C48.752,33.801,48.523,31.555,46.477,31.293z"/>
					<path opacity="0.7" fill="#F0DED1" d="M46.4,32.932c-0.758,0.34,0.023,1.574,0.729,0.988
						C47.639,33.496,47.076,32.633,46.4,32.932z"/>
					<g>
						<path fill="#D47B48" d="M45.322,40.871c-4.639-0.777-11.896,0.287-16.131,0.41c-0.344,0.01-0.619,0.109-0.465,0.477
							c0.654,1.566,3.135,7.318,8.928,7.268c4.848-0.037,5.303-3.424,5.551-5.207c0.121-0.877,1.439-1.939,2.463-2.588
							C46.004,41.02,45.75,40.943,45.322,40.871z"/>
						<path fill="#78231F" d="M29.381,41.854c0,0,1.871,4.766,7.545,4.531c5.107-0.211,5.771-1.855,6.039-3.002
							c0.359-1.535,1.762-2.16,1.762-2.16C35.961,43.322,29.381,41.854,29.381,41.854z"/>
						<path fill="#FFF7EA" d="M31.219,42.324c0,0,0.004,1.553,1.73,2.115c2.213,0.717,4.715,0.768,7.297,0.152
							c1.74-0.416,2.82-2.783,2.82-2.783S38.229,42.648,31.219,42.324z"/>
						<path fill="#FFF7EA" d="M38.244,44.633c-2.426,0.064-4.502-0.174-5.621-0.539c-0.934-0.301-0.959,0.141-0.795,0.531
							c0,0,0.246,1.596,4.654,1.813c3.854,0.189,5.611-1.863,5.195-2.273C41.264,43.754,40.668,44.566,38.244,44.633z"/>
						<path fill="#ECDCC4" d="M31.211,42.301c0,0,0.037,0.473,0.164,0.68c0,0,9.195-0.885,11.207-0.301c0,0,0.373-0.498,0.484-0.871
							C43.066,41.809,36.559,42.674,31.211,42.301z"/>
						<path fill="#ECDCC4" d="M33.127,44.098c3.756,1.48,8.021-0.01,8.021-0.01C36.402,44.975,33.127,44.098,33.127,44.098z"/>
					</g>
					<path fill="#161110" d="M28.063,31.18c-1.441,0.332-3.268,1.855-5.629,0.182c0,0,0.814,2.775,5.492,1.064
						c1.904-0.693,2.967,1.32,2.967,1.32S30.881,30.533,28.063,31.18z"/>
					<path fill="#161110" d="M46.33,30.791c-2.641-0.664-2.795,2.447-2.795,2.447s1.021-1.867,2.959-1.15
						c4.234,1.564,5.158-1.045,5.158-1.045C49.342,32.631,47.682,31.133,46.33,30.791z"/>
					<path fill="#261B18" d="M45.578,27.461c-1.846,0.146-3.646,1.26-3.432,2.17c0.24,1.018,1.592-0.611,3.396-1.047
						c2.26-0.545,3.668,0.426,3.602,0.191C48.953,28.084,47.266,27.32,45.578,27.461z"/>
					<path fill="#261B18" d="M28.609,27.893c-2.074-0.191-4.307,0.455-4.389,1.135c-0.053,0.445,1.754-0.588,4.523,0.016
						c2.215,0.482,3.766,2.021,4.066,1.051C33.078,29.232,30.875,28.102,28.609,27.893z"/>
				</g>
			</g>
		</g>
</svg>
