<?xml version="1.0" encoding="utf-8"?>
<!-- Generator: Adobe Illustrator 16.0.0, SVG Export Plug-In . SVG Version: 6.00 Build 0)  -->
<!DOCTYPE svg PUBLIC "-//W3C//DTD SVG 1.1//EN" "http://www.w3.org/Graphics/SVG/1.1/DTD/svg11.dtd">
<svg version="1.1" id="Capa_1" xmlns="http://www.w3.org/2000/svg" xmlns:xlink="http://www.w3.org/1999/xlink" x="0px" y="0px"
	 width="67px" height="67px" viewBox="0 0 67 67" enable-background="new 0 0 67 67" xml:space="preserve">
<g>
	<defs>
		<circle id="SVGID_1_" cx="33.501" cy="33.5" r="33.499"/>
	</defs>
	<clipPath id="SVGID_2_">
		<use xlink:href="#SVGID_1_"  overflow="visible"/>
	</clipPath>
	<g clip-path="url(#SVGID_2_)">
		<g>
			<path fill="#1E1E29" d="M30.63,59.535l-2.291-2.867c-2.144,1.713-3.551,5.117-4.27,10.327h3.708
				C28.529,62.01,29.812,60.188,30.63,59.535z"/>
		</g>
		<g>
			<path fill="#FFC596" d="M49.271,47.791c-2.454,2.987,0.012,3.841,2.359,5.393c1.173,0.773,2.562,2.122,3.509,0.153
				c0.545-1.132,0.546-2.033,0.969-3.194c0.354-0.977,0.79-2.304,1.42-3.107C59.259,44.826,56.867,38.549,49.271,47.791z"/>
			<g>
				<path fill="#8E9194" d="M48.522,33.846c-0.365-0.365-0.979-0.345-1.367,0.042l-5.606,5.63c-0.386,0.39-0.402,1.006-0.037,1.368
					l10.023,9.98c0.365,0.364,0.98,0.347,1.367-0.044l5.607-5.631c0.384-0.388,0.402-1.002,0.035-1.366L48.522,33.846z"/>
				<path fill="#141418" d="M48.157,33.522c-0.349-0.348-0.942-0.321-1.322,0.06L41.34,39.1c-0.378,0.379-0.402,0.977-0.053,1.322
					l9.56,9.519c0.348,0.349,0.943,0.321,1.323-0.059l5.493-5.518c0.378-0.382,0.402-0.977,0.054-1.323L48.157,33.522z"/>
				<path fill="#D9D9D9" d="M48.157,33.522c-0.349-0.348-0.942-0.321-1.322,0.06L41.34,39.1c-0.378,0.379-0.402,0.977-0.053,1.322
					l9.56,9.519c0.348,0.349,0.943,0.321,1.323-0.059l5.493-5.518c0.378-0.382,0.402-0.977,0.054-1.323L48.157,33.522z"/>
				<path fill="#FFFFFF" d="M48.262,35.494c-0.28-0.279-0.734-0.281-1.008-0.005l-4.006,4.021c-0.273,0.275-0.268,0.729,0.011,1.008
					l7.387,7.357c0.281,0.275,0.733,0.279,1.007,0.004l4.006-4.023c0.274-0.275,0.271-0.728-0.01-1.007L48.262,35.494z"/>
			</g>
			<path fill="#FFC596" d="M47.256,46.678c-0.17,0.479,0.647,1.358,0.846,1.789c0.317,0.692-0.203,1.971,0.627,2.51
				c0.673,0.438,1.218-0.08,1.482-0.653c0.49-1.049-0.011-2.376-0.959-3.332C48.817,46.551,47.525,45.92,47.256,46.678z"/>
			<g>
				<path fill="#1E1E29" d="M51.78,53.783c0.269,2.938-0.545,5.065-2.233,5.84c-2.159,0.992-5.398-0.266-8.248-3.207l-2.636,2.555
					c2.934,3.026,6.268,4.656,9.274,4.656c1.103,0,2.162-0.219,3.141-0.668c3.141-1.441,4.77-4.996,4.357-9.51L51.78,53.783z"/>
			</g>
		</g>
		<g>
			<g>
				<path fill="#1E1E29" d="M41.688,63.414c0.818-3.004,0.563-6.118-1.794-7.952c-3.198-2.491-7.707-1.976-10.969,0.472
					c-1.738,1.303-2.573,3.262-0.982,7.1c0.654,1.576,1.059,2.845,1.261,3.962h11.664C41.039,66.009,41.302,64.836,41.688,63.414z"
					/>
			</g>
			<path fill="#43ACF0" d="M38.494,55c-1.279-0.606-7.023-0.676-7.804,0.119c-2.086,2.127-1.827,8.893,4.521,10.457
				C40.433,64.313,40.882,56.133,38.494,55z"/>
			<ellipse fill="#D9D9D9" cx="35.321" cy="60.558" rx="0.634" ry="0.599"/>
			<ellipse fill="#D9D9D9" cx="35.321" cy="62.974" rx="0.634" ry="0.599"/>
			<linearGradient id="SVGID_3_" gradientUnits="userSpaceOnUse" x1="34.8271" y1="54.0537" x2="34.8271" y2="57.2704">
				<stop  offset="0" style="stop-color:#EE996D"/>
				<stop  offset="0.0163" style="stop-color:#EE9A6E"/>
				<stop  offset="0.3731" style="stop-color:#F8B181"/>
				<stop  offset="0.7088" style="stop-color:#FDBF8D"/>
				<stop  offset="1" style="stop-color:#FFC491"/>
			</linearGradient>
			<path fill="url(#SVGID_3_)" d="M38.4,54.891c-0.599-0.381-0.952-2.4-0.862-3.979c0.206-3.576-5.974-3.709-5.968,0.194
				c0.003,1.73,0.027,3.2-0.438,3.678c-0.897,0.923-0.361,2.419,4.076,4.241C37.669,57.806,39.905,55.847,38.4,54.891z"/>
		</g>
		<g>
			<path fill="#313142" d="M38.124,54.432c1.453,3.458,1.49,8.523-2.772,11.141c5.344-0.631,8.127-3.934,8.127-3.934
				s-1.044-1.208-1.748-1.842c0.576-0.383,1.671-0.73,2.543-0.808C43.566,57.32,40.136,55.058,38.124,54.432z"/>
			<path fill="#313142" d="M31.274,54.586c-1.873,0.606-4.758,2.406-5.349,4.213c0.87,0.058,1.979,0.395,2.575,0.789
				c-0.654,0.699-1.607,2.026-1.607,2.026s2.979,3.45,8.318,3.962C30.811,62.904,30.386,57.935,31.274,54.586z"/>
		</g>
		<g>
			<path fill="#231E1A" d="M48.684,16.049c-1.893-2.453-2.485-5.215,0.653-5.386c-2.042-1.49-7.803-3.084-14.169-2.743
				c0.197-0.547,0.058-0.959,0.594-1.408c-2.727,0.364-5.992,0.417-9.477,2.519c-1.601,0.965-2.301,2.428-4.14,2.951
				c-1.836,0.521-2.81,0.854-4.552,1.836c-3.677,2.074-5.68,6.568-6.099,7.917c0.712-0.676,2.369-1.104,3.053-0.859
				c-1.318,2.226-1.489,4.153-0.667,6.384c0.846,2.304-1.497,6.702-0.272,8.509c2.362,3.482,4.522,8.809,4.963,12.885
				c0.001-0.049,5.006-3.381,5.453-4.006c0.819-1.142,0.999-2.541,1.89-3.664c2.219-2.785,6.171-4.018,9.598-3.938
				c2.504,0.059,3.409,1.133,4.897,2.794c0.985,1.101,4.66,2.498,6.918,7.068c1.103-1.297,2.217-3.404,2.216-5.028
				c0.381,0.676,1.909,0.684,3.415,0c-1.769-1.407-3.183-6.001-2.987-8.16c0.143-1.551,2.865-2.776,1.518-6.731
				c-0.357-1.053-0.613-0.831-0.662-1.947c1.355-0.2,2.218-1.067,3.353-1.786C50.375,23.071,50.905,18.928,48.684,16.049z"/>
			
				<ellipse transform="matrix(-0.0887 -0.9961 0.9961 -0.0887 11.2574 92.5838)" fill="#FFFFFF" cx="47.982" cy="41.142" rx="1.382" ry="1.156"/>
			<path fill="#FFC596" d="M33.129,16.5c-8.279,0.731-14.644,7.942-14.008,19.404c0.638,11.463,8.021,18.819,16.332,18.823
				c7.346,0.002,14.099-10.312,13.097-21.746C47.563,21.696,41.404,15.768,33.129,16.5z"/>
			<path fill="#FFC596" d="M16.247,32.882c-3.688,1.673-1.893,8.046,1.221,9.003c0.999,0.308,2.042,0.244,3.042,0.042
				c0.017-0.04,0.033-0.076,0.053-0.119c0.413-0.901-0.586-5.167-0.854-6.041C19.032,33.57,18.018,32.078,16.247,32.882z"/>
			<path opacity="0.3" fill="#D14F2E" d="M18.385,35.116c-1-0.539-3.578,0.149-2.467,2.232c0.709-1.817,1.783-0.525,1.556,0.783
				c-0.153,0.88-1.099,0.831-0.206,2.031c0.48,0.648,1.521,0.487,2.054,0.191C21.016,39.412,19.604,35.773,18.385,35.116z"/>
			
				<ellipse transform="matrix(-0.0219 -0.9998 0.9998 -0.0219 -22.8568 62.2186)" fill="#FFFFFF" cx="19.007" cy="42.29" rx="1.382" ry="1.159"/>
			<path opacity="0.2" fill="#BF3C1B" d="M43.153,17.239c-4.488-0.354-9.208-0.061-13.574,1.057
				c-6.869,1.756-12.178,9.311-11.562,16.432c0.355,4.104,1.745,9.556,6.771,9.243c-0.4-0.589-0.828-1.124-1.162-1.758
				c-1.902-3.613-2.677-9.539-1.289-13.445c0.258,0.061,1.65,0.5,1.62,0.851c0.272-3.02,1.531-4.203,4.261-5.272
				c1.965-0.767,4.609-1.693,6.725-1.776c1.643-0.063,3.161,1.421,4.61,2.151c1.577,0.793,3.374,1.287,5.154,1.036
				c-0.251-0.544-0.544-1.163-0.484-1.758c0.035-0.378,2.241,1.89,2.342,2.026c0.78,1.059,1.415,2.269,1.558,3.595
				c0.66-2.804-1.266-5.113-1.644-7.992C46.107,18.788,45.552,17.426,43.153,17.239z"/>
			<path fill="#231E1A" d="M48.117,19.747c-0.942-1.638-1.777-3.141-3.509-3.926c-7.997-3.632-16.124-1.423-23.637,2.208
				c-1.633,0.791-3.01,2.061-3.898,3.639c-1.622,2.883-0.214,10.318,1.239,16.299c1.148,4.727,5,5.109,5.002,5.109
				c-3.701-4.857-1.546-16.699,0.021-19.226c-0.62,1-0.408,2.975,0.36,3.853c-0.021-2.68,2.331-3.601,4.332-4.625
				c2.285-1.169,5.6-2.195,8.166-2.286c0.984,1.818,4.92,4.024,7.029,3.765c-0.657-0.455-1.037-1.373-0.627-2.091
				c1.124,0.488,2.01,0.474,2.986,1.256c0.249,0.199,3.657,2.55,3.66,2.67C49.184,24.35,49.626,22.366,48.117,19.747z"/>
			<path fill="#423833" d="M48.604,17.875c-1.173-1.417-2.958-4.267-6.402-5.015c0.814-0.935,2.82-1.878,4.229-2.361
				c-2.023-0.699-5.286-1.327-7.766-1.208c-1.035,0.048-2.125,0.658-3.146,0.278c-0.325-0.121-1.72-1.104-1.002-2.314
				c-1.881,0.442-4.291,1.134-6.028,1.979c-1.674,0.813-3,2.144-4.645,3.008c-2.157,1.135-4.224,0.799-6.947,2.594
				c-1.671,1.103-2.728,3.473-3.361,4.267c1.124-0.53,4.338-2.007,5.542-1.799c-1.544,3.542-1.303,5.462-4.688,8.731
				c6.673,0.947,8.038-4.173,10.409-4.952c-0.137,1.12-0.611,2.16-0.671,3.285c3.06-3.973,7.791-4.76,12.42-5.351
				c0.7,1.229,2.979,2.792,4.374,3.166c-0.063-1.011-0.003-2.021,0.299-2.98c1.952,0.232,9.696,5.542,11.354,4.225
				C50.254,23.324,50.2,19.8,48.604,17.875z"/>
		</g>
		<g>
			<g>
				<path fill="#1A1614" d="M29.289,32.148c-2.275-0.789-3.378,3.229-1.778,4.397c0.687-0.256,1.521-0.241,2.201,0.028
					C31.136,35.698,30.985,32.737,29.289,32.148z"/>
			</g>
			<g>
				<path fill="#1A1614" d="M45.787,32.01c-2.251-1.245-4.192,3.434-1.697,4.074c0.601-0.373,1.323-0.383,1.966-0.301
					C46.908,34.781,46.989,32.678,45.787,32.01z"/>
			</g>
			<path fill="#2B241E" d="M23.719,30.963c0.831-0.418,2.904-0.885,5.234-0.654c1.866,0.187,2.725,1.029,3.226-1.307
				c-1.502,0.314-2.762,0.146-4.272,0.284C26.62,29.399,24.806,29.752,23.719,30.963z"/>
			<path fill="#2B241E" d="M40.642,28.511c0.522,2.135,1.281,1.274,2.978,0.935c2.118-0.424,4.021-0.172,4.789,0.144
				c-1.022-1.033-2.688-1.201-3.861-1.195C43.166,28.404,42.018,28.671,40.642,28.511z"/>
			<path opacity="0.3" fill="#D14F2E" d="M37.379,39.6c-0.811,0.072-1.165-0.242-1.703,0.112c-0.537,0.356,0.8,1.358,1.795,1.198
				c1.126-0.182,1.969-1.184,1.636-1.498C38.72,39.046,38.276,39.52,37.379,39.6z"/>
			<path fill="#1A1614" d="M22.987,33.193c0,0,2.401,2.287,5.189,0.307l-0.325-1.168C27.852,32.333,25.656,34.658,22.987,33.193z"/>
			<path fill="#1A1614" d="M45.846,32.078l-0.35,1.03c2.803,1.995,4.678,0.114,4.678,0.114
				C48.036,34.133,45.846,32.078,45.846,32.078z"/>
			<path fill="#A88686" d="M28.262,32.818c-0.872,0.371-0.063,2.063,0.764,1.364C29.623,33.68,29.041,32.491,28.262,32.818z"/>
			<path fill="#A88686" d="M44.671,32.476c-0.86,0.201-0.388,1.884,0.484,1.376C45.785,33.484,45.437,32.299,44.671,32.476z"/>
			<path fill="#FFA26F" d="M45.216,37.793c-1.243,0.102-2.193,0.864-2.119,1.701c0.073,0.836,1.14,1.432,2.382,1.33
				c1.245-0.105,2.192-0.865,2.119-1.703C47.524,38.285,46.458,37.689,45.216,37.793z"/>
			<path fill="#FFA26F" d="M27.803,38.241c-1.368-0.113-2.543,0.543-2.622,1.465c-0.081,0.922,0.964,1.761,2.334,1.872
				c1.369,0.113,2.543-0.543,2.622-1.465C30.216,39.19,29.172,38.354,27.803,38.241z"/>
			<g>
				<path opacity="0.5" fill="#FF3B3B" d="M30.158,43.406c-2.207,0.461-1.867,0.975-1.043,2.43c1.371,2.424,5.221,4.64,9.872,3.249
					c2.297-0.687,3.386-2.454,2.794-4.718l2.538-1.778C40.938,42.063,34.333,42.533,30.158,43.406z"/>
				<path fill="#8F2722" d="M30.845,44.171c-1.293,0.054-1.774,0.333-0.759,1.659c1.334,1.739,4.635,2.621,7.574,2.136
					c2.641-0.437,3.902-2.124,3.54-3.92c0.269-0.158,0.641-0.462,1.01-0.696C39.173,42.936,33.991,44.038,30.845,44.171z"/>
				<path fill="#FFF9F0" d="M41.149,43.334c-2.903-0.061-6.939,0.515-9.192,1.068c-0.466,0.115-1.428,0.586-0.864,0.95
					c1.018,0.663,9.049,0.125,9.412-0.071C41.089,44.969,41.876,43.352,41.149,43.334z"/>
				<path fill="#E8DAC5" d="M41.297,43.256c-2.64-0.132-6.587,0.396-10.832,0.941c0,0,0.007,0.744,0.628,1.155
					c0,0,5.149-2.13,10.199-1.095C41.292,44.258,41.919,43.287,41.297,43.256z"/>
			</g>
		</g>
		<g>
			<path opacity="0.3" fill="#B54D26" d="M47.027,29.452c-1.42,0.118-2.828,0.379-4.196,0.785c-1.163,0.345-2.541,0.528-3.605,1.122
				c-0.983,0.549-1.392,0.9-2.601,0.886c-2.158-0.024-4.015-1.311-6.175-1.469c-2.249-0.165-4.552-0.36-6.743,0.317
				c-0.569,0.176-2.287,0.887-1.094,1.469c1.163,0.566,2.871,0.323,4.127,0.335c0.58,0.004,1.163,0,1.741,0.036
				c2.056,0.127,5.2-0.253,5.114,2.312c-0.059,1.76-1.135,3.597-2.553,3.97c-1.359,0.358-2.82,0.525-4.208,0.563
				c-1.06,0.029-2.091-0.145-3.071-0.564c-0.278-0.117-1.115-0.615-1.369-0.236c-0.434,0.643,1.266,1.638,1.707,1.822
				c1.013,0.419,2.075,0.523,3.161,0.606c2.682,0.202,5.43-0.024,6.865-2.524c0.832-1.453,1.22-3.143,1.984-4.629
				c1.255-2.431,1.979,0.797,2.442,2.205c0.26,0.791,0.625,1.557,1.135,2.215c0.9,1.163,2.619,1.757,4.04,1.781
				c0.877,0.012,1.771-0.061,2.581-0.424c0.49-0.221,0.673-0.802,0.071-1.008c-0.362-0.124-0.933-0.01-1.312-0.014
				c-0.55-0.004-1.11,0.006-1.655-0.079c-0.697-0.108-1.406-0.374-2.006-0.787c-0.419-0.287-0.786-0.647-1.061-1.078
				c-0.572-0.895-0.632-2.008-0.305-3.005c0.447-1.371,1.935-1.525,3.165-1.668c1.492-0.174,3.006-0.194,4.492-0.377
				c0.66-0.081,1.323-0.012,1.987-0.011c0.854,0.003,2.686-0.325,1.637-1.531C50.313,29.306,48.404,29.338,47.027,29.452z"/>
			<g>
				<path fill="#F06799" d="M21.552,30.218c-1.762,0.112-3.283-0.33-3.688,0.038c-0.524,0.479,0.47,2.023,0.47,2.023
					s0.575,0.378,1.402,0.421c0.154,1.22,0.187,4.388,2.5,6.315c1.931,1.607,8.077,1.895,9.956,0.873
					c2.325-1.264,3.262-3.5,3.609-5.688C36.655,28.839,24.038,30.059,21.552,30.218z M32.272,38.449
					c-2.285,1.58-8.269,1.061-9.88-0.805c-1.242-1.441-1.551-4.523-0.834-4.986c2.189-1.417,10.603-1.168,12.592,0.251
					C35.115,33.599,34.003,37.25,32.272,38.449z"/>
			</g>
			<g>
				<path fill="#F06799" d="M50.465,28.809c-2.249,0.072-13.698,0.033-12.44,5.291c0.513,2.146,1.559,4.284,3.765,5.327
					c1.783,0.841,7.281-0.017,8.868-1.796c1.903-2.133,1.642-5.29,1.667-6.521c0.741-0.12,1.223-0.55,1.223-0.55
					s0.753-1.628,0.236-2.056C53.385,28.173,52.059,28.758,50.465,28.809z M50.391,36.279c-1.276,2.008-6.607,3.081-8.806,1.72
					c-1.666-1.03-3-4.564-2.195-5.339c1.655-1.598,9.195-2.627,11.294-1.421C51.371,31.633,51.375,34.73,50.391,36.279z"/>
			</g>
			<path opacity="0.3" fill="#FFFFFF" d="M40.854,32.134c-1.228,0.578,1.056,1.16,1.542,1.218c1.696,0.193,3.603,0.012,5.387-0.382
				c0.938-0.207,2.938-1.135,2.338-1.637C49.278,30.634,42.208,31.495,40.854,32.134z"/>
			<path fill="#FFFFFF" d="M46.401,31.637c-0.671,0.129-1.107,0.343-0.91,0.64c0.386,0.587,4.34,0.111,4.596-0.356
				C50.336,31.46,47.833,31.359,46.401,31.637z"/>
			<path opacity="0.7" fill="#FFFFFF" d="M42.269,36.725c-0.426-0.006-0.718,0.093-0.635,0.356c0.159,0.523,2.635,0.779,2.849,0.452
				C44.691,37.21,43.178,36.734,42.269,36.725z"/>
			<path opacity="0.7" fill="#FFFFFF" d="M23.749,37.16c-0.446-0.057-0.765,0.004-0.713,0.277c0.102,0.539,2.657,1.092,2.925,0.793
				C26.222,37.938,24.697,37.279,23.749,37.16z"/>
			<path opacity="0.3" fill="#FFFFFF" d="M33.208,32.628c-1.591-0.509-9.434-0.844-10.218-0.126
				c-0.561,0.515,1.785,1.255,2.844,1.386c2.012,0.25,4.116,0.293,5.924-0.004C32.276,33.798,34.65,33.092,33.208,32.628z"/>
			<path fill="#FFFFFF" d="M29.794,32.284c-0.72,0.046-1.203,0.204-1.038,0.523c0.327,0.629,4.528,0.644,4.854,0.209
				C33.934,32.592,31.327,32.186,29.794,32.284z"/>
			<path fill="#F06799" d="M39.403,30.86c-1.61,0.802-3.2,0.971-5.501,0.235c-1.738-0.554,0.938,1.089,1.167,1.976
				c0.23,0.886,0.021,3.622,0.565,1.978s1.742-1.786,2.558-0.317c0.814,1.469,0.63-2.521,0.93-2.894
				C39.423,31.464,41.014,30.057,39.403,30.86z"/>
			<path fill="#FFD1E2" d="M22.396,30.716c4.771,0.086,8.58,0.101,11.491,1.12C31.963,30.353,28.723,30.114,22.396,30.716z"/>
			<path fill="#FFD1E2" d="M50.075,29.236c-5.807,0.398-8.516,0.526-10.031,2.056C42.522,30.014,45.778,29.993,50.075,29.236z"/>
		</g>
	</g>
</g>
</svg>
