<?xml version="1.0" encoding="utf-8"?>
<!-- Generator: Adobe Illustrator 16.0.0, SVG Export Plug-In . SVG Version: 6.00 Build 0)  -->
<!DOCTYPE svg PUBLIC "-//W3C//DTD SVG 1.1//EN" "http://www.w3.org/Graphics/SVG/1.1/DTD/svg11.dtd">
<svg version="1.1" id="Capa_1" xmlns="http://www.w3.org/2000/svg" xmlns:xlink="http://www.w3.org/1999/xlink" x="0px" y="0px"
	 width="67px" height="67px" viewBox="0 0 67 67" enable-background="new 0 0 67 67" xml:space="preserve">
<g>
	<defs>
		<circle id="SVGID_1_" cx="33.503" cy="33.5" r="33.5"/>
	</defs>
	<clipPath id="SVGID_2_">
		<use xlink:href="#SVGID_1_"  overflow="visible"/>
	</clipPath>
	<g clip-path="url(#SVGID_2_)">
		<path fill="#62698A" d="M20.6,60.842c-0.495,2.963-0.915,6.156-0.915,6.156h9.142l-2.753-13.049
			C22.964,54.754,21.398,56.057,20.6,60.842z"/>
		<path fill="#62698A" d="M46.833,60.842c0.494,2.963,0.915,6.156,0.915,6.156h-9.141l2.751-13.049
			C44.469,54.754,46.033,56.057,46.833,60.842z"/>
		<g>
			<path fill="#62698A" d="M38.448,56.107c-3.232-1.848-8.657-1.375-11.378,0.857c-2.086,1.714,0.186,7.474-0.134,8.921
				c-0.063,0.282-0.188,0.663-0.356,1.112h13.521c-0.188-0.389-0.329-0.695-0.408-0.887C39.253,65.042,41.315,57.748,38.448,56.107z
				"/>
			<circle fill="#23232D" cx="31.705" cy="61.703" r="0.842"/>
			<circle fill="#23232D" cx="35.741" cy="61.671" r="0.842"/>
			<circle fill="#23232D" cx="35.823" cy="64.792" r="0.842"/>
			<circle fill="#23232D" cx="31.758" cy="64.8" r="0.842"/>
			<path fill="#23232D" d="M28.509,55.254c-1.23,3.174,3.464,4.725,4.921,2.102c1.146,2.451,6.003,1.129,4.782-2.244
				C37.026,51.83,29.936,51.569,28.509,55.254z"/>
		</g>
		<g>
			<path opacity="0.15" d="M25.82,57.469c2.088,3.049,7.446,3.602,10.013,2.802c1.962-0.611,4.717-2.18,5.452-5.36
				C43.252,46.403,19.921,48.854,25.82,57.469z"/>
			<path fill="#D9C9B2" d="M25.788,56.615c2.132,2.94,7.629,3.455,10.265,2.672c2.017-0.598,4.849-2.125,5.615-5.205
				C43.717,45.846,19.766,48.301,25.788,56.615z"/>
			<path fill="#BDAF9B" d="M27.613,53.086c1.459,1.586,5.268,2.383,7.8,1.62c1.434-0.433,3.8-0.981,4.432-2.619
				C41.53,47.704,23.49,48.604,27.613,53.086z"/>
			<path opacity="0.15" d="M37.477,53.123c-2.09-0.029-3.736,0.488-4.733,1.107c2,0.953,3.059,5.793,3.286,9.48
				c0.063,1.006,0.1,2.148,0.152,3.287h7.43c-0.158-4.253-1.377-9.675-2.484-11.668C40.418,54.059,39.14,53.146,37.477,53.123z"/>
			<path fill="#D9C9B2" d="M37.669,52.935c-2.202,0.038-3.925,0.606-4.961,1.254c2.126,0.884,3.787,4.466,4.154,9.725
				c0.051,0.721,0.09,1.864,0.151,3.085h7.334c-0.051-4.177-1.487-9.896-2.786-11.984C40.787,53.771,39.422,52.904,37.669,52.935z"
				/>
			<path fill="#F2E4CE" d="M42.163,60.033c-0.406-1.292-1.024-3.398-1.938-4.316c-0.095,0.701-0.157,1.611,0,2.317
				c-0.448-0.692-1.213-2.345-2.291-1.568c-0.855,0.614-0.309,2.406-0.082,3.2c-0.301-0.691-0.832-1.093-1.378-1.592
				c-0.002-0.004-0.005-0.006-0.009-0.01c0.899,2.742,1.786,5.26,1.995,8.202c0.015,0.215,0.007,0.467-0.009,0.731h4.879
				c-0.007-0.232-0.017-0.46-0.026-0.676C43.198,64.134,42.821,62.125,42.163,60.033z"/>
			<path fill="#F2E4CE" d="M33.4,56.653c-0.271-0.286-1.555-0.038-1.93-0.069c-0.636-0.056-1.338-0.177-1.947-0.371
				c-0.961-0.309-2.003-1.125-2.848-1.684c0,0-1.055-1.02-1.061-1.023c0.081,0.077,0.202,1.002,0.248,1.178
				c0.253,0.967,0.31,1.49,1.056,2.215c1.29,1.254,3.098,2.027,4.875,1.893c0.32-0.023,1.589-0.024,1.608-0.496
				c0.019-0.397-0.961-0.555-1.245-0.469C32.519,57.716,34.047,57.34,33.4,56.653z"/>
		</g>
		<g>
			<path fill="#C93712" d="M37.041,10.055c-0.675-1.841-0.779-2.502-0.45-3.702c-1.407,0.57-2.761,2.05-2.991,3.201
				c-1.143-1.852-3.845-3.457-6.116-3.35c1.054,1.032,1.947,2.486,2.247,3.712c-1.513,0.195-2.576,0.208-4.095,0.389
				c-7.832,0.928-12.473,5.586-14.608,12.639c-1.01,3.328-0.639,7.982-0.203,11.402c0.223,1.733,1.904,6.159-0.056,7.471
				c-1.144,0.766-2.737-0.087-2.451-1.464c-1.883,1.082-2.14,3.69-0.596,5.082c1.602,1.443,4.53,1.623,6.482,0.963
				c-0.548,2.396,0.35,5.992,1.894,7.777c0.258-1.032,0.885-2.133,1.72-2.752c-0.516,0.384,1.638,1.511,1.863,1.562
				c0.852,0.187,1.788-0.206,2.584-0.462c2.246-0.723,3.983-1.962,6.385-2.434c1.929-0.376,18.874,3.002,18.403-0.367
				c0.122,0.875,0.189,1.782,0.3,2.668c1.821-1.373,3.409-3.598,3.22-5.973c2.669-0.344,4.436-1.107,3.657-4.1
				c-0.447,1.174-1.892,1.092-2.87,0.627c-3.232-1.541-0.857-7.121,0.618-10.905c0.413-1.058,0.756-1.978,0.886-2.626
				c0.092,0.071,1.825,3.029,1.801,3.147C55.682,27.586,56.189,11.158,37.041,10.055z"/>
			<circle fill="#FF3B3B" cx="47.175" cy="42.209" r="1.371"/>
			<path fill="#FFBC82" d="M30.256,14.407c-7.75,1.512-13.209,12.654-11.787,23.106c1.067,7.829,7.105,16.42,16.201,15.771
				c9.28-0.66,13.897-12.172,12.698-21.8C46.064,21.018,41.107,12.292,30.256,14.407z"/>
			<path opacity="0.2" fill="#A61900" d="M45.521,18.083c-1.618-0.985-3.479-1.488-5.28-2.027c-3.053-0.913-6.208-1.42-9.397-1.476
				c-2.829-0.05-5.902-0.209-8.538,0.985c-1.449,0.656-3.229,1.554-3.771,3.159c-0.673,1.995-0.35,4.508-0.021,6.546
				c0.358,2.234,0.903,4.516,2.091,6.468c0.102-1.532,0.8-3.125,1.745-4.3c0.769-0.958,1.878-2.707,3.19-2.92
				c-0.016,0.003-0.909,2.522-1.053,2.782c-0.478,0.873-1.357,1.287-2.195,1.8c0.798,0.696,3.207,0.594,4.182,0.41
				c0.674-0.129,1.476-0.325,2.024-0.74C28.41,29,28.385,29.293,28.38,29.56c1.277-0.159,2.573-0.095,3.884-0.356
				c1.005-0.199,1.887-0.543,2.811-0.891c-0.129,0.187-0.235,0.404-0.283,0.618c0.268-0.036,0.532-0.205,0.776-0.287
				c-0.116,0.287-0.231,0.611-0.207,0.916c2.495-0.032,5.101-0.041,7.585-0.247c1.672-0.139,3.468-1.072,4.243-2.595
				c0.552-1.08,0.868-2.299,0.786-3.496c-0.081-1.158,0.097-2.288-0.537-3.336C46.976,19.124,46.273,18.543,45.521,18.083z"/>
			<path fill="#FFBC82" d="M15.766,33.16c-3.806,1.048-2.278,6.602,0.83,7.717c0.996,0.357,2.054,0.407,3.073,0.336
				c0.02-0.033,0.039-0.062,0.06-0.094c0.456-0.725-0.181-4.773-0.414-5.534C18.729,33.664,17.592,32.656,15.766,33.16z"/>
			<path opacity="0.3" fill="#BF3C1B" d="M17.101,35.204c-0.855-0.395-2.989,0.316-1.986,1.989c0.529-1.551,1.474-0.535,1.329,0.566
				c-0.096,0.738-0.89,0.748-0.102,1.698c0.426,0.513,1.29,0.322,1.728,0.048C19.453,38.633,18.145,35.684,17.101,35.204z"/>
			<path fill="#C93712" d="M46.501,16.973c-1.641-1.143-2.562-2.918-4.47-3.863c-1.659-0.823-3.634-1.512-5.457-1.864
				c-2.587-0.499-5.362-0.551-7.971-0.24c-4.388,0.523-9.684,2.606-11.071,7.254c-0.853,2.857-0.407,6.168-0.189,9.086
				c0.253,3.358-0.298,7.35,2.848,9.611c0.209-0.807,0.166-1.691,0.298-2.518c0.174-1.088,0.49-2.183,0.435-3.294
				c-0.054-1.119-0.163-1.995,0.099-3.14c0.424-1.847,1.812-3.401,3.273-4.542c1.247-0.972,2.011-0.481,1.601,1.012
				c-0.354,1.283-1.607,2.494-2.62,3.288c0.117-0.092,3.265,0.255,3.934,0.04c1.326-0.427,2.624-1.217,3.349-2.461
				c-0.645,1.107-0.442,1.817-1.464,2.803c3.017,0.914,4.727-0.059,7.273-1.904c-0.2,0.517-0.471,1.096-0.795,1.512
				c0.393-0.202,1.044-0.576,1.374-0.735c-0.186,0.518-0.407,1.003-0.617,1.492c2.004-0.31,4.02,0.498,6.015,0.026
				c2.483-0.588,6.422-3.594,6.873-6.234c0.186-1.083-0.079-2.131-0.603-3.055C48.1,18.34,47.335,17.555,46.501,16.973z"/>
			<path fill="#E85216" d="M48.311,15.172c-0.529,2.513-3.424,4.563-5.654,5.166c-5.228,1.412-10.438,1.998-16.379,1.905
				c-3.639-0.058-10.095-0.426-12.479-2.637c-2.632,3.852-2.195,8.619-1.755,8.683c1.594,0.23,3.077-0.51,4.468-0.969
				c1.39-0.458,1.837,0.461,2.843,1.121c-0.761-0.5,2.526-4.252,3.023-4.642c1.104-0.866,2.723-1.5,3.948-0.683
				c1.24,0.828-0.072,2.598-0.304,3.641c2.165-0.862,4.182-2.078,6.039-3.494c-0.196,1.288-0.495,2.461-0.807,3.685
				c1.596-0.071,2.957-1,4.089-2.056c0.623-0.58,1.128-1.458,1.906-1.846c0.399-0.201,0.646-0.427,0.792,0.105
				c0.029,0.106-0.592,1.772-0.677,1.829c0.58-0.379,1.968-2.298,2.732-2.067c0.825,0.25-1.852,4.456-2.198,4.367
				c2.239,0.571,4.762-0.097,6.699-1.276c0.923-0.562,1.848-1.339,2.521-2.182c0.847-1.056,0.163-1.941,0.513-3.128
				c0.361,0.616,0.795,0.978,1.036,1.711c0.626,1.896,0.122,3.597-0.367,5.506c2.621,1.078,3.186-0.915,3.674-3.202
				c0.528,0.724,0.837,1.594,1.382,2.311C54.313,22.423,50.649,16.822,48.311,15.172z"/>
			<g>
				<path fill="#FF7752" d="M46.237,38.248c-0.426-0.777-1.479-0.98-2.242-1.027c-0.994-0.062-2.355,0.244-1.614,1.772
					c0.395,0.815,4.305,1.604,4.021-0.241C46.375,38.561,46.317,38.395,46.237,38.248z"/>
				<path fill="#FF7752" d="M27.147,38.299c-0.598-0.803-1.79-0.796-2.638-0.676c-1.104,0.158-2.548,0.828-1.474,2.431
					c0.572,0.853,5.005,0.866,4.38-1.21C27.352,38.631,27.26,38.451,27.147,38.299z"/>
				<path fill="#C93712" d="M40.53,30.259c2.254,0.224,4.806,0.233,7.6,0.151C46.909,28.622,42.169,28.563,40.53,30.259z"/>
				<path opacity="0.3" fill="#BF3C1B" d="M35.629,38.834c-0.739,0.018-1.036-0.292-1.551-0.002c-0.513,0.289,0.619,1.284,1.533,1.2
					c1.034-0.095,1.876-0.955,1.599-1.261C36.889,38.415,36.451,38.816,35.629,38.834z"/>
				<path fill="#C93712" d="M21.159,29.979c4.073,0.058,5.448,0.224,8.274,0.125C27.929,28.21,22.941,28.389,21.159,29.979z"/>
				<g>
					<g opacity="0.8">
						<path fill="#FF3B3B" d="M25.311,41.408c4.102,6.311,6.595,7.445,9.732,7.588c3.932,0.178,5.238-2.451,5.806-4.416
							c0.242-0.832,2.201-2.99,2.966-3.485c-2.441,0.603-4.856,0.336-8.55,0.506C32.21,41.74,27.738,42.689,25.311,41.408z"/>
					</g>
					<path fill="#80221D" d="M27.176,42.49c0,0,2.473,4.25,7.361,4.277c3.133,0.018,5.181-1.02,5.744-2.479
						c0.615-1.598,1.94-2.189,1.94-2.189C33.722,44.273,27.176,42.49,27.176,42.49z"/>
					<path fill="#FFF9F0" d="M28.996,42.847c0,0,0.165,1.294,1.91,1.769c2.239,0.612,4.643,0.617,7.118,0.204
						c1.668-0.276,2.464-2.321,2.464-2.321S35.727,43.684,28.996,42.847z"/>
					<path fill="#FFF9F0" d="M35.758,45.021c-2.235,0.113-4.095-0.011-5.224-0.702c-0.805-0.493-0.871,0.049-0.694,0.386
						c0,0,0.746,1.766,4.462,2.124c3.571,0.344,5.392-1.802,4.979-2.164C38.87,44.303,37.829,44.918,35.758,45.021z"/>
					<path fill="#E8DAC5" d="M28.996,42.847c0,0,0.133,0.599,0.455,0.905c0,0,8.355-0.813,10.365-0.114c0,0,0.58-0.725,0.672-1.14
						C40.488,42.498,34.656,43.637,28.996,42.847z"/>
					<path fill="#E8DAC5" d="M31.203,44.57c3.021,1.73,6.595,0.188,6.595,0.188C34.032,45.656,31.203,44.57,31.203,44.57z"/>
				</g>
				<g>
					<path fill="#4F4F4F" d="M25.97,32.008c-2.151-0.785-3.211,3.176-1.702,4.332c0.651-0.248,1.441-0.232,2.082,0.035
						C27.7,35.516,27.57,32.593,25.97,32.008z"/>
				</g>
				<path opacity="0.7" fill="#EDF0EF" d="M26.316,33.312c-0.887,0.144-0.537,1.957,0.383,1.49
					C27.365,34.463,27.104,33.186,26.316,33.312z"/>
				<g>
					<path fill="#4F4F4F" d="M45.141,32.087c-2.133-1.405-4.095,3.602-1.711,4.359c0.583-0.388,1.277-0.38,1.894-0.276
						C46.16,35.111,46.284,32.839,45.141,32.087z"/>
				</g>
				<path opacity="0.7" fill="#EDF0EF" d="M45,33.156c-0.849,0.01-0.754,1.897,0.168,1.565C45.836,34.48,45.755,33.15,45,33.156z"/>
				<path fill="#121B21" d="M45.202,31.98c-1.96-0.786-2.642,1.543-2.642,1.543s0.973-1.167,2.307-0.398
					c3.023,1.742,5.016-0.297,5.016-0.297C47.456,33.606,46.255,32.402,45.202,31.98z"/>
				<path fill="#121B21" d="M24.535,32.13c-0.785,0.409-2.603,1.627-5.04,0.942c0,0,2.336,1.989,5.254,0.143
					c1.279-0.81,2.393,0.161,2.393,0.161S26.582,31.062,24.535,32.13z"/>
			</g>
			<circle fill="#FF3B3B" cx="17.745" cy="43.111" r="1.371"/>
		</g>
		<g>
			<path fill="#23232D" d="M35.681,3.627C27.649,3.9,20.93,5.838,15.188,11.403c-1.858,1.802-5.104,5.984-0.841,7.535
				c6.502,2.363,12.886,2.735,19.654,1.399c3.556-0.703,11.188-1.992,12.977-5.792C50.469,7.125,44.582,3.323,35.681,3.627z"/>
			<path fill="#3A3A4A" d="M38.271,4.474c-1.263-0.084-3.73-0.521-4.824,0.442c-0.824,0.727-0.473,2.154,0.859,2.153
				c-2.374,0.002-4.886,0.716-7.123,0.772c0.5-0.381,2.04-1.066,2.258-1.557c1.031-2.334-4.364-0.249-5.006,0.002
				c-3.101,1.217-8.04,3.931-8.856,7.372c1.718,1.395,2.577-0.253,4.203-0.229c1.195,0.018,1.271,1.004,2.697,1.266
				c1.033,0.19,1.868-0.372,2.877-0.397c3.992-0.1,7.6,1.275,11.463-0.503c1.232-0.568,1.933-1.857,3.218-2.289
				c1.002-0.337,2.255,0.372,3.189-0.376c0.972-0.779,0.165-1.58,0.775-2.281c0.52-0.596,1.718-0.195,1.86-1.075
				C46.236,5.439,39.762,4.573,38.271,4.474z"/>
			<path fill="#23232D" d="M31.54,1.101c-1.124,1.964-1.268,3.433-1.077,5.296l1.025,0.085c0.335-1.577,1.12-3.24,2.554-4.698
				C34.007,0.897,31.985,0.565,31.54,1.101z"/>
		</g>
	</g>
</g>
</svg>
