<?xml version="1.0" encoding="utf-8"?>
<!-- Generator: Adobe Illustrator 16.0.0, SVG Export Plug-In . SVG Version: 6.00 Build 0)  -->
<!DOCTYPE svg PUBLIC "-//W3C//DTD SVG 1.1//EN" "http://www.w3.org/Graphics/SVG/1.1/DTD/svg11.dtd">
<svg version="1.1" id="Capa_1" xmlns="http://www.w3.org/2000/svg" xmlns:xlink="http://www.w3.org/1999/xlink" x="0px" y="0px"
	 width="67px" height="67px" viewBox="0 0 67 67" enable-background="new 0 0 67 67" xml:space="preserve">
<g>
	<defs>
		<circle id="SVGID_1_" cx="33.514" cy="33.533" r="33.486"/>
	</defs>
	<clipPath id="SVGID_2_">
		<use xlink:href="#SVGID_1_"  overflow="visible"/>
	</clipPath>
	<g clip-path="url(#SVGID_2_)">
		<g>
			<path fill="#FFCB9E" d="M30.018,58.398c1.104-0.928-0.183-4.254-1.675-3.449c-3.073,1.657-4.007,7.498-5.094,12.068h3.279
				C27.344,63.631,28.25,59.885,30.018,58.398z"/>
		</g>
		<g>
			<path fill="#FFCB9E" d="M38.665,54.949c-1.493-0.805-2.78,2.521-1.675,3.449c1.768,1.486,2.673,5.232,3.489,8.619h3.278
				C42.672,62.447,41.737,56.606,38.665,54.949z"/>
		</g>
		<g>
			<linearGradient id="SVGID_3_" gradientUnits="userSpaceOnUse" x1="33.686" y1="51.3701" x2="33.686" y2="56.5686">
				<stop  offset="0" style="stop-color:#EEA17A"/>
				<stop  offset="0.0031" style="stop-color:#EEA17A"/>
				<stop  offset="0.3647" style="stop-color:#F7B88E"/>
				<stop  offset="0.705" style="stop-color:#FDC69A"/>
				<stop  offset="1" style="stop-color:#FFCB9E"/>
			</linearGradient>
			<path fill="url(#SVGID_3_)" d="M37.12,54.03c-2.181-0.954-0.713-3.56-3.571-3.56c-2.815,0-1.547,2.938-3.591,3.71
				c-4.617,1.744-4.534,4.735-1.902,7.368c2.813,2.813,7.808,3.271,11.621-0.273C43.283,57.924,39.297,54.983,37.12,54.03z"/>
			<g>
				<g>
					<path fill="#FF87B3" d="M39.526,63.752c2.006-4.488-0.579-7.104-1.629-9.506c-0.189-0.16-0.608-0.323-0.81-0.351
						c0.397,1.762,0.998,6.042-3.409,6.042c-4.451,0-4.017-3.543-3.699-5.916c-0.28-0.012-0.701,0.186-0.966,0.44
						c-1.244,3.786-3.32,4.851-1.411,9.417c0.399,0.955,0.936,2.061,1.09,3.139h9.563C38.441,65.882,38.998,64.937,39.526,63.752z"
						/>
				</g>
			</g>
			<path opacity="0.7" fill="#F06799" d="M29.537,64.496c0.447,0.754,1.801,0.744,2.862,0.938c-0.184,0.026-0.365,0.098-0.559,0.127
				c1.277,0.355,3.058,0.084,4.323-0.287c0.403-0.117,1.492-0.797,1.707-0.82c-1.498,0.168-2.894,0.293-4.416,0.264
				C32.122,64.691,30.834,64.519,29.537,64.496z"/>
		</g>
		<g>
			<path fill="#FDD281" d="M52.951,29.411c2.518-0.672,5.367-6.158,1.087-5.854c1.155,1.732-1.582,2.531-2.479,1.223
				c-0.08-0.117-0.137-0.224-0.145-0.327c-0.147-2.158-2.37-3.647-4.062-4.979c-2.474-1.948-5.71-3.542-8.867-4.267
				c-5.563-1.276-12.213-0.963-16.634,2.713c-1.779,1.479-3.34,4.58-5.807,5.165c-3.029,0.718-4.71,3.799-2.311,5.736
				c-1.248,0.739-2.443-0.145-2.656-1.306c-2.613,1.812-3.59,5.325,0.021,6.919c-4.229,2.18-3.179,6.621,1.341,8.551
				c-2.121,1.965-1.036,5.305,1.093,6.624c-0.165-1.39,1.134-4.489,3.538-2.905c1.477,0.973,0.695,3.577-1.313,2.27
				c-0.533,2.359,3.451,3.824,4.62,1.863c-0.134,1.768,1.079,2.453,2.715,2.348c2.437-0.158,3.29-1.791,4.927-2.289
				c2.039-0.622,4.541-0.686,6.664-0.721c4.039-0.066,7.52,3.922,11.543,2.189c1.552-0.666,2.305-1.66,2.139-3.173
				c-1.1,0.772-3.973-0.349-1.627-2.185c1.173-0.918,2.908-0.066,4.099-0.763c1.402-0.82,0.833-3.764,0.933-3.827
				c1.012-0.633,2.685-0.682,2.787,1.082c2.077-4.096,0.103-5.232-2.128-5.539C57.366,37.176,58.328,30.374,52.951,29.411z"/>
			<path fill="#F4BB6E" d="M49.763,31.393c0.012-3.746-4.741-2.584-6.436-2.846c-5.708-0.888-13.478,0.301-19.2,0.737
				c-3.482,0.266-9.626,0.616-10.367,5.389c-0.294,1.898,0.308,3.306,0.936,4.933c-1.672,1.074-1.071,3.958,1.168,3.193
				c-0.461,0.497-0.85,1.371-0.458,2c0.574,0.926,2.423,0.592,3.377,1.163c1.28,0.767,1.9,2.089,1.309,3.481
				c0.459-0.168,0.948-0.293,1.409-0.424c0.344,1.178,0.419,3.001,2.04,2.975c0.749-0.014,1.486-0.406,2.217-0.84
				c0.705-0.418,1.407-0.876,2.106-1.061c1.632-0.424,2.479,0.699,3.941,1.1c1.089,0.298,2.372-0.154,3.404-0.499
				c2.209-0.737,3.22-0.978,5.563,0.034c1.146,0.493,3.223,0.886,4.602,0.057c-0.959-1.486-0.552-2.717,0.396-3.902
				c0.28-0.35,2.481-2.172,1.826-2.678c0.354,0.268,0.948,0.518,1.401,0.332c2.014-0.824,0.15-4.305,1.979-4.447
				c-3.717-2.256,0.893-2.006,0.771-4.389C49.893,35.426,49.759,32.869,49.763,31.393z"/>
			<path fill="#FFF9F0" d="M47.852,40.496c-0.771,0.021-1.387,0.664-1.379,1.435c0.007,0.771,0.641,1.38,1.411,1.357
				s1.389-0.664,1.381-1.437C49.255,41.082,48.623,40.474,47.852,40.496z"/>
			<path fill="#FFCB9E" d="M33.055,14.757c-8.208,0.749-14.591,7.737-14.086,18.784c0.503,11.049,8.52,19.857,17.208,18.892
				c7.2-0.801,13.333-9.771,11.973-21.87C46.932,19.725,41.262,14.003,33.055,14.757z"/>
			<path fill="#FFB387" d="M47.101,37.801c-0.42-0.789-1.482-1.006-2.253-1.061c-1.003-0.072-2.384,0.224-1.65,1.775
				c0.393,0.826,4.335,1.663,4.066-0.206C47.238,38.119,47.18,37.949,47.101,37.801z"/>
			<path fill="#FFB387" d="M27.814,37.668c-0.597-0.816-1.802-0.823-2.659-0.708c-1.116,0.15-2.583,0.813-1.513,2.442
				c0.571,0.867,5.048,0.923,4.438-1.18C28.018,38.004,27.927,37.822,27.814,37.668z"/>
			<path fill="#FFCB9E" d="M16.852,31.793c-3.571,1.631-1.91,7.768,1.08,8.673c0.959,0.292,1.965,0.224,2.929,0.024
				c0.019-0.038,0.035-0.076,0.055-0.113c0.405-0.874-0.509-4.982-0.759-5.821C19.528,32.439,18.565,31.008,16.852,31.793z"/>
			<path opacity="0.2" fill="#BF3C1B" d="M18.888,33.936c-0.958-0.513-3.449,0.162-2.4,2.168c0.702-1.76,1.724-0.52,1.491,0.746
				c-0.157,0.85-1.068,0.807-0.222,1.957c0.457,0.625,1.461,0.465,1.979,0.175C21.377,38.064,20.055,34.563,18.888,33.936z"/>
			<path fill="#A16B43" d="M41.413,29.674c2.194,0.208,4.027-0.442,7.319-0.168C47.525,27.994,43.058,27.962,41.413,29.674z"/>
			<path opacity="0.2" fill="#BF3C1B" d="M36.537,38.508c-0.747,0.008-1.046-0.305-1.567-0.018s0.614,1.304,1.538,1.227
				c1.045-0.088,1.903-0.945,1.628-1.256C37.813,38.096,37.367,38.498,36.537,38.508z"/>
			<path opacity="0.15" fill="#BF3C1B" d="M30.007,19.057c-2.249,0.42-4.399,1.132-6.264,2.077c-2.921,1.48-3.108,3.011-4.529,5.799
				c-0.716,1.407-2.454,2.826-0.787,4.303c-1.678,0.64-2.063,3.523-1.009,4.83c0.293,0.362,0.634,0.62,1.099,0.695
				c-0.382,0.719-0.594,1.669-0.227,2.474c0.416,0.913,1.146,1.726,2.067,1.556c0.028,0.731,0.357,2.027,0.828,2.632
				c1.165,1.493,3.252,2.048,4.567,0.909c1.266-1.09,1.104-2.635-0.508-3.303c-0.147,0.463-0.699,0.965-1.192,0.592
				c-0.62-0.469,0.202-2.029,0.188-2.66c-0.037-1.684-1.077-1.031-2.032-1.914c0.493-0.467,1.192-1.021,1.175-1.845
				c-0.02-1.028-0.73-1.165-1.352-1.693c-1.036-0.88-0.721-0.723-0.16-1.657c0.691-1.151,1.129-2.662-0.27-3.552
				c0.678-0.065,1.369-0.371,1.479-1.102c1.2,0.638,2.607-0.626,2.992-1.707c-0.118,0.331,1.326-0.297,1.416-0.365
				c0.495-0.365,0.88-1.159,1.086-1.712c0.104,1.51,1.661,2.527,2.877,1.344c0.782,1.869,2.367,1.813,4.105,1.389
				c0.603,2.148-1.222,1.261-1.836,2.335c-1.021,1.784,2.655,2.563,3.644,2.21c1.153-0.411,1.788-1.669,1.728-2.846
				c0.14,1.399,2.145,0.749,2.865,0.224c0.423,1.964,2.243,2.372,3.67,1.04c0.25,3.237,4.479,3.187,3.635-0.586
				C47.315,19.814,38.038,17.563,30.007,19.057z"/>
			<path fill="#FDD281" d="M50.313,15.542c1.803-3.766-5.625-6.647-8.447-4.598c-0.439-4.642-6.286-4.915-9.082-1.629
				c-1.028-1.677-3.353-2.085-3.704-2.145c-1.599-0.27-3.362,0.058-4.41,1.28c1.56-0.018,4.194,2.985-0.494,2.549
				c-1.944-0.181-3.098-0.922-5.04,0.127c-1.574,0.85-2.64,2.342-1.153,3.795c-0.017,0.014-3.479-0.2-4.004,2.93
				c-0.215,1.288,0.313,1.605-0.972,2.568c-0.864,0.65-1.768,1.035-2.893,0.68c-0.013,1.265,1.166,2.876,1.769,3.31
				c1.21,0.87,2.536,0.735,3.83,0.107c-0.13,0.791,2.237,7.527,3.28,6.812c-1.717,1.175-2.451,3.548-0.76,4.642
				c0.268,0.173,0.595,0.313,0.986,0.412c-2.599,0.959-0.537,4.832,2.032,3.564c-2.228,2.646,4.398,5.747,4.539,2.561
				c0.037-0.853-0.552-1.794-1.406-1.973c0.437,0.092,0.604,2.039-0.557,1.548c-1.717-0.72,1.276-3.063-0.289-4.027
				c-0.769-0.47-3.023,0.048-2.186-1.373c0.595-1.011,1.882-1.536,0.344-2.767c-0.458-0.365-1.252-0.408-1.294-1.12
				c-0.039-0.666,0.783-0.965,1.091-1.395c1.075-1.51-0.596-3.298-1.966-3.849c0.88-0.052,3.372,0.378,3.087-1.29
				c1.38,1.203,3.403-0.492,2.85-2.113c0.251,0.735,1.575,0.496,2.014,0.194c0.819-0.555,0.744-1.637,1.163-2.448
				c0.168,0.884,0.355,1.766,1.201,2.218c0.847,0.454,1.77,0.301,2.22-0.571c0.52,1.805,2.301,3.272,3.879,1.458
				c0.354,0.69,0.563,1.675,0.061,2.349c-0.757,1.015-1.759-0.047-2.399,0.432c-0.803,0.601,0.66,1.871,1.197,2.042
				c1.045,0.331,2.54-0.196,3.177-1.083c0.521-0.721,0.389-1.552,0.431-2.382c0.877,1.419,2.346,2.37,3.805,0.89
				c1.057,1.332,2.103,1.97,3.614,0.648c0.728,1.207,0.602,2.833,2.347,3.084c2.027,0.293,1.91-2.053,1.548-3.409
				c-0.458-1.703-1.082-5.022,0.884-6.517c1.22-0.926,3.027-0.331,2.463,1.272c1.766-1.14,1.948-2.785,1.178-4.42
				C53.731,16.816,52.124,15.753,50.313,15.542z"/>
			<path fill="#FFF9F0" d="M19.307,41.082c-0.712,0.018-1.281,0.611-1.272,1.322c0.008,0.713,0.591,1.272,1.301,1.252
				c0.714-0.02,1.281-0.611,1.274-1.323C20.601,41.621,20.019,41.063,19.307,41.082z"/>
			<path fill="#A16B43" d="M21.844,29.205c4.115,0.097,5.502,0.28,8.359,0.206C28.701,27.482,23.66,27.615,21.844,29.205z"/>
			<g>
				<g opacity="0.5">
					<path fill="#F04D4D" d="M35.952,41.092c-2.942,0.059-7.271,0.893-9.571-0.467c3.774,6.486,6.142,7.701,9.157,7.934
						c3.778,0.287,5.107-2.333,5.707-4.301c0.254-0.835,2.198-2.961,2.946-3.441C41.829,41.359,39.511,41.025,35.952,41.092z"/>
				</g>
				<path fill="#8F3935" d="M28.146,41.768c0,0,2.264,4.361,6.967,4.523c3.015,0.105,5.012-0.887,5.594-2.345
					c0.635-1.596,1.929-2.156,1.929-2.156C34.396,43.748,28.146,41.768,28.146,41.768z"/>
				<path fill="#FFF9F0" d="M29.888,42.178c0,0,0.123,1.313,1.79,1.84c2.138,0.68,4.45,0.751,6.842,0.402
					c1.613-0.234,2.435-2.277,2.435-2.277S36.34,43.209,29.888,42.178z"/>
				<path fill="#FFF9F0" d="M36.335,44.561c-2.154,0.054-3.941-0.123-5.008-0.852c-0.761-0.521-0.838,0.025-0.679,0.37
					c0,0,0.67,1.804,4.235,2.267c3.428,0.446,5.237-1.67,4.849-2.047C39.349,43.92,38.331,44.516,36.335,44.561z"/>
				<path fill="#E8DAC5" d="M29.888,42.178c0,0,0.112,0.611,0.414,0.93c0,0,8.061-0.592,9.976,0.169c0,0,0.577-0.716,0.677-1.134
					C40.954,42.143,35.312,43.134,29.888,42.178z"/>
				<path fill="#E8DAC5" d="M31.965,43.982c2.859,1.828,6.34,0.37,6.34,0.37C34.657,45.155,31.965,43.982,31.965,43.982z"/>
			</g>
			<g>
				<path fill="#305D80" d="M26.685,31.3c-2.166-0.813-3.273,3.179-1.762,4.36c0.661-0.244,1.459-0.221,2.104,0.057
					C28.399,34.861,28.297,31.906,26.685,31.3z"/>
			</g>
			<path fill="#86BAE3" d="M27.022,32.62c-0.897,0.137-0.562,1.974,0.373,1.51C28.071,33.795,27.82,32.5,27.022,32.62z"/>
			<g>
				<path fill="#305D80" d="M45.75,31.343c-2.174-1.387-4.085,3.698-1.666,4.428c0.584-0.398,1.284-0.402,1.909-0.307
					C46.823,34.383,46.916,32.084,45.75,31.343z"/>
			</g>
			<path fill="#86BAE3" d="M45.624,32.425c-0.859,0.022-0.735,1.926,0.191,1.578C46.485,33.751,46.385,32.408,45.624,32.425z"/>
			<path fill="#121B21" d="M45.812,31.234c-1.993-0.765-2.647,1.597-2.647,1.597s0.966-1.191,2.324-0.436
				c3.08,1.716,5.063-0.371,5.063-0.371C48.111,32.846,46.88,31.646,45.812,31.234z"/>
			<path fill="#121B21" d="M25.235,31.411c-0.798,0.404-2.646,1.617-5.102,0.904c0,0,2.341,2.031,5.308,0.194
				c1.3-0.807,2.415,0.184,2.415,0.184S27.314,30.352,25.235,31.411z"/>
			<path fill="#FFE8BD" d="M28.795,13.948c0.001,0.01,0.001,0.018,0.002,0.028c0-0.01,0.001-0.018,0.002-0.025
				C28.804,13.88,28.795,13.88,28.795,13.948z"/>
			<path fill="#FFE8BD" d="M49.528,24.648c-0.039-0.945,0.017-1.506-0.207-2.5c-0.295-1.306-1.051-1.653-2.267-1.607
				c1.428-2.119,4.111-2.47,5.826-0.698c0.653-2.341-2.199-4.414-4.503-3.815c0.483-1.357,0.884-3.032-0.458-4.088
				c-1.438-1.13-3.742-1.231-5.269-0.303c-1.267,0.771-2.681,2.297-4.483,1.181c1.07,0.662,3.637-2.983,0.598-4.287
				c-1.893-0.813-3.535,0.252-4.818,1.508c-0.401,0.395-0.81,0.829-1.026,1.344c-1.295-2.45-3.269-3.944-6.394-3.199
				c2.373,0.04,3.362,3.734,1.227,4.771c-1.242,0.604-2.388-0.711-3.391-1.164c-0.936-0.424-2.369-0.588-3.381-0.315
				c-0.951,0.256-2.188,1.164-2.561,2.055c1.697-0.22,2.666,3.11,6.374,2.061c-1.563,1.306-3.26,1.427-4.666,0.773
				c-0.948-0.444-2.176-0.83-3.26-0.236c-1.575,0.862-1.175,3.066-1.953,4.428c-0.701,1.227-1.368,1.375-2.646,1.742
				c1.356,0.884,2.126,0.971,3.786,0.805c-1.121,0.113-1.778,1.69-1.874,2.553c-0.124,1.127,0.85,2.012,0.685,3.054
				c-0.139,0.882-1.344,1.46-2.168,1.433c0.559,0.619,1.437,0.634,2.2,0.371c0.952-0.327,1.159-1.576,1.943-1.748
				c1.074-0.234,2.191,1.57,2.171,2.396c1.613-0.779-0.295-3.266-1.243-3.991c1.061,0.008,3.976-0.119,3.778-1.609
				c0.12,0.898,2.05,0.002,2.298-0.481c0.346-0.676,0.179-1.721-0.508-2.152c0.6,0.079,1.712,0.656,2.181,0.101
				c0.398-0.472-0.077-1.58-0.337-2.006c4.851,1.871,3.468-3.146,0.493-3.074c2.251-0.182,2.851-0.523,3.12-3.974
				c-0.001-0.01-0.001-0.018-0.002-0.028c0-0.067,0.009-0.067,0.004,0.002c-0.001,0.008-0.002,0.016-0.002,0.025
				c0.163,2.002-0.371,4.018,3.026,3.7c-4.904,1.732-2.96,5.694,1.933,4.549c-0.744,0.174-0.798,1.575,0.314,2.376
				c0.685,0.494,2.157,0.214,2.433-0.143c0.868,1.338,1.139,2.513,0.1,3.692c1.177,0.065,1.618-1.687,1.794-2.541
				c0.888,0.537,1.692,1.358,2.798,0.92c0.837-0.333,1.282-1.239,1.823-1.873c0.012,1.473,0.568,2.568,1.462,2.763
				c1.071,0.232,1.915-0.141,2.694-0.945c-0.081,1.237,0.489,2.334,1.147,2.971c0.62,0.604,2.051,1.425,3.308,0.529
				c-0.542,0-0.979-0.266-1.205-0.725c2.067-0.2,3.681-1.296,3.498-3.417C52.507,26.474,49.624,26.809,49.528,24.648z"/>
			<path fill="#FDD281" d="M40.576,21.789c0.93,3.288,3.755,4.172,5.443,1.484C44.257,24.849,41.373,23.513,40.576,21.789z"/>
			<path fill="#FDD281" d="M18.724,25.477c1.996,1.681,4.377,0.071,3.377-2.353C21.878,24.704,19.949,25.946,18.724,25.477z"/>
			<path fill="#FDD281" d="M46.199,24.46c-1.214,2.253,1.024,4.037,3.246,2.509C47.778,27.164,46.025,25.705,46.199,24.46z"/>
			<path fill="#FDD281" d="M43.44,19.23c1.497,1.734,3.409,2.103,5.635,1.234l-0.087-1.508C47.616,19.658,45.52,20.011,43.44,19.23z
				"/>
			<path fill="#FDD281" d="M44.504,14.83c1.498,1.734,2.886,1.611,4.298,1.12l0.251-1.707C48.061,15.08,45.992,15.667,44.504,14.83z
				"/>
			<path fill="#FDD281" d="M13.878,23.176l0.464,1.48c2.404,0.054,4.05-0.941,4.793-3.068
				C17.489,23.023,15.422,23.364,13.878,23.176z"/>
			<path fill="#FFE8BD" d="M10.721,29.575l-0.059-0.971c-1.021,1.118-1.761,2.38-1.012,3.762c0.488,0.904,1.851,1.871,2.948,1.096
				c0.442-0.313,0.584-1.132,0.681-1.604c-0.02-0.018-0.041-0.038-0.061-0.055C11.86,31.95,10.413,30.896,10.721,29.575z"/>
			<path fill="#FFE8BD" d="M12.18,34.873l-0.816,0.485c-1.964,0.044-2.958,3.288-2.112,4.682c0.52,0.853,1.598,1.448,2.616,1.639
				c-0.707-1.092-1.37-2.396-1.031-3.702C11.124,36.873,12.148,36.061,12.18,34.873z"/>
			<path fill="#FFE8BD" d="M54.386,31.056c-0.518-0.356-1.115-0.606-1.75-0.723v0.325c1.741,2.238,1.415,3.929,0.432,6.216
				c0.004,0,0.089,0.083,0.091,0.061C55.592,35.941,56.755,32.673,54.386,31.056z"/>
			<path fill="#FFE8BD" d="M53.161,38.926l-0.818-0.216c-0.357,1.909,2.048,1.462,2.334,2.87
				C55.091,40.406,54.891,38.835,53.161,38.926z"/>
			<path fill="#FFE8BD" d="M12.53,44.115c-0.999,0.975-0.865,3.086,0.19,4.039c0.045-0.615,0.443-1.093,0.443-1.715
				c-0.002-0.576-0.417-1.029-0.342-1.675L12.53,44.115z"/>
		</g>
	</g>
</g>
</svg>
