<?xml version="1.0" encoding="utf-8"?>
<!-- Generator: Adobe Illustrator 16.0.0, SVG Export Plug-In . SVG Version: 6.00 Build 0)  -->
<!DOCTYPE svg PUBLIC "-//W3C//DTD SVG 1.1//EN" "http://www.w3.org/Graphics/SVG/1.1/DTD/svg11.dtd">
<svg version="1.1" id="Capa_1" xmlns="http://www.w3.org/2000/svg" xmlns:xlink="http://www.w3.org/1999/xlink" x="0px" y="0px"
	 width="67px" height="67px" viewBox="0 0 67 67" enable-background="new 0 0 67 67" xml:space="preserve">
<g>
	<defs>
		<circle id="SVGID_1_" cx="33.502" cy="33.498" r="33.498"/>
	</defs>
	<clipPath id="SVGID_2_">
		<use xlink:href="#SVGID_1_"  overflow="visible"/>
	</clipPath>
	<g clip-path="url(#SVGID_2_)">
		<g>
			<g>
				<path fill="#313142" d="M25.455,59.718l-2.662-4.227c-3.701,2.331-5.857,6.728-5.678,11.504h4.992
					c0-0.021-0.006-0.04-0.007-0.06C21.945,63.885,23.23,61.119,25.455,59.718z"/>
			</g>
		</g>
		<g>
			<g>
				<path fill="#313142" d="M45.353,55.491l-2.661,4.227c2.225,1.401,3.509,4.167,3.354,7.218c-0.001,0.02-0.006,0.039-0.007,0.06
					h4.992C51.211,62.219,49.055,57.822,45.353,55.491z"/>
			</g>
		</g>
		<g>
			<path fill="#6E7073" d="M42.025,53.996c-4.938-2.65-12.136-1.736-15.416,0.397c-3.94,2.563-3.676,6.587-2.744,12.602h20.646
				C45.531,61.031,45.878,56.064,42.025,53.996z"/>
			<g>
				<path fill="#313142" d="M21.847,56.248c-0.302,0.783,0.688,5.768,1.553,10.747h5.425c-0.03-4.353-0.421-9.417-1.685-13.526
					C27.14,53.469,22.263,55.166,21.847,56.248z"/>
			</g>
			<g>
				<path fill="#313142" d="M46.3,56.248c-0.417-1.082-5.294-2.779-5.294-2.779c-1.264,4.109-1.654,9.174-1.684,13.526h5.424
					C45.611,62.016,46.601,57.031,46.3,56.248z"/>
			</g>
			<path opacity="0.2" d="M27.485,56.791c0.955,3.381,4.246,5.294,4.246,5.294l2.342-2.708l3.079,2.691
				c2.098-1.141,4.127-3.866,4.161-6.143C41.335,54.289,26.531,53.407,27.485,56.791z"/>
			<path fill="#9FA2A6" d="M27.522,52.77c-2.621,3.723,3.999,8.426,3.999,8.426l2.571-2.139l2.923,2.235c0,0,5.989-3.48,3.865-8.148
				C38.97,48.944,30.161,49.02,27.522,52.77z"/>
			<path fill="#854422" d="M38.821,49.42c-1.659-1.309-4.898-1.518-6.882-1.091c-2.067,0.444-3.441,2.37-3.584,4.352
				c-0.18,2.511,3.519,5.866,6.088,5.933C36.379,58.649,44.597,53.971,38.821,49.42z"/>
			<circle fill="#9FA2A6" cx="34.215" cy="62.185" r="0.655"/>
			<circle fill="#9FA2A6" cx="34.227" cy="65.141" r="0.654"/>
		</g>
		<g>
			<path fill="#854422" d="M49.547,34.943c-1.565-0.662-2.535,0.39-3.029,2.485c-0.196,0.829-0.729,5.277-0.337,6.104
				c0.019,0.037,0.038,0.071,0.052,0.107c0.874,0.137,1.779,0.143,2.63-0.197C51.516,42.385,52.805,36.317,49.547,34.943z"/>
			<path fill="#70442D" d="M17.762,21.541c-1.038,4.901-1.271,11.404,1.089,16.091c1.231,2.444,4.171,0.813,6.248,0.3
				c2.552-0.633,5.119-1.21,7.687-1.775c4.22-0.932,8.85-0.004,13.131,0.402c3.353,0.32,3.6,1.887,3.603-0.841
				c0.003-3.382,0.867-8.958,0.007-12.67C45.342,4.996,20.262,9.75,17.762,21.541z"/>
			<path fill="#9C552C" d="M32.384,15.532c-11.961,1.627-13.852,12.569-12.687,23.292c0.873,8.032,6.809,16.979,16.123,16.569
				c9.504-0.419,14.544-12.057,13.583-21.931C48.36,22.726,46.051,13.671,32.384,15.532z"/>
			<path fill="#9C552C" d="M17.058,34.268c-3.898,0.773-1.904,7.113,1.061,8.57c1.18,0.581,2.494,0.325,3.023-0.92
				c0.645-0.862,0.218-3.281-0.49-5.387C20.078,34.824,18.93,33.896,17.058,34.268z"/>
			<path opacity="0.7" fill="#66241B" d="M18.363,36.424c-0.865-0.426-3.064,0.242-2.086,1.977c0.585-1.567,1.521-0.503,1.343,0.617
				c-0.119,0.754-0.931,0.742-0.151,1.734c0.422,0.535,1.311,0.364,1.765,0.097C20.674,39.993,19.417,36.943,18.363,36.424z"/>
			<path fill="#70442D" d="M33.554,13.434c-9.701-0.08-16.6,6.885-15.956,20.769c0.404-0.01,1.234-0.01,1.838,0.584
				c0.803,0.789,0.775,1.653,0.995,2.092c0.101,0.222,0.218,0.588,0.985,0.551c-1.443-4.666-0.61-11.216,0.975-13.343
				c3.933-5.271,12.769,1.858,15.697,1.749c2.208-0.082,7.528-6.727,9.637-1.735C49.16,27.503,49.121,13.563,33.554,13.434z"/>
		</g>
		<g>
			<g>
				<path fill="#261B18" d="M27.593,31.27c-2.314-0.759-3.361,3.32-1.726,4.473c0.689-0.271,1.534-0.27,2.225-0.008
					C29.515,34.825,29.313,31.834,27.593,31.27z"/>
			</g>
			<path opacity="0.7" fill="#66241B" d="M37.223,38.813c-1.484-0.032-2.047-0.62-3.11-0.135c-1.061,0.479,0.345,2.185,2.977,2.192
				c2.62,0.008,3.828-1.46,3.31-2.038C39.797,38.16,38.87,38.854,37.223,38.813z"/>
			<path fill="#BF6C3C" d="M36.684,33.258c-1.381,0.099-3.508,5.426-2.777,5.847c1.786,1.028,5.607,0.638,6.686-0.197
				C41.016,38.578,38.244,33.153,36.684,33.258z"/>
			<g>
				<path fill="#261B18" d="M47.296,31.274c-2.261-1.388-3.978,2.985-2.114,4.244c0.6-0.388,1.792-0.254,2.369,0.02
					C48.472,34.538,48.508,32.019,47.296,31.274z"/>
			</g>
			<path opacity="0.7" fill="#E6D2C3" d="M26.861,32.03c-0.876,0.39-0.03,2.085,0.794,1.365
				C28.249,32.877,27.641,31.685,26.861,32.03z"/>
			<path opacity="0.7" fill="#E6D2C3" d="M46.4,31.746c-0.896,0.17-0.485,1.935,0.437,1.443C47.503,32.837,47.2,31.595,46.4,31.746z
				"/>
			<path fill="#261B18" d="M41.101,29.481c0.386,0.911,2.164,0.351,2.715,0.036c1.032-0.591,1.833-0.603,2.966-0.307
				c0.26,0.07,2.766,0.606,2.994,0.09c-0.971-0.987-2.993-2.452-4.328-2.4C44.622,26.932,40.333,27.664,41.101,29.481z"/>
			<path fill="#261B18" d="M26.248,27.344c-1.428-0.04-3.597,1.435-4.643,2.427c0.238,0.509,2.877,0.081,3.155,0.011
				c1.211-0.306,2.619-0.611,3.714-0.033c0.583,0.307,1.962,1.029,2.383,0.121C31.692,28.054,27.124,27.366,26.248,27.344z"/>
			<path fill="#BF6C3C" d="M48.524,37.647c-0.64-0.884-1.975-1.036-2.927-1.026c-1.241,0.012-2.886,0.489-1.74,2.242
				c0.61,0.932,5.572,1.534,4.95-0.631C48.742,38.008,48.647,37.816,48.524,37.647z"/>
			<path fill="#BF6C3C" d="M29.345,37.195c-0.854-0.764-2.258-0.62-3.231-0.396c-1.271,0.289-2.848,1.149-1.279,2.687
				c0.833,0.819,6.055,0.321,4.931-1.757C29.647,37.517,29.506,37.338,29.345,37.195z"/>
			<g>
				<path fill="#D47B48" d="M26.865,41.09c0,0,1.858,10.591,9.412,10.479c4.193-0.061,5.617-2.437,7.088-6.005
					c0.696-1.685,0.903-3.51,1.964-4.792C43.14,42.633,33.273,44.572,26.865,41.09z"/>
				<path opacity="0.7" fill="#66241B" d="M43.821,40.986c-0.228,0.17,0.279,0.054,0.97-0.063c0.684-0.117,0.452,1.025,0.878,0.907
					c0.424-0.117,0.535-0.944,0.03-1.377C45.195,40.021,43.821,40.986,43.821,40.986z"/>
				<path opacity="0.7" fill="#66241B" d="M26.695,40.737c-0.608,0.168-0.923,1.219-0.53,1.397c0.392,0.175,0.594-0.764,1.258-0.938
					c0.711-0.187,1.573,0.058,1.373-0.144C28.796,41.053,27.379,40.551,26.695,40.737z"/>
				<path fill="#78231F" d="M28.261,42.294c0,0,2.317,6.159,8.184,6.369c2.912,0.104,4.767-2.062,5.573-3.674
					c0.899-1.796,2.087-2.981,2.087-2.981C35.72,47.501,28.261,42.294,28.261,42.294z"/>
				<path fill="#FFF7EA" d="M28.261,42.294c0,0,1.718,2.561,3.732,3.401c2.587,1.076,4.917,1.174,7.794,0.468
					c1.938-0.476,4.317-4.155,4.317-4.155S37.479,46.609,28.261,42.294z"/>
				<path fill="#FFF7EA" d="M37.065,46.248c-2.687-0.018-4.132-0.592-5.406-1.132c-1.064-0.448-0.897,0.636-0.681,1.165
					c0,0,1.095,1.922,4.979,2.348c3.659,0.4,5.287-2.434,4.789-3.006C40.247,45.052,39.757,46.268,37.065,46.248z"/>
				<path fill="#ECDCC4" d="M28.261,42.294c0,0,0.855,1.381,1.633,1.924c0,0,6.715,1.479,12.899-0.452c0,0,1.227-1.261,1.312-1.758
					C44.104,42.008,37.249,46.533,28.261,42.294z"/>
				<path fill="#ECDCC4" d="M30.915,45.112c5.853,3.458,9.399,0.741,9.399,0.741C35.196,47.064,30.915,45.112,30.915,45.112z"/>
			</g>
		</g>
		<g>
			<path opacity="0.2" d="M46.171,38.998c-0.354-0.141-0.924-0.034-1.297-0.048c-0.545-0.021-1.101-0.026-1.638-0.129
				c-0.688-0.133-1.382-0.431-1.965-0.878c-0.409-0.314-0.765-0.704-1.025-1.16c-0.543-0.955-0.575-2.127-0.228-3.162
				c0.478-1.431,1.954-1.553,3.177-1.671c1.544-0.149,3.111-0.078,4.626-0.387c0.187-0.038-0.066-1.324-0.124-1.463
				c-0.183-0.439-0.471-0.744-0.903-0.889c-1.202-0.398-2.757,0.137-3.919,0.468s-2.531,0.488-3.6,1.084
				c-0.985,0.549-1.399,0.908-2.596,0.861c-2.137-0.083-4.207-1.482-6.469-1.706c-2.357-0.234-4.771-0.497-7.088,0.157
				c-0.603,0.169-2.425,0.869-1.188,1.512c1.205,0.625,3.006,0.415,4.324,0.459c0.608,0.021,1.221,0.034,1.828,0.085
				c2.153,0.187,5.465-0.129,5.307,2.562c-0.107,1.848-1.287,3.748-2.785,4.102c-1.437,0.342-2.976,0.479-4.432,0.48
				c-1.113,0-2.19-0.209-3.211-0.674c-0.289-0.131-1.154-0.678-1.432-0.285c-0.471,0.662,1.286,1.753,1.746,1.958
				c1.049,0.466,2.165,0.603,3.305,0.718c2.808,0.287,5.698,0.122,7.271-2.469c0.911-1.5,1.363-3.263,2.206-4.803
				c1.381-2.523,1.997,0.886,2.423,2.377c0.236,0.838,0.58,1.648,1.066,2.355c0.862,1.244,2.55,1.912,3.956,1.975
				c0.87,0.039,3.761,0.645,4.633-1.119C48.388,38.812,46.763,39.23,46.171,38.998z"/>
			<g>
				<path fill="#D9C9B2" d="M20.689,29.848c-1.847,0.179-3.459-0.236-3.87,0.165c-0.536,0.523,0.563,2.109,0.563,2.109
					s0.614,0.377,1.484,0.393c0.204,1.279,0.347,4.603,2.839,6.544c2.082,1.625,8.545,1.715,10.48,0.58
					c2.396-1.406,3.305-3.785,3.597-6.093C36.495,27.887,23.294,29.596,20.689,29.848z M31.979,37.691
					c-2.207,1.635-8.141,1.314-9.792-0.48c-1.273-1.383-1.68-4.421-0.985-4.901c2.12-1.47,10.445-1.496,12.458-0.154
					C34.634,32.804,33.652,36.451,31.979,37.691z"/>
			</g>
			<g>
				<path fill="#D9C9B2" d="M50.595,28.893c-2.228-0.076-13.544-0.894-12.636,4.701c0.371,2.286,1.269,4.596,3.38,5.838
					c1.709,1.004,7.199,0.479,8.883-1.28c2.017-2.105,1.96-5.433,2.065-6.719c0.739-0.075,1.243-0.494,1.243-0.494
					s0.849-1.657,0.364-2.141C53.522,28.427,52.174,28.946,50.595,28.893z M49.814,36.305c-1.307,1.896-6.32,2.613-8.279,1.133
					c-1.485-1.122-2.514-4.684-1.721-5.396c1.635-1.469,8.699-2.002,10.576-0.68C51.004,31.793,50.822,34.844,49.814,36.305z"/>
			</g>
			<path opacity="0.3" fill="#FFFFFF" d="M40.882,31.726c-1.25,0.523,0.969,1.29,1.447,1.38c1.664,0.319,3.561,0.258,5.349-0.034
				c0.941-0.153,2.975-0.989,2.413-1.555C49.307,30.727,42.263,31.149,40.882,31.726z"/>
			<path fill="#FFFFFF" d="M46.398,31.582c-0.674,0.091-1.116,0.284-0.941,0.608c0.344,0.641,4.283,0.41,4.564-0.063
				C50.297,31.664,47.831,31.389,46.398,31.582z"/>
			<path opacity="0.7" fill="#FFFFFF" d="M42.157,36.475c-0.424-0.016-0.716,0.08-0.64,0.36c0.146,0.553,2.592,0.886,2.812,0.549
				C44.543,37.051,43.056,36.51,42.157,36.475z"/>
			<path opacity="0.7" fill="#FFFFFF" d="M23.644,36.899c-0.471-0.045-0.802,0.03-0.738,0.317c0.122,0.562,2.827,1.055,3.097,0.732
				C26.265,37.632,24.643,36.991,23.644,36.899z"/>
			<path opacity="0.3" fill="#FFFFFF" d="M33.007,31.983c-1.688-0.482-9.932-0.568-10.729,0.213
				c-0.574,0.559,1.915,1.256,3.029,1.358c2.122,0.195,4.332,0.167,6.22-0.206C32.069,33.242,34.536,32.419,33.007,31.983z"/>
			<path fill="#FFFFFF" d="M29.412,31.737c-0.756,0.074-1.258,0.254-1.073,0.585c0.365,0.65,4.775,0.52,5.104,0.054
				C33.767,31.919,31.018,31.581,29.412,31.737z"/>
			<path fill="#D9C9B2" d="M39.595,30.251c-1.756,0.58-3.469,0.78-5.787,0.153c-1.853-0.5,0.978,1.109,1.193,2.045
				c0.217,0.935-0.039,3.977,0.577,2.264c0.614-1.712,1.784-1.786,2.557-0.224c0.769,1.564,0.817-2.56,1.123-2.944
				C39.564,31.161,41.298,29.688,39.595,30.251z"/>
			<path fill="#FFFFFF" d="M21.593,30.342c5.01-0.069,9.009-0.185,12.101,0.785C31.621,29.636,28.211,29.498,21.593,30.342z"/>
			<path fill="#FFFFFF" d="M50.182,29.315c-5.764,0.021-8.449-0.026-10.046,1.473C42.668,29.618,45.887,29.816,50.182,29.315z"/>
		</g>
	</g>
</g>
</svg>
