<?xml version="1.0" encoding="utf-8"?>
<!-- Generator: Adobe Illustrator 16.0.0, SVG Export Plug-In . SVG Version: 6.00 Build 0)  -->
<!DOCTYPE svg PUBLIC "-//W3C//DTD SVG 1.1//EN" "http://www.w3.org/Graphics/SVG/1.1/DTD/svg11.dtd">
<svg version="1.1" id="Capa_1" xmlns="http://www.w3.org/2000/svg" xmlns:xlink="http://www.w3.org/1999/xlink" x="0px" y="0px"
	 width="67px" height="67px" viewBox="0 0 67 67" enable-background="new 0 0 67 67" xml:space="preserve">
<g>
	<defs>
		<circle id="SVGID_1_" cx="33.502" cy="33.499" r="33.498"/>
	</defs>
	<clipPath id="SVGID_2_">
		<use xlink:href="#SVGID_1_"  overflow="visible"/>
	</clipPath>
	<g clip-path="url(#SVGID_2_)">
		<g>
			<path fill="#D9D9D9" d="M44.394,53.905l-4.604,3.633c0.801,1.015,2.601,3.872,3.951,9.456h6.101
				C48.868,60.629,47.305,55.738,44.394,53.905z"/>
		</g>
		<g>
			<path fill="#D9D9D9" d="M25.14,53.905c-2.912,1.833-4.475,6.724-5.447,13.089h6.101c1.35-5.584,3.15-8.441,3.951-9.456
				L25.14,53.905z"/>
		</g>
		<g>
			<path fill="#85B428" d="M44.476,60.029c0.002-2.141,0.582-3.822,1.292-5.032c0.182-0.312-1.159-2.939-11.009-2.897
				c-9.561,0.043-10.722,2.75-10.594,3.06c0.481,1.169,0.977,3.178,0.989,4.91c0.021,2.85-0.063,5.016,0.006,6.925h19.27
				C44.521,65.1,44.471,62.775,44.476,60.029z"/>
		</g>
		<g>
			<g>
				<path fill="#45362E" d="M42.666,59.975c0.191-2.977,0.345-5.328,0.101-6.773c-0.072-0.432-0.476-0.721-0.914-0.65
					c-0.432,0.072-0.724,0.482-0.651,0.914c0.213,1.264,0.059,3.646-0.12,6.406c-0.136,2.096-0.293,4.561-0.33,7.123h1.591
					C42.375,64.521,42.524,62.141,42.666,59.975z"/>
			</g>
			<g>
				
					<rect x="41.239" y="62.281" transform="matrix(-0.0221 -0.9998 0.9998 -0.0221 -20.711 106.3093)" fill="#F2F2F2" width="0.795" height="2.006"/>
			</g>
		</g>
		<g>
			<g>
				<path fill="#45362E" d="M28.261,53.465c0.074-0.432-0.218-0.842-0.65-0.914c-0.431-0.069-0.842,0.219-0.915,0.65
					c-0.243,1.445-0.091,3.793,0.102,6.768c0.14,2.169,0.289,4.551,0.323,7.025h1.59c-0.036-2.564-0.193-5.031-0.329-7.129
					C28.202,57.108,28.049,54.729,28.261,53.465z"/>
			</g>
			<g>
				
					<rect x="26.82" y="62.886" transform="matrix(-0.9998 -0.0209 0.0209 -0.9998 54.3207 127.1351)" fill="#F2F2F2" width="2.009" height="0.795"/>
			</g>
		</g>
		<g>
			<path fill="#C9BEB7" d="M50.608,15.48c0.688-1.12,1.401-1.696,0.147-2.701c-1.035-0.829-2.626-1.059-3.848-0.583
				c0.695-2.848-3.248-3.534-4.788-1.925c-0.439-3.157-3.472-3.583-5.317-1.316c-0.896-2.384-4.318-2.854-4.927,0.013
				c-2.06-2.654-5.842-1.258-6.519,1.792c-1.674-2.159-5.667-1.243-5.425,1.778c-1.331-0.564-2.531-0.255-3.62,0.907
				c-0.946,1.01-0.726,3.119-0.065,4.154c-3.616-0.235-3.496,3.028-1.703,4.818c-2.81,0.178-4.032,4.14-0.658,4.447
				c-1.831,0.65-2.056,3.112,0.167,3.455c-2.264,0.809-1.297,2.811,0.669,3.239c-0.689,2.007-0.25,2.804,1.316,4.042
				c0.958,0.758,1.622,1.712,2.447,2.636c2.175,2.429,3.729,5.331,5.84,7.755c2.036,2.342,4.375-1.682,6.085-2.66
				c2.266-1.295,5.022-1.998,7.627-1.61c2.309,0.343,3.935,2.753,6.282,2.806c1.423,0.031,2.333-1.177,2.924-2.32
				c0.666-1.287,0.453-2.299,0.73-3.557c0.26-1.186,1.392-1.523,2.117-2.357c0.313-0.359,1.239-2.727-0.004-2.713
				c2.099-0.021,2.095-1.768,1.41-3.109c-0.146-0.284-0.322-0.55-0.515-0.777c2.285-0.341,1.411-2.074,0.585-3.393
				c0.798-0.52,1.36-0.592,1.293-1.646c-0.061-0.912-0.9-1.661-1.653-2.026c0.803-0.585,1.802-0.601,1.901-1.729
				c0.094-1.046-0.871-2.068-1.589-2.67C54.927,19.438,53.387,15.828,50.608,15.48z"/>
			<path fill="#9C552C" d="M32.002,13.999c-8.443,1.647-14.395,13.79-12.846,25.182c1.163,8.531,7.744,17.893,17.656,17.187
				c10.113-0.721,15.146-13.265,13.837-23.757C49.229,21.202,43.828,11.693,32.002,13.999z"/>
			<path fill="#9C552C" d="M16.21,34.434c-4.146,1.143-2.482,7.197,0.905,8.411c1.085,0.39,2.239,0.442,3.35,0.366
				c0.021-0.035,0.044-0.068,0.067-0.104c0.495-0.787-0.198-5.199-0.452-6.031C19.439,34.983,18.2,33.885,16.21,34.434z"/>
			<path opacity="0.7" fill="#66241B" d="M17.665,36.664c-0.932-0.432-3.256,0.344-2.163,2.164c0.576-1.688,1.605-0.581,1.448,0.62
				c-0.106,0.806-0.971,0.815-0.112,1.849c0.466,0.561,1.407,0.352,1.883,0.053C20.229,40.398,18.803,37.188,17.665,36.664z"/>
			<path opacity="0.4" fill="#66261E" d="M26.712,26.766c6.624-0.052,11.84-0.313,19.663-0.834
				C39.855,24.888,30.627,25.872,26.712,26.766z"/>
			<path opacity="0.4" fill="#66261E" d="M27.546,24.706c5.815-0.046,10.396-0.274,17.265-0.733
				C39.087,23.058,30.984,23.92,27.546,24.706z"/>
			<path fill="#C9BEB7" d="M50.713,43.509c1.184-0.497,0.718-2.632-0.281-2.796c-6.525,13.192-18.949,11.445-24.006,5.799
				c-2.821-3.152-1.647-5.676-3.681-4.999c-4.106,1.368-6.143,4.183-2.724,4.991c-1.425,1.059-0.736,2.838,1.076,2.553
				c-0.738,1.564-0.376,3.832,1.951,3.381c-0.916,1.919,0.594,3.363,2.646,2.318c-0.093,1.973,2.149,1.734,3.218,0.654
				c0.377,1.885,2.352,2.08,3.967,1.328c0.121,2.016,3.283,1.818,4.226,0.518c1.274,1.525,5.181,1.452,5.167-0.961
				c1.449,0.985,5.654-0.16,4.209-2.322c1.91,1.445,4.257-2.865,2.123-4.084c2.008,0.338,2.883-1.784,1.229-3.057
				C51.611,46.923,52.591,44.081,50.713,43.509z"/>
			<path opacity="0.7" fill="#F0EAE6" d="M26.841,48.258c-2.122-2.061-3.396-4.287-3.396-4.287c-1.022,0.945-3.583,4.32-0.474,4.266
				c-0.594,1.321-0.746,3.474,1.423,2.701c-0.225,0.639-0.533,1.735-0.137,2.333c0.687,1.032,1.849,0.063,2.656-0.315
				c0.273,2.351,1.773,1.29,3.437,0.71c-0.553,2.278,2.133,2.076,3.426,1.04c0.029,1.943,3.858,2.023,4.479,0.597
				c0.9,1.959,3.464,0.268,4.081-0.918c1.759,1.307,4.426,0.116,3.324-1.978c2.564,0.92,2.836-1.376,1.986-3.029
				c2.644-0.704,1.74-3.41,1.04-4.215C44.218,53.287,32.611,53.856,26.841,48.258z"/>
			<path opacity="0.4" fill="#66241B" d="M41.89,15.809c-3.328-0.997-6.767-1.548-10.24-1.609c-3.083-0.053-6.433-0.226-9.308,1.075
				c-1.579,0.714-3.518,1.695-4.107,3.442c-0.727,2.154-0.436,4.588-0.088,6.789c0.175,1.108,1.022,4.139,2.764,3.688
				c0.987-0.254,0.922-3.254,1.281-3.271c1.582-0.071,2.865-1.325,2.635-2.908c1.095,0.029,2.49-0.393,2.693-1.61
				c0.448,0.462,1.147,0.69,1.822,0.724c0.046,0.001,0.093,0.003,0.139,0.003c1.23,0.012,1.405-0.777,2.23-1.102
				c1.13-0.446,3.053,0.83,3.808-0.854c1.318,0.825,2.979,1.375,4.174-0.02c0.846,1.29,3.273,2.077,4.526,0.896
				c1.309,1.279,5.148-0.17,4.034-2.248C47.322,17.066,43.596,16.319,41.89,15.809z"/>
			<path fill="#C9BEB7" d="M37.894,10.568c-2.818-0.545-5.845-0.599-8.686-0.261c-4.782,0.57-10.554,2.84-12.064,7.906
				c-0.931,3.112-0.445,6.72-0.206,9.901c0.12,1.608-0.41,3.46-0.009,5.03c0.336,1.313,1.639,1.798,2.58,0.615
				c0.622-0.783,2.865-9.141,2.249-9.197c1.727,0.156,2.516-1.309,2.438-2.826c1.378,0.339,3.088,0.065,3.584-1.459
				c0.585,0.386,1.532,0.685,2.263,0.556c0.794-0.142,1.082-1.073,1.523-1.199c0.629-0.18,1.618,0.64,2.38,0.494
				c0.822-0.157,1.226-0.751,1.665-1.459c1.152,1.81,3.786,1.404,5.139,0.128c0.666,1.744,2.601,2.359,4.159,1.331
				c-0.65,0.428,0.942,1.763,1.767,2.247c0.176,0.103,0.315,0.167,0.393,0.176c1.129,0.135,1.736-0.725,2.247-1.624
				c1.275-2.251,0.277-4.6-1.345-6.404C45.898,12.219,40.826,11.134,37.894,10.568z"/>
			<path opacity="0.7" fill="#F0EAE6" d="M49.264,16.735c0.47-0.717,0.79-1.907-0.005-2.546c-0.708-0.57-2.949-0.367-3.526,0.347
				c0.266-1.014,0.139-2.658-0.907-3.235c-0.907-0.5-2.095,1.083-2.523,1.808c0.003-1.158-1.088-2.789-2.032-3.405
				c-1.492-0.968-2.249,0.866-2.888,1.934c-0.274-1.124-1.458-2.07-2.567-2.254c-1.334-0.221-1.927,1.483-2.431,2.494
				c-1-0.948-1.545-2.345-3.114-2.349c-0.908-0.001-1.699,0.199-2.158,1.05c-0.421,0.778-0.129,1.632-0.433,2.421
				c-1.243-0.617-1.982-1.671-3.513-1.561c-1.81,0.128-1.823,1.494-1.901,2.985c-3.983-1.663-5.253,1.895-3.527,4.234
				c-1.881,0.29-2.178,4.255-0.005,4.384c-1.483,0.765-1.887,2.238-0.066,3.02c2.059,0.884,2.582-1.715,2.047-3.192
				c1.394,0.123,1.61-1.076,1.588-2.179c0.733,0.224,1.086,0.602,1.863,0.263c0.835-0.362,0.823-0.903,0.905-1.746
				c0.688,0.343,1.348,1.022,2.196,0.63c0.623-0.287,0.941-1.217,1.064-1.849c0.424,0.608,1.158,1.092,1.893,0.998
				c0.937-0.118,1.154-0.68,1.505-1.427c0.763,0.612,1.485,1,2.461,0.736c1.101-0.299,1.297-0.906,1.682-1.883
				c1.491,1.147,4.309,2.299,5.487,0c1.073,1.507,3.725,3.366,5.345,1.398c1.122,1.312,2.152,3.044,4.184,2.356
				C52.164,19.397,51.527,16.785,49.264,16.735z"/>
		</g>
		<g>
			<path opacity="0.7" fill="#66241B" d="M23.149,34.957c0.132,0.695,1.684,0.172,2.174,0.227c-0.367,0.482-1.608,0.627-2.083,0.982
				c-0.506,0.377-0.423,0.58,0.221,0.488c0.384-0.055,2.482-0.813,2.734-1.08C27.251,34.444,23.678,34.748,23.149,34.957z"/>
			<path opacity="0.7" fill="#66241B" d="M47.404,34.865c0.225,0.268,2.113,1.021,2.458,1.077c0.579,0.088,0.654-0.115,0.2-0.491
				c-0.427-0.354-1.544-0.498-1.874-0.979c0.442-0.057,2.199,0.465,2.318-0.229C50.032,34.033,46.454,33.736,47.404,34.865z"/>
			<path fill="#D17642" d="M49.643,37.115c-0.779-0.97-2.295-1.029-3.366-0.93c-1.406,0.125-3.229,0.828-1.828,2.758
				c0.747,1.025,6.389,1.28,5.55-1.176C49.909,37.514,49.789,37.299,49.643,37.115z"/>
			<path fill="#D17642" d="M29.531,37.424c-0.836-0.848-2.314-0.792-3.351-0.627c-1.354,0.218-3.687,1.52-1.734,2.858
				c1.407,0.968,6.501,0.573,5.483-1.65C29.824,37.773,29.689,37.582,29.531,37.424z"/>
			<path fill="#261B18" d="M28.748,32.089c-3.021-0.817-4.922,2.552-2.863,3.651c0.961-0.176,2.097-0.11,2.993,0.161
				C30.903,35.241,30.993,32.7,28.748,32.089z"/>
			<path opacity="0.7" fill="#66241B" d="M37.517,38.949c-1.271,0.016-2.389-0.563-3.581-0.035
				c-1.193,0.528,0.176,2.223,3.551,2.142c3.359-0.081,4.292-1.619,3.666-2.194C40.426,38.193,38.929,38.933,37.517,38.949z"/>
			<path fill="#D17642" d="M37.442,32.797c-2.39-0.208-4.27,4.43-3.253,5.947c0.713,1.066,5.976,1.029,6.803-0.218
				C41.294,38.07,39.724,32.994,37.442,32.797z"/>
			<path opacity="0.7" fill="#F0DED1" d="M27.671,32.678c-1.225,0.262-0.292,1.761,0.903,1.215
				C29.438,33.499,28.762,32.446,27.671,32.678z"/>
			<path fill="#261B18" d="M47.335,31.466c-3.104-0.408-4.537,3.186-2.35,4.002c0.928-0.304,2.062-0.391,2.987-0.241
				C49.894,34.304,49.643,31.771,47.335,31.466z"/>
			<path opacity="0.7" fill="#F0DED1" d="M46.348,32.192c-1.181,0.422-0.056,1.785,1.057,1.085
				C48.207,32.771,47.396,31.817,46.348,32.192z"/>
			<g opacity="0.8">
				<path fill="#541D15" d="M45.426,40.565c-1.179,2.515,1.961,3.522,3.108,1.062C47.478,42.197,46.006,41.764,45.426,40.565z"/>
				<path fill="#541D15" d="M24.802,42.113c0.78,2.448,4.077,1.404,3.271-1.098C27.316,42.223,25.773,42.672,24.802,42.113z"/>
				<g>
					<path fill="#541D15" d="M46.512,42.031c-0.376-0.103-0.798,0.095-0.939,0.438c-1.208,2.896-4.389,5.204-8.498,5.432
						c-4.271,0.243-8.052-1.824-9.442-5.185c-0.136-0.328-0.557-0.477-0.937-0.331c-0.379,0.144-0.578,0.528-0.44,0.855
						c1.606,3.88,5.894,6.233,10.805,5.958c0.13-0.008,0.259-0.018,0.387-0.025c4.564-0.376,8.111-3.012,9.493-6.334
						C47.082,42.496,46.891,42.136,46.512,42.031z"/>
				</g>
			</g>
			<path fill="#C9BEB7" d="M29.252,27.494c-2.666-0.352-6.898,0.577-6.498,1.979c0.399,1.403,1.901,0.277,3.935,0.32
				c2.155,0.046,3.866,0.655,4.756,0.012C32.933,28.727,31.465,27.784,29.252,27.494z"/>
			<path fill="#C9BEB7" d="M44.783,27.473c-1.974,0.276-3.36,1.193-2.164,2.25c0.716,0.63,2.279,0.042,4.176,0.004
				c1.789-0.036,2.992,1.071,3.488-0.301C50.778,28.056,47.159,27.137,44.783,27.473z"/>
		</g>
		<g>
			<g>
				<path fill="#212126" d="M40.139,30.871c-1.268,1.484-0.622,6.434,0.206,8.053c0.835,1.623,9.571,1.797,11.684,1.01
					c2.106-0.784,3.825-6.524,2.323-8.82C52.849,28.822,42,28.691,40.139,30.871z M51.542,38.846c-1.587,0.554-9.39,0.4-10.13-0.656
					c-0.735-1.061-1.005-5.504-0.104-6.508c1.323-1.476,10.467-1.264,11.788,0.232C54.414,33.409,53.124,38.293,51.542,38.846z"/>
			</g>
			<g>
				<path fill="#212126" d="M18.941,31.341c-1.604,1.551,0.049,6.628,1.398,8.182c1.352,1.555,11.474,0.908,13.508,0.018
					c2.037-0.887,2.039-6.425,0.313-8.62C32.432,28.726,21.297,29.065,18.941,31.341z M33,38.582
					c-1.522,0.599-10.286,1.058-11.441,0.083c-1.153-0.974-2.466-5.456-1.334-6.468c1.66-1.488,11.338-1.849,12.804-0.475
					S34.525,37.979,33,38.582z"/>
			</g>
			<path fill="#212126" d="M35.291,33.854c-0.219,0.106-1.131,1.393-0.484,1.694c0.158,0.079,2.054-1.591,4.979-0.402
				c0.371,0.152,0.727,0.113,0.602-0.396C39.92,32.848,36.627,33.195,35.291,33.854z"/>
			<path opacity="0.3" fill="#FFFFFF" d="M46.768,31.066c-0.592,0.154-4.63,0.921-3.873,2.82c0.497,1.25,9.88,2.11,10.513,0.031
				C54.701,29.678,47.926,30.763,46.768,31.066z"/>
			<path opacity="0.3" fill="#FFFFFF" d="M32.354,31.06c-1.534-0.484-4.779-0.222-6.657,0.095c-0.671,0.113-3.767,0.623-2.705,2.637
				c1.085,2.056,8.854,2.37,10.28,0.66C34.67,32.775,33.248,31.344,32.354,31.06z"/>
			<path fill="#FFFFFF" d="M47.419,31.385c-1.011,0.038-1.7,0.262-1.484,0.777c0.429,1.015,6.339,1.259,6.82,0.59
				C53.23,32.094,49.588,31.312,47.419,31.385z"/>
			<path opacity="0.7" fill="#FFFFFF" d="M42.864,36.873c-0.625-0.08-1.075,0.025-0.997,0.458c0.154,0.853,3.765,1.675,4.133,1.193
				C46.364,38.055,44.205,37.04,42.864,36.873z"/>
			<path fill="#FFFFFF" d="M28.063,31.205c-0.995,0.052-1.668,0.269-1.444,0.738c0.439,0.924,6.244,1.049,6.706,0.427
				C33.778,31.759,30.188,31.101,28.063,31.205z"/>
			<path opacity="0.7" fill="#FFFFFF" d="M22.142,37.107c-0.618-0.064-1.051,0.039-0.972,0.435c0.171,0.782,3.728,1.474,4.081,1.028
				C25.6,38.13,23.458,37.238,22.142,37.107z"/>
		</g>
	</g>
</g>
</svg>
