<?xml version="1.0" encoding="utf-8"?>
<!-- Generator: Adobe Illustrator 16.0.0, SVG Export Plug-In . SVG Version: 6.00 Build 0)  -->
<!DOCTYPE svg PUBLIC "-//W3C//DTD SVG 1.1//EN" "http://www.w3.org/Graphics/SVG/1.1/DTD/svg11.dtd">
<svg version="1.1" id="Capa_1" xmlns="http://www.w3.org/2000/svg" xmlns:xlink="http://www.w3.org/1999/xlink" x="0px" y="0px"
	 width="67px" height="67px" viewBox="0 0 67 67" enable-background="new 0 0 67 67" xml:space="preserve">
<g>
	<defs>
		<circle id="SVGID_1_" cx="33.502" cy="33.497" r="33.498"/>
	</defs>
	<clipPath id="SVGID_2_">
		<use xlink:href="#SVGID_1_"  overflow="visible"/>
	</clipPath>
	<g clip-path="url(#SVGID_2_)">
		<g>
			<g>
				<path fill="#FFC38F" d="M30.795,57.276l-1.447-2.851c-2.221,1.128-2.674,3.511-3.153,6.034
					c-0.405,2.131-0.862,4.504-2.431,6.535h3.772c1.048-2.041,1.457-4.132,1.8-5.938C29.731,58.972,30.014,57.673,30.795,57.276z"/>
			</g>
		</g>
		<g>
			<g>
				<path fill="#FFC38F" d="M42.528,54.426l-1.447,2.851c0.781,0.396,1.063,1.695,1.459,3.781c0.343,1.806,0.752,3.896,1.8,5.938
					h3.771c-1.567-2.031-2.024-4.404-2.43-6.535C45.203,57.937,44.75,55.554,42.528,54.426z"/>
			</g>
		</g>
		<g>
			<path fill="#EBEBEB" d="M43.293,63.856c1.011-5.058,0.031-8.203-0.899-10.25c-4.019-2.238-10.606-1.396-13.275,0.404
				c-0.616,2.104-0.991,5.724-0.077,9.521c0.367,1.528,0.529,2.608,0.564,3.464h13.261C42.896,66.217,43.02,65.228,43.293,63.856z"
				/>
			<path fill="#3A3A4A" d="M36.826,61.065l1.626-1.603c0,0-0.42-1.366-2.275-1.481c-2.076-0.131-2.615,1.362-2.615,1.362
				l1.653,1.693l-2.069,3.917l1.555,2.041h2.586l1.784-2.104L36.826,61.065z"/>
			<path opacity="0.1" d="M30.56,56.108c0.778,2.965,3.455,4.643,3.455,4.643l1.908-2.373l2.504,2.357
				c1.708-1.001,3.36-3.39,3.388-5.385C41.833,53.915,29.783,53.144,30.56,56.108z"/>
			<path fill="#FBFBFB" d="M30.59,52.583c-2.132,3.264,3.256,7.387,3.256,7.387l2.093-1.876l2.377,1.962
				c0,0,4.877-3.052,3.149-7.145C39.908,49.229,32.738,49.296,30.59,52.583z"/>
			<linearGradient id="SVGID_3_" gradientUnits="userSpaceOnUse" x1="36.3486" y1="52.335" x2="36.3486" y2="57.3451">
				<stop  offset="0" style="stop-color:#EE996D"/>
				<stop  offset="0.0163" style="stop-color:#EE9A6E"/>
				<stop  offset="0.3731" style="stop-color:#F8B181"/>
				<stop  offset="0.7088" style="stop-color:#FDBF8D"/>
				<stop  offset="1" style="stop-color:#FFC491"/>
			</linearGradient>
			<path fill="url(#SVGID_3_)" d="M34.651,48.69c-1.321,0.389-2.2,2.077-2.291,3.814c-0.115,2.2,2.248,5.144,3.889,5.201
				c1.237,0.031,6.487-4.069,2.799-8.059C37.988,48.5,35.918,48.315,34.651,48.69z"/>
		</g>
		<g>
			<path fill="#3D1F12" d="M55.092,29.957c2.517-0.672,5.369-6.159,1.087-5.856c1.155,1.734-1.584,2.531-2.479,1.222
				c-0.08-0.117-0.138-0.224-0.146-0.326c-0.147-2.158-2.37-3.647-4.063-4.98c-2.474-1.949-5.711-3.543-8.869-4.268
				c-5.566-1.277-12.218-0.964-16.641,2.714c-1.779,1.479-3.341,4.581-5.808,5.166c-3.031,0.719-4.712,3.8-2.313,5.739
				c-1.247,0.739-2.443-0.146-2.655-1.308c-2.614,1.813-3.593,5.328,0.02,6.921c-4.229,2.181-3.178,6.624,1.342,8.556
				c-2.121,1.964-1.036,5.305,1.093,6.625c-0.164-1.389,1.134-4.49,3.541-2.906c1.476,0.974,0.695,3.578-1.315,2.271
				c-0.532,2.359,3.453,3.824,4.621,1.863c-0.134,1.768,1.08,2.454,2.717,2.349c2.438-0.157,3.292-1.792,4.929-2.29
				c2.04-0.622,4.542-0.686,6.667-0.722c4.039-0.066,7.521,3.924,11.547,2.192c1.552-0.666,2.305-1.662,2.138-3.175
				c-1.101,0.772-3.974-0.35-1.628-2.186c1.174-0.918,2.91-0.067,4.101-0.764c1.403-0.819,0.833-3.765,0.934-3.827
				c1.012-0.633,2.686-0.682,2.788,1.082c2.078-4.098,0.103-5.233-2.129-5.542C59.508,37.726,60.471,30.921,55.092,29.957z"/>
			<path fill="#DE3E78" d="M50.943,41.543c-0.771,0.021-1.388,0.665-1.38,1.437c0.007,0.771,0.642,1.379,1.411,1.357
				c0.771-0.021,1.39-0.666,1.382-1.438C52.347,42.13,51.715,41.521,50.943,41.543z"/>
			<path fill="#FFC38F" d="M35.188,15.298c-8.212,0.75-14.596,7.74-14.092,18.791C21.6,45.142,29.62,53.952,38.312,52.987
				c7.201-0.801,13.337-9.774,11.976-21.879C49.069,20.269,43.397,14.544,35.188,15.298z"/>
			<path opacity="0.5" fill="#139E9B" d="M47.695,30.284c-0.883,0.193-1.928,0.958-2.076,1.454c0.515-0.284,1.175-0.246,1.745-0.148
				c0.436,0.074,0.819,0.362,1.257,0.452c0.847,0.171,2.456,0.133,1.844-1.166C50.092,30.079,48.762,30.051,47.695,30.284z"/>
			<path fill="#FFC38F" d="M18.979,32.34c-3.572,1.632-1.911,7.771,1.08,8.677c0.961,0.291,1.967,0.225,2.931,0.023
				c0.019-0.037,0.035-0.074,0.054-0.114c0.405-0.874-0.509-4.983-0.758-5.821C21.656,32.987,20.693,31.556,18.979,32.34z"/>
			<path opacity="0.3" fill="#D94C18" d="M21.017,34.483c-0.959-0.514-3.45,0.162-2.402,2.168c0.703-1.76,1.725-0.518,1.492,0.747
				c-0.157,0.85-1.069,0.806-0.222,1.959c0.458,0.622,1.462,0.462,1.979,0.173C23.505,38.614,22.183,35.11,21.017,34.483z"/>
			<path opacity="0.3" fill="#BF3C1B" d="M32.139,19.601c-2.249,0.419-4.4,1.132-6.266,2.077c-2.922,1.482-3.109,3.012-4.53,5.801
				c-0.716,1.409-2.455,2.827-0.788,4.306c-1.679,0.639-2.064,3.525-1.009,4.83c0.293,0.363,0.634,0.622,1.1,0.697
				c-0.383,0.719-0.595,1.669-0.228,2.473c0.416,0.915,1.146,1.729,2.068,1.558c0.027,0.731,0.356,2.026,0.828,2.632
				c1.166,1.493,3.253,2.047,4.568,0.91c1.267-1.09,1.104-2.637-0.508-3.305c-0.146,0.465-0.698,0.967-1.191,0.594
				c-0.621-0.471,0.201-2.031,0.187-2.662c-0.037-1.685-1.076-1.033-2.033-1.914c0.494-0.469,1.192-1.021,1.176-1.847
				c-0.02-1.028-0.73-1.167-1.352-1.692c-1.037-0.88-0.722-0.725-0.16-1.658c0.69-1.153,1.128-2.662-0.271-3.552
				c0.679-0.066,1.37-0.372,1.479-1.103c1.201,0.639,2.609-0.626,2.994-1.708c-0.118,0.331,1.327-0.297,1.417-0.364
				c0.494-0.366,0.88-1.161,1.086-1.713c0.104,1.509,1.662,2.526,2.878,1.343c0.783,1.87,2.368,1.815,4.106,1.389
				c0.603,2.149-1.222,1.262-1.836,2.336c-1.022,1.785,2.655,2.564,3.645,2.211c1.153-0.41,1.788-1.669,1.729-2.848
				c0.139,1.4,2.145,0.75,2.865,0.225c0.423,1.964,2.244,2.373,3.671,1.04c0.25,3.237,4.48,3.189,3.637-0.586
				C49.453,20.357,40.174,18.104,32.139,19.601z"/>
			<path fill="#3D1F12" d="M52.451,16.083c1.803-3.768-5.627-6.648-8.449-4.599c-0.441-4.643-6.289-4.917-9.086-1.63
				c-1.029-1.678-3.354-2.085-3.705-2.145c-1.6-0.271-3.363,0.058-4.41,1.281c1.558-0.018,4.194,2.985-0.496,2.549
				c-1.945-0.181-3.099-0.921-5.042,0.127c-1.574,0.851-2.641,2.343-1.152,3.797c-0.017,0.014-3.481-0.201-4.006,2.93
				c-0.214,1.288,0.313,1.605-0.972,2.57c-0.865,0.649-1.77,1.034-2.895,0.679c-0.013,1.265,1.167,2.876,1.771,3.31
				c1.209,0.871,2.536,0.735,3.83,0.107c-0.129,0.792,2.237,7.53,3.281,6.815c-1.717,1.175-2.452,3.548-0.759,4.644
				c0.268,0.17,0.594,0.312,0.986,0.41c-2.601,0.961-0.538,4.835,2.032,3.565c-2.228,2.649,4.399,5.75,4.541,2.563
				c0.036-0.853-0.553-1.796-1.406-1.973c0.437,0.091,0.604,2.04-0.558,1.549c-1.716-0.721,1.276-3.066-0.289-4.029
				c-0.768-0.471-3.024,0.047-2.186-1.374c0.594-1.01,1.883-1.537,0.343-2.768c-0.458-0.365-1.252-0.408-1.294-1.12
				c-0.039-0.667,0.783-0.965,1.091-1.395c1.076-1.513-0.595-3.3-1.967-3.852c0.882-0.05,3.374,0.38,3.088-1.291
				c1.381,1.204,3.405-0.491,2.853-2.113c0.249,0.736,1.574,0.495,2.013,0.195c0.82-0.556,0.745-1.639,1.164-2.449
				c0.169,0.883,0.355,1.766,1.201,2.218c0.847,0.454,1.77,0.302,2.222-0.571c0.52,1.806,2.3,3.272,3.879,1.458
				c0.354,0.691,0.564,1.676,0.061,2.349c-0.758,1.016-1.76-0.047-2.4,0.434c-0.803,0.6,0.66,1.871,1.198,2.042
				c1.045,0.33,2.54-0.196,3.179-1.082c0.52-0.723,0.388-1.554,0.43-2.384c0.877,1.42,2.346,2.371,3.806,0.89
				c1.058,1.334,2.103,1.971,3.616,0.649c0.727,1.208,0.602,2.832,2.347,3.085c2.028,0.293,1.911-2.055,1.549-3.41
				c-0.458-1.703-1.083-5.025,0.884-6.52c1.221-0.926,3.028-0.331,2.464,1.273c1.767-1.139,1.948-2.785,1.179-4.421
				C55.871,17.358,54.263,16.294,52.451,16.083z"/>
			<path fill="#DE3E78" d="M21.352,42.046c-0.711,0.02-1.281,0.612-1.273,1.324c0.009,0.713,0.592,1.271,1.302,1.252
				c0.714-0.02,1.283-0.613,1.274-1.324C22.646,42.585,22.064,42.026,21.352,42.046z"/>
			<path fill="#78452F" d="M30.926,14.49c0.001,0.011,0.001,0.021,0.002,0.033c0.001-0.011,0.002-0.021,0.003-0.032
				C30.935,14.423,30.926,14.423,30.926,14.49z"/>
			<path fill="#78452F" d="M51.667,25.193c-0.04-0.945,0.017-1.506-0.206-2.5c-0.296-1.307-1.052-1.653-2.269-1.607
				c1.429-2.12,4.113-2.471,5.828-0.698c0.653-2.341-2.2-4.416-4.505-3.816c0.484-1.358,0.885-3.035-0.457-4.09
				c-1.44-1.131-3.745-1.232-5.271-0.305c-1.267,0.771-2.682,2.299-4.484,1.181c1.07,0.664,3.638-2.982,0.598-4.286
				c-1.894-0.814-3.535,0.25-4.819,1.508c-0.401,0.394-0.811,0.829-1.027,1.343c-1.295-2.449-3.271-3.944-6.396-3.199
				c2.374,0.04,3.363,3.734,1.227,4.773c-1.242,0.603-2.388-0.713-3.392-1.166c-0.936-0.424-2.369-0.588-3.383-0.315
				c-0.95,0.257-2.188,1.164-2.562,2.055c1.698-0.219,2.668,3.112,6.379,2.063c-1.564,1.306-3.263,1.426-4.668,0.772
				c-0.95-0.443-2.178-0.83-3.262-0.234c-1.575,0.862-1.176,3.067-1.954,4.429c-0.702,1.228-1.368,1.375-2.646,1.741
				c1.358,0.885,2.127,0.971,3.788,0.806c-1.123,0.112-1.779,1.691-1.875,2.554c-0.125,1.127,0.85,2.011,0.685,3.055
				c-0.14,0.882-1.345,1.461-2.168,1.433c0.558,0.618,1.437,0.634,2.2,0.371c0.952-0.328,1.16-1.577,1.943-1.748
				c1.076-0.234,2.193,1.569,2.174,2.396c1.613-0.779-0.296-3.268-1.245-3.992c1.061,0.008,3.977-0.121,3.78-1.611
				c0.119,0.897,2.049,0.003,2.298-0.482c0.346-0.675,0.179-1.72-0.508-2.153c0.6,0.08,1.713,0.657,2.181,0.101
				c0.4-0.472-0.077-1.58-0.337-2.006c4.853,1.872,3.469-3.146,0.495-3.075c2.248-0.183,2.85-0.522,3.119-3.97
				c-0.001-0.011-0.001-0.022-0.002-0.033c0-0.067,0.009-0.067,0.005,0.001c-0.001,0.011-0.002,0.021-0.003,0.032
				c0.162,2.002-0.366,4.013,3.028,3.695c-4.905,1.733-2.961,5.695,1.933,4.55c-0.744,0.175-0.798,1.577,0.316,2.377
				c0.685,0.494,2.156,0.215,2.433-0.142c0.869,1.336,1.139,2.512,0.1,3.693c1.178,0.064,1.618-1.687,1.794-2.542
				c0.888,0.536,1.693,1.357,2.799,0.919c0.837-0.332,1.283-1.239,1.824-1.874c0.011,1.473,0.568,2.57,1.462,2.764
				c1.071,0.232,1.915-0.141,2.695-0.945c-0.081,1.237,0.489,2.334,1.147,2.971c0.621,0.604,2.052,1.425,3.311,0.53
				c-0.543,0-0.979-0.267-1.207-0.726c2.068-0.201,3.682-1.296,3.501-3.419C54.646,27.02,51.763,27.354,51.667,25.193z"/>
			<path fill="#3D1F12" d="M42.712,22.332c0.93,3.29,3.756,4.174,5.444,1.486C46.394,25.393,43.509,24.056,42.712,22.332z"/>
			<path fill="#3D1F12" d="M20.852,26.023c1.998,1.681,4.38,0.071,3.379-2.354C24.008,25.249,22.078,26.493,20.852,26.023z"/>
			<path fill="#3D1F12" d="M48.336,25.005c-1.214,2.255,1.026,4.04,3.249,2.51C49.917,27.709,48.162,26.25,48.336,25.005z"/>
			<path fill="#3D1F12" d="M45.576,19.772c1.498,1.735,3.412,2.103,5.638,1.236l-0.087-1.51
				C49.755,20.201,47.656,20.554,45.576,19.772z"/>
			<path fill="#3D1F12" d="M46.642,15.372c1.497,1.733,2.886,1.612,4.299,1.121l0.252-1.708
				C50.198,15.622,48.129,16.209,46.642,15.372z"/>
			<path fill="#3D1F12" d="M16.004,23.721l0.464,1.481c2.405,0.052,4.053-0.942,4.795-3.069
				C19.616,23.567,17.55,23.909,16.004,23.721z"/>
			<path fill="#78452F" d="M12.846,30.122l-0.059-0.972c-1.021,1.12-1.76,2.382-1.012,3.763c0.488,0.905,1.851,1.872,2.949,1.096
				c0.443-0.313,0.585-1.131,0.682-1.604c-0.021-0.018-0.041-0.037-0.061-0.055C13.986,32.498,12.539,31.442,12.846,30.122z"/>
			<path fill="#78452F" d="M14.305,35.421l-0.815,0.486c-1.965,0.043-2.96,3.289-2.113,4.683c0.52,0.853,1.598,1.45,2.617,1.639
				c-0.708-1.093-1.37-2.396-1.031-3.702C13.249,37.423,14.275,36.61,14.305,35.421z"/>
			<path fill="#78452F" d="M56.527,31.602c-0.52-0.356-1.117-0.606-1.752-0.723v0.325c1.743,2.238,1.416,3.93,0.433,6.219
				c0.003,0,0.089,0.082,0.09,0.059C57.732,36.489,58.896,33.222,56.527,31.602z"/>
			<path fill="#78452F" d="M55.301,39.477l-0.817-0.218c-0.359,1.91,2.048,1.465,2.333,2.871
				C57.231,40.958,57.03,39.386,55.301,39.477z"/>
			<path fill="#78452F" d="M14.656,44.667c-0.999,0.975-0.865,3.087,0.191,4.039c0.044-0.614,0.443-1.093,0.443-1.715
				c-0.002-0.576-0.418-1.029-0.343-1.675L14.656,44.667z"/>
		</g>
		<g>
			<path fill="#FF7752" d="M49.239,38.35c-0.422-0.788-1.484-1.005-2.255-1.062c-1.004-0.07-2.385,0.225-1.651,1.777
				c0.393,0.828,4.337,1.662,4.068-0.205C49.376,38.668,49.318,38.499,49.239,38.35z"/>
			<path fill="#FF7752" d="M30.724,38.054c-0.597-0.818-1.802-0.822-2.66-0.709c-1.116,0.15-2.583,0.813-1.512,2.442
				c0.569,0.868,5.05,0.925,4.438-1.18C30.927,38.392,30.836,38.208,30.724,38.054z"/>
			<path fill="#3D1F12" d="M43.549,30.222c2.195,0.208,4.03-0.442,7.323-0.168C49.663,28.539,45.193,28.508,43.549,30.222z"/>
			<path opacity="0.3" fill="#D94C18" d="M38.671,39.058c-0.747,0.008-1.046-0.306-1.568-0.018
				c-0.521,0.286,0.615,1.303,1.539,1.226c1.046-0.085,1.904-0.946,1.628-1.257C39.947,38.646,39.502,39.048,38.671,39.058z"/>
			<path fill="#3D1F12" d="M23.974,29.752c4.115,0.096,5.504,0.278,8.361,0.206C30.834,28.029,25.79,28.161,23.974,29.752z"/>
			<g>
				<g opacity="0.8">
					<path fill="#F04D4D" d="M38.087,41.643c-2.944,0.058-7.273,0.892-9.575-0.468c3.776,6.488,6.144,7.705,9.16,7.936
						c3.779,0.289,5.109-2.332,5.709-4.303c0.255-0.834,2.199-2.962,2.948-3.439C43.965,41.91,41.646,41.575,38.087,41.643z"/>
				</g>
				<path fill="#B32F29" d="M30.276,42.319c0,0,2.265,4.361,6.97,4.524c3.015,0.104,5.015-0.887,5.597-2.347
					c0.634-1.595,1.928-2.156,1.928-2.156C36.53,44.3,30.276,42.319,30.276,42.319z"/>
				<path fill="#FFF9F0" d="M32.021,42.729c0,0,0.123,1.313,1.789,1.84c2.14,0.68,4.452,0.752,6.846,0.402
					c1.613-0.233,2.434-2.278,2.434-2.278S38.474,43.761,32.021,42.729z"/>
				<path fill="#FFF9F0" d="M38.47,45.112c-2.156,0.053-3.942-0.122-5.01-0.854c-0.762-0.52-0.839,0.027-0.679,0.371
					c0,0,0.67,1.805,4.236,2.269c3.429,0.446,5.239-1.673,4.852-2.049C41.483,44.473,40.465,45.065,38.47,45.112z"/>
				<path fill="#E8DAC5" d="M32.021,42.729c0,0,0.111,0.609,0.413,0.93c0,0,8.063-0.593,9.979,0.168c0,0,0.577-0.717,0.676-1.134
					C43.089,42.693,37.445,43.685,32.021,42.729z"/>
				<path fill="#E8DAC5" d="M34.099,44.533c2.859,1.831,6.341,0.371,6.341,0.371C36.791,45.707,34.099,44.533,34.099,44.533z"/>
			</g>
			<g>
				<path fill="#1F1A17" d="M28.815,31.848c-2.166-0.814-3.275,3.179-1.763,4.361c0.662-0.245,1.461-0.221,2.104,0.056
					C30.531,35.409,30.429,32.454,28.815,31.848z"/>
			</g>
			<path fill="#A87F7F" d="M29.153,33.168c-0.897,0.136-0.561,1.974,0.373,1.509C30.202,34.343,29.951,33.048,29.153,33.168z"/>
			<g>
				<path fill="#1F1A17" d="M47.887,31.89c-2.175-1.388-4.086,3.701-1.666,4.429c0.584-0.398,1.285-0.402,1.91-0.305
					C48.962,34.932,49.054,32.633,47.887,31.89z"/>
			</g>
			<path fill="#A87F7F" d="M47.761,32.973c-0.859,0.021-0.734,1.927,0.192,1.578C48.623,34.298,48.523,32.956,47.761,32.973z"/>
			<path fill="#121B21" d="M47.948,31.781c-1.992-0.766-2.647,1.597-2.647,1.597s0.967-1.19,2.324-0.434
				c3.081,1.716,5.066-0.372,5.066-0.372C50.249,33.393,49.018,32.193,47.948,31.781z"/>
			<path fill="#121B21" d="M27.365,31.957c-0.797,0.404-2.646,1.617-5.103,0.904c0,0,2.341,2.033,5.309,0.196
				c1.301-0.808,2.416,0.184,2.416,0.184S29.445,30.898,27.365,31.957z"/>
			<path opacity="0.5" fill="#139E9B" d="M27.62,30.301c-1.144-0.224-2.573-0.184-2.982,0.615c-0.667,1.306,1.061,1.331,1.972,1.151
				c0.472-0.093,0.886-0.385,1.354-0.464c0.614-0.103,1.324-0.146,1.874,0.134C29.683,31.243,28.566,30.487,27.62,30.301z"/>
		</g>
	</g>
</g>
</svg>
