<?xml version="1.0" encoding="utf-8"?>
<!-- Generator: Adobe Illustrator 16.0.0, SVG Export Plug-In . SVG Version: 6.00 Build 0)  -->
<!DOCTYPE svg PUBLIC "-//W3C//DTD SVG 1.1//EN" "http://www.w3.org/Graphics/SVG/1.1/DTD/svg11.dtd">
<svg version="1.1" id="Capa_1" xmlns="http://www.w3.org/2000/svg" xmlns:xlink="http://www.w3.org/1999/xlink" x="0px" y="0px"
	 width="67px" height="67px" viewBox="0 0 67 67" enable-background="new 0 0 67 67" xml:space="preserve">
<g>
	<defs>
		<circle id="SVGID_1_" cx="33.469" cy="33.536" r="33.464"/>
	</defs>
	<clipPath id="SVGID_2_">
		<use xlink:href="#SVGID_1_"  overflow="visible"/>
	</clipPath>
	<g clip-path="url(#SVGID_2_)">
		<g>
			<path fill="#FF9819" d="M46.793,51.658l-3.809,3.005c1.007,1.276,2.492,7.413,2.922,12.334h5.646
				C51.176,62.624,49.928,54.143,46.793,51.658z"/>
		</g>
		<g>
			<path fill="#FF9819" d="M24.629,51.658c-3.135,2.484-4.384,10.966-4.759,15.339h5.646c0.43-4.921,1.916-11.058,2.922-12.334
				L24.629,51.658z"/>
		</g>
		<g>
			<path fill="#FFF7EB" d="M42.91,49.154c-4.93-2.503-11.396-1.641-14.675,0.375c-5.597,3.441-2.71,7.141-1.478,17.468h17.913
				C45.972,58.295,48.467,51.977,42.91,49.154z"/>
			<g>
				<path fill="#FF9819" d="M47.181,52.047c-0.416-1.023-4.532-3.336-4.532-3.336c-2.201,6.766-1.548,14.59-1.117,18.286h5.579
					C47.345,58.508,47.532,52.913,47.181,52.047z"/>
			</g>
			<g>
				<path fill="#FF9819" d="M28.808,48.711c0,0-4.118,2.313-4.533,3.336c-0.352,0.866-0.164,6.461,0.071,14.95h6.008
					C30.713,62.999,30.896,55.131,28.808,48.711z"/>
			</g>
			<path opacity="0.1" d="M29.109,51.794c0.956,3.194,4.242,5.002,4.242,5.002l2.34-2.558l3.072,2.541
				c2.098-1.078,4.126-3.652,4.16-5.803C42.946,49.432,28.158,48.598,29.109,51.794z"/>
			<path fill="#FFF7EB" d="M29.147,47.994c-2.616,3.518,3.994,7.96,3.994,7.96l2.569-2.021l2.918,2.113c0,0,5.984-3.289,3.861-7.698
				C40.582,44.384,31.782,44.455,29.147,47.994z"/>
			<path fill="#854422" d="M34.266,43.801c-1.519,0.42-2.526,2.238-2.632,4.111c-0.131,2.369,2.583,5.539,4.467,5.604
				c1.42,0.034,7.449-4.385,3.213-8.683C38.097,43.598,35.72,43.399,34.266,43.801z"/>
			<ellipse fill="#E6DED4" cx="35.728" cy="57.7" rx="0.654" ry="0.619"/>
			<ellipse fill="#E6DED4" cx="35.728" cy="61.276" rx="0.654" ry="0.618"/>
			<ellipse fill="#E6DED4" cx="35.728" cy="64.851" rx="0.654" ry="0.618"/>
			<circle fill="#FFC566" cx="28.725" cy="57.224" r="0.993"/>
			<circle fill="#FFC566" cx="28.725" cy="61.195" r="0.992"/>
			<circle fill="#FFC566" cx="28.725" cy="65.166" r="0.992"/>
			<rect x="42.556" y="57.198" fill="#FFC566" width="3.688" height="1.761"/>
		</g>
		<g>
			<path fill="#C9BEB7" d="M57.558,24.844c0.457-0.282,0.774-0.611,0.977-0.968c0.848-1.499-0.341-3.492-1.866-4.564
				c2.992-1.028,0.408-5.363-2.798-4.517c2.741-2.624-1.493-5.815-4.144-3.104c0.129-3.013-3.633-5.153-5.757-2.418
				c-0.392-4.613-5.154-3.975-6.568-0.691c-1.123-4.333-6.709-2.956-7.397,0.774c-1.445-2.653-6.739-2.488-6.151,1.662
				c-2.82-2.165-7.872-0.065-6.166,3.983c-2.868-0.824-7.047,2.355-3.853,5.005c-3.735,0.134-4.339,5.31-1.356,6.541
				c-3.242,1.294-2.448,7.132,1.547,6.441c-2.606,2.806-1.237,6.719,2.714,6.506c-0.88,1.766-0.7,5.584,2.19,4.903
				c-2.212,3.816,4.374,5.423,5.546,1.346c0.092,3.445,3.786,2.81,4.428,2.823c2.096,0.044,3.962-1.096,6.056-1.104
				c3.739-0.018,9.308,3.347,11.669-1.17c1.932,1.373,5.883-0.367,4.479-2.964c3.342,1.615,5.072-2.616,4.409-5.139
				c2.453,1.323,3.911-2.421,1.349-4.77c2.332-0.029,3.531-2.704,1.293-4.086C60.703,27.989,60.017,25.926,57.558,24.844z"/>
			<circle fill="#FFF7EB" cx="50.565" cy="41.041" r="1.373"/>
			<path fill="#9C552C" d="M33.254,13.438c-7.74,1.616-13.055,12.845-11.49,23.292c1.175,7.818,7.336,16.341,16.43,15.572
				c9.284-0.789,13.752-12.375,12.421-21.997C49.169,19.842,44.089,11.171,33.254,13.438z"/>
			<path opacity="0.4" fill="#66241B" d="M48.593,16.787c-1.636-0.92-3.509-1.375-5.317-1.875c-3.071-0.839-6.239-1.293-9.432-1.317
				c-2.832-0.024-5.909-0.144-8.528,1.014c-5.213,2.297-4.859,7.408-4.628,12.222c0.077,1.616-0.028,6.003,1.204,6.507
				c2.035,0.833,2.899-2.189,2.199-3.099c0.373,0.483,2.752-1.071,2.197-2.062c1.101,0.157,1.807-0.024,2.539-0.826
				c0.212,1.025,1.841,1.708,2.777,1.852c1.217,0.188,2.123-0.6,2.762-1.519c1.345,1.109,3.771,2.021,4.39-0.25
				c1.163,1.797,3.293,0.13,4.205-0.831c0.098,0.976,2.256,1.367,3.056,1.194c1.127-0.244,1.69-1.207,2.109-2.195
				c0.693,0.667,2.438,0.561,3.151-0.008c1.006-0.805,0.664-2.561,0.575-3.652C51.695,19.997,50.262,17.733,48.593,16.787z"/>
			<path fill="#9C552C" d="M18.998,32.403c-3.794,1.105-2.188,6.64,0.935,7.718c1.004,0.344,2.063,0.379,3.084,0.291
				c0.019-0.029,0.038-0.061,0.058-0.094c0.446-0.73-0.244-4.775-0.489-5.537C21.974,32.871,20.821,31.88,18.998,32.403z"/>
			<path opacity="0.7" fill="#66241B" d="M20.363,34.436c-0.862-0.387-2.989,0.354-1.961,2.014c0.51-1.559,1.468-0.549,1.337,0.552
				c-0.086,0.741-0.881,0.763-0.077,1.7c0.435,0.514,1.295,0.305,1.728,0.025C22.765,37.834,21.415,34.898,20.363,34.436z"/>
			<path fill="#C9BEB7" d="M50.517,15.681c-2.808-2.917-6.912-4.816-10.982-5.516c-2.595-0.438-5.375-0.45-7.981-0.12
				c-4.384,0.56-9.661,2.612-10.99,7.066c-0.817,2.736-0.331,5.887-0.073,8.662c0.192,2.063-0.058,5.218,0.685,7.198
				c0.348,0.931,2.359-0.271,1.452-3.769c1.293,0.618,2.533-0.023,2.502-2.357c1.154,0.493,3.53,0.452,3.698-1.261
				c0.787,2.141,4.676,2.564,5.951,0.675c0.636,1.33,3.679,0.913,3.72-0.864c0.919,1.61,4.379,1.235,5.257-0.424
				c0.573,1.866,4.041,1.616,4.488-0.539c3.388,1.071,5.39-3.682,3.562-6.843C51.454,16.985,51.115,16.303,50.517,15.681z"/>
			<path opacity="0.7" fill="#F0EAE6" d="M24.613,24.758c0.002,0.002,0.004,0.003,0.006,0.005c0-0.002,0-0.004,0-0.007
				C24.619,24.702,24.617,24.702,24.613,24.758z"/>
			<path opacity="0.7" fill="#F0EAE6" d="M54.575,19.416c3.622-1.026-0.263-5.03-2.977-3.417c1.096-3.227-0.844-3.469-3.304-2.536
				c-0.366-2.215-3.034-4.304-4.609-1.546c-0.482-3.289-4.603-3.461-5.85-0.658c-2.104-2.052-5.441-3.104-6.393,0.747
				c-2.188-1.832-6.334-2.563-6.302,1.616c-1.764-1.096-4.278-2.121-5.482,0.026c-0.8,1.426-0.47,2.654,0.254,4.03
				c-3.405-2.153-5.228,1.037-2.462,3.331c-1.295,0.279-3.155,0.712-3.206,2.314c-0.046,1.42,1.259,1.831,2.535,1.767
				c-0.892,0.768-1.714,2.452-0.476,3.276c1.742,1.158,3.12-0.984,3.957-2.126c-0.219,2.489,4.43,1.367,4.357-1.476
				c-0.002-0.002-0.004-0.003-0.006-0.005c0.004-0.056,0.006-0.056,0.006-0.002c0,0.003,0,0.005,0,0.007
				c1.771,1.664,4.259,0.544,5.333-1.27c0.137-0.229,0.25-0.468,0.335-0.716c-0.516,1.479,2.439,1.726,3.168,0.78
				c1.078,1.466,3.27,1.267,3.997-0.453c0.922,2.778,4.312,0.457,4.933-1.173c0.353,0.964,1.717,1.79,2.723,1.836
				c1.462,0.068,1.884-0.988,2.171-2.276c1.129,0.971,3.435,1.303,4.093-0.4c0.727,0.415,1.445,0.421,2.097-0.135
				c-0.243,1.181-1.288,4.005,0.065,4.847c2.137,1.328,2.488-2.469,1.872-3.599C57.243,23.587,56.69,20.062,54.575,19.416z"/>
			<path fill="#FFF7EB" d="M21.098,40.969c-0.759,0.01-1.365,0.637-1.355,1.389c0.012,0.759,0.634,1.365,1.392,1.355
				s1.366-0.635,1.355-1.391C22.479,41.567,21.854,40.959,21.098,40.969z"/>
		</g>
		<g>
			<path opacity="0.7" fill="#66241B" d="M24.965,34.369c0.044,0.635,1.489,0.33,1.921,0.43c-0.38,0.395-1.505,0.393-1.966,0.66
				c-0.493,0.283-0.439,0.476,0.145,0.461c0.349-0.01,2.308-0.465,2.559-0.678C28.688,34.342,25.459,34.236,24.965,34.369z"/>
			<path opacity="0.7" fill="#66241B" d="M50.19,34.91c-0.464-0.27-1.589-0.268-1.967-0.659c0.432-0.103,1.874,0.202,1.919-0.432
				c-0.494-0.133-3.723-0.027-2.659,0.872c0.253,0.214,2.212,0.67,2.561,0.68C50.628,35.384,50.682,35.193,50.19,34.91z"/>
			<path fill="#D17642" d="M46.594,36.123c-1.329-0.01-3.17,0.531-2.24,2.656c0.498,1.135,5.71,1.954,5.406-0.656
				c-0.029-0.275-0.1-0.508-0.202-0.709C49.021,36.338,47.613,36.131,46.594,36.123z"/>
			<path fill="#D17642" d="M30.433,37.32c-0.797-1.041-2.359-1.014-3.469-0.842c-1.442,0.229-3.323,1.131-1.888,3.211
				c0.765,1.105,6.571,1.048,5.719-1.654C30.705,37.748,30.58,37.518,30.433,37.32z"/>
			<g>
				<path fill="#261B18" d="M28.803,31.117c-2.164-0.758-3.172,3.223-1.646,4.358c0.65-0.256,1.441-0.252,2.085,0.006
					C30.583,34.604,30.412,31.676,28.803,31.117z"/>
			</g>
			<path opacity="0.7" fill="#F0DED1" d="M28.434,32.558c-0.886,0.16-0.512,1.969,0.401,1.485
				C29.499,33.698,29.22,32.42,28.434,32.558z"/>
			<g>
				<path fill="#261B18" d="M47.996,30.933c-2.153-1.372-4.051,3.665-1.656,4.389c0.58-0.397,1.275-0.399,1.894-0.298
					C49.06,33.948,49.15,31.671,47.996,30.933z"/>
			</g>
			<path opacity="0.7" fill="#F0DED1" d="M47.137,32.153c-0.85,0.021-0.729,1.905,0.189,1.565
				C47.99,33.469,47.892,32.136,47.137,32.153z"/>
			<path fill="#121B21" d="M48.056,30.827c-1.974-0.761-2.623,1.58-2.623,1.58s0.957-1.178,2.304-0.427
				c3.049,1.704,5.019-0.366,5.019-0.366C50.336,32.424,49.117,31.238,48.056,30.827z"/>
			<path fill="#121B21" d="M27.37,31.256c-0.78,0.417-2.587,1.666-5.036,1.01c0,0,2.366,1.958,5.264,0.071
				c1.27-0.829,2.396,0.127,2.396,0.127S29.404,30.161,27.37,31.256z"/>
			<g>
				<path opacity="0.7" fill="#66241B" d="M27.319,41.475c1.092,2.071,3.752,1.066,2.629-1.045
					C29.502,41.484,28.252,41.922,27.319,41.475z"/>
				<path opacity="0.7" fill="#66241B" d="M44.907,40.07c-0.585,2.189,2.298,2.949,2.862,0.804
					C46.956,41.398,45.613,41.08,44.907,40.07z"/>
				<g>
					<path fill="#611F16" d="M46.151,41.195c-0.332-0.109-0.688,0.036-0.79,0.321c-1.054,2.956-4.221,4.896-7.907,4.87
						c-3.551-0.021-6.389-1.869-7.549-4.311c-0.139-0.295-0.511-0.445-0.83-0.341c-0.319,0.108-0.471,0.426-0.331,0.714
						c1.331,2.806,4.499,4.918,8.442,5.048c0.112,0.004,0.223,0.006,0.333,0.006c4.241,0.03,7.832-2.183,9.05-5.591
						C46.673,41.621,46.484,41.302,46.151,41.195z"/>
				</g>
			</g>
			<path opacity="0.7" fill="#66241B" d="M38.105,37.561c-0.854,0.022-1.616-0.42-2.403,0.002c-0.792,0.418,0.164,1.725,2.427,1.634
				c2.251-0.087,2.846-1.291,2.413-1.731C40.039,36.953,39.051,37.537,38.105,37.561z"/>
			<path fill="#D17642" d="M37.976,33.665c-1.606-0.109-2.782,2.798-2.072,3.738c0.498,0.657,4.027,0.589,4.56-0.196
				C40.656,36.919,39.511,33.769,37.976,33.665z"/>
			<path fill="#C9BEB7" d="M27.243,27.64c-1.993,0.289-3.512,1.05-3.421,1.63c0.062,0.378,0.957-0.267,3.708-0.366
				c2.198-0.079,4.119,0.915,4.205-0.354C31.785,27.78,29.425,27.325,27.243,27.64z"/>
			<path fill="#C9BEB7" d="M48.029,27.333c-2.181-0.316-4.541,0.141-4.491,0.909c0.085,1.27,2.008,0.275,4.204,0.354
				c2.751,0.1,2.807,0.81,2.867,0.431C50.702,28.447,50.022,27.622,48.029,27.333z"/>
		</g>
		<g>
			<path opacity="0.3" fill="#66241B" d="M49.096,28.73c-1.567,0.076-3.13,0.314-4.649,0.71c-1.295,0.337-2.819,0.487-4.015,1.103
				c-1.104,0.567-1.565,0.939-2.896,0.879c-2.377-0.105-4.374-1.592-6.748-1.847c-2.472-0.266-4.999-0.563-7.438,0.102
				c-0.633,0.171-2.552,0.891-1.259,1.575c1.261,0.667,3.149,0.464,4.534,0.521c0.638,0.027,1.28,0.046,1.916,0.107
				c2.259,0.213,5.736-0.087,5.547,2.733c-0.131,1.938-1.384,3.922-2.957,4.281c-1.512,0.344-3.127,0.475-4.656,0.463
				c-1.171-0.01-2.299-0.239-3.363-0.735c-0.301-0.142-1.204-0.722-1.499-0.313c-0.502,0.693,1.333,1.853,1.813,2.071
				c1.1,0.5,2.269,0.651,3.462,0.782c2.945,0.324,5.979,0.178,7.652-2.526c0.969-1.566,1.46-3.413,2.359-5.021
				c1.47-2.633,2.146,0.949,2.606,2.518c0.258,0.881,0.633,1.734,1.167,2.479c0.95,1.316,2.82,2.033,4.387,2.111
				c0.965,0.047,1.953,0,2.857-0.369c0.549-0.227,0.771-0.857,0.117-1.107c-0.396-0.15-1.03-0.044-1.445-0.062
				c-0.606-0.026-1.223-0.036-1.82-0.15c-0.765-0.146-1.535-0.464-2.18-0.94c-0.452-0.336-0.842-0.745-1.129-1.229
				c-0.597-1.004-0.621-2.234-0.225-3.32c0.544-1.495,2.186-1.607,3.549-1.722c1.648-0.137,3.317-0.101,4.959-0.248
				c0.733-0.065,1.461,0.036,2.191,0.062c0.94,0.034,2.971-0.26,1.857-1.628C52.721,28.691,50.616,28.654,49.096,28.73z"/>
			<g>
				<path fill="#FF6DAA" d="M21.008,28.632c-1.944,0.058-3.604-0.485-4.063-0.095c-0.598,0.507,0.442,2.245,0.442,2.245
					s0.618,0.439,1.528,0.516c0.123,1.352,0.043,4.843,2.52,7.049c2.068,1.842,8.827,2.385,10.936,1.33
					c2.606-1.306,3.719-3.733,4.185-6.131C37.692,27.669,23.751,28.547,21.008,28.632z M32.51,38.094
					c-2.572,1.655-9.145,0.863-10.85-1.25c-1.315-1.635-1.542-5.039-0.736-5.524c2.465-1.478,11.723-0.896,13.861,0.744
					C35.823,32.856,34.464,36.836,32.51,38.094z"/>
			</g>
			<g>
				<path fill="#FF6DAA" d="M52.907,28.147c-2.479-0.004-15.092-0.468-13.899,5.369c0.487,2.382,1.56,4.775,3.949,6.005
					c1.932,0.99,8.021,0.252,9.836-1.65c2.174-2.279,2.004-5.767,2.077-7.12c0.82-0.103,1.364-0.558,1.364-0.558
					s0.892-1.769,0.337-2.259C56.147,27.557,54.665,28.15,52.907,28.147z M52.549,36.374c-1.481,2.165-7.392,3.149-9.762,1.569
					c-1.799-1.199-3.139-5.137-2.223-5.963c1.885-1.7,10.227-2.555,12.494-1.147C53.8,31.292,53.689,34.705,52.549,36.374z"/>
			</g>
			<path opacity="0.3" fill="#FFFFFF" d="M42.197,31.455c-1.373,0.591,1.118,1.318,1.654,1.397c1.86,0.275,3.968,0.146,5.948-0.221
				c1.04-0.193,3.276-1.142,2.632-1.716C51.532,30.113,43.714,30.805,42.197,31.455z"/>
			<path fill="#FFFFFF" d="M48.326,31.111c-0.744,0.119-1.232,0.337-1.025,0.672c0.401,0.659,4.777,0.283,5.072-0.224
				C52.666,31.064,49.913,30.858,48.326,31.111z"/>
			<path opacity="0.7" fill="#FFFFFF" d="M43.587,36.563c-0.47-0.02-0.796,0.077-0.713,0.37c0.158,0.583,2.874,0.954,3.121,0.604
				C46.236,37.188,44.587,36.607,43.587,36.563z"/>
			<path opacity="0.7" fill="#FFFFFF" d="M23.172,36.358c-0.489-0.079-0.843-0.024-0.794,0.281c0.09,0.597,2.887,1.3,3.189,0.982
				C25.865,37.307,24.212,36.524,23.172,36.358z"/>
			<path opacity="0.3" fill="#FFFFFF" d="M33.758,31.717c-1.733-0.619-10.359-1.281-11.248-0.518
				c-0.639,0.547,1.919,1.448,3.079,1.633c2.207,0.349,4.522,0.474,6.526,0.213C32.689,32.971,35.328,32.282,33.758,31.717z"/>
			<path fill="#FFFFFF" d="M30.009,31.21c-0.794,0.027-1.331,0.183-1.16,0.539c0.337,0.706,4.963,0.875,5.338,0.412
				C34.56,31.704,31.702,31.158,30.009,31.21z"/>
			<path fill="#FF6DAA" d="M40.647,29.999c-1.803,0.822-3.56,0.95-6.068,0.056c-1.895-0.676,0.994,1.233,1.214,2.218
				c0.219,0.983-0.112,3.991,0.549,2.2c0.66-1.792,1.984-1.904,2.828-0.256c0.844,1.646,0.786-2.752,1.131-3.153
				C40.646,30.662,42.45,29.174,40.647,29.999z"/>
			<path fill="#FFD1E2" d="M21.919,29.21c5.253,0.273,9.447,0.43,12.616,1.66C32.47,29.166,28.91,28.784,21.919,29.21z"/>
			<path fill="#FFD1E2" d="M52.462,28.604c-6.409,0.223-9.397,0.264-11.125,1.892C44.114,29.181,47.7,29.278,52.462,28.604z"/>
		</g>
	</g>
</g>
</svg>
