<?xml version="1.0" encoding="utf-8"?>
<!-- Generator: Adobe Illustrator 16.0.0, SVG Export Plug-In . SVG Version: 6.00 Build 0)  -->
<!DOCTYPE svg PUBLIC "-//W3C//DTD SVG 1.1//EN" "http://www.w3.org/Graphics/SVG/1.1/DTD/svg11.dtd">
<svg version="1.1" id="Capa_1" xmlns="http://www.w3.org/2000/svg" xmlns:xlink="http://www.w3.org/1999/xlink" x="0px" y="0px"
	 width="67px" height="67px" viewBox="0 0 67 67" enable-background="new 0 0 67 67" xml:space="preserve">
<g>
	<defs>
		<circle id="SVGID_1_" cx="33.503" cy="33.497" r="33.497"/>
	</defs>
	<clipPath id="SVGID_2_">
		<use xlink:href="#SVGID_1_"  overflow="visible"/>
	</clipPath>
	<g clip-path="url(#SVGID_2_)">
		<g>
			<g>
				<path fill="#379BDB" d="M26.479,58.611l-2.679-4.252c-3.801,2.396-6.007,6.949-5.753,11.885c0.013,0.252,0.038,0.501,0.063,0.75
					h5.073c-0.052-0.332-0.101-0.664-0.119-1.007C22.906,62.865,24.214,60.039,26.479,58.611z"/>
			</g>
		</g>
		<g>
			<g>
				<path fill="#379BDB" d="M44.212,58.611l2.678-4.252c3.802,2.396,6.008,6.949,5.754,11.885c-0.013,0.252-0.038,0.501-0.063,0.75
					h-5.073c0.052-0.332,0.101-0.664,0.119-1.007C47.785,62.865,46.478,60.039,44.212,58.611z"/>
			</g>
		</g>
		<g>
			<path fill="#379BDB" d="M43.122,52.263c-4.966-2.667-12.206-1.748-15.507,0.398c-4.316,2.808-3.619,7.356-2.5,14.333h20.217
				C46.556,60.268,47.351,54.533,43.122,52.263z"/>
			<path fill="#0D73B5" d="M34.829,47.373c-7.833,0-8.108,11.668,0.378,11.668C43.136,59.041,45.726,47.373,34.829,47.373z"/>
			<path fill="#F5AB76" d="M37.73,46.296c-1.728-0.467-4.549-0.237-5.994,1.192c-5.029,4.969-0.134,9.861,3.818,9.861
				c3.95,0,5.455-3.561,5.3-6.301C40.729,48.885,39.532,46.781,37.73,46.296z"/>
			<g>
				<path fill="#CA3564" d="M47.729,54.527c-0.417-1.089-4.807-2.713-4.807-2.713c-2.754,4.822-3.845,10.299-4.191,15.18h6.926
					C46.521,59.543,48.09,55.467,47.729,54.527z"/>
				<path fill="#E34F7E" d="M42.835,49.953c0,0-3.553,8.53-3.403,11.588c3.61-5.279,9.383-8.309,9.439-8.949
					C48.926,51.951,45.622,50.133,42.835,49.953z"/>
				<path fill="#B51B4C" d="M43.508,57.27c1.236,1.055,3.362,0.182,3.362,0.03C46.87,57.15,43.4,57.178,43.508,57.27z"/>
				<path fill="#B51B4C" d="M40.594,63.457c1.655,1.008,4.43,0.059,4.425-0.094C45.015,63.213,40.449,63.369,40.594,63.457z"/>
			</g>
			<g>
				<path fill="#CA3564" d="M22.792,54.527c-0.361,0.939,1.209,5.016,2.073,12.467h6.925c-0.346-4.881-1.438-10.357-4.191-15.18
					C27.599,51.814,23.21,53.438,22.792,54.527z"/>
				<path fill="#E34F7E" d="M21.65,52.592c0.057,0.641,5.83,3.67,9.439,8.949c0.15-3.058-3.403-11.588-3.403-11.588
					C24.897,50.133,21.595,51.951,21.65,52.592z"/>
				<path fill="#B51B4C" d="M23.65,57.3c0,0.151,2.091,1.024,3.307-0.03C27.063,57.178,23.65,57.15,23.65,57.3z"/>
				<path fill="#B51B4C" d="M25.502,63.363c-0.005,0.152,2.77,1.102,4.426,0.094C30.072,63.369,25.506,63.213,25.502,63.363z"/>
			</g>
		</g>
		<g>
			<path fill="#C93712" d="M53.623,15.075c0.57-0.652,1.113-1.182,0.335-2.173c-0.677-0.862-2.653-1.591-3.657-0.932
				c0.4-0.959,0.864-2.488-0.174-3.221c-0.881-0.62-3.052-0.246-3.762,0.456c1.38-3.433-4.713-5.496-6.218-2.433
				c-0.6-1.757-1.673-3.189-3.759-3.077C35.087,3.765,32.87,4.94,32.66,6.36c-0.929-1.093-1.468-2.202-3.158-2.269
				c-1.875-0.077-3.766,1.341-3.49,3.363c-1.399-0.917-3.153-1.636-4.706-0.708c-1.396,0.833-2.1,2.186-1.532,3.753
				c-1.049-0.434-2.498-1.146-3.524-0.303c-1.062,0.87-0.183,3.083,0.615,3.916c-1.269-0.069-2.26,0.459-2.571,1.743
				c-0.535,2.205,1.1,4.37,1.746,6.348c1.023,3.12,1.391,6.511,1.975,9.721c0.641,3.518,1.217,7.488,2.858,10.697
				c1.189,2.326,2.378,1.347,4.123,0.426c2.259-1.191,5.595-1.393,8.099-1.51c2.582-0.123,6.353-0.338,8.75,0.789
				c1.571,0.738,2.398,1.338,4.005,0.107c1.169-0.896,2.036-2.335,2.64-3.66c0.971-2.129,1.004-4.262,1.189-6.555
				c0.372-4.613,1.095-9.259,4.581-12.58c0.371-0.354,1.065-0.955,1.214-1.454c0.375-1.25-1.193-2.706-2.391-2.379
				C53.232,15.532,53.429,15.297,53.623,15.075z"/>
			<path fill="#FFCB9E" d="M19.854,39.283c1.091,8.016,7.273,16.811,16.585,16.148c9.501-0.678,14.229-12.461,13-22.318
				c-1.333-10.716-6.408-19.65-17.52-17.484C23.986,17.176,18.396,28.583,19.854,39.283z"/>
			<path opacity="0.3" fill="#BF3C1B" d="M33.18,23.815c-2.368-0.765-6.429,0.186-7.824,0.931c-2.257,1.206-2.609,4.228-3.669,6.328
				c-0.743-0.679-1.442-1.84-1.66-2.801c-0.285-1.258-0.312-2.639-0.372-3.921c-0.066-1.396-0.188-2.959,0.266-4.304
				c0.554-1.642,2.376-2.563,3.859-3.234c2.698-1.222,5.846-1.06,8.742-1.009c3.264,0.058,6.495,0.577,9.62,1.511
				c2.063,0.618,5.942,1.168,6.657,3.568c0.883,2.954-2.186,3.594-4.268,3.926c-1.243,0.198-1.935,0.345-2.748,1.317
				c-0.786,0.938-1.504,1.697-2.465,2.461c-0.152-0.42-0.336-0.936-0.441-1.397c-1.097,2.145-4.337,2.086-6.184,0.969
				c1.131-0.525,2.716-1.595,2.079-3.063C34.497,24.461,33.922,24.054,33.18,23.815z"/>
			<path fill="#FFCB9E" d="M17.935,42.729c1.021,0.366,2.103,0.415,3.146,0.341c0.019-0.031,0.042-0.063,0.062-0.096
				c0.467-0.739-0.186-4.885-0.424-5.665c-0.598-1.966-1.763-2.997-3.635-2.483C13.189,35.9,14.753,41.588,17.935,42.729z"/>
			<path opacity="0.3" fill="#BF3C1B" d="M19.442,41.324c1.419-0.895,0.077-3.912-0.99-4.404c-0.876-0.402-3.06,0.324-2.033,2.035
				c0.542-1.586,1.509-0.546,1.36,0.582c-0.1,0.757-0.911,0.767-0.105,1.736C18.111,41.801,18.996,41.604,19.442,41.324z"/>
			<path fill="#C93712" d="M48.539,21.646c0.019-0.068,0.037-0.139,0.054-0.212c0.745-3.322-2.97-6.158-5.146-8.002
				c-4.388-3.719-10.101-3.688-15.497-2.756c-2.068,0.356-4.264,0.879-6.112,1.912c-1.611,0.9-2.251,3.018-2.995,4.622
				c-0.874,1.889,0.02,17.464,0.64,18.042c0.827,0.772,0.82,1.636,1.053,2.066c0.106,0.219,0.999,0.525,1.766,0.468
				c-0.39-2.651-0.407-5.379-0.216-8.049c0.301-4.255,0.805-6.549,5.672-6.733c2.227-0.083,8.177-0.938,8.729,2.343
				c0.247,1.473-1,2.294-2.191,2.828c1.792,0.563,4.061,0.463,4.618-1.749c0.486,0.482,0.76,1.056,0.787,1.719
				c2.245-1.503,0.901-3.913,3.887-4.163C45.542,23.815,47.894,23.905,48.539,21.646z"/>
			<g>
				<path fill="#FFA073" d="M48.88,37.64c0.115,0.169,0.205,0.364,0.265,0.591c0.56,2.186-4.39,1.438-4.974,0.486
					c-1.093-1.785,0.564-2.218,1.81-2.193C46.934,36.543,48.263,36.734,48.88,37.64z"/>
				<path fill="#FFA073" d="M28.375,37.283c0.162,0.141,0.306,0.318,0.422,0.53c1.14,2.075-4.087,2.602-4.927,1.786
					c-1.577-1.528-0.005-2.398,1.267-2.695C26.111,36.674,27.516,36.522,28.375,37.283z"/>
				<g>
					<path fill="#224245" d="M27.59,36.391c-0.605-0.292-1.375-0.362-2.025-0.172c-1.394-1.186-0.106-4.813,1.938-3.932
						C29.022,32.943,28.962,35.682,27.59,36.391z"/>
				</g>
				<path opacity="0.3" fill="#B54D26" d="M40.026,38.986c-0.509-0.626-1.228,0.067-2.552,0.082
					c-1.195,0.015-1.668-0.531-2.506-0.033c-0.834,0.496,0.361,2.09,2.477,2.012C39.55,40.973,40.465,39.525,40.026,38.986z"/>
				<path fill="#FFDFC2" d="M37.163,34.578c-2.247-0.193-2.416,4.551-1.902,4.956c1.258,0.995,3.888,0.291,4.652-0.509
					C40.217,38.709,39.304,34.766,37.163,34.578z"/>
				<g>
					<path fill="#224245" d="M47.187,32.149c1.115,0.669,1.106,2.972,0.271,3.894c-0.529-0.244-1.621-0.355-2.165,0.004
						C43.579,34.914,45.107,30.902,47.187,32.149z"/>
				</g>
				<path opacity="0.7" fill="#D4E6DD" d="M26.773,32.919c0.737-0.248,1.196,0.885,0.611,1.31
					C26.576,34.814,25.944,33.201,26.773,32.919z"/>
				<path opacity="0.7" fill="#D4E6DD" d="M46.373,32.586c0.729-0.145,1.019,0.989,0.414,1.317
					C45.946,34.359,45.556,32.751,46.373,32.586z"/>
				<path fill="#D94D15" d="M42.901,29.066c-0.173,0.183-0.334,0.381-0.493,0.589c-1.469,1.908,2.703,1.088,3.427,1.073
					c0.95-0.021,1.709,0.08,2.596,0.261c0.626,0.127,1.355-0.115,1.392-0.841c0.033-0.66-0.439-0.796-0.996-0.567
					c0.88-0.72-0.098-0.948-0.729-0.699c0.732-1.317-1.298-0.601-1.791-0.248c0.22-0.476,0.463-0.712-0.141-0.809
					c-0.521-0.082-1.147,0.383-1.527,0.667C44.909,27.517,43.068,28.885,42.901,29.066z"/>
				<path fill="#D94D15" d="M29.955,29.066c0.172,0.183,0.332,0.381,0.492,0.589c1.47,1.908-2.705,1.088-3.426,1.073
					c-0.951-0.021-1.711,0.08-2.596,0.261c-0.627,0.127-1.357-0.115-1.394-0.841c-0.031-0.66,0.438-0.796,0.996-0.567
					c-0.878-0.72,0.099-0.948,0.729-0.699c-0.731-1.317,1.298-0.601,1.791-0.248c-0.22-0.476-0.462-0.712,0.141-0.809
					c0.521-0.082,1.146,0.383,1.528,0.667C27.945,27.517,29.787,28.885,29.955,29.066z"/>
				<g>
					<path fill="#E88564" d="M28.799,41.464c1.133,2.13-1.547,3.138-2.648,1.053C27.093,42.968,28.349,42.527,28.799,41.464z"/>
					<path fill="#E88564" d="M43.867,41.105c-0.59,2.203,2.313,2.967,2.882,0.811C45.932,42.441,44.578,42.117,43.867,41.105z"/>
					<g>
						<path fill="#E88564" d="M36.09,48.582c-3.973-0.127-7.162-2.26-8.504-5.081c-0.138-0.293,0.011-0.615,0.335-0.72
							c0.321-0.104,0.697,0.047,0.835,0.34c1.171,2.46,4.029,4.322,7.604,4.343c3.715,0.026,6.903-1.927,7.965-4.903
							c0.102-0.289,0.46-0.438,0.797-0.326c0.335,0.107,0.521,0.433,0.421,0.721c-1.227,3.436-4.846,5.66-9.116,5.633
							C36.315,48.588,36.2,48.586,36.09,48.582z"/>
					</g>
				</g>
			</g>
			<path fill="#E85216" d="M31.467,7.103c0.752,0.385,1.44,0.914,1.805,1.323c1.352-0.894,3.433-2.898,5.229-2.238
				c1.283,0.472,1.534,1.866,0.718,2.895c0.913-1.15,4.912-0.317,4.348,1.652c1.53-0.739,5.061-0.864,3.841,1.884
				c1.231-0.158,5.061,0.125,2.71,2.016c0.48-0.385,2.098,1.025,2.139,1.588c0.064,0.91-1.425,2.046-1.976,2.635
				c0.284-2.721-3.521-2.658-3.31-0.489c-0.965-2.336-2.906-2.782-3.039-0.019c-0.125,2.581-1.564,4.319-4.414,3.991
				c2.434-1.643,1.994-2.912,1.167-5.569c-0.685,2.709-2.868,0.31-3.758-0.466c-0.259,1.209-1.396,2.034-1.741,3.236
				c-0.727-1.195-1.381-2.424-2.291-3.467c-0.684,1.623-3.174,2.811-3.733,0.364c-0.615,1.053-1.4,2.415-2.874,2.304
				c-1.229-0.093-2.055-1.324-2.048-2.478c-0.814,0.297-2.447,3.628-1.929,4.407c-0.974-1.465-1.636-2.85-2.918-4.126
				c-0.695-0.691-2.223-2.471-0.201-2.77c-0.821-2.149,2.123-1.112,2.931-0.632c-0.54-1.053-0.678-3.159,0.178-4.082
				c1.353-1.457,3.754-0.217,5.034,0.662c0.498-1.024,0.516-2.634,1.857-3.075C29.818,6.444,30.679,6.695,31.467,7.103z"/>
		</g>
	</g>
</g>
</svg>
