<?xml version="1.0" encoding="utf-8"?>
<!-- Generator: Adobe Illustrator 16.0.0, SVG Export Plug-In . SVG Version: 6.00 Build 0)  -->
<!DOCTYPE svg PUBLIC "-//W3C//DTD SVG 1.1//EN" "http://www.w3.org/Graphics/SVG/1.1/DTD/svg11.dtd">
<svg version="1.1" id="Capa_1" xmlns="http://www.w3.org/2000/svg" xmlns:xlink="http://www.w3.org/1999/xlink" x="0px" y="0px"
	 width="67px" height="67px" viewBox="0 0 67 67" enable-background="new 0 0 67 67" xml:space="preserve">
<g>
	<defs>
		<circle id="SVGID_1_" cx="33.503" cy="33.503" r="33.497"/>
	</defs>
	<clipPath id="SVGID_2_">
		<use xlink:href="#SVGID_1_"  overflow="visible"/>
	</clipPath>
	<g clip-path="url(#SVGID_2_)">
		<g>
			<g>
				<path fill="#765AA3" d="M23.776,53.814c-3.027,1.363-4.86,6.085-5.405,13.184l7.078,0.001c0.212-3.671,0.584-7.724,1.467-8.649
					L23.776,53.814z"/>
			</g>
		</g>
		<g>
			<g>
				<path fill="#765AA3" d="M43.832,53.814l-3.14,4.535c0.883,0.926,1.255,4.979,1.468,8.649l7.077-0.001
					C48.692,59.899,46.859,55.178,43.832,53.814z"/>
			</g>
		</g>
		<g>
			<path fill="#FFF7EB" d="M41.056,51.891c-4.968-2.667-11.48-1.748-14.782,0.398c-4.914,3.196-3.33,6.604-2.021,14.71h19.194
				C44.696,59.74,45.834,54.457,41.056,51.891z"/>
			<g>
				<path fill="#765AA3" d="M45.355,54.971c-0.418-1.09-4.564-3.553-4.564-3.553c-1.637,5.319-1.706,11.252-1.456,15.581h6.052
					C45.564,60.164,45.656,55.753,45.355,54.971z"/>
			</g>
			<g>
				<path fill="#765AA3" d="M26.85,51.418c0,0-4.146,2.463-4.564,3.553c-0.301,0.782-0.211,5.193-0.031,12.028h6.358
					C28.716,62.523,28.425,56.538,26.85,51.418z"/>
			</g>
			<path opacity="0.1" d="M27.154,54.701c0.962,3.402,4.273,5.328,4.273,5.328l2.354-2.725l3.097,2.708
				c2.112-1.149,4.153-3.892,4.188-6.182C41.09,52.186,26.195,51.299,27.154,54.701z"/>
			<path fill="#FFF7EB" d="M27.192,50.654c-2.636,3.746,4.022,8.479,4.022,8.479l2.59-2.151l2.938,2.249c0,0,6.027-3.502,3.89-8.199
				C38.711,46.809,29.848,46.885,27.192,50.654z"/>
			<linearGradient id="SVGID_3_" gradientUnits="userSpaceOnUse" x1="34.3105" y1="52.1338" x2="34.3105" y2="56.4989">
				<stop  offset="0" style="stop-color:#EE996D"/>
				<stop  offset="0.0163" style="stop-color:#EE9A6E"/>
				<stop  offset="0.3731" style="stop-color:#F8B181"/>
				<stop  offset="0.7088" style="stop-color:#FDBF8D"/>
				<stop  offset="1" style="stop-color:#FFC491"/>
			</linearGradient>
			<path fill="url(#SVGID_3_)" d="M32.346,46.188c-1.527,0.446-2.542,2.384-2.649,4.38c-0.131,2.523,2.602,5.899,4.501,5.968
				c1.429,0.034,7.502-4.672,3.235-9.249C36.205,45.971,33.813,45.759,32.346,46.188z"/>
			<circle fill="#E6DED4" cx="33.82" cy="60.992" r="0.658"/>
			<circle fill="#E6DED4" cx="33.82" cy="64.803" r="0.658"/>
		</g>
		<g>
			<path fill="#C9BEB7" d="M50.055,13.171c-6.633-5.103-15.588-4.503-23.441-3.467c-7.885,1.041-12.501,5.803-14.56,12.944
				c-0.589,2.041-3.865,10.462-0.092,10.822c-1.526,1.646-2.244,6.132,0.925,6.405c-0.878,2.216-0.266,5.19,2.606,4.946
				c0.111,2.457,1.332,4.209,3.96,4.051c-0.042,2.921,2.635,4.507,4.668,2.336c1.472,2.145,3.553,0.822,5.306-0.123
				c1.813-0.975,3.944-1.76,5.912-0.695c0.632,0.341,0.894,0.996,1.626,1.196c0.293,0.08,2.602-0.356,2.379-0.667
				c1.03,1.428,4.011,3.018,4.662,0.174c1.932,1.761,4.41-0.333,4.154-2.534c2.906,0.437,3.545-2.159,3.268-4.507
				c2.942-0.244,2.939-2.991,2.323-5.341c2.861-0.347,1.869-4.421,1.155-6.111c2.996-0.051,1.537-7.073,1.301-8.654
				C55.572,19.709,53.469,15.798,50.055,13.171z"/>
			<circle fill="#E62628" cx="48.765" cy="41.581" r="1.383"/>
			<path fill="#FFC38F" d="M31.328,13.78c-7.797,1.627-13.148,12.938-11.572,23.459c1.183,7.876,7.388,16.459,16.549,15.685
				c9.351-0.795,13.85-12.465,12.51-22.156C47.359,20.229,42.242,11.497,31.328,13.78z"/>
			<path opacity="0.2" fill="#BF3C1B" d="M48.74,18.861c-0.478-0.724-1.195-1.274-1.962-1.709c-1.647-0.927-3.534-1.386-5.357-1.886
				c-3.093-0.847-6.282-1.303-9.498-1.329c-2.853-0.022-5.954-0.144-8.589,1.022c-5.252,2.315-4.896,7.462-4.662,12.31
				c0.077,1.627,0.805,6.352,2.973,6.758c2.177,0.408,1.159-2.409,0.455-3.325c1.735-0.159,2.766-1.576,3.019-3.134
				c1.487,1.255,3.468,1.877,5.463,1.905c1.764,0.023,3.126-0.632,4.712-1.258c1.566-0.62,2.061-0.661,3.664-0.237
				c3.281,0.867,7.742,0.023,9.572-2.641c0.614-0.892,0.934-1.99,0.813-3.295C49.238,20.933,49.398,19.855,48.74,18.861z"/>
			<path fill="#FFC38F" d="M16.971,32.88c-3.822,1.113-2.207,6.687,0.939,7.774c1.014,0.347,2.08,0.381,3.105,0.294
				c0.021-0.03,0.04-0.062,0.061-0.095c0.448-0.734-0.247-4.809-0.493-5.577C19.967,33.351,18.807,32.353,16.971,32.88z"/>
			<path opacity="0.4" fill="#D14F2E" d="M18.345,34.928c-0.868-0.389-3.011,0.356-1.975,2.029c0.513-1.572,1.478-0.555,1.347,0.555
				c-0.087,0.748-0.887,0.768-0.078,1.713c0.438,0.517,1.306,0.307,1.74,0.025C20.763,38.352,19.404,35.393,18.345,34.928z"/>
			<path fill="#C9BEB7" d="M48.716,16.04c-2.829-2.94-6.963-4.851-11.062-5.557c-2.613-0.441-5.414-0.453-8.039-0.121
				c-4.416,0.564-9.731,2.631-11.069,7.116c-0.823,2.757-0.333,5.931-0.073,8.724c0.193,2.08-0.004,4.306,0.742,6.301
				c0.351,0.937,2.998,4.661,3.229,1.608c0.1-1.331-0.909-2.687-1.188-3.966c2.207,0.807,3.292-2.476,3.743-3.888
				c2.916,1.841,6.339,2.114,9.58,0.91c1.186-0.438,2.132-0.934,3.431-0.732c1.242,0.194,2.259,0.765,3.57,0.741
				c4.872-0.089,10.281-4.757,8.432-9.216C49.742,17.311,49.317,16.665,48.716,16.04z"/>
			<path opacity="0.7" fill="#F0EAE6" d="M52.275,16.75c-1.795-2.199-4.504-3.832-7.527-3.556
				c-5.801,0.525-9.903,6.363-16.062,5.113c-2.591-0.527-4.978-1.228-7.668-1.172c-2.602,0.054-6.057,1.026-7.224,3.438
				c-0.751,1.57-1.339,4.056-1.161,5.769c0.193,1.877,2.188,4.112,3.917,2.029c0.572,1.585,1.696,3.447,3.668,2.095
				c1.345-0.919,2.135-3.722,2.358-5.193c1.899,1.082,3.818,0.276,5.507-0.795c1.073,2.844,6.98,1.242,8.852,0.372
				c2.002-0.932,1.823-0.875,3.908-0.382c1.547,0.364,3.395,0.296,4.761-0.512c1.399-0.831,2.625-2.375,3.455-3.705
				c0.832,1.214,0.556,2.759,1.192,3.95c1.025,1.921,2.793,0.757,3.086-0.942c1.396,2.689,2.443-0.194,1.152-2.852
				C53.876,19.141,53.178,17.855,52.275,16.75z"/>
			<circle fill="#E62628" cx="19.103" cy="42.891" r="1.381"/>
		</g>
		<g>
			<path opacity="0.4" fill="#D14F2E" d="M23.38,34.861c0.045,0.639,1.499,0.332,1.935,0.436c-0.382,0.395-1.516,0.393-1.982,0.664
				c-0.496,0.285-0.441,0.477,0.147,0.465c0.352-0.012,2.324-0.471,2.578-0.686C27.129,34.835,23.878,34.727,23.38,34.861z"/>
			<path opacity="0.4" fill="#D14F2E" d="M48.786,35.406c-0.466-0.271-1.6-0.27-1.982-0.664c0.437-0.102,1.891,0.203,1.935-0.436
				c-0.497-0.133-3.75-0.025-2.678,0.879c0.254,0.216,2.227,0.676,2.578,0.686C49.228,35.884,49.282,35.691,48.786,35.406z"/>
			<path fill="#FF7752" d="M47.765,37.602c-0.438-0.779-1.504-0.969-2.273-1.007c-1.003-0.048-2.371,0.278-1.604,1.81
				c0.41,0.816,4.36,1.561,4.05-0.296C47.908,37.913,47.849,37.746,47.765,37.602z"/>
			<path fill="#FF7752" d="M28.396,37.586c-0.614-0.801-1.816-0.779-2.671-0.646c-1.109,0.175-2.558,0.871-1.451,2.472
				c0.587,0.851,5.058,0.806,4.401-1.274C28.606,37.917,28.511,37.738,28.396,37.586z"/>
			<path fill="#614D45" d="M41.901,29.455c2.257,0.347,4.825,0.492,7.643,0.556C48.41,28.147,43.642,27.832,41.901,29.455z"/>
			<path opacity="0.4" fill="#D14F2E" d="M37.077,38.336c-0.745,0.026-1.049-0.278-1.565,0.018
				c-0.512,0.299,0.644,1.287,1.563,1.188c1.042-0.109,1.881-0.986,1.598-1.29C38.342,37.893,37.906,38.308,37.077,38.336z"/>
			<path fill="#614D45" d="M22.465,30.12c4.096-0.315,5.493-0.273,8.323-0.634C29.104,27.721,24.108,28.359,22.465,30.12z"/>
			<g>
				<path fill="#425361" d="M27.244,31.585c-2.178-0.762-3.195,3.246-1.658,4.392c0.655-0.26,1.452-0.254,2.101,0.004
					C29.038,35.097,28.865,32.149,27.244,31.585z"/>
			</g>
			<path fill="#C3D5E3" d="M26.873,33.037c-0.893,0.161-0.516,1.983,0.405,1.496C27.946,34.186,27.665,32.899,26.873,33.037z"/>
			<g>
				<path fill="#425361" d="M46.576,31.4c-2.168-1.383-4.079,3.691-1.668,4.42c0.585-0.399,1.285-0.401,1.908-0.301
					C47.646,34.438,47.739,32.145,46.576,31.4z"/>
			</g>
			<path fill="#C3D5E3" d="M45.711,32.627c-0.855,0.022-0.735,1.922,0.19,1.578C46.571,33.955,46.473,32.611,45.711,32.627z"/>
			<path fill="#121B21" d="M46.638,31.293c-1.989-0.765-2.642,1.592-2.642,1.592s0.962-1.188,2.318-0.43
				c3.071,1.716,5.055-0.37,5.055-0.37C48.934,32.902,47.705,31.708,46.638,31.293z"/>
			<path fill="#121B21" d="M25.801,31.727c-0.786,0.418-2.604,1.676-5.071,1.016c0,0,2.383,1.974,5.3,0.073
				c1.28-0.835,2.415,0.128,2.415,0.128S27.85,30.623,25.801,31.727z"/>
			<g>
				<path fill="#FF3B3B" d="M25.994,40.954c1.102,2.088,3.78,1.075,2.649-1.05C28.192,40.967,26.936,41.406,25.994,40.954z"/>
				<path fill="#FF3B3B" d="M43.71,39.541c-0.588,2.205,2.314,2.971,2.884,0.81C45.773,40.879,44.421,40.557,43.71,39.541z"/>
				<g>
					<path fill="#FF3B3B" d="M44.964,40.673c-0.335-0.108-0.693,0.036-0.795,0.324c-1.063,2.978-4.253,4.932-7.966,4.905
						c-3.575-0.021-6.435-1.883-7.604-4.342c-0.139-0.297-0.513-0.447-0.836-0.343c-0.321,0.109-0.473,0.429-0.332,0.719
						c1.34,2.825,4.531,4.956,8.502,5.085c0.113,0.004,0.224,0.006,0.336,0.006c4.271,0.03,7.889-2.198,9.115-5.631
						C45.487,41.102,45.299,40.781,44.964,40.673z"/>
				</g>
			</g>
		</g>
	</g>
</g>
</svg>
