<?xml version="1.0" encoding="utf-8"?>
<!-- Generator: Adobe Illustrator 16.0.0, SVG Export Plug-In . SVG Version: 6.00 Build 0)  -->
<!DOCTYPE svg PUBLIC "-//W3C//DTD SVG 1.1//EN" "http://www.w3.org/Graphics/SVG/1.1/DTD/svg11.dtd">
<svg version="1.1" id="Capa_1" xmlns="http://www.w3.org/2000/svg" xmlns:xlink="http://www.w3.org/1999/xlink" x="0px" y="0px"
	 width="67px" height="67px" viewBox="0 0 67 67" enable-background="new 0 0 67 67" xml:space="preserve">
<g>
	<defs>
		<circle id="SVGID_1_" cx="33.539" cy="33.539" r="33.461"/>
	</defs>
	<clipPath id="SVGID_2_">
		<use xlink:href="#SVGID_1_"  overflow="visible"/>
	</clipPath>
	<g clip-path="url(#SVGID_2_)">
		<g>
			<g>
				<path fill="#25252E" d="M28.944,54.42c-3.963,0.624-8.013,5.236-8.652,12.576h6.622c0.204-3.809,0.548-7.871,1.169-8.967
					L28.944,54.42z"/>
			</g>
		</g>
		<g>
			<g>
				<path fill="#25252E" d="M39.726,54.42l0.861,3.609c0.619,1.096,0.967,5.158,1.169,8.967h6.624
					C47.738,59.656,43.69,55.044,39.726,54.42z"/>
			</g>
		</g>
		<g>
			<path fill="#25252E" d="M40.851,54.707c-3.816-1.539-9.919-1.039-13.101,0.064c-1.94,0.673-1.696,6.809-1.433,12.225h16.04
				C42.636,61.611,42.837,55.51,40.851,54.707z"/>
			<path fill="#918FA0" d="M28.531,53.74c-1.938,3.121,5.803,6.33,5.803,6.33s6.847-2.982,6.112-5.805
				C39.577,50.925,30.273,50.935,28.531,53.74z"/>
			<path fill="#F29F63" d="M34.255,49.717c-2.01-0.002-4.842,1.018-5.043,3.695c-0.095,1.248,0.118,1.969,0.861,2.662
				c1.188,1.105,2.659,2,4.182,2.025c1.523-0.025,2.995-0.92,4.185-2.025c0.743-0.693,0.955-1.414,0.862-2.662
				C39.1,50.734,36.267,49.715,34.255,49.717z"/>
		</g>
		<g>
			<path fill="#EBA971" d="M49.58,34.759c-1.565-0.601-2.549,0.382-3.062,2.325c-0.204,0.77-0.774,4.891-0.388,5.652
				c0.018,0.033,0.034,0.064,0.051,0.099c0.875,0.12,1.784,0.116,2.642-0.204C51.497,41.629,52.84,36.004,49.58,34.759z"/>
			<path fill="#D99A64" d="M17.474,21.479c-1.044,4.926-1.278,11.461,1.093,16.169c1.237,2.459,4.192,0.817,6.28,0.303
				c2.564-0.636,5.144-1.217,7.725-1.783c4.241-0.936,8.893-0.006,13.196,0.402c3.369,0.321,3.618,1.897,3.621-0.846
				c0.004-3.398,0.871-9.001,0.007-12.732C45.191,4.852,19.984,9.628,17.474,21.479z"/>
			<path fill="#FFBC82" d="M32.168,15.439c-12.021,1.636-13.921,12.631-12.75,23.408C20.296,46.92,26.26,55.912,35.622,55.5
				c9.551-0.42,14.615-12.117,13.651-22.041C48.226,22.67,45.904,13.57,32.168,15.439z"/>
			<path fill="#FFBC82" d="M16.763,34.299c-3.939,0.971-2.04,8.359,0.92,10.018c1.177,0.659,2.506,0.336,3.059-1.129
				c0.666-1.022,0.277-3.846-0.4-6.3C19.794,34.898,18.652,33.833,16.763,34.299z"/>
			<path opacity="0.4" fill="#B54D26" d="M18.076,36.436c-0.867-0.428-3.078,0.242-2.096,1.986c0.587-1.576,1.529-0.506,1.35,0.622
				c-0.12,0.755-0.936,0.745-0.151,1.741c0.423,0.539,1.316,0.366,1.772,0.098C20.398,40.022,19.135,36.959,18.076,36.436z"/>
			<g>
				<g>
					<path fill="#261B18" d="M27.487,31.719c-2.313-0.802-3.434,3.277-1.81,4.464c0.697-0.259,1.546-0.245,2.234,0.03
						C29.36,35.322,29.208,32.314,27.487,31.719z"/>
				</g>
				<path opacity="0.4" fill="#B54D26" d="M37.239,39.452c-1.249,0.046-1.756-0.515-2.619,0.027
					c-0.864,0.537,0.425,2.175,2.636,2.044c2.201-0.127,3.126-1.664,2.653-2.216C39.36,38.664,38.626,39.406,37.239,39.452z"/>
				<path fill="#FFD4AD" d="M36.666,33.82c-1.013,0.161-2.249,5.6-1.686,5.989c1.384,0.951,4.184,0.387,4.929-0.501
					C40.201,38.957,37.811,33.642,36.666,33.82z"/>
				<g>
					<path fill="#261B18" d="M47.286,32.059c-2.247-1.432-4.047,2.933-2.196,4.228c0.608-0.378,1.805-0.224,2.379,0.063
						C48.414,35.358,48.491,32.828,47.286,32.059z"/>
				</g>
				<path opacity="0.7" fill="#E6D2C3" d="M26.741,32.469c-0.888,0.376-0.067,2.095,0.773,1.386
					C28.122,33.344,27.529,32.136,26.741,32.469z"/>
				<path opacity="0.7" fill="#E6D2C3" d="M46.38,32.517c-0.904,0.156-0.522,1.936,0.413,1.459
					C47.469,33.634,47.185,32.38,46.38,32.517z"/>
				<path fill="#80523A" d="M27.03,28.544c-1.368-0.006-3.438,1.36-4.433,2.273c0.234,0.456,1.061,0.212,1.449,0.109
					c0.66-0.17,1.347-0.446,1.611-0.513c1.159-0.297,2.479-0.24,3.539,0.259c0.564,0.268,1.896,0.891,2.288,0.067
					C32.272,29.086,27.874,28.55,27.03,28.544z"/>
				<path fill="#80523A" d="M42.131,30.75c0.331,0.82,1.504,0.181,2-0.091c0.934-0.515,2.089-0.586,3.094-0.305
					c0.233,0.065,0.828,0.333,1.402,0.495c0.337,0.097,1.056,0.329,1.269-0.126c-0.855-0.899-2.643-2.242-3.839-2.216
					C45.32,28.522,41.47,29.112,42.131,30.75z"/>
				<path fill="#FFD4AD" d="M48.414,38.486c-0.629-0.9-1.967-1.076-2.923-1.084c-1.25-0.01-2.91,0.443-1.789,2.225
					c0.598,0.946,5.573,1.635,4.985-0.551C48.626,38.85,48.532,38.656,48.414,38.486z"/>
				<path fill="#FFD4AD" d="M29.147,37.701c-0.846-0.779-2.258-0.659-3.242-0.453c-1.281,0.27-2.879,1.107-1.33,2.68
					c0.824,0.836,6.079,0.426,4.984-1.682C29.447,38.03,29.308,37.85,29.147,37.701z"/>
				<g opacity="0.5">
					<path fill="#94110C" d="M25.525,42.328c1.112,2.172,3.898,1.164,2.757-1.055C27.802,42.367,26.495,42.807,25.525,42.328z"/>
					<path fill="#94110C" d="M43.878,41.1c-0.64,2.275,2.354,3.102,2.973,0.879C45.995,42.512,44.6,42.157,43.878,41.1z"/>
					<g>
						<path fill="#94110C" d="M45.161,42.284c-0.346-0.119-0.719,0.03-0.829,0.329c-1.139,3.063-4.464,5.046-8.308,4.971
							c-3.697-0.072-6.632-2.036-7.809-4.598c-0.141-0.305-0.526-0.465-0.861-0.361c-0.336,0.105-0.496,0.436-0.355,0.74
							c1.351,2.938,4.624,5.186,8.733,5.371c0.115,0.004,0.23,0.008,0.347,0.01c4.42,0.085,8.192-2.172,9.506-5.707
							C45.696,42.74,45.506,42.4,45.161,42.284z"/>
					</g>
				</g>
			</g>
			<path fill="#D99A64" d="M33.345,13.33c-9.751-0.079-16.684,6.92-16.038,20.876c0.406-0.013,1.241-0.013,1.848,0.585
				c0.809,0.793,0.778,1.662,1,2.101c0.104,0.224,0.221,0.592,0.991,0.554c-1.45-4.689-0.615-11.27,0.979-13.407
				c3.954-5.302,12.831,1.865,15.774,1.756c2.221-0.081,7.567-6.761,9.686-1.745C49.027,27.47,48.988,13.461,33.345,13.33z"/>
			<circle fill="#FFFFFF" cx="18.53" cy="42.856" r="1.036"/>
		</g>
	</g>
</g>
</svg>
