<?xml version="1.0" encoding="utf-8"?>
<!-- Generator: Adobe Illustrator 16.0.0, SVG Export Plug-In . SVG Version: 6.00 Build 0)  -->
<!DOCTYPE svg PUBLIC "-//W3C//DTD SVG 1.1//EN" "http://www.w3.org/Graphics/SVG/1.1/DTD/svg11.dtd">
<svg version="1.1" id="Capa_1" xmlns="http://www.w3.org/2000/svg" xmlns:xlink="http://www.w3.org/1999/xlink" x="0px" y="0px"
	 width="67px" height="67px" viewBox="0 0 67 67" enable-background="new 0 0 67 67" xml:space="preserve">
<g>
	<defs>
		<circle id="SVGID_1_" cx="33.504" cy="33.504" r="33.496"/>
	</defs>
	<clipPath id="SVGID_2_">
		<use xlink:href="#SVGID_1_"  overflow="visible"/>
	</clipPath>
	<g clip-path="url(#SVGID_2_)">
		<g>
			<g>
				<path fill="#E0E0E0" d="M30.361,58.616l-1.515-2.882c-2.056,1.01-2.585,3.307-3.145,5.74c-0.203,0.883-0.819,3.441-1.403,5.523
					h3.483c0.489-1.901,1.028-4.145,1.184-4.821C29.332,60.582,29.713,58.934,30.361,58.616z"/>
			</g>
		</g>
		<g>
			<path fill="#FFC38F" d="M48.889,51.249c-2.424,2.952,0.013,3.794,2.332,5.329c1.159,0.766,2.532,2.098,3.469,0.152
				c0.539-1.117,0.539-2.01,0.957-3.158c0.35-0.965,0.781-2.275,1.403-3.07C58.761,48.319,56.396,42.115,48.889,51.249z"/>
			<g>
				<path fill="#23232D" d="M48.15,37.467c-0.363-0.36-0.969-0.342-1.351,0.042l-5.542,5.565c-0.382,0.383-0.397,0.992-0.037,1.352
					l9.906,9.862c0.36,0.36,0.969,0.341,1.353-0.042l5.539-5.564c0.382-0.384,0.397-0.992,0.037-1.352L48.15,37.467z"/>
				<path fill="#141418" d="M47.79,37.148c-0.347-0.345-0.933-0.318-1.308,0.058l-5.431,5.453c-0.374,0.376-0.399,0.964-0.053,1.309
					l9.447,9.407c0.345,0.342,0.933,0.315,1.308-0.061l5.429-5.453c0.375-0.376,0.399-0.964,0.054-1.307L47.79,37.148z"/>
				<path fill="#3A3A4A" d="M47.79,37.148c-0.347-0.345-0.933-0.318-1.308,0.058l-5.431,5.453c-0.374,0.376-0.399,0.964-0.053,1.309
					l9.447,9.407c0.345,0.342,0.933,0.315,1.308-0.061l5.429-5.453c0.375-0.376,0.399-0.964,0.054-1.307L47.79,37.148z"/>
				<path fill="#FFFFFF" d="M47.892,39.096c-0.276-0.275-0.725-0.277-0.996-0.006l-3.958,3.975c-0.271,0.273-0.267,0.721,0.01,0.997
					l7.302,7.269c0.276,0.275,0.725,0.277,0.995,0.006l3.959-3.975c0.27-0.273,0.266-0.721-0.012-0.996L47.892,39.096z"/>
				<path opacity="0.5" fill="#FFFFFF" d="M46.482,37.206l-5.431,5.453c-0.374,0.376-0.179,1.423,0.169,1.767l5.244,5.102
					l3.004-10.709l-1.679-1.67C47.443,36.804,46.857,36.83,46.482,37.206z"/>
			</g>
			<path fill="#FFC38F" d="M46.897,50.146c-0.167,0.475,0.64,1.346,0.835,1.771c0.315,0.683-0.202,1.947,0.62,2.479
				c0.665,0.434,1.205-0.08,1.466-0.646c0.484-1.036-0.01-2.347-0.945-3.293C48.44,50.022,47.165,49.399,46.897,50.146z"/>
			<path fill="#E0E0E0" d="M40.204,56.001c-0.511-0.347-0.881,2.587-0.522,3.833c1.342,4.661,13.008,7.535,15.196-2.453
				l-4.354-1.068C48.918,65.383,41.652,56.984,40.204,56.001z"/>
		</g>
		<g>
			<path fill="#E0E0E0" d="M40.275,56.001c-2.437-2.47-8.834-2.277-11.511-0.177c-2.755,2.162-0.124,7.296,0.465,11.174h10.437
				C39.91,61.889,42.976,58.734,40.275,56.001z"/>
			<path fill="#3A3A4A" d="M40.474,62.654c-0.886-1.926-0.69-5.14-0.225-6.68c-2.447-2.429-9.132-2.225-11.917,0.055
				c0.386,1.379,0.646,4.119-0.245,6.242c0.442,1.747,0.892,3.26,1.036,4.727h10.662C39.79,65.31,40.074,64.023,40.474,62.654z"/>
			<path opacity="0.3" d="M29.705,57.578l0.89,4c0,0,3.49-1.779,3.92-1.779c0.47,0,3.985,1.623,3.985,1.623l0.479-4.12
				c0,0-3.688,2.283-4.451,2.286C33.962,59.59,29.705,57.578,29.705,57.578z"/>
			<path fill="#F2F2F2" d="M37.469,53.961c-1.775-0.746-4.923-0.695-6.572,0.084c-3.216,1.523,0.202,6.518,0.202,6.518l3.458-0.871
				l3.451,0.758C38.008,60.449,40.617,55.283,37.469,53.961z"/>
			<linearGradient id="SVGID_3_" gradientUnits="userSpaceOnUse" x1="34.3965" y1="52.0674" x2="34.3965" y2="55.3265">
				<stop  offset="0" style="stop-color:#EE996D"/>
				<stop  offset="0.0163" style="stop-color:#EE9A6E"/>
				<stop  offset="0.3731" style="stop-color:#F8B181"/>
				<stop  offset="0.7088" style="stop-color:#FDBF8D"/>
				<stop  offset="1" style="stop-color:#FFC491"/>
			</linearGradient>
			<path fill="url(#SVGID_3_)" d="M37.508,54.434c-0.562-0.448-0.427-1.828-0.337-3.428c0.21-3.623-6.048-3.758-6.042,0.197
				c0.002,1.752,0.063,2.85-0.406,3.333c-0.91,0.935-0.825,2.576,3.748,4.69C36.966,57.99,40.207,56.583,37.508,54.434z"/>
			<g>
				<circle fill="#FFF9F0" cx="30.561" cy="55.104" r="0.534"/>
				<circle fill="#FFF9F0" cx="31.78" cy="55.933" r="0.533"/>
				<circle fill="#FFF9F0" cx="33.359" cy="56.489" r="0.534"/>
				<circle fill="#FFF9F0" cx="34.941" cy="56.574" r="0.533"/>
				<circle fill="#FFF9F0" cx="37.809" cy="55.05" r="0.534"/>
				<circle fill="#FFF9F0" cx="36.54" cy="55.987" r="0.533"/>
			</g>
			<path opacity="0.07" fill="#FFFFFF" d="M37.113,61.114c-1.902,0.711-4.217,0.416-6.169-0.096
				c-1.121-0.296-1.754,1.046-1.409,2.19c0.455,1.52,2.783,1.914,4.813,1.878c4.002-0.071,5.502-1.642,4.826-3.511
				C38.993,61.076,38.137,60.732,37.113,61.114z"/>
		</g>
		<g>
			<path fill="#FAD882" d="M18.132,24.031C7.97,25.672,7.066,38.154,12.565,43.855c4.307,4.465,3.914,7.532,0.552,7.878
				c2.013,2.08,15.428,6.702,17.659-9.974C33.006,25.086,22.996,23.245,18.132,24.031z"/>
			<path fill="#FFE9B1" d="M16.517,26.563c-2.623-0.191-6.901,2.982-6.563,9.391c0.154,2.986,1.938,6.283,1.938,6.283
				s-2.477-9.348,6.705-10.526C28.674,30.419,16.517,26.563,16.517,26.563z"/>
			<path fill="#EBC271" d="M24.669,33.835c-1.978,1.509-7.3-0.037-3.894,9.796c2.406,6.952-0.374,9.545-5.835,8.852
				c0,0,8.449,3.912,15.003-4.607C37.072,38.611,33.566,27.05,24.669,33.835z"/>
			<path fill="#EBC271" d="M18.951,32.037c-1.954-0.152-3.544,1.348-2.854,5.883c0.686,4.531,4.905,3.872,4.905,3.872
				S20.902,32.189,18.951,32.037z"/>
			<path fill="#FAD882" d="M31.74,9.552C8.696,10.469,13.237,41.52,23.2,40.278c5.09-0.634,3.737-6.557,8.706-7.811
				c2.439-0.616,4.981-0.661,7.482-0.539c2.431,0.118,6.835,6.825,7.971,5.282C50.07,33.531,51.914,8.749,31.74,9.552z"/>
			<path fill="#FFC59A" d="M32.902,16.342c-10.652,0.603-13.979,7.97-13.438,18.853c0.539,10.886,8.26,17.879,16.144,18.169
				c6.056,0.224,13.442-9.707,12.557-20.57C47.289,22.078,43.146,15.764,32.902,16.342z"/>
			<path opacity="0.3" fill="#D14F2E" d="M33.115,20.842c-0.911,0.268,0.286,1.875,0.286,1.875c0.171-1.126,0.792-0.974,1.442-0.386
				C34.844,22.331,34.027,20.572,33.115,20.842z"/>
			<path opacity="0.3" fill="#D14F2E" d="M36.058,20.042c-1.838-0.01-1.206,2.3-1.206,2.3c0.35-1.25,1.866-1.458,3.287-0.375
				C38.139,21.968,37.896,20.05,36.058,20.042z"/>
			<path opacity="0.3" fill="#D14F2E" d="M24.365,18.51c-8.031,3.371-3.212,19.001-3.212,19.001
				c-3.245-22.083,10.484-15.61,12.248-14.795C31.848,20.326,30.047,16.126,24.365,18.51z"/>
			<path opacity="0.3" fill="#D14F2E" d="M40.787,16.272c-2.083,0.201-2.723,4.205-2.648,5.695c1.951-2.784,6.5-2.208,8.703,3.502
				C46.872,23.166,43.677,15.996,40.787,16.272z"/>
			<path fill="#FFC59A" d="M17.639,32.044c-2.906,1.383-1.571,7.427,0.856,8.474c0.78,0.336,1.597,0.326,2.38,0.188
				c0.016-0.035,0.029-0.071,0.044-0.109c0.333-0.824-0.398-4.857-0.6-5.686C19.812,32.823,19.032,31.38,17.639,32.044z"/>
			<path opacity="0.3" fill="#D14F2E" d="M18.63,34.051c-0.604-0.309-1.843,0.697-0.942,2.329c0.09-1.69,0.849-0.741,0.928,0.432
				c0.061,0.788-0.444,0.896,0.207,1.793c0.351,0.485,0.867,0.183,1.101-0.161C20.662,37.357,19.366,34.427,18.63,34.051z"/>
			<path fill="#FAD882" d="M29.31,11.025c-10.622,2.341-15.563,18.457-6.864,31.092c-1.526-4.202-3.18-15.816-0.59-19.505
				c2.602-3.702,8.449-2.135,11.546,0.104c0.013-0.476,0.079-0.972,0.21-1.409c0.115,0.111,1.085,0.791,1.232,1.023
				c0.322-1.884,2.229-1.543,3.295-0.363c0.974-4.138,7.092-4.615,9.332,5.966c0.249,1.179,0.072-4.603-0.165-5.793
				C46.197,16.605,39.198,8.846,29.31,11.025z"/>
			<path fill="#FFE9B1" d="M42.466,12.815c-9.132,8.801-21.122,0.993-21.122,0.993c-4.428,2.734-5.416,9.128-5.416,9.128
				s2.318,1.171,4.278-1.609c1.958-2.782,5.214-3.111,8.93-2.478s7.032-0.605,11.292-1.219c4.258-0.614,7.16,4.164,7.16,4.164
				C46.819,16.495,42.466,12.815,42.466,12.815z"/>
			<circle fill="#FFF9F0" cx="19.453" cy="41.696" r="1.157"/>
		</g>
		<g>
			<path fill="#FFB085" d="M47.098,37.67c-0.443-0.854-1.575-1.033-2.396-1.049c-1.072-0.018-2.547,0.396-1.773,2.082
				c0.411,0.898,4.613,1.592,4.343-0.475C47.242,38.016,47.182,37.83,47.098,37.67z"/>
			<path fill="#FFB085" d="M28.019,37.898c-0.638-0.874-1.907-0.83-2.809-0.666c-1.179,0.212-2.718,1.005-1.574,2.754
				c0.61,0.934,5.335,0.805,4.672-1.487C28.237,38.264,28.14,38.064,28.019,37.898z"/>
			<path opacity="0.3" fill="#D14F2E" d="M35.502,37.65c-0.831,0.005-1.166-0.346-1.744-0.029c-0.574,0.317,0.701,1.453,1.726,1.373
				c1.163-0.09,2.106-1.039,1.794-1.385C36.915,37.201,36.425,37.646,35.502,37.65z"/>
			<path fill="#6E4C3C" d="M39.527,27.729c0,0,1.911-0.233,3.883-0.154c1.974,0.077,4.199,0.513,4.199,0.513
				s-1.971-1.969-4.388-2.053C40.804,25.95,39.527,27.729,39.527,27.729z"/>
			<path fill="#6E4C3C" d="M25.979,27.833c-2.642,0.224-4.614,2.133-4.614,2.133s2.418-0.596,4.576-0.786
				c2.159-0.192,4.264-0.04,4.264-0.04S28.622,27.611,25.979,27.833z"/>
			<path fill="#1E4C76" d="M42.323,32.236c-0.107,1.64,0.293,2.923,1.743,3.031c2.052,0.152,2.676-1.582,2.783-2.715
				C45.917,32.152,43.835,31.991,42.323,32.236z"/>
			<path fill="#9CD0FF" d="M43.766,32.171c-0.817,0.111-0.441,1.577,0.397,1.204C44.771,33.107,44.494,32.075,43.766,32.171z"/>
			<path fill="#121B21" d="M41.258,32.528c0,0,1.836-0.327,3.63-0.09c3.635,0.483,4.788,0.047,4.788,0.047
				c-1.971-0.363-3.87-1.288-5.053-1.426C42.462,30.806,41.258,32.528,41.258,32.528z"/>
			<path fill="#1E4C76" d="M23.341,33.124c0.164,1.132,0.871,2.831,2.912,2.579c1.445-0.18,1.782-1.479,1.595-3.115
				C26.323,32.417,24.253,32.678,23.341,33.124z"/>
			<path fill="#9CD0FF" d="M25.406,32.731c-0.733-0.062-0.958,0.982-0.34,1.221C25.924,34.284,26.229,32.802,25.406,32.731z"/>
			<path fill="#121B21" d="M25.492,31.527c-1.174,0.195-3.025,1.212-4.977,1.672c0,0,1.171,0.377,4.782-0.282
				c1.777-0.325,3.628-0.088,3.628-0.088S27.639,31.167,25.492,31.527z"/>
			<path opacity="0.8" fill="#FF3B3B" d="M31.679,41.986c-2.301,0.6-5.646,2.236-3.387,4.268c2.671,2.402,8.479,2.34,10.998,1.178
				c2.197-1.014,3.874-3.67,1.696-4.891l2.038-0.777C39.25,41.311,35.29,41.045,31.679,41.986z"/>
			<path fill="#8F2722" d="M39.868,42.631c0.304-0.106,0.728-0.318,1.148-0.48c-6.819-0.693-14.172,1.275-12.214,3.336
				c1.528,1.607,7.07,1.822,9.54,1.131C40.695,45.959,42.516,43.651,39.868,42.631z"/>
			<path fill="#FFF9F0" d="M40.015,42.02c-3.354-0.224-7.681-0.086-10.073,1.116c-0.483,0.243-0.378,0.497,0.304,0.707
				c1.538,0.469,4.066-0.13,5.598-0.208c3.77-0.197,4.138,0.276,4.382-0.106C40.477,43.134,40.854,42.074,40.015,42.02z"/>
			<path fill="#E8DAC5" d="M40.131,42.037c-1.415-0.209-8.204-0.336-10.421,1.26c0,0-0.455,0.318,0.535,0.546
				c0,0,4.561-2.466,10.289-1.028C40.534,42.814,40.741,42.102,40.131,42.037z"/>
		</g>
		<g>
			<path opacity="0.3" fill="#B54D26" d="M45.889,29.242c-1.448,0.085-2.888,0.318-4.289,0.698
				c-1.195,0.323-2.602,0.476-3.701,1.056c-1.012,0.537-1.438,0.883-2.665,0.839c-2.197-0.076-4.056-1.431-6.251-1.645
				c-2.286-0.223-4.625-0.476-6.873,0.16c-0.583,0.167-2.35,0.848-1.148,1.469c1.17,0.606,2.916,0.4,4.194,0.44
				c0.589,0.018,1.183,0.029,1.771,0.08c2.09,0.177,5.3-0.133,5.149,2.475c-0.104,1.79-1.243,3.636-2.694,3.982
				c-1.392,0.332-2.884,0.466-4.296,0.469c-1.083,0.005-2.126-0.198-3.113-0.647c-0.281-0.129-1.12-0.654-1.39-0.275
				c-0.458,0.644,1.249,1.699,1.694,1.896c1.02,0.453,2.102,0.583,3.205,0.691c2.725,0.273,5.525,0.11,7.048-2.402
				c0.882-1.457,1.315-3.166,2.132-4.662c1.336-2.446,1.996,0.858,2.432,2.302c0.246,0.813,0.601,1.598,1.103,2.281
				c0.889,1.207,2.624,1.854,4.068,1.91c0.894,0.035,1.807-0.018,2.641-0.367c0.502-0.213,0.702-0.801,0.096-1.024
				c-0.366-0.136-0.949-0.03-1.334-0.045c-0.559-0.019-1.132-0.021-1.684-0.122c-0.709-0.127-1.422-0.414-2.023-0.85
				c-0.421-0.303-0.784-0.678-1.055-1.123c-0.559-0.924-0.592-2.06-0.237-3.065c0.489-1.386,2.006-1.506,3.264-1.623
				c1.522-0.143,3.065-0.125,4.58-0.275c0.675-0.067,1.349,0.019,2.024,0.037c0.869,0.022,2.742-0.268,1.704-1.52
				C49.236,29.172,47.295,29.158,45.889,29.242z"/>
			<g>
				<path fill="#3A3A4A" d="M19.938,29.406c-1.797,0.073-3.334-0.415-3.757-0.05c-0.546,0.476,0.431,2.071,0.431,2.071
					s0.576,0.4,1.416,0.463c0.129,1.248,0.084,4.472,2.392,6.49c1.929,1.684,8.179,2.123,10.114,1.129
					c2.397-1.229,3.404-3.484,3.811-5.702C35.345,28.368,22.473,29.304,19.938,29.406z M30.652,38.044
					c-2.365,1.554-8.443,0.882-10.038-1.057c-1.231-1.497-1.471-4.642-0.731-5.095c2.266-1.391,10.824-0.935,12.815,0.56
					C33.663,33.175,32.443,36.865,30.652,38.044z"/>
			</g>
			<g>
				<path fill="#3A3A4A" d="M49.403,28.669c-2.291,0.021-13.946-0.297-12.792,5.085c0.471,2.198,1.485,4.399,3.705,5.515
					c1.792,0.898,7.412,0.158,9.068-1.614c1.99-2.126,1.802-5.347,1.857-6.599c0.756-0.102,1.258-0.528,1.258-0.528
					s0.805-1.641,0.291-2.09C52.393,28.093,51.028,28.656,49.403,28.669z M49.147,36.273c-1.347,2.012-6.8,2.977-9.004,1.539
					c-1.672-1.092-2.944-4.72-2.105-5.489c1.723-1.588,9.423-2.454,11.531-1.174C50.259,31.567,50.189,34.721,49.147,36.273z"/>
			</g>
			<path opacity="0.3" fill="#FFFFFF" d="M39.539,31.822c-1.265,0.56,1.046,1.208,1.542,1.275c1.722,0.241,3.665,0.102,5.491-0.256
				c0.96-0.188,3.018-1.084,2.42-1.609C48.152,30.5,40.935,31.206,39.539,31.822z"/>
			<path fill="#FFFFFF" d="M45.199,31.449c-0.687,0.117-1.136,0.323-0.944,0.631c0.382,0.605,4.42,0.216,4.688-0.252
				C49.207,31.366,46.662,31.203,45.199,31.449z"/>
			<path opacity="0.7" fill="#FFFFFF" d="M40.87,36.529c-0.434-0.016-0.733,0.077-0.656,0.349c0.151,0.536,2.664,0.856,2.89,0.527
				C43.326,37.082,41.792,36.561,40.87,36.529z"/>
			<path opacity="0.7" fill="#FFFFFF" d="M22.008,36.525c-0.453-0.068-0.779-0.014-0.734,0.267c0.091,0.55,2.679,1.177,2.957,0.878
				C24.504,37.377,22.969,36.67,22.008,36.525z"/>
			<path opacity="0.3" fill="#FFFFFF" d="M31.745,32.142c-1.608-0.558-9.584-1.09-10.397-0.376c-0.586,0.511,1.785,1.32,2.859,1.48
				c2.043,0.301,4.184,0.396,6.03,0.137C30.769,33.31,33.201,32.648,31.745,32.142z"/>
			<path fill="#FFFFFF" d="M28.277,31.708c-0.732,0.031-1.229,0.179-1.068,0.51c0.317,0.648,4.594,0.763,4.938,0.327
				C32.484,32.122,29.839,31.645,28.277,31.708z"/>
			<path fill="#3A3A4A" d="M38.094,30.491c-1.66,0.777-3.281,0.909-5.605,0.105c-1.757-0.605,0.929,1.132,1.141,2.038
				c0.211,0.909-0.067,3.689,0.527,2.029c0.595-1.663,1.817-1.779,2.611-0.264c0.795,1.516,0.702-2.549,1.016-2.923
				C38.098,31.105,39.753,29.713,38.094,30.491z"/>
			<path fill="#C1C5C9" d="M20.784,29.933c4.854,0.204,8.732,0.311,11.672,1.418C30.532,29.795,27.238,29.476,20.784,29.933z"/>
			<path fill="#C1C5C9" d="M48.996,29.096c-5.918,0.264-8.68,0.329-10.262,1.848C41.29,29.705,44.604,29.762,48.996,29.096z"/>
		</g>
	</g>
</g>
</svg>
