<?xml version="1.0" encoding="utf-8"?>
<!-- Generator: Adobe Illustrator 16.0.0, SVG Export Plug-In . SVG Version: 6.00 Build 0)  -->
<!DOCTYPE svg PUBLIC "-//W3C//DTD SVG 1.1//EN" "http://www.w3.org/Graphics/SVG/1.1/DTD/svg11.dtd">
<svg version="1.1" id="Capa_1" xmlns="http://www.w3.org/2000/svg" xmlns:xlink="http://www.w3.org/1999/xlink" x="0px" y="0px"
	 width="67px" height="67px" viewBox="0 0 67 67" enable-background="new 0 0 67 67" xml:space="preserve">
<g>
	<defs>
		<circle id="SVGID_1_" cx="33.504" cy="33.497" r="33.496"/>
	</defs>
	<clipPath id="SVGID_2_">
		<use xlink:href="#SVGID_1_"  overflow="visible"/>
	</clipPath>
	<g clip-path="url(#SVGID_2_)">
		<g>
			<g>
				<path fill="#E8DBDB" d="M30.624,52.963c-2.197,1.093-2.764,3.58-3.362,6.217c-0.281,1.244-1.313,5.558-2.043,7.811h3.292
					c0.743-2.775,2.615-10.594,3.245-10.906L30.624,52.963z"/>
			</g>
		</g>
		<g>
			<g>
				<path fill="#E8DBDB" d="M40.146,52.963l-1.132,3.121c0.63,0.313,2.5,8.131,3.245,10.906h3.292
					c-0.73-2.253-1.762-6.566-2.043-7.811C42.909,56.543,42.343,54.056,40.146,52.963z"/>
			</g>
		</g>
		<g>
			<path fill="#E8DBDB" d="M41.588,60.898c1.019-2.521,0.709-5.24-0.219-6.465c-3.738-4.927-8.344-3.742-10.715-1.639
				c-0.77,0.683-1.297,1.608-1.485,2.551c-1.007,2.646-0.04,3.873,0.531,6.135c0.401,1.586,0.455,3.352,0.124,5.51h11.463
				C40.725,65.232,40.537,63.504,41.588,60.898z"/>
			<circle fill="#FFFFFF" cx="35.559" cy="61.61" r="0.503"/>
			<circle fill="#FFFFFF" cx="35.626" cy="64.685" r="0.501"/>
			<linearGradient id="SVGID_3_" gradientUnits="userSpaceOnUse" x1="35.4365" y1="49.2803" x2="35.4365" y2="53.5008">
				<stop  offset="0" style="stop-color:#854326"/>
				<stop  offset="1" style="stop-color:#9C552C"/>
			</linearGradient>
			<path fill="url(#SVGID_3_)" d="M39.175,52.045c-1.822-1.033,0.149-5.742-1.311-6.92c-1.099-0.888-2.918-0.971-4.183-0.445
				c-2.502,1.035-0.034,6.758-2.432,7.791c-0.479,0.205-0.583,0.781,0.346,2.285c1.15,1.87,1.934,2.779,4.132,3.796
				c1.769-0.8,3.59-2.532,4.108-4.139C40.268,53.071,39.648,52.313,39.175,52.045z"/>
			<path opacity="0.2" fill="#A09A8F" d="M35.728,58.552c-0.565,0.001-5.256-1.26-5.256-1.26l0.402,3.445
				c0,0,4.409-1.946,4.839-1.946c0.471,0,4.957,2.102,4.957,2.102l-0.001-3.572C40.669,57.32,36.486,58.547,35.728,58.552z"/>
			<path fill="#F5ECEC" d="M39.379,51.97c0,0,0.849,1.893-0.257,3.625c-0.882,1.386-3.395,2.957-3.395,2.957l4.654,1.379
				C40.382,59.931,41.411,53.365,39.379,51.97z"/>
			<path fill="#F5ECEC" d="M32.431,55.947c-1.532-2.198-1.067-3.661-1.067-3.661c-2.271,1.548-0.262,7.614-0.262,7.614l4.626-1.349
				C35.728,58.552,33.561,57.568,32.431,55.947z"/>
			<g>
				<path opacity="0.2" d="M38.73,53.864c0.043-0.298,0.335-0.542,0.434-0.825c0.126-0.379,0.072-0.789,0.025-1.176
					c-0.424-0.157-1.157,0.411-1.55,0.558c-0.578,0.216-1.171,0.497-1.77,0.64c-1.064,0.25-2.314,0.021-3.266-0.503
					c-0.396-0.216-0.785-0.493-1.021-0.866c-0.161,1.227,0.289,1.832,1.29,2.456c0.501,0.313,1.077,0.341,1.566,0.612
					c-0.64,0.559-0.841,1.789-0.996,2.59c-0.274,1.41,0.091,2.879-0.184,4.273c0.876,0.076,2.159-0.941,2.817-1.473
					c0.68-0.545,1.189-1.156,1.59-1.932c0.19-0.371,0.369-0.746,0.398-1.164c1.205,0.855,2.354,1.225,3.853,1.201
					c-0.356-0.863-0.972-1.997-1.651-2.643C39.821,55.188,38.624,54.609,38.73,53.864z"/>
				<path fill="#85B428" d="M38.57,50.847c-0.275,0.149-0.523,0.507-0.755,0.726c-0.671,0.641-1.582,0.98-2.495,0.963
					c-0.36-0.008-0.721-0.07-1.067-0.191c-0.805-0.283-1.733-0.736-2.007-1.622c-0.435,0.2-0.775,0.536-1.091,0.895
					c0.153,0.731,0.488,1.324,1.028,1.837c0.305,0.291,0.738,0.548,1.133,0.693c2.104,0.78,4.904-0.072,6.13-1.965
					c0.114-0.18,0.164-0.248,0.047-0.434C39.422,51.636,38.644,50.807,38.57,50.847z"/>
				<path fill="#85B428" d="M36.122,54.981c1.345,0.459,3.28-0.888,2.407-2.347C37.096,50.24,33.346,54.031,36.122,54.981z"/>
				<path fill="#85B428" d="M36.598,53.53c-0.551,0.748-1.448,1.011-1.998,1.807c-0.479,0.69-0.826,1.563-0.964,2.423
					c-0.204,1.271-0.171,2.625-0.631,3.834c2.651-0.109,5.355-2.861,4.55-6.005C37.381,54.911,37.051,54.039,36.598,53.53z"/>
				<path fill="#85B428" d="M36.912,53.095c0.643,5.817,5.214,6.233,7.611,5.241C41.844,57.32,40.835,52.23,36.912,53.095z"/>
				<path fill="#588A17" d="M39.926,56.11c-1.1-0.719-1.696-0.681-2.179-1.257c0.181,0.81,0.332,1.327,1.032,1.967
					c0.598,0.545,1.402,1.027,2.228,0.984C40.864,57.203,40.441,56.445,39.926,56.11z"/>
				<path fill="#588A17" d="M36.28,57.573c-0.222,0.534-0.243,1.401-0.133,2.001c0.55-0.34,0.913-1.139,1.117-1.898
					c0.241-0.887,0.165-1.419,0.011-2.219C37.156,56.191,36.756,56.431,36.28,57.573z"/>
				<path fill="#588A17" d="M37.175,54.718c-0.198,0.063-0.429,0.11-0.636,0.11c-0.253-0.002-0.474-0.061-0.705-0.161
					c-0.063-0.026-0.107-0.063-0.176-0.057c0.2,0.249,0.43,0.345,0.697,0.515c0.215,0.137,0.456,0.225,0.665,0.365
					c0.17,0.108,0.29,0.182,0.499,0.111c0.22-0.076,0.312-0.332,0.412-0.521c0.19-0.354,0.457-0.793,0.48-1.206
					c-0.148,0.117-0.246,0.292-0.398,0.413C37.768,54.486,37.476,54.623,37.175,54.718z"/>
			</g>
		</g>
		<g>
			<path opacity="0.5" fill="#D9A78A" d="M20.956,31.545c-1.78-0.183-3.267,1.152-2.738,5.306c0.527,4.154,4.396,3.647,4.396,3.647
				S22.735,31.728,20.956,31.545z"/>
			<path fill="#4F2315" d="M37.015,9.837C24.91,10.796,19.451,20.281,16.226,27.979c-7.521,8.891-4.839,24.767,11.438,19.394
				c4.13-1.365,1.758-6.609,8.406-7.096c4.188-0.307,5.071,4.557,6.517,5.546c9.351,6.393,17.449-7.872,7.331-19.822
				C41.781,24.033,46.931,12.047,37.015,9.837z"/>
			<path fill="#FFF3E2" d="M45.842,39.123c-1.465,0.12-2.525,1.582-2.365,3.263c0.159,1.685,1.478,2.948,2.942,2.829
				c1.465-0.122,2.525-1.584,2.366-3.266C48.624,40.266,47.307,39.002,45.842,39.123z M46.33,44.15
				c-1.065,0.087-2.021-0.829-2.136-2.051c-0.115-1.221,0.652-2.281,1.718-2.369c1.062-0.087,2.019,0.83,2.133,2.051
				C48.16,43.002,47.393,44.062,46.33,44.15z"/>
			<path fill="#9C552C" d="M34.504,17.525c-10.095,0.312-13.409,6.963-13.15,16.914c0.259,9.952,7.401,16.512,14.854,16.951
				c5.722,0.338,12.943-8.564,12.354-18.501C47.983,23.08,44.207,17.224,34.504,17.525z"/>
			<g>
				<path fill="#161110" d="M27.57,31.385c-2.078-0.781-3.14,3.047-1.69,4.184c0.634-0.237,1.4-0.215,2.02,0.051
					C29.215,34.799,29.115,31.967,27.57,31.385z"/>
			</g>
			<path fill="#7D422B" d="M27.29,26.745c-0.883,0.152-1.855,0.737-2.334,2.069c2.549-2.123,4.219-0.878,5.146-0.507
				C29.578,27.34,28.529,26.535,27.29,26.745z"/>
			<path opacity="0.7" fill="#F0DED1" d="M27.726,32.584c-0.862,0.133-0.538,1.892,0.358,1.447
				C28.731,33.708,28.491,32.469,27.726,32.584z"/>
			<path fill="#4F2315" d="M45.938,18.019c-2.115-2.468-5.187-3.747-8.185-4.82c-2.22-0.796-4.537-1.064-6.872-0.61
				c-5.876,1.146-9.512,6.792-10.454,12.365c-0.298,1.754-1.921,7.894,0.388,10.81c0.533-3.144,1.393-4.898,8.447-6.948
				c7.502-2.177,10.961-7.591,11.953-9.221c0.202,4.34,7.225,6.02,7.281,12.355c0.036-1.58,1.116-4.318,0.851-5.912
				C48.869,23.164,47.855,20.257,45.938,18.019z"/>
			<path fill="#BF6C3C" d="M47.019,37.537c-0.403-0.756-1.422-0.965-2.162-1.018c-0.964-0.067-2.286,0.217-1.582,1.703
				c0.376,0.795,4.157,1.596,3.9-0.195C47.149,37.844,47.095,37.682,47.019,37.537z"/>
			<path fill="#BF6C3C" d="M28.519,37.412c-0.571-0.785-1.727-0.791-2.55-0.681c-1.073,0.143-2.478,0.777-1.451,2.341
				c0.548,0.833,4.842,0.889,4.257-1.131C28.713,37.734,28.626,37.559,28.519,37.412z"/>
			<g>
				<g>
					<path fill="#932F19" d="M36.326,40.696c-2.824,0.054-6.977,0.854-9.184-0.45c3.623,6.223,5.893,7.389,8.785,7.611
						c3.624,0.274,4.898-2.238,5.474-4.128c0.243-0.799,2.109-2.837,2.827-3.299C41.961,40.952,39.738,40.629,36.326,40.696z"/>
				</g>
				<path fill="#8F312D" d="M28.836,41.345c0,0,2.172,4.183,6.684,4.338c2.89,0.101,4.807-0.85,5.365-2.249
					c0.609-1.531,1.85-2.07,1.85-2.07C34.833,43.243,28.836,41.345,28.836,41.345z"/>
				<path fill="#FFF9F0" d="M30.508,41.739c0,0,0.118,1.255,1.717,1.763c2.05,0.65,4.269,0.719,6.563,0.387
					c1.547-0.226,2.334-2.186,2.334-2.186S36.695,42.726,30.508,41.739z"/>
				<path fill="#FFF9F0" d="M36.69,44.023c-2.065,0.047-3.778-0.119-4.802-0.819c-0.729-0.499-0.806,0.026-0.651,0.356
					c0,0,0.642,1.729,4.062,2.174c3.287,0.428,5.023-1.602,4.653-1.965C39.581,43.408,38.604,43.978,36.69,44.023z"/>
				<path fill="#E8DAC5" d="M30.508,41.739c0,0,0.105,0.583,0.395,0.89c0,0,7.733-0.568,9.571,0.161c0,0,0.555-0.687,0.647-1.087
					C41.121,41.703,35.709,42.652,30.508,41.739z"/>
				<path fill="#E8DAC5" d="M32.5,43.466c2.743,1.757,6.081,0.356,6.081,0.356C35.081,44.592,32.5,43.466,32.5,43.466z"/>
			</g>
			<path opacity="0.7" fill="#66241B" d="M36.854,36.955c-0.648-0.014-0.905-0.295-1.361-0.059
				c-0.457,0.235,0.519,1.146,1.321,1.105c0.908-0.047,1.663-0.771,1.427-1.049C37.966,36.631,37.573,36.967,36.854,36.955z"/>
			<g>
				<path fill="#161110" d="M45.859,31.424c-2.087-1.33-3.919,3.548-1.6,4.249c0.561-0.383,1.233-0.385,1.832-0.292
					C46.888,34.342,46.977,32.138,45.859,31.424z"/>
			</g>
			<path opacity="0.7" fill="#F0DED1" d="M45.754,32.503c-0.824,0.021-0.705,1.85,0.184,1.515
				C46.581,33.775,46.484,32.487,45.754,32.503z"/>
			<path fill="#161110" d="M45.918,31.321c-1.913-0.735-2.539,1.532-2.539,1.532s0.928-1.144,2.229-0.418
				c2.954,1.646,4.856-0.355,4.856-0.355C48.123,32.866,46.942,31.716,45.918,31.321z"/>
			<path fill="#161110" d="M26.18,31.488c-0.765,0.389-2.538,1.552-4.893,0.869c0,0,2.245,1.948,5.089,0.185
				c1.248-0.772,2.319,0.177,2.319,0.177S28.172,30.475,26.18,31.488z"/>
			<path fill="#783F29" d="M45.715,26.998c-1.234-0.245-2.306,0.533-2.853,1.485c0.935-0.345,2.639-1.546,5.131,0.644
				C47.548,27.783,46.592,27.17,45.715,26.998z"/>
			<path fill="#9C552C" d="M19.756,31.522c-2.684,1.196-1.602,6.745,0.596,7.757c0.703,0.322,1.449,0.335,2.168,0.224
				c0.014-0.032,0.028-0.063,0.044-0.097c0.319-0.746-0.26-4.447-0.424-5.209C21.725,32.283,21.045,30.948,19.756,31.522z"/>
			<path fill="#FFF3E2" d="M21.732,39.664c-1.471,0.012-2.635,1.393-2.599,3.08c0.035,1.69,1.254,3.049,2.726,3.037
				c1.471-0.012,2.635-1.392,2.6-3.08C24.423,41.01,23.204,39.652,21.732,39.664z M21.848,44.714
				c-1.066,0.009-1.951-0.978-1.977-2.204c-0.025-1.223,0.82-2.225,1.886-2.233c1.067-0.011,1.952,0.978,1.979,2.202
				C23.76,43.704,22.915,44.706,21.848,44.714z"/>
			<path opacity="0.7" fill="#66241B" d="M20.617,33.376c-0.545-0.294-1.698,0.596-0.914,2.107c0.121-1.543,0.793-0.658,0.842,0.413
				c0.034,0.721-0.426,0.807,0.147,1.645c0.309,0.451,0.789,0.184,1.008-0.123C22.398,36.441,21.281,33.737,20.617,33.376z"/>
			<path opacity="0.3" fill="#380500" d="M43.904,17.577c-2.066-1.291-4.652-1.193-6.946-0.731
				c-2.123,0.426-3.588,1.359-5.489,2.256c-2.978,1.406-6.251,1.554-9.31,2.678c-1.886,0.692-5.406,4.887-5.162,6.976
				c1.333,0.174,2.402-0.849,3.584-1.134c0.388,1.737,3.989,3.718,5.622,3.68c2.191-0.05,4.502-1.578,6.62-2.161
				c1.392-0.383,2.852-0.641,4.314-0.803c3.325-0.367,6.755,0.323,10.08,0.672c1.395,0.146,3.816,1.379,4.468-0.406
				c1.029-2.829-1.966-5.468-3.353-7.494C47.113,19.327,45.785,18.752,43.904,17.577z"/>
		</g>
		<g>
			<path fill="#588A17" d="M29.425,6.918C17.371,9.203,15.938,21.542,15.313,26.183c-0.454,3.36,3.563,1.359,6.222-0.41
				c0.289-0.194,0.583-0.371,0.878-0.536c5.862-3.243,12.254-2.547,18.587-2.983c2.128-0.146,4.59-0.521,7.296,0.009
				C50.622,22.717,47.523,3.491,29.425,6.918z"/>
			<path fill="#85B428" d="M41.629,9.369c-3.105-2.024-5.936-2.661-9.556-2.401c-4.045,0.291-7.976,1.93-9.672,3.619
				c-0.498,1.629-0.854,6.157,0.543,10.922c0.557,1.899,1.397,0.478,4.094-0.586c7.631-3.021,12.896-2.504,18.917-1.226
				c1.021,0.216,2.24,0.634,2.122-0.356c-0.269-2.275-1.718-5.517-4.112-8.018C43.241,10.571,42.455,9.906,41.629,9.369z"/>
			<path fill="#ACD14B" d="M29.435,11.78c-2.775,1.34-1.492,6.328,1.453,5.597c2.343-0.581,4.692-1.128,8.297-0.701
				c1.447,0.171,4.995,1.402,4.612-1.613C43.092,9.532,32.543,10.277,29.435,11.78z"/>
			<g>
				<path fill="#ACD14B" d="M30.805,9.765c-0.297,0.066-0.589,0.14-0.862,0.218c-0.117,0.034-0.19,0.164-0.159,0.289
					c0.022,0.099,0.103,0.167,0.193,0.176c0.023,0.002,0.047,0,0.075-0.008c0.265-0.076,0.548-0.147,0.838-0.21
					c0.119-0.028,0.197-0.152,0.175-0.279C31.041,9.821,30.926,9.738,30.805,9.765z"/>
				<path fill="#ACD14B" d="M30.468,18.37l-0.269,0.071c-0.181,0.051-0.362,0.078-0.538,0.08c-0.123,0.004-0.221,0.11-0.221,0.242
					c0,0.121,0.089,0.22,0.199,0.231c0.007,0.001,0.016,0.001,0.023,0.001c0.208-0.004,0.426-0.035,0.64-0.095l0.268-0.071
					c0.119-0.033,0.191-0.16,0.163-0.287C30.705,18.413,30.587,18.336,30.468,18.37z"/>
				<path fill="#ACD14B" d="M29.088,10.261c-0.31,0.115-0.591,0.239-0.834,0.365l-0.021,0.01c-0.109,0.059-0.146,0.196-0.093,0.312
					c0.033,0.076,0.103,0.12,0.18,0.128c0.04,0.004,0.084-0.005,0.121-0.025c0.23-0.119,0.494-0.235,0.787-0.344
					c0.116-0.044,0.178-0.178,0.141-0.301C29.329,10.283,29.205,10.218,29.088,10.261z"/>
				<path fill="#ACD14B" d="M34.31,9.324c-0.293,0.012-0.589,0.031-0.88,0.053c-0.122,0.01-0.214,0.123-0.207,0.254
					c0.008,0.117,0.092,0.208,0.199,0.217c0.012,0.003,0.023,0.003,0.035,0c0.286-0.021,0.576-0.041,0.863-0.051
					c0.122-0.006,0.219-0.114,0.215-0.246C34.532,9.421,34.432,9.32,34.31,9.324z"/>
				<path fill="#ACD14B" d="M32.173,17.925c-0.286,0.069-0.569,0.144-0.855,0.217c-0.118,0.03-0.193,0.159-0.164,0.286
					c0.022,0.101,0.103,0.171,0.193,0.179c0.023,0.003,0.047,0,0.072-0.007c0.282-0.073,0.562-0.146,0.846-0.212
					c0.118-0.03,0.195-0.156,0.17-0.283C32.408,17.977,32.292,17.896,32.173,17.925z"/>
				<path fill="#ACD14B" d="M32.551,9.468c-0.293,0.036-0.588,0.08-0.875,0.127c-0.121,0.022-0.205,0.142-0.187,0.271
					c0.017,0.109,0.099,0.19,0.196,0.198c0.02,0.002,0.036,0,0.054-0.002c0.28-0.047,0.57-0.089,0.857-0.126
					c0.12-0.016,0.209-0.132,0.196-0.262C32.781,9.546,32.672,9.451,32.551,9.468z"/>
				<path fill="#ACD14B" d="M26.576,14.151c0.002,0,0.004,0,0.006,0c0.122,0.01,0.226-0.091,0.236-0.22
					c0.001-0.034,0.005-0.065,0.006-0.098c0.025-0.272,0.07-0.533,0.135-0.778c0.032-0.126-0.037-0.256-0.153-0.29
					s-0.239,0.041-0.271,0.167c-0.073,0.273-0.12,0.563-0.147,0.859c-0.004,0.037-0.007,0.071-0.009,0.109
					C26.369,14.029,26.456,14.14,26.576,14.151z"/>
				<path fill="#ACD14B" d="M44.037,13.886c0.105,0.267,0.192,0.552,0.255,0.844c0.021,0.103,0.102,0.172,0.192,0.179
					c0.024,0.003,0.047,0.003,0.071-0.005c0.118-0.032,0.194-0.159,0.166-0.286c-0.069-0.319-0.161-0.63-0.279-0.924
					c-0.048-0.119-0.177-0.172-0.29-0.121C44.041,13.626,43.988,13.768,44.037,13.886z"/>
				<path fill="#ACD14B" d="M26.973,15.703c-0.069-0.287-0.118-0.584-0.145-0.88c-0.011-0.129-0.12-0.222-0.24-0.21
					c-0.123,0.014-0.212,0.132-0.2,0.262c0.03,0.321,0.081,0.643,0.159,0.954c0.023,0.1,0.104,0.166,0.191,0.173
					c0.026,0.003,0.051,0,0.076-0.007C26.934,15.96,27.004,15.83,26.973,15.703z"/>
				<path fill="#ACD14B" d="M27.25,16.544c-0.05-0.119-0.181-0.168-0.291-0.115c-0.111,0.058-0.162,0.196-0.111,0.315
					c0.13,0.305,0.281,0.589,0.454,0.844c0.038,0.058,0.095,0.089,0.157,0.097c0.051,0.002,0.104-0.012,0.15-0.044
					c0.099-0.078,0.121-0.226,0.05-0.33C27.505,17.079,27.368,16.823,27.25,16.544z"/>
				<path fill="#ACD14B" d="M28.208,17.947c-0.094-0.083-0.232-0.067-0.312,0.034c-0.077,0.099-0.065,0.25,0.026,0.333
					c0.251,0.222,0.521,0.393,0.808,0.508c0.019,0.008,0.038,0.012,0.056,0.014c0.099,0.009,0.192-0.051,0.228-0.152
					c0.046-0.123-0.011-0.258-0.125-0.306C28.649,18.283,28.422,18.138,28.208,17.947z"/>
				<path fill="#ACD14B" d="M27.463,11.217c-0.223,0.229-0.417,0.496-0.575,0.796c-0.06,0.114-0.024,0.259,0.082,0.322
					c0.027,0.016,0.059,0.026,0.088,0.028c0.083,0.008,0.169-0.038,0.214-0.121c0.135-0.26,0.303-0.49,0.492-0.686
					c0.091-0.091,0.095-0.24,0.01-0.335C27.69,11.129,27.55,11.125,27.463,11.217z"/>
				<path fill="#ACD14B" d="M33.904,17.571c-0.283,0.045-0.576,0.101-0.869,0.163c-0.119,0.024-0.2,0.146-0.178,0.275
					c0.017,0.107,0.101,0.183,0.195,0.192c0.02,0,0.04,0,0.06-0.006c0.289-0.058,0.575-0.111,0.854-0.157
					c0.12-0.02,0.205-0.141,0.188-0.27C34.137,17.641,34.024,17.551,33.904,17.571z"/>
				<path fill="#ACD14B" d="M43.806,13.211c0.048,0.005,0.099-0.008,0.141-0.041c0.103-0.072,0.13-0.221,0.063-0.328
					c-0.164-0.263-0.355-0.518-0.566-0.752c-0.084-0.092-0.225-0.096-0.312-0.005c-0.087,0.092-0.091,0.24-0.008,0.335
					c0.192,0.217,0.366,0.448,0.519,0.689C43.681,13.17,43.74,13.206,43.806,13.211z"/>
				<path fill="#ACD14B" d="M42.026,10.919c-0.104-0.065-0.238-0.028-0.302,0.086c-0.062,0.114-0.028,0.259,0.077,0.324
					c0.25,0.152,0.485,0.321,0.699,0.496c0.034,0.028,0.073,0.042,0.115,0.047c0.072,0.006,0.146-0.025,0.194-0.093
					c0.074-0.103,0.058-0.252-0.039-0.33C42.543,11.261,42.291,11.082,42.026,10.919z"/>
				<path fill="#ACD14B" d="M42.605,17.805c-0.249,0.016-0.525,0.012-0.842-0.016c-0.121-0.01-0.229,0.086-0.239,0.217
					c-0.013,0.132,0.077,0.243,0.198,0.256h0.001c0.337,0.027,0.633,0.032,0.902,0.015c0.121-0.008,0.215-0.119,0.21-0.25
					C42.828,17.896,42.729,17.797,42.605,17.805z"/>
				<path fill="#ACD14B" d="M44.031,17.209c-0.158,0.195-0.364,0.338-0.631,0.439c-0.115,0.044-0.178,0.181-0.137,0.3
					c0.028,0.091,0.104,0.15,0.188,0.158c0.03,0.003,0.062-0.001,0.093-0.013c0.335-0.128,0.61-0.321,0.817-0.576
					c0.081-0.099,0.073-0.248-0.019-0.335C44.252,17.098,44.112,17.109,44.031,17.209z"/>
				<path fill="#ACD14B" d="M40.408,10.14c-0.116-0.042-0.243,0.023-0.282,0.147c-0.042,0.124,0.019,0.258,0.133,0.3
					c0.274,0.1,0.541,0.213,0.79,0.332c0.023,0.01,0.049,0.017,0.072,0.018c0.092,0.01,0.181-0.046,0.221-0.139
					c0.052-0.119,0.002-0.26-0.108-0.312C40.972,10.362,40.694,10.246,40.408,10.14z"/>
				<path fill="#ACD14B" d="M44.617,15.361c-0.121,0.009-0.215,0.122-0.209,0.253c0.012,0.198,0.008,0.384-0.007,0.555
					c-0.009,0.109-0.024,0.214-0.046,0.31c-0.024,0.128,0.049,0.253,0.169,0.279c0.008,0.002,0.017,0.004,0.028,0.004
					c0.107,0.01,0.211-0.069,0.234-0.186c0.025-0.114,0.042-0.24,0.055-0.368c0.017-0.194,0.02-0.406,0.008-0.627
					C44.842,15.451,44.739,15.351,44.617,15.361z"/>
				<path fill="#ACD14B" d="M40.913,17.684c-0.149-0.022-0.295-0.046-0.435-0.069c-0.15-0.026-0.292-0.049-0.428-0.069
					c-0.117-0.018-0.233,0.071-0.25,0.202c-0.019,0.128,0.063,0.248,0.183,0.268c0.135,0.02,0.275,0.042,0.425,0.065
					c0.141,0.025,0.287,0.048,0.437,0.072c0.004,0,0.009,0,0.013,0c0.115,0.012,0.221-0.076,0.24-0.201
					C41.114,17.822,41.033,17.702,40.913,17.684z"/>
				<path fill="#ACD14B" d="M37.42,17.333c-0.297-0.008-0.594-0.009-0.88-0.002c-0.123,0.002-0.22,0.109-0.218,0.24
					c0,0.123,0.085,0.22,0.198,0.231c0.007,0,0.015,0.001,0.022,0c0.28-0.005,0.572-0.005,0.862,0.003
					c0.122,0.002,0.224-0.101,0.229-0.232C37.639,17.442,37.54,17.333,37.42,17.333z"/>
				<path fill="#ACD14B" d="M35.659,17.369c-0.293,0.02-0.588,0.046-0.881,0.079c-0.12,0.014-0.209,0.132-0.197,0.262
					c0.009,0.113,0.096,0.2,0.197,0.211c0.015,0,0.029,0,0.043-0.001c0.283-0.034,0.575-0.061,0.86-0.08
					c0.121-0.008,0.214-0.121,0.208-0.252C35.884,17.46,35.783,17.362,35.659,17.369z"/>
				<path fill="#ACD14B" d="M37.826,9.5c-0.285-0.042-0.578-0.079-0.875-0.105C36.95,9.393,36.95,9.393,36.95,9.393
					c-0.121-0.01-0.229,0.085-0.241,0.216c-0.013,0.128,0.077,0.244,0.198,0.255c0.287,0.029,0.575,0.064,0.854,0.104
					c0.004,0,0.008,0.003,0.012,0.003c0.115,0.009,0.22-0.078,0.237-0.203C38.031,9.637,37.946,9.519,37.826,9.5z"/>
				<path fill="#ACD14B" d="M36.071,9.332c-0.29-0.016-0.586-0.022-0.88-0.023c-0.122-0.001-0.224,0.104-0.226,0.235
					c-0.001,0.125,0.085,0.226,0.199,0.236c0.006,0.002,0.013,0.002,0.019,0.002c0.289,0,0.577,0.009,0.863,0.021
					c0.121,0.007,0.226-0.095,0.232-0.225C36.286,9.449,36.191,9.334,36.071,9.332z"/>
				<path fill="#ACD14B" d="M39.56,9.867c-0.276-0.077-0.567-0.148-0.86-0.212c-0.123-0.024-0.237,0.062-0.263,0.188
					c-0.024,0.127,0.053,0.251,0.171,0.277c0.287,0.06,0.567,0.129,0.836,0.203c0.011,0.004,0.023,0.005,0.036,0.007
					c0.104,0.01,0.205-0.063,0.234-0.175C39.746,10.028,39.677,9.9,39.56,9.867z"/>
				<path fill="#ACD14B" d="M39.175,17.44c-0.302-0.029-0.593-0.054-0.874-0.07c-0.123-0.008-0.229,0.092-0.237,0.222
					c-0.009,0.127,0.08,0.239,0.199,0.249c0.002,0,0.004,0,0.005,0.002c0.279,0.017,0.566,0.041,0.862,0.069h0.001
					c0.121,0.012,0.229-0.085,0.242-0.214C39.385,17.567,39.298,17.452,39.175,17.44z"/>
			</g>
			<path fill="#588A17" d="M48.907,21.534c-2.249-2.907-20.561-3.495-28.26,4.451c2.988,2.465,3.065,5.038,7.307,3.686
				c3.382-1.081,6.721-2.313,10.235-2.48c6.411-0.304,12.387,0.521,15.262,3.384c2.588,0.814,0.841-1.574,0.206-2.498
				C51.922,25.556,50.553,23.661,48.907,21.534z"/>
			<path fill="#88C138" d="M48.661,21.615c-2.198-2.84-19.818-4.044-27.343,3.723c3.733,3.079,3.271,4.048,8.594,2.352
				c5.861-1.873,18.479-3.234,23.194,1.462c1.686,1.423,1.484,0.415,0.197-1.14C51.406,25.725,50.269,23.695,48.661,21.615z"/>
			<path fill="#85B428" d="M19.383,24.806c-1.143,0.916-2.224,1.262-3.028,0.891c-0.806-0.371-0.587,0.309-0.641,0.902
				c-0.054,0.595,0.847,1.154,3.004,0.148c2.157-1.007,4.115-3.531,4.115-3.531c-0.412-1.015-0.519-1.725-0.519-1.725
				S20.525,23.889,19.383,24.806z"/>
			<path fill="#C0E366" d="M35.334,26.242c-4.535,0.617-7.246,2.125-9.408,1.854c-1.735-0.217-3.948-2.202-3.948-2.202
				s1.937,2.6,3.691,2.957c2.299,0.468,3.532-1.14,9.768-2.214c6.236-1.077,11.448-0.27,11.448-0.27S41.662,25.382,35.334,26.242z"
				/>
			<path fill="#6CA81E" d="M30.789,25.868c-4.151,0.98-5.666,1.108-7.764-0.869c0,0,1.012,2.326,2.873,2.395
				c2.601,0.093,4.707-1.483,12.267-2.22C38.165,25.174,34.94,24.887,30.789,25.868z"/>
			<path fill="#6CA81E" d="M43.17,25.045c0,0,6.354,0.418,9.083,2.466l-0.527-0.815C51.726,26.695,47.493,24.706,43.17,25.045z"/>
		</g>
	</g>
</g>
</svg>
