<?xml version="1.0" encoding="utf-8"?>
<!-- Generator: Adobe Illustrator 16.0.0, SVG Export Plug-In . SVG Version: 6.00 Build 0)  -->
<!DOCTYPE svg PUBLIC "-//W3C//DTD SVG 1.1//EN" "http://www.w3.org/Graphics/SVG/1.1/DTD/svg11.dtd">
<svg version="1.1" id="Capa_1" xmlns="http://www.w3.org/2000/svg" xmlns:xlink="http://www.w3.org/1999/xlink" x="0px" y="0px"
	 width="67px" height="67px" viewBox="0 0 67 67" enable-background="new 0 0 67 67" xml:space="preserve">
<g>
	<defs>
		<circle id="SVGID_1_" cx="33.51" cy="33.5" r="33.5"/>
	</defs>
	<clipPath id="SVGID_2_">
		<use xlink:href="#SVGID_1_"  overflow="visible"/>
	</clipPath>
	<g clip-path="url(#SVGID_2_)">
		<g>
			<g>
				<g>
					<path fill="#C9BEB7" d="M24.429,67c-0.444-4.289,0.66-8.047,2.754-9.266l-2.597-2.936C21.414,56.41,20.282,60.996,20.275,67
						H24.429z"/>
				</g>
			</g>
			<g>
				<g>
					<path fill="#C9BEB7" d="M43.923,67c0.444-4.289-0.66-8.047-2.754-9.266l2.599-2.936c3.17,1.611,4.303,6.197,4.31,12.201H43.923
						z"/>
				</g>
			</g>
			<path fill="#C9BEB7" d="M40.73,53.188c-4.08-2.273-10.029-1.489-12.74,0.34C24.2,56.086,25.116,60.335,26.132,67h16.193
				C43.438,60.73,44.455,55.264,40.73,53.188z"/>
			<path fill="#1E1E29" d="M35.078,60.763l1.65-1.628c0,0-0.427-1.387-2.311-1.504c-2.107-0.134-2.655,1.384-2.655,1.384
				l1.678,1.718l-2.1,5.121L32.213,67h4.117l1.027-1.209L35.078,60.763z"/>
			<path fill="#3A3A4A" d="M28.428,52.772c0,0-4.029,1.29-4.375,2.112c-0.241,0.58,0.644,6.264,1.284,12.115l4.38,0.001
				C29.947,63.279,29.931,57.268,28.428,52.772z"/>
			<path fill="#3A3A4A" d="M39.924,52.772c0,0,4.03,1.29,4.375,2.112c0.242,0.58-0.644,6.264-1.284,12.115l-4.38,0.001
				C38.405,63.279,38.421,57.268,39.924,52.772z"/>
			<path opacity="0.1" d="M40.143,54.959c-0.027,2.026-1.705,4.453-3.438,5.469l-2.543-2.395l-1.938,2.41
				c0,0-2.718-1.705-3.508-4.715C27.927,52.717,40.161,53.502,40.143,54.959z"/>
			<path fill="#E3D9D3" d="M34.176,57.746l2.414,1.991c0,0,4.953-3.1,3.198-7.255c-1.58-3.738-8.862-3.671-11.043-0.334
				c-2.165,3.314,3.307,7.501,3.307,7.501L34.176,57.746z"/>
			
				<linearGradient id="SVGID_3_" gradientUnits="userSpaceOnUse" x1="-1648.7866" y1="51.8965" x2="-1648.7866" y2="56.9838" gradientTransform="matrix(-1 0 0 1 -1614.1934 0)">
				<stop  offset="0" style="stop-color:#EE996D"/>
				<stop  offset="0.0163" style="stop-color:#EE9A6E"/>
				<stop  offset="0.3731" style="stop-color:#F8B181"/>
				<stop  offset="0.7088" style="stop-color:#FDBF8D"/>
				<stop  offset="1" style="stop-color:#FFC491"/>
			</linearGradient>
			<path fill="url(#SVGID_3_)" d="M34.492,57.352c1.256,0.031,6.588-4.133,2.841-8.184c-1.075-1.166-3.177-1.352-4.464-0.971
				c-1.341,0.395-2.233,2.109-2.325,3.873C30.427,54.304,32.826,57.292,34.492,57.352z"/>
		</g>
		<g>
			<path fill="#DB5F07" d="M11.026,30.951c-0.599,0.068-1.823,0.135-2.678,0.126c2.786,9.016,15.999,4.833,21.995,3.188
				c3.766-1.033,8.199-1.512,12.001-0.313c1.618,0.513,2.936,1.547,4.712,1.497c2.726-0.078,9.901,2.082,10.744-2.29
				c-0.089,0.461-2.261-1.224-2.451-1.522c-0.566-0.885-0.408-1.962-0.444-2.946c-0.113-3.174,0.286-6.342-0.429-9.506
				c-0.825-3.66-3.169-7.226-6.354-9.258c-1.507-0.96-3.314-1.571-5.108-1.609c-1.422-0.031-4.521,0.535-5.421,1.793
				c0.472-0.659,1.558-2.134,0.824-2.976c-0.887-1.02-3.389,0.608-3.473,1.718c-0.415-0.769-1.519-2.854-2.721-1.914
				c-0.903,0.706,0.256,2.385,0.56,3.132c-1.072-0.412-2.092-0.639-3.223-0.794c-5.841-0.803-12.266,0.304-15.775,5.526
				c-2.054,3.058-0.611,6.443-0.376,9.849c0.172,2.538-0.824,4.618-3.769,3.154C9.445,29.082,10.113,30.145,11.026,30.951z"/>
			<path fill="#FBB37B" d="M16.988,35.277c1.662,5.775,1.617,7.196,4.057,12.963c2.475,5.85,8.443,9.428,16.589,8.953
				c7.399-0.43,10.078-4.121,11.974-10.332c1.328-4.359,2.381-9.166,1.904-14.603c-1.014-11.6-9.564-20.328-19.1-19.493
				C22.879,13.599,13.769,24.088,16.988,35.277z"/>
			<path opacity="0.4" fill="#D14F2E" d="M27.439,35.273c1.1-0.967-2.297-1.012-2.814-0.86c0.063,0.663,1.569,0.313,2.028,0.412
				c-0.39,0.421-1.575,0.442-2.054,0.732c-0.51,0.309-0.45,0.508,0.161,0.481C25.131,36.023,27.18,35.502,27.439,35.273z"/>
			<path opacity="0.4" fill="#D14F2E" d="M48,34.563c-0.759-1.018,2.088-0.835,2.496-0.653c-0.16,0.645-1.366,0.202-1.765,0.268
				c0.255,0.437,1.242,0.537,1.597,0.853c0.377,0.335,0.293,0.526-0.215,0.46C49.808,35.45,48.18,34.804,48,34.563z"/>
			<path fill="#EA750C" d="M50.064,29.111c0.127-0.056,0.225-0.125,0.303-0.215c2.277-2.753-8.885-3.595-7.7-0.349
				c0.585,1.604,2.617,0.833,3.817,0.673C47.267,29.119,49.197,29.496,50.064,29.111z"/>
			<path fill="#EA750C" d="M24.641,30.121c-0.146-0.044-0.271-0.107-0.368-0.191c-2.982-2.604,9.075-4.547,8.358-1.103
				c-0.355,1.701-2.716,1.107-4.057,1.061C27.701,29.858,25.658,30.431,24.641,30.121z"/>
			<path fill="#F89E66" d="M49.922,36.854c0.087,0.184,0.146,0.39,0.168,0.624c0.213,2.268-4.473,1.075-4.896,0.059
				c-0.793-1.909,0.883-2.202,2.084-2.068C48.199,35.57,49.462,35.883,49.922,36.854z"/>
			<path fill="#F89E66" d="M28.417,36.592c0.174,0.127,0.329,0.288,0.465,0.49c1.315,1.965-3.718,3.057-4.614,2.326
				c-1.688-1.367-0.245-2.412,0.959-2.848C26.156,36.225,27.505,35.922,28.417,36.592z"/>
			<g>
				<path fill="#472117" d="M28.83,35.984c-0.604-0.361-1.397-0.508-2.092-0.373c-1.341-1.363,0.343-5.02,2.389-3.909
					C30.648,32.529,30.324,35.374,28.83,35.984z"/>
			</g>
			<g>
				<path opacity="0.4" fill="#BC551E" d="M47.662,39.861c-0.35-0.938-2.49-0.406-2.49-0.406c-0.36,0.104,0.301,0.254,1.167,0.513
					c0.17,0.05,0.271,0.147,0.328,0.274c-4.729,1.293-12.876,2.416-18.813,0.266c0.05-0.054,0.103-0.104,0.161-0.146
					c0.844-0.621,2.028-0.648,1.705-0.865c0,0-1.98-0.107-2.791,0.502c-0.72,0.541-0.756,2.305-0.195,2.393
					c0.446,0.07,0.498-0.883,0.891-1.569c0.353,1.926,2.198,10.056,8.969,10.249c5.102,0.144,6.729-2.516,7.028-5.681
					c0.168-1.761,1.982-3.907,3.105-4.937c0.073,0.538-0.259,1.305,0.136,1.372C47.422,41.921,48.011,40.798,47.662,39.861z"/>
				<path fill="#96342F" d="M28.877,41.823c0,0,7.527,4.114,16.377-0.521c0,0-1.5,0.975-1.895,3.483
					c-0.296,1.877-1.02,4.551-6.469,4.727C30.836,49.705,28.877,41.823,28.877,41.823z"/>
				<path fill="#FFF5E6" d="M30.838,42.656c0,0-0.009,2.547,1.827,3.525c2.352,1.258,5.026,1.422,7.783,0.498
					c1.857-0.624,3.034-4.475,3.034-4.475S38.183,44.503,30.838,42.656z"/>
				<path fill="#FFF5E6" d="M31.465,46.45c-0.171-0.645-0.138-1.37,0.855-0.841c1.19,0.635,3.403,1.098,5.991,1.07
					c2.588-0.025,3.227-1.342,3.665-0.654c0.441,0.688-1.45,3.998-5.561,3.557C31.717,49.078,31.465,46.45,31.465,46.45z"/>
				<path fill="#EFDBBD" d="M31.246,44.633c0,0,9.278-1.439,11.423-0.412c0,0,0.69-1.408,0.813-2.016c0,0-6.618,2.265-12.653,0.413
					C30.829,42.618,30.867,44.045,31.246,44.633z"/>
				<path fill="#EFDBBD" d="M32.855,45.633c0,0,3.486,1.545,8.561,0.253C41.416,45.886,36.85,48.184,32.855,45.633z"/>
			</g>
			<g>
				<path fill="#472117" d="M48.523,30.972c1.102,0.861,0.772,2.869-0.238,3.753c-0.633-0.179-1.398-0.077-2.025,0.241
					C43.857,33.935,46.468,29.364,48.523,30.972z"/>
			</g>
			<path fill="#AF968E" d="M28.466,32.185c0.788-0.19,1.158,1.032,0.512,1.419C28.078,34.138,27.573,32.399,28.466,32.185z"/>
			<path fill="#AF968E" d="M47.719,31.274c0.797-0.063,0.957,1.193,0.267,1.471C47.029,33.128,46.822,31.347,47.719,31.274z"/>
			<path fill="#FBB37B" d="M15.162,41.42c1.23,0.345,2.538,0.357,3.801,0.239c0.022-0.034,0.047-0.068,0.073-0.104
				c0.569-0.793-0.415-4.729-0.696-5.538c-0.709-2.039-1.89-3.46-4.15-2.848C9.479,34.443,11.329,40.346,15.162,41.42z"/>
			<path opacity="0.3" fill="#BC551E" d="M21.255,29.193c-0.466,2.539,0.158,5.125-0.488,5.636
				c-1.405,1.113-2.321-2.528-2.429-3.265c-0.488-3.409,2.216-6.021,3.992-8.594c1.866-2.705,5.152-3.877,8.254-4.478
				c4.479-0.868,9.264-0.883,13.778-0.256c1.612,0.224,6.448,0.559,5.176,3.347c-0.771,1.684-3.353,2.139-4.93,2.577
				c-2.708,0.75-4.946,2.421-6.775,4.524c-0.687,0.788-1.085,1.801-1.782,2.553c-0.046,0.047-1.678-3.767-1.989-4.022
				c-1.578,1.337-2.42,2.102-3.101,3.689c-1.189-0.698-2.513-2.425-2.258-4.9c-1.014,0.523-5.063,6.353-5.247,6.23
				C22.646,31.688,21.689,30.853,21.255,29.193z"/>
			<path opacity="0.4" fill="#D14F2E" d="M17.574,40.154c2.177-0.742,0.635-4.137-0.85-4.814c-1.215-0.557-4.48-0.104-3.221,1.863
				c1-1.605,2.262-0.361,1.896,0.813c-0.244,0.788-1.424,0.682-0.384,1.83C15.581,40.466,16.891,40.388,17.574,40.154z"/>
			<path fill="#BC4411" d="M39.011,41.952c-0.084,1.221-1.976,1.069-1.604-0.001c-0.549,1.576-2.145,0.78-1.35-0.147
				c-1.111,0.708-3.403,1.017-2.814-0.144c-0.615,0.633-3.739,0.97-2.578-0.387c-1.104,0.549-2.765,0.797-2.748,0.012
				c-1,1.566-5.052,5.744-4.709,1.055c0.26-3.564,4.896-4.572,7.634-4.419c2.901,0.161,5.883,0.86,8.778,0.364
				c2.627-0.449,6.418-2.026,8.856-0.077c3.897,3.115,0.76,5.815-0.305,5.429c-0.64-0.232-1.581-1.816-2.21-3.115
				c-0.068,1.537-1.731,0.99-2.605,0.537c0.389,0.71-0.971,1.594-2.491,0.324C41.584,42.35,40.509,43.104,39.011,41.952z"/>
			<path fill="#BC4411" d="M17.79,40.82c-1.11,4.166-0.264,5.804,0.493,4.262c-0.077,0.604-0.487,4.195,0.889,2.699
				c-0.596,0.989-0.143,4.641,1.304,3.588c-0.18,0.961,0.467,3.83,1.485,3.676c0.189,0.936,1.78,3.807,2.707,2.104
				c-0.142,0.263,1.14,1.891,1.364,2.154c0.546,0.646,1.39,1.493,2.312,1.45c0.502-0.024,0.688-0.448,1.188-0.375
				c0.546,0.079,1.175,0.93,1.694,1.178c0.571,0.275,1.115,0.472,1.59-0.081c0.675,1.216,2.51,1.432,3.358,0.33
				c0.523,1.143,2.662,0.984,3.099-0.162c1.014,1.557,2.403-0.415,2.916-1.325c-0.519,0.923,2.07,1.876,2.877-2.586
				c0.096,1.13,1.066,0.892,1.604,0.241c0.468-0.564,0.607-1.545,0.666-2.252c1.563,1.136,2.001-2.03,1.865-2.926
				c1.55,0.391,1.133-2.968,0.938-3.705c1.888,0.894,1.029-2.815,0.771-3.484c0.811,2.098,1.868-0.71,0.589-3.698
				c1.932,1.518,0.77-7.884,0.035-9.388c-0.312,1.592-0.26,6.276-1.572,7.411c-0.991,0.859-2.594-0.734-3.904-0.131
				c-0.832,0.383,3.044,12.472-2.713,12.627c-2.088,0.057-2.215-2.109-5.983-1.496c-1.932,0.314-3.978,3.266-6.495,2.121
				c-4.819-2.189-4.493-9.141-3.379-11.622c0.874-1.946-3.793,0.138-5.33-1.833c-0.971-1.248-0.692-3.258-1.584-4.478
				c-1.105-1.509-2.522-0.739-2.602,0.978C17.9,37.712,18.205,39.261,17.79,40.82z"/>
			<path fill="#D65B14" d="M22.414,41.607c0.485,0.639,1.298,1.096,1.639,1.824c0.472,1.012,0.368,8.112-1.092,8.383
				c-1.363,0.252-1.258-2.949-1.276-3.719c-1.146,2.049-1.494-2.279-1.228-3.084c-1.852,1.203-0.777-3.582-0.705-4.255
				c-0.041,0.372-0.801-0.893-0.818-0.956c-0.142-0.529-0.075-1.237-0.013-1.765c0.292,0.481,1.609,1.246,1.7,0.218
				C20.554,39.007,21.956,41,22.414,41.607z"/>
			<path fill="#DB5F07" d="M47.564,15.917c-2.688-1.627-5.874-2.944-8.998-3.316c-1.771-0.212-3.426-0.778-5.24-0.792
				c-3.026-0.023-5.982,0.875-8.693,2.167c-4.031,1.925-6.739,6.5-8.025,10.6c-0.751,2.392-1.193,5.097-0.729,7.588
				c0.301,1.62,1.692,5.083,4.093,5.563c0.535,0.107,1.277-0.201,1.121-2.1c-0.226-2.763-1.338-6.586,0.8-9.181
				c-0.487,1.369,0.261,3.021,1.254,4.014c1.198-2.31,3.545-5.004,6.209-5.56c-0.211,1.934,1.095,4.243,1.426,4.652
				c0.453-1.477,1.482-3.166,3.006-3.705c0.591,1.371,1.068,2.708,2.17,3.823c1.755-1.927,3.054-4.379,5.261-5.849
				c2.313-1.54,5.449-1.17,7.741-2.76C51.074,19.595,49.206,16.911,47.564,15.917z"/>
			<path fill="#FFC08D" d="M41.379,38.013c0.709-0.616-0.579-7.446-3.709-7.238c-2.623,0.174-3.533,6.86-2.09,7.7
				C37.36,39.513,40.425,38.838,41.379,38.013z"/>
			<path fill="#D65B14" d="M40.457,52.385c-2.391-1.15-4.764,0.211-6.699,2c-1.658,1.533-2.182,4.802-0.034,6.375
				c0.677,0.496,1.522,0.623,1.474-1.233c0.843,1.54,2.981,2.845,3.274,0.743c1.361,1.166,2.483,0.383,3.004-1.165
				c1.413,2.021,3.097-1.186,3.067-2.535C44.494,54.294,42.204,53.225,40.457,52.385z"/>
			<path fill="#D65B14" d="M35.225,39.201c-4.975-2.698-13.627,0.47-11.461,7.256c0.281,0.885,0.486,1.91,1.507,2.17
				c1.218-2.861-0.323-7.277,3.16-8.807c-1.463,2.404,2.717,0.11,3.345-0.126c-1.836,2.759,1.445,1.536,2.772,0.636
				c-0.396,0.414-0.517,0.893-0.574,1.426c0.95,0.38,1.749-0.434,2.368-1.082c-0.406,1.313,0.992,1.487,1.7,0.703
				c0.397,0.682,0.776,0.553,1.045-0.177c0.399,0.366,0.717,0.239,1.15,0.415c-0.012-0.258,0.171-0.539,0.083-0.861
				c0.849,0.523,2.815,0.894,2.13-0.805c0.705,1.207,3.449,1.222,2.808-0.604c1.59,1.114,1.983,3.237,2.134,5.045
				c0.099,1.166-0.509,6.559,1.808,4.68c0.994-0.808,1.033-2.93,0.572-4.004c2.272,1.633-0.245-3.672-0.564-4.214
				c-1.145-1.947-2.455-3.206-4.807-3c-1.981,0.174-2.895,1.302-4.546,2.04C38.105,40.676,36.629,39.96,35.225,39.201z"/>
			<path fill="#D65B14" d="M28.548,53.306c1.128,0.931,2.245,1.673,3.779,1.46c0.565-0.078,1.145-0.355,1.694-0.514
				c-0.049,1.466-0.233,6.42-2.453,5.588c-0.721-0.27-1.288-1.207-1.971-1.617c0.336,0.203-0.77,1.29-1.636,0.766
				c-0.839-0.51-1.404-2.169-1.155-3.091c-0.694,2.042-1.646-1.389-1.674-2.017c-0.04-0.805-0.471-3.338,0.62-3.614
				C26.885,49.982,27.813,52.699,28.548,53.306z"/>
			<path fill="#D65B14" d="M46.186,52.188c0.269-0.43,0.329-1.488,0.963-1.406c0.862,0.109,0.986,2.518,0.841,3.074
				c-0.204,0.786-0.94,1.889-1.583,0.742c0.002-0.066,0.004,0.049,0.001,0.045c-0.071,2.502-2.15,3.496-3.919,1.72
				c-0.584-0.583-1.076-2.097-0.246-2.618c0.315-0.197,1.416,0.111,1.86,0.012C45.015,53.545,45.694,52.977,46.186,52.188z"/>
			<path fill="#EA771A" d="M23.231,29.074c-1.587-1.648,0.462-2.919,0.044-4.726c-1.06,1.217-2.502,2.063-3.379,3.444
				c0.105-0.682,0.279-1.365,0.41-2.047c-0.631,1.429-2.05,2.739-3.576,3.121c0.67-1.071-1.48-3.606-1.957-4.652
				c-0.824-1.802-0.885-3.523-0.834-5.523c0.107-4.274,3.939-6.73,7.526-7.853c4.041-1.264,8.495-1.363,12.458,0.227
				c2.963,1.19,4.906,3.507,5.758,6.605c0.975,3.54,0.406,8.319-3.067,10.352c-0.283,0.166-0.552,0.356-0.833,0.525
				c-0.145-0.748-0.73-1.582-1.02-2.32c-0.252-0.636-0.442-1.413-0.77-1.965c-1.241,0.824-2.271,2.065-3.416,2.906
				c-0.342-1.064-0.573-2.409-0.427-3.507c-1.278-0.118-2.869,1.2-3.873,1.869C24.302,26.844,22.99,28.824,23.231,29.074z"/>
			<path fill="#EA771A" d="M36.962,11.479c1.626,1.403,3.13,3.238,3.789,5.31c0.319,1.007,0.566,2.158,0.545,3.222
				c-0.006,0.399-0.38,1.43-0.089,1.75c0.486,0.539,3.502-0.318,4.085-0.473c1.019-0.272,1.946-0.649,2.778-1.306
				c0.614-0.482,0.958-1.182,1.785-1.073c2.738,0.359,0.587,6.11,2.799,7.351c-0.011-0.913,0.151-1.674,0.461-2.533
				c1.314-3.636-0.317-6.379-2.516-9.124c-2.763-3.452-7.848-5.364-12.077-3.841C38.294,10.84,37.163,11.651,36.962,11.479z"/>
		</g>
	</g>
</g>
</svg>
