<?xml version="1.0" encoding="utf-8"?>
<!-- Generator: Adobe Illustrator 16.0.0, SVG Export Plug-In . SVG Version: 6.00 Build 0)  -->
<!DOCTYPE svg PUBLIC "-//W3C//DTD SVG 1.1//EN" "http://www.w3.org/Graphics/SVG/1.1/DTD/svg11.dtd">
<svg version="1.1" id="Capa_1" xmlns="http://www.w3.org/2000/svg" xmlns:xlink="http://www.w3.org/1999/xlink" x="0px" y="0px"
	 width="67px" height="67px" viewBox="0 0 67 67" enable-background="new 0 0 67 67" xml:space="preserve">
<g>
	<defs>
		<circle id="SVGID_1_" cx="33.51" cy="33.5" r="33.5"/>
	</defs>
	<clipPath id="SVGID_2_">
		<use xlink:href="#SVGID_1_"  overflow="visible"/>
	</clipPath>
	<g clip-path="url(#SVGID_2_)">
		<g>
			<path fill="#3A3A4A" d="M42.508,65.198c0.051-4.583,4.447-7.349,1.953-9.192c-6.187-4.576-16.443-3.279-21.604,0
				c-2.357,1.498,1.745,4.757,1.84,9.192c0.013,0.631,0.037,1.228,0.065,1.802h17.714C42.488,66.422,42.5,65.826,42.508,65.198z"/>
			<path fill="#535363" d="M23.259,52.167c-1.979,2.751,2.246,5.565,10.313,5.565c8.734,0,12.325-2.646,10.412-5.565
				C37.747,42.642,29.341,43.711,23.259,52.167z"/>
			<path fill="#23232D" d="M26.633,52.517c-2.313,2.735,2.382,4.157,6.927,4.222c4.544,0.064,8.17-1.287,7.293-3.761
				C39.814,50.049,28.712,50.057,26.633,52.517z"/>
			<path fill="#E88E61" d="M33.504,48.99c-2.014-0.003-4.85,0.979-5.051,3.557c-0.096,1.201,0.119,1.896,0.862,2.563
				c1.19,1.063,2.664,1.928,4.188,1.951c1.524-0.023,2.997-0.888,4.187-1.951c0.744-0.666,0.958-1.361,0.864-2.563
				C38.353,49.969,35.516,48.987,33.504,48.99z"/>
			<g>
				<path fill="#535363" d="M28.509,56.906c-1.4,1.447-2.452,3.484-3.123,6.054c-0.062,0.231,0.078,0.47,0.312,0.531
					c0.036,0.01,0.073,0.014,0.108,0.014c0.194,0,0.371-0.129,0.422-0.325c0.633-2.422,1.611-4.328,2.907-5.668
					c0.168-0.174,0.163-0.449-0.01-0.616C28.951,56.729,28.677,56.732,28.509,56.906z"/>
			</g>
			<g>
				<path fill="#535363" d="M38.656,56.906c-0.167-0.174-0.441-0.178-0.616-0.011c-0.172,0.167-0.177,0.442-0.011,0.616
					c1.297,1.34,2.274,3.246,2.909,5.668c0.05,0.196,0.227,0.325,0.42,0.325c0.036,0,0.073-0.004,0.11-0.014
					c0.232-0.062,0.371-0.3,0.311-0.531C41.107,60.391,40.057,58.354,38.656,56.906z"/>
			</g>
			<path fill="#3A3A4A" d="M28.528,51.737c-1.779,0.685-3.289,5.644,5.341,5.515C35.516,57.227,28.537,56.855,28.528,51.737z"/>
			<path fill="#3A3A4A" d="M38.455,51.737c0.671,4.842-6.987,5.489-5.342,5.515C41.744,57.381,40.234,52.422,38.455,51.737z"/>
		</g>
		<g>
			<path fill="#EBA971" d="M48.82,34.092c-1.541-0.625-2.521,0.43-3.043,2.508c-0.209,0.822-0.807,5.228-0.431,6.035
				c0.017,0.037,0.034,0.071,0.05,0.105c0.863,0.121,1.761,0.111,2.612-0.239C50.658,41.41,52.032,35.396,48.82,34.092z"/>
			<path fill="#D99A64" d="M17.124,20.976c-1.332,4.644-1.263,11.315,1.08,15.964c1.222,2.427,4.139,0.807,6.198,0.297
				c2.533-0.627,5.08-1.199,7.627-1.762c4.188-0.922,8.78-0.002,13.029,0.401c3.326,0.315,3.57,1.872,3.573-0.837
				c0.004-3.354,0.603-8.836,0.007-12.57C45.887,5.193,20.785,8.201,17.124,20.976z"/>
			<path fill="#FFBC82" d="M31.631,15.012c-11.866,1.615-13.742,12.47-12.588,23.11c0.867,7.97,6.756,16.847,15.998,16.44
				c9.431-0.416,14.43-11.963,13.479-21.761C47.484,22.15,45.192,13.167,31.631,15.012z"/>
			<path fill="#FFBC82" d="M16.455,33.641c-3.961,0.993-2.061,8.503,0.914,10.185c1.184,0.67,2.521,0.34,3.078-1.152
				c0.67-1.037,0.281-3.909-0.396-6.403C19.503,34.248,18.355,33.166,16.455,33.641z"/>
			<path opacity="0.5" fill="#B54319" d="M17.72,35.743c-0.856-0.423-3.041,0.237-2.068,1.961c0.579-1.558,1.508-0.501,1.331,0.611
				c-0.117,0.747-0.923,0.735-0.15,1.72c0.42,0.533,1.301,0.362,1.751,0.097C20.013,39.284,18.766,36.258,17.72,35.743z"/>
			<path fill="#E85216" d="M32.792,12.931c-9.626-0.079-16.471,6.833-15.832,20.608c0.4-0.011,1.226-0.011,1.823,0.578
				c0.798,0.785,0.77,1.643,0.987,2.074c0.102,0.221,0.218,0.584,0.977,0.548c-1.43-4.63-0.512-11.666,1.062-13.775
				c3.903-5.233,10.171,0.7,14.958,0.587c3.818-0.091,7.994-4.991,10.086-0.037C48.276,26.891,48.237,13.06,32.792,12.931z"/>
			<circle fill="#23232D" cx="18.197" cy="42.2" r="1.022"/>
		</g>
		<g>
			<path opacity="0.5" fill="#B54319" d="M36.131,38.721c-1.234,0.044-1.733-0.51-2.588,0.023c-0.852,0.532,0.421,2.15,2.604,2.021
				c2.174-0.127,3.086-1.643,2.619-2.189C38.226,37.941,37.5,38.674,36.131,38.721z"/>
			<path fill="#FFD4AD" d="M35.564,33.159c-1.001,0.158-2.221,5.529-1.663,5.914c1.366,0.937,4.129,0.381,4.864-0.496
				C39.055,38.231,36.695,32.982,35.564,33.159z"/>
			<path fill="#C93712" d="M25.938,26.521c-0.997-0.114-2.439,0.356-3.643,0.914c-0.867,0.401-0.712,1.175,0.06,1.079
				c0.738-0.093,1.518-0.283,1.815-0.318c1.294-0.156,2.705,0.054,3.765,0.67c0.564,0.328,1.898,1.096,2.451,0.331
				C31.492,27.666,26.847,26.625,25.938,26.521z"/>
			<path fill="#C93712" d="M47.834,27.812c-1.076-0.6-2.396-1.126-3.327-1.036c-0.829,0.081-5.104,1.006-4.183,2.558
				c0.461,0.776,1.713,0.042,2.244-0.27c0.996-0.587,2.289-0.763,3.455-0.575c0.268,0.042,0.966,0.251,1.632,0.36
				C48.279,28.952,48.557,28.215,47.834,27.812z"/>
			<path fill="#FFD4AD" d="M47.163,37.766c-0.622-0.889-1.942-1.063-2.888-1.068c-1.232-0.011-2.87,0.438-1.765,2.194
				c0.591,0.935,5.503,1.616,4.922-0.544C47.371,38.126,47.281,37.933,47.163,37.766z"/>
			<path fill="#FFD4AD" d="M27.788,37.113c-0.835-0.771-2.229-0.654-3.2-0.448c-1.266,0.267-2.843,1.093-1.315,2.644
				c0.814,0.826,6.003,0.422,4.924-1.657C28.083,37.436,27.946,37.26,27.788,37.113z"/>
			<g>
				<path fill="#C26346" d="M25.348,41.72c0.619,2.175,3.115,1.421,2.477-0.802C27.26,41.934,26.094,42.254,25.348,41.72z"/>
				<path fill="#C26346" d="M42.577,41.516c-0.873,2.137,1.527,3.166,2.376,1.072C44.154,43.036,43.029,42.59,42.577,41.516z"/>
				<g>
					<path fill="#C26346" d="M43.46,42.936c-0.316-0.146-0.694-0.014-0.845,0.303c-0.792,1.686-1.503,1.534-3.222,1.165
						c-0.716-0.153-1.526-0.327-2.471-0.368c-1.43-0.061-2.809,0.171-4.025,0.377c-3.013,0.511-4.503,0.643-5.387-1.877
						c-0.115-0.33-0.477-0.504-0.808-0.389c-0.331,0.117-0.505,0.479-0.39,0.809c0.848,2.414,2.365,3.019,4.083,3.019
						c0.873,0,1.798-0.156,2.712-0.31c1.212-0.205,2.469-0.42,3.76-0.361c0.837,0.037,1.593,0.198,2.26,0.341
						c1.755,0.376,3.414,0.731,4.636-1.864C43.912,43.463,43.776,43.085,43.46,42.936z"/>
				</g>
			</g>
			<g>
				<path fill="#261B18" d="M26.261,31.238c-2.283-0.792-3.39,3.236-1.786,4.408c0.689-0.258,1.526-0.242,2.206,0.029
					C28.109,34.799,27.96,31.828,26.261,31.238z"/>
			</g>
			<g>
				<path fill="#261B18" d="M45.809,31.576c-2.221-1.415-3.996,2.895-2.168,4.175c0.599-0.375,1.78-0.222,2.348,0.06
					C46.92,34.833,46.998,32.334,45.809,31.576z"/>
			</g>
			<path opacity="0.7" fill="#E6D2C3" d="M25.522,31.981c-0.875,0.371-0.064,2.067,0.766,1.368
				C26.888,32.844,26.303,31.653,25.522,31.981z"/>
			<path opacity="0.7" fill="#E6D2C3" d="M44.913,32.027c-0.893,0.154-0.515,1.912,0.407,1.441
				C45.988,33.13,45.707,31.892,44.913,32.027z"/>
		</g>
		<g>
			<path fill="#8E9194" d="M39.396,9.69c-11.188-4.309-22.092,2.463-24.77,9.164c-2.271,5.687,0.499,7.181,0.499,7.181
				s-0.95,1.313-0.187,3.872c0.502,1.681,0.4,2.684,0.144,3.959c-0.226,1.122,1.789-0.871,3.95,0.52
				c0.552-9.022,5.304-15.906,18.091-15.306c13.31,0.626,11.255,11.276,11.396,14.914c0,0,0.698,0.629,0.979-0.49
				C49.779,32.385,52.719,14.817,39.396,9.69z"/>
			<path opacity="0.3" fill="#FFFFFF" d="M42.74,15.302c-1.027-0.289-2.093-0.352-3.149-0.462c-0.529-0.055-2.569-0.695-2.937-0.511
				c1.113-0.561,2.026-0.313,3.212-0.257c1.342,0.065,3.374,0.09,2.025-1.521c-0.673-0.805-1.842-1.4-2.802-1.79
				c-2.691-1.09-5.703-1.375-8.583-1.211c-4.079,0.232-8.022,1.896-10.938,5.014c-1.358,1.454-1.152,3.179,1.055,2.795
				c1.618-0.282,2.934-1.43,4.356-2.165c1.449-0.748,4.034-1.049,5.572-0.356c-0.936,0.046-1.903,0.276-2.813,0.492
				c-3.076,0.73-5.657,2.554-7.615,5.013c-0.884,1.11-1.563,2.457-1.716,3.87c-0.052,0.479-0.34,2.834,0.743,2.39
				c0.576-0.238,0.523-1.91,0.532-2.353c1.27,0.336,0.726-1.069,0.895-2.001c1.823,1.217,0.824-0.953,1.023-2.099
				c0.389,0.232,0.969,1.338,1.503,1.074c0.559-0.278-0.291-1.816,0.229-2.077c0.65-0.324,1.261,1.263,2.008,0.99
				c0.683-0.252,0.378-1.371,0.555-1.905c0.463,0.188,1.202,1.351,1.747,1.091c0.433-0.207,0.007-1.545,0.107-1.92
				c1.115,0.303,1.794,2.365,2.304,0.381c0.136-0.533,0.034-1.089,0.634-1.104c0.692-0.018,1.096,1.379,1.669,1.392
				c0.886,0.021,0.029-1.905,0.779-2.083c0.79-0.188,1.4,1.718,2.243,1.768c0.251-0.743,0.361-2.787,1.258-1.553
				c0.347,0.476,1.396,2.874,2.428,1.873c0.4-0.39-0.191-1.822,0.601-1.854c0.748-0.03,1.111,1.775,1.396,2.211
				c0.271,0.417,0.988,1.003,1.433,0.456c0.31-0.382-0.196-1.044,0.222-1.473c0.915-0.941,0.934,2.012,1.71,2.239
				c1.16,0.34,0.869-1.248,1.266-1.763c1.206,0.755,0.196,4.378,2.365,4.271c0.293-1.454-0.74-2.933-1.509-4.068
				C45.586,16.674,44.413,15.772,42.74,15.302z"/>
		</g>
		<g>
			<g>
				<path fill="#3A3A4A" d="M45.238,56.497c-0.943-0.848-2.396-0.771-3.243,0.173c-0.848,0.942-0.771,2.396,0.172,3.243
					c1.519,1.364,3.196,3.469,2.585,5.751c-0.124,0.463-0.35,0.909-0.639,1.336h5.029c0.014-0.049,0.033-0.096,0.046-0.145
					C49.737,64.807,49.954,60.738,45.238,56.497z"/>
			</g>
			<g>
				<path fill="#3A3A4A" d="M25.23,59.913c0.943-0.848,1.021-2.301,0.173-3.243c-0.848-0.943-2.299-1.021-3.243-0.173
					c-4.717,4.241-4.5,8.31-3.95,10.358c0.013,0.049,0.032,0.096,0.046,0.145h5.028c-0.289-0.427-0.514-0.873-0.638-1.336
					C22.034,63.382,23.713,61.277,25.23,59.913z"/>
			</g>
		</g>
		<g>
			<path opacity="0.3" fill="#B54D26" d="M46.76,29.143c-1.449,0.041-2.894,0.233-4.305,0.576c-1.203,0.292-2.611,0.405-3.725,0.962
				c-1.029,0.516-1.486,0.857-2.744,0.774c-2.248-0.149-4.109-1.599-6.35-1.887c-2.335-0.301-4.723-0.638-7.044-0.06
				c-0.604,0.151-2.436,0.793-1.226,1.467c1.18,0.658,2.974,0.503,4.28,0.587c0.604,0.04,1.212,0.069,1.814,0.141
				c2.134,0.249,5.433,0.036,5.195,2.702c-0.163,1.83-1.391,3.684-2.89,3.99c-1.438,0.296-2.971,0.385-4.417,0.344
				c-1.107-0.032-2.171-0.273-3.168-0.765c-0.283-0.142-1.126-0.708-1.415-0.327c-0.487,0.645,1.225,1.781,1.675,1.996
				c1.03,0.497,2.134,0.666,3.261,0.814c2.781,0.367,5.658,0.291,7.298-2.234c0.95-1.465,1.452-3.201,2.335-4.706
				c1.448-2.464,2.035,0.942,2.427,2.438c0.22,0.839,0.55,1.656,1.027,2.371c0.851,1.266,2.561,1.982,4.004,2.089
				c0.89,0.065,1.802,0.041,2.643-0.292c0.511-0.201,0.729-0.795,0.13-1.045c-0.362-0.15-0.947-0.063-1.33-0.088
				c-0.559-0.037-1.129-0.061-1.677-0.18c-0.703-0.154-1.407-0.473-1.992-0.936c-0.41-0.326-0.764-0.723-1.018-1.187
				c-0.529-0.964-0.527-2.128-0.141-3.148c0.531-1.403,2.05-1.477,3.309-1.557c1.526-0.094,3.064-0.028,4.581-0.132
				c0.677-0.047,1.348,0.063,2.021,0.103c0.866,0.051,2.745-0.186,1.746-1.502C50.103,29.18,48.165,29.104,46.76,29.143z"/>
			<g>
				<path fill="#3A3A4A" d="M20.182,29.21c-1.84,0.123-3.427-0.337-3.85,0.048c-0.547,0.501,0.495,2.111,0.495,2.111
					s0.6,0.395,1.464,0.435c0.163,1.275,0.207,4.581,2.623,6.586c2.019,1.673,8.436,1.957,10.393,0.889
					c2.424-1.324,3.396-3.66,3.755-5.944C35.94,27.738,22.775,29.039,20.182,29.21z M31.389,37.775
					c-2.381,1.654-8.627,1.127-10.313-0.816c-1.3-1.5-1.63-4.715-0.883-5.201c2.282-1.483,11.063-1.244,13.143,0.234
					C34.344,32.708,33.193,36.52,31.389,37.775z"/>
			</g>
			<g>
				<path fill="#3A3A4A" d="M50.401,29.183c-2.284-0.149-13.872-1.32-13.104,4.268c0.314,2.279,1.168,4.604,3.299,5.905
					c1.724,1.049,7.373,0.703,9.15-0.989c2.131-2.028,2.172-5.334,2.317-6.609c0.76-0.05,1.289-0.45,1.289-0.45
					s0.919-1.619,0.438-2.115C53.418,28.812,52.021,29.286,50.401,29.183z M49.607,36.937c-1.486,1.961-6.986,2.548-9.081,0.917
					c-1.587-1.236-2.599-5.037-1.709-5.764c1.831-1.497,9.563-1.822,11.571-0.361C51.046,32.207,50.753,35.425,49.607,36.937z"/>
			</g>
			<path opacity="0.3" fill="#FFFFFF" d="M40.35,31.688c-1.297,0.479,0.957,1.312,1.445,1.417c1.698,0.369,3.646,0.369,5.49,0.136
				c0.969-0.122,3.083-0.888,2.521-1.469C49.024,30.96,41.785,31.158,40.35,31.688z"/>
			<path fill="#FFFFFF" d="M46.015,31.719c-0.692,0.068-1.153,0.247-0.982,0.575c0.333,0.647,4.383,0.543,4.686,0.083
				C50.013,31.924,47.49,31.573,46.015,31.719z"/>
			<path opacity="0.7" fill="#FFFFFF" d="M41.52,36.445c-0.433-0.03-0.735,0.057-0.666,0.336c0.135,0.555,2.633,0.963,2.869,0.635
				C43.953,37.092,42.441,36.508,41.52,36.445z"/>
			<path opacity="0.7" fill="#FFFFFF" d="M22.491,36.449c-0.466-0.059-0.798,0.008-0.743,0.293c0.105,0.563,2.775,1.133,3.054,0.82
				C25.072,37.255,23.481,36.572,22.491,36.449z"/>
			<path opacity="0.3" fill="#FFFFFF" d="M32.353,31.699c-1.663-0.528-9.848-0.86-10.664-0.109c-0.586,0.539,1.865,1.306,2.97,1.44
				c2.102,0.256,4.296,0.295,6.183-0.019C31.383,32.922,33.857,32.18,32.353,31.699z"/>
			<path fill="#FFFFFF" d="M28.787,31.347c-0.751,0.052-1.255,0.216-1.082,0.55c0.345,0.655,4.729,0.66,5.068,0.206
				C33.108,31.66,30.387,31.24,28.787,31.347z"/>
			<path fill="#3A3A4A" d="M39.072,30.182c-1.818,0.52-3.595,0.668-5.879-0.025c-1.821-0.554,0.938,1.13,1.124,2.065
				c0.188,0.937-0.156,3.95,0.506,2.267c0.662-1.682,1.881-1.72,2.626-0.143c0.746,1.576,0.915-2.517,1.24-2.889
				C39.017,31.085,40.835,29.677,39.072,30.182z"/>
			<path fill="#C1C5C9" d="M21.063,29.728c4.979,0.08,8.954,0.086,11.996,1.144C31.047,29.328,27.665,29.087,21.063,29.728z"/>
			<path fill="#C1C5C9" d="M39.611,30.731c2.633-1.082,5.931-0.782,10.354-1.143C44.05,29.427,41.295,29.293,39.611,30.731z"/>
		</g>
	</g>
</g>
</svg>
