<?xml version="1.0" encoding="utf-8"?>
<!-- Generator: Adobe Illustrator 16.0.0, SVG Export Plug-In . SVG Version: 6.00 Build 0)  -->
<!DOCTYPE svg PUBLIC "-//W3C//DTD SVG 1.1//EN" "http://www.w3.org/Graphics/SVG/1.1/DTD/svg11.dtd">
<svg version="1.1" id="Capa_1" xmlns="http://www.w3.org/2000/svg" xmlns:xlink="http://www.w3.org/1999/xlink" x="0px" y="0px"
	 width="67px" height="67px" viewBox="0 0 67 67" enable-background="new 0 0 67 67" xml:space="preserve">
<g>
	<defs>
		<circle id="SVGID_1_" cx="33.542" cy="33.5" r="33.5"/>
	</defs>
	<clipPath id="SVGID_2_">
		<use xlink:href="#SVGID_1_"  overflow="visible"/>
	</clipPath>
	<g clip-path="url(#SVGID_2_)">
		<path fill="#E0E0E0" d="M26.031,53.291c0,0-7.727,1.705-7.079,13.707h5.188c0.233-4.344,0.979-7.677,0.979-7.677L26.031,53.291z"
			/>
		<path fill="#E0E0E0" d="M39.729,53.291l0.912,6.03c0,0,0.746,3.333,0.979,7.677h5.188C47.455,54.996,39.729,53.291,39.729,53.291z
			"/>
		<g>
			<path fill="#E0E0E0" d="M40.225,53.355c-3.635-1.269-10.573-1.754-14.875,0.171c-2.318,1.038-1.849,7.652-1.398,13.472h17.771
				C42.06,61.029,42.537,54.16,40.225,53.355z"/>
			<path opacity="0.1" d="M25.306,57.283c0.399,4.063,4.025,6.422,4.025,6.422l3.557-3.467l3.784,3.28
				c3.617-3.276,3.769-4.54,3.895-6.97C40.692,54.117,24.967,53.828,25.306,57.283z"/>
			<path fill="#F2F2F2" d="M25.033,54.315c-1.634,4.611,4.305,8.363,4.305,8.363l3.537-2.44l3.303,2.295
				c0,0,6.531-3.748,4.057-9.125C38.011,48.574,26.926,48.965,25.033,54.315z"/>
			<path fill="#8F4721" d="M32.733,47.04c-2.547,0.042-6.114,1.62-6.31,5.593c-0.092,1.85,0.195,2.916,1.152,3.924
				c1.53,1.61,4.94,3.09,5.349,3.095c0.409-0.073,3.771-1.624,5.249-3.29c0.928-1.043,1.184-2.117,1.034-3.965
				C38.893,48.433,35.281,46.986,32.733,47.04z"/>
			<g>
				<path fill="#535363" d="M28.533,63.918l4.386-2.705l-4.641-2.045C27.354,60.096,27.725,63.083,28.533,63.918z"/>
				<path fill="#535363" d="M32.919,61.213l4.388,2.705c0.809-0.835,1.179-3.822,0.255-4.75L32.919,61.213z"/>
				<path fill="#535363" d="M32.963,60.033c-0.112,0.004-0.216,0.008-0.304,0.004c-0.713-0.025-1.284,0.011-1.261,0.866
					c0.022,0.802,0.221,1.461,1.116,1.441c0.61-0.013,1.286,0.233,1.55-0.407c0.173-0.42,0.534-1.331,0.141-1.699
					C33.939,59.991,33.389,60.018,32.963,60.033z"/>
			</g>
			<circle fill="#F2F2F2" cx="32.881" cy="65.187" r="0.622"/>
		</g>
		<g>
			<path fill="#261B18" d="M51.14,16.024c0.793-0.991-0.414-2.597-1.648-2.492c0.256-0.942-0.581-1.668-1.691-1.188
				c-0.092-1.767-1.638-2.115-3.019-1.555c-0.302-1.215-1.508-1.575-2.416-0.727c-0.317-1.516-2.05-1.38-3.172-0.71
				c-0.855-1.197-2.49-1.435-3.678-0.529c-1.038-1.068-2.946-0.677-3.908,0.391c-1.183-1.014-2.502-0.483-3.225,0.765
				c-1.141-1.196-2.65-0.056-3.47,0.976c-1.11-1.011-2.799-0.091-3.168,1.21c-1.167-0.566-2.991,0.243-3.143,1.645
				c-1.695-0.146-3.474,1.371-2.435,3.068c-1.265,0.195-2.613,1.72-1.257,2.754c-1.36,0.144-1.446,1.622-0.723,2.506
				c-1.517,0.7-1.624,3.936-0.25,3.151c-1.065,0.61-1.161,2.01,0.221,2.178c-0.997,0.656-2.006,2.048-0.097,2.276
				c-0.641,0.61-1.121,2.013,0.051,2.33c-0.695,1.232-0.7,1.714,0.528,2.602c-0.328-0.236-0.257,1.461-0.191,1.611
				c0.285,0.665,1.013,1.071,1.55,1.496c0.965,0.762,1.632,1.723,2.465,2.652c2.188,2.445,3.752,5.364,5.876,7.803
				c2.05,2.357,4.401-1.691,6.122-2.676c2.28-1.305,5.055-2.012,7.675-1.621c2.323,0.345,3.959,2.771,6.321,2.824
				c2.449,0.053,3.504-3.459,3.98-5.267c0.31-1.169,0.387-2.806,0.985-3.737c0.524-0.815,1.755-1.297,0.881-2.645
				c0.757,0.063,1.156-1.635,0.24-1.918c0.92-0.148,0.997-1.582,0.298-2.031c1.143-0.417,1.549-1.204,0.242-1.814
				c1.937-0.437,1.029-2.551-0.436-2.922c1.49-0.657,1.636-2.175,0.51-2.62c1.305-0.417,1.521-2.162,0.439-2.523
				c1.106-0.417,0.861-1.808-0.083-2.717C52.885,18.378,52.962,15.567,51.14,16.024z"/>
			<path fill="#9C552C" d="M31.065,14.047c-8.498,1.657-14.485,13.875-12.925,25.337c1.169,8.588,7.791,18.006,17.765,17.296
				c10.177-0.725,15.241-13.348,13.926-23.905C48.402,21.296,42.966,11.728,31.065,14.047z"/>
			<path fill="#261B18" d="M28.054,29.32c-2.683-0.354-5.709,0.396-6.539,1.991c3.959-0.525,7.343,1.347,8.744,0.334
				C31.758,30.561,30.281,29.612,28.054,29.32z"/>
			<path fill="#261B18" d="M44.493,28.874c-2.083,0.392-3.499,1.422-2.148,2.469c1.262,0.979,4.489-1.076,8.149-0.702
				C49.788,29.045,47.004,28.403,44.493,28.874z"/>
			<path opacity="0.3" fill="#661004" d="M42.014,15.854c-3.348-1.003-6.809-1.558-10.304-1.619
				c-3.104-0.054-6.473-0.228-9.365,1.081c-1.59,0.719-3.539,1.706-4.134,3.464c-0.738,2.188-0.385,4.944-0.025,7.18
				c0.395,2.448,0.991,4.95,2.294,7.091c0.102-1.52,0.781-2.965,1.116-4.445c1.079-4.762,4.141-6.487,7.823-7.102
				c3.06-0.511,6.548-0.254,9.683-0.338c1.679-0.043,11.403,1.601,9.316-2.298C47.48,17.118,43.731,16.367,42.014,15.854z"/>
			<path fill="#9C552C" d="M15.176,34.61c-4.173,1.149-2.499,7.241,0.909,8.464c1.094,0.393,2.253,0.445,3.37,0.367
				c0.022-0.035,0.044-0.068,0.068-0.104c0.498-0.792-0.201-5.231-0.455-6.069C18.425,35.162,17.179,34.059,15.176,34.61z"/>
			<path opacity="0.4" fill="#661004" d="M16.64,36.854c-0.938-0.434-3.278,0.346-2.178,2.18c0.579-1.701,1.616-0.588,1.458,0.621
				c-0.107,0.811-0.978,0.822-0.112,1.861c0.468,0.564,1.414,0.354,1.893,0.053C19.219,40.611,17.784,37.381,16.64,36.854z"/>
			<path fill="#261B18" d="M37.992,10.581c-2.834-0.549-5.879-0.604-8.738-0.263c-4.813,0.574-10.619,2.857-12.141,7.955
				c-0.936,3.132-0.447,6.763-0.208,9.963c0.146,1.939-0.636,5.68,1.021,7.144c1.929,1.702,2.692-0.86,2.876-2.702
				c0.205-2.068,0.045-4.33,0.641-6.346c1.457-4.896,4.057-5.837,11.102-6.378c3.656-0.28,12.686-0.975,14.422,2.277
				c0.646,1.21,5.953-2.352,1.166-7.672C46.049,12.241,40.946,11.15,37.992,10.581z"/>
			<g>
				<path fill="#BF6C3C" d="M48.834,36.625c-0.835-0.793-2.232-0.658-3.204-0.436c-1.273,0.289-2.858,1.16-1.334,2.756
					c0.813,0.849,6.018,0.383,4.944-1.767C49.128,36.957,48.992,36.774,48.834,36.625z"/>
				<path fill="#BF6C3C" d="M28.238,37.572c-0.665-0.93-2.064-1.105-3.063-1.107c-1.304-0.002-3.686,0.873-2.042,2.443
					c1.185,1.131,6.033,1.543,5.396-0.722C28.463,37.95,28.364,37.749,28.238,37.572z"/>
				<path fill="#261B18" d="M27.213,32.145c-3.039-0.823-4.951,2.568-2.879,3.675c0.966-0.178,2.108-0.112,3.01,0.161
					C29.384,35.317,29.474,32.758,27.213,32.145z"/>
				<path opacity="0.4" fill="#661004" d="M37.015,39.152c-1.28,0.016-2.404-0.566-3.606-0.034c-1.198,0.531,0.18,2.236,3.575,2.155
					c3.38-0.08,4.319-1.631,3.688-2.208C39.942,38.394,38.435,39.138,37.015,39.152z"/>
				<path fill="#BF6C3C" d="M36.939,32.962c-2.406-0.209-4.297,4.458-3.273,5.985c0.718,1.072,6.014,1.036,6.845-0.22
					C40.813,38.27,39.234,33.161,36.939,32.962z"/>
				<path opacity="0.7" fill="#F0DED1" d="M26.131,32.736c-1.233,0.264-0.295,1.771,0.907,1.223
					C27.907,33.563,27.228,32.504,26.131,32.736z"/>
				<path fill="#261B18" d="M46.894,31.623c-3.122-0.41-4.565,3.207-2.363,4.028c0.933-0.306,2.073-0.393,3.005-0.241
					C49.467,34.479,49.216,31.932,46.894,31.623z"/>
				<path opacity="0.7" fill="#F0DED1" d="M45.899,32.354c-1.187,0.425-0.056,1.795,1.063,1.093
					C47.771,32.937,46.956,31.977,45.899,32.354z"/>
				<g>
					<g>
						<path fill="#D47B48" d="M45.519,41.633c-5.458-1.085-14.336,0.736-19.249,1.014c-0.396,0.021-0.685,0.027-0.524,0.607
							C26.36,45.468,28.79,53.516,37.4,53.416c6.321-0.072,5.818-4.529,5.938-7.252c0.059-1.336,1.489-2.985,2.616-3.994
							C46.323,41.84,46.022,41.73,45.519,41.633z"/>
					</g>
					<path fill="#78231F" d="M27.083,43.75c0,0,2.641,6.668,9.206,6.237c5.915-0.389,6.523-2.712,6.726-4.331
						c0.267-2.166,1.834-3.065,1.834-3.065C34.871,45.697,27.083,43.75,27.083,43.75z"/>
					<path fill="#FFF7EA" d="M29.266,44.377c0,0,0.157,2.184,2.216,2.942c2.641,0.973,5.555,0.999,8.492,0.085
						c1.979-0.613,3.006-3.963,3.006-3.963S37.438,44.711,29.266,44.377z"/>
					<path fill="#FFF7EA" d="M37.651,47.498c-2.811,0.137-5.247-0.164-6.582-0.656c-1.113-0.408-1.102,0.215-0.874,0.758
						c0,0,0.445,2.242,5.586,2.469c4.496,0.199,6.336-2.721,5.813-3.289C41.07,46.208,40.461,47.364,37.651,47.498z"/>
					<path fill="#ECDCC4" d="M29.256,44.347c0,0,0.087,0.66,0.255,0.95c0,0,10.596-1.408,12.991-0.62c0,0,0.382-0.71,0.478-1.235
						C42.979,43.441,35.5,44.777,29.256,44.347z"/>
					<path fill="#ECDCC4" d="M31.654,46.838c4.507,2.014,9.318-0.154,9.318-0.154C35.545,48.012,31.654,46.838,31.654,46.838z"/>
					<path opacity="0.4" fill="#661004" d="M46.627,41.127c-1.115-0.743-2.636-0.523-3.891-0.414l-0.98,0.195
						c1.029,0.105,1.974,0.254,2.906,0.725c0.915,0.461,1.716,0.975,2.03,1.999c0.174,0.563,0.22,2.396,0.901,1.115
						C48.216,43.584,47.685,41.83,46.627,41.127z"/>
					<path opacity="0.4" fill="#661004" d="M25.298,41.836c-1.037,0.732-1.517,2.5-0.864,3.646c0.721,1.259,0.713-0.573,0.871-1.141
						c0.286-1.032,1.07-1.567,1.972-2.056c0.92-0.496,1.859-0.672,2.885-0.809l-0.985-0.166
						C27.92,41.238,26.391,41.061,25.298,41.836z"/>
				</g>
			</g>
			<path fill="#45362E" d="M17.42,22.808c-0.006-0.001-0.011,0.001-0.017,0c0.009,0,0.016,0.003,0.024,0.003
				C17.464,22.81,17.46,22.809,17.42,22.808z"/>
			<path fill="#45362E" d="M48.798,15.952c0.319-0.894-0.438-2.163-1.456-1.554c0.68-0.929-0.542-2.684-1.529-1.25
				c-0.244-0.54,0.031-1.028-0.799-0.989c-0.734,0.036-0.923,0.635-1.23,1.189c-0.342-1.063-0.391-2.447-1.704-2.869
				c-1.513-0.485-1.784,0.887-2.498,1.795c-0.375-0.634-0.463-1.458-1.127-1.917c-0.918-0.637-1.39,0.274-1.83,0.96
				c-0.512-0.335-0.673-1.019-1.396-0.759c-0.806,0.289-1.073,1.514-1.46,2.186c-0.699-0.797-1.284-2.087-2.408-2.354
				c-1.438-0.34-2.034,0.76-2.548,1.816c-0.572-0.316-0.926-0.893-1.666-0.596c-0.696,0.28-0.948,1.118-1.174,1.763
				c-0.686-0.49-1.673,0.002-1.482,0.896c-0.44-0.896-1.948-1.372-2.834-1.071c-0.687,0.234-0.999,0.67-1.028,1.185
				c-0.024,0.391,0.112,0.825,0.37,1.251c-1.277-0.649-1.731,0.408-1.081,1.515c-0.51-0.476-1.807-1.32-2.509-0.872
				c-0.698,0.447-0.573,2.485-0.113,3.031c0.003-0.015-0.008-0.02-0.026-0.02c-1.328,0.175-0.329,0.892,0.422,1.12
				c-1.943-0.593-1.586,2.394-0.286,2.4c0.006,0.001,0.011-0.001,0.017,0c0.04,0.001,0.044,0.002,0.008,0.003
				c-0.009,0-0.016-0.003-0.024-0.003c-1.269-0.212-1.5,1.563-0.351,1.857c-1.467-0.309-0.761,1.169,0.204,1.405
				c1.291,0.319,1.6-0.996,0.557-1.594c1.391,0.799,1.702-0.618,0.712-1.465c1.753,0.724,0.814-1.901,0.505-2.595
				c0.504,0.223,0.977,0.874,1.572,0.721c0.658-0.17,0.672-1.053,0.647-1.626c0.246,0.689,1.506,1.308,2.113,0.769
				c0.496-0.439,0.282-1.774,0.443-2.361c0.429,0.576,1.474,2.051,2.386,1.618c0.687-0.328,0.456-1.658,0.647-2.288
				c0.384,0.946,1.367,1.841,2.449,1.746c1.359-0.118,1.422-1.004,1.799-2.195c0.198,0.75,1.149,1.867,2.074,1.795
				c1.173-0.093,1.379-1.25,1.806-2.296c1.196,2.252,3.757,2.689,4.677,0c0.716,3.515,3.482,2.196,5.409,0.603
				c-0.32,1.981,1.135,2.58,2.251,1.064c-0.949,1.289,0.503,2.259,1.742,1.913c0.731-0.204,1.204-0.795,1.299-1.554
				c0.061-0.498-0.083-0.984-0.357-1.4C49.92,16.817,48.842,15.824,48.798,15.952z"/>
		</g>
	</g>
</g>
</svg>
