<?xml version="1.0" encoding="utf-8"?>
<!-- Generator: Adobe Illustrator 16.0.0, SVG Export Plug-In . SVG Version: 6.00 Build 0)  -->
<!DOCTYPE svg PUBLIC "-//W3C//DTD SVG 1.1//EN" "http://www.w3.org/Graphics/SVG/1.1/DTD/svg11.dtd">
<svg version="1.1" id="Capa_1" xmlns="http://www.w3.org/2000/svg" xmlns:xlink="http://www.w3.org/1999/xlink" x="0px" y="0px"
	 width="67px" height="67px" viewBox="0 0 67 67" enable-background="new 0 0 67 67" xml:space="preserve">
<g>
	<defs>
		<circle id="SVGID_1_" cx="33.489" cy="33.521" r="33.479"/>
	</defs>
	<clipPath id="SVGID_2_">
		<use xlink:href="#SVGID_1_"  overflow="visible"/>
	</clipPath>
	<g clip-path="url(#SVGID_2_)">
		<g>
			<path fill="#261B18" d="M20.585,13.229c-8.91,9.882-5.415,21.623-5.3,24.603c0.227,5.826-2.566,8.464-1.022,12.417
				c4.642,11.883,19.734,14.172,30.16,9.5c5.589-2.504,7.673-8.547,7.297-14.266c-0.241-3.65,0.049-6.788,0.835-10.312
				c0.75-3.345,0.574-7.029,0.435-10.458C52.256,6.687,29.634,3.196,20.585,13.229z"/>
		</g>
		<g>
			<path fill="#E8E8E8" d="M40.106,57.434c-2.486-2.518-8.912-2.549-11.643-0.405c-2.483,1.948-0.678,6.261,0.193,9.969h11.06
				C40.345,62.672,42.594,59.955,40.106,57.434z"/>
			<path fill="#313142" d="M40.409,63.995c-0.905-1.965-0.707-5.243-0.232-6.814c-2.495-2.476-9.313-2.27-12.153,0.056
				c0.393,1.41,0.659,4.203-0.25,6.368c0.311,1.226,0.619,2.331,0.84,3.393h11.166C39.893,65.924,40.121,64.98,40.409,63.995z"/>
			<path opacity="0.3" d="M29.424,58.817l0.907,4.079c0,0,3.559-1.814,3.999-1.814c0.479,0,4.062,1.656,4.062,1.656l0.49-4.202
				c0,0-3.763,2.326-4.539,2.331C33.766,60.869,29.424,58.817,29.424,58.817z"/>
			<path fill="#F5F5F5" d="M37.342,55.128c-1.813-0.761-5.02-0.712-6.702,0.085c-3.28,1.554,0.205,6.648,0.205,6.648l3.526-0.889
				l3.52,0.771C37.891,61.744,40.553,56.476,37.342,55.128z"/>
			<linearGradient id="SVGID_3_" gradientUnits="userSpaceOnUse" x1="34.209" y1="53.1953" x2="34.209" y2="56.5197">
				<stop  offset="0" style="stop-color:#EE996D"/>
				<stop  offset="0.0163" style="stop-color:#EE9A6E"/>
				<stop  offset="0.3731" style="stop-color:#F8B181"/>
				<stop  offset="0.7088" style="stop-color:#FDBF8D"/>
				<stop  offset="1" style="stop-color:#FFC491"/>
			</linearGradient>
			<path fill="url(#SVGID_3_)" d="M37.383,55.609c-0.576-0.457-0.437-1.865-0.342-3.496c0.213-3.697-6.173-3.834-6.166,0.201
				c0.004,1.787,0.065,2.906-0.416,3.4c-0.928,0.95-0.839,2.625,3.826,4.783C36.829,59.239,40.136,57.802,37.383,55.609z"/>
			<g>
				<circle fill="#FFF9F0" cx="30.296" cy="56.292" r="0.544"/>
				<path fill="#FFF9F0" d="M31.521,56.594c-0.297,0.008-0.531,0.262-0.521,0.561c0.009,0.305,0.26,0.539,0.558,0.527
					c0.299-0.01,0.532-0.262,0.522-0.561C32.07,56.82,31.821,56.583,31.521,56.594z"/>
				
					<ellipse transform="matrix(-0.0331 -0.9995 0.9995 -0.0331 -23.4266 92.7477)" fill="#FFF9F0" cx="33.15" cy="57.706" rx="0.546" ry="0.54"/>
				<circle fill="#FFF9F0" cx="34.765" cy="57.793" r="0.544"/>
				<circle fill="#FFF9F0" cx="37.69" cy="56.238" r="0.545"/>
				<path fill="#FFF9F0" d="M36.377,56.651c-0.3,0.008-0.533,0.259-0.523,0.56c0.012,0.301,0.261,0.539,0.559,0.527
					c0.299-0.011,0.533-0.26,0.522-0.564C36.927,56.875,36.676,56.638,36.377,56.651z"/>
			</g>
			<path opacity="0.07" fill="#FFFFFF" d="M36.981,62.424c-1.942,0.727-4.304,0.424-6.293-0.098
				c-1.146-0.303-1.789,1.068-1.439,2.238c0.466,1.547,2.84,1.949,4.908,1.912c4.083-0.072,5.613-1.674,4.924-3.582
				C38.896,62.384,38.024,62.033,36.981,62.424z"/>
		</g>
		<g>
			<path fill="#FFBC82" d="M32.737,16.171c-7.779,1.375-13.439,12.426-12.2,22.909c0.921,7.777,7.536,16.164,15.532,15.657
				c9.618-0.608,14.475-11.94,13.487-21.179C48.438,23.063,43.631,14.247,32.737,16.171z"/>
			<path opacity="0.2" fill="#BF3C1B" d="M46.305,19.321c-4.191-1.751-8.269-2.789-12.895-2.985
				c-2.83-0.123-6.628-0.367-9.298,0.729c-5.704,2.34-5.291,7.314-5.437,12.29c-0.051,1.744-0.561,3.471-0.764,5.199
				c-0.214,1.847-0.62,7.239,2.474,5.933c1.618-0.684,2.049-3.512,2.456-5.059c1.508-5.733,4.596-6.347,7.615-7.397
				c3.552-1.236,7.642-2.542,8.41-4.855c1.51,2.42,7.705,7.364,10.411,4.393C51.447,25.189,48.576,20.271,46.305,19.321z"/>
			<path fill="#261B18" d="M44.041,14.222c-4.224-3.711-9.807-3.779-15.097-2.96c-3.483,0.538-6.513,3.004-8.58,5.747
				c-2.302,3.054-2.903,5.895-3.282,9.678c-0.245,2.429,0.076,5.58,0.311,8.061c0.125,1.301,0.063,5.657,1.761,6.113
				c1.998,0.529,2.536-5.755,2.987-7.182c1.401-4.422,4.203-5.69,8.1-6.784c3.12-0.878,7.341-2.281,8.518-5.58
				c2.326,2.342,6.792,6.164,10.384,5.972c2.878-0.152,1.472-3.624,0.775-5.397C48.747,18.908,46.27,16.18,44.041,14.222z"/>
			<path fill="#57443A" d="M44.244,11.792c-3.492-2.021-7.782-2.91-11.798-2.709c-5.363,0.267-10.801,4.018-13.181,8.913
				c-0.727,1.491-2.637,6.222-2.281,9.866c0.606-0.01,4.109-0.603,5.508-2.281c-0.221,1.191-1.517,2.627-1.927,3.809
				c2.714-0.963,5.872-2.2,12.562-4.728c3.591-1.357,4.771-3.59,5.23-6.189c2.358,2.912,6.461,6.456,10.405,6.445
				c-0.617-0.642-1.114-1.43-1.747-2.094c1.269,0.509,2.961,0.956,4.754-0.089C50.677,17.945,48.602,14.309,44.244,11.792z"/>
		</g>
		<g>
			<path opacity="0.4" fill="#FF7752" d="M48.271,37.418c-0.607-0.879-1.909-1.057-2.841-1.068c-1.216-0.012-2.834,0.42-1.753,2.159
				c0.579,0.924,5.422,1.616,4.858-0.515C48.479,37.775,48.387,37.586,48.271,37.418z"/>
			<path opacity="0.4" fill="#FF7752" d="M29.746,37.037c-0.847-0.731-2.217-0.571-3.167-0.338c-1.237,0.304-2.765,1.172-1.21,2.648
				c0.828,0.79,5.931,0.221,4.799-1.794C30.049,37.348,29.909,37.176,29.746,37.037z"/>
			<path opacity="0.2" fill="#BF3C1B" d="M36.896,38.676c-1,0.063-1.043-0.387-1.712,0.041c-0.667,0.426,0.052,1.674,1.818,1.523
				c1.761-0.148,2.431-1.331,2.026-1.739C38.563,38.027,38.006,38.607,36.896,38.676z"/>
			<path fill="#425361" d="M46.721,32.033c-2.76-1.178-5.28,2.229-3.293,4.001c0.399-0.435,2.56-1.134,3.895-0.125
				C48.457,35.097,48.199,32.667,46.721,32.033z"/>
			<path fill="#C3D5E3" d="M45.526,32.544c-1.282,0.402-0.676,2.87,0.639,2.002C47.115,33.924,46.669,32.189,45.526,32.544z"/>
			<path fill="#425361" d="M26.16,32.257c-1.458,0.676-1.647,3.113-0.489,3.891c1.306-1.047,3.486-0.41,3.897,0.01
				C31.503,34.33,28.885,31,26.16,32.257z"/>
			<path fill="#C3D5E3" d="M27.884,32.648c-1.152-0.321-1.549,1.426-0.579,2.02C28.644,35.497,29.179,33.014,27.884,32.648z"/>
			<path fill="#261B18" d="M30.015,28.914c-1.372-0.057-2.681-0.065-4.047,0.234c-0.852,0.188-1.879,0.579-2.548,1.094
				c-0.226,0.175-0.506,0.48-0.493,0.75c0.224,0.035,0.394-0.105,0.598-0.163c1.036-0.287,2.124-0.319,3.186-0.339
				c0.827-0.018,1.649,0.042,2.476,0.003c0.554-0.025,1.31,0.088,1.61-0.453C31.174,29.356,30.753,28.946,30.015,28.914z"/>
			<path fill="#261B18" d="M48.928,29.857c-0.66-0.469-1.667-0.806-2.498-0.955c-1.339-0.238-2.607-0.176-3.944-0.069
				c-0.722,0.06-1.125,0.471-0.747,1.113c0.3,0.51,1.035,0.374,1.574,0.375c0.808,0.002,1.606-0.083,2.412-0.101
				c1.032-0.021,2.097-0.034,3.107,0.204c0.2,0.047,0.367,0.174,0.584,0.133C49.424,30.298,49.15,30.015,48.928,29.857z"/>
			<path fill="#121B21" d="M46.17,31.563c-2.546-0.463-3.266,2.042-3.266,2.042s1.233-1.587,2.887-0.881
				c3.75,1.601,5.732-1.06,5.732-1.06C48.847,32.916,47.473,31.797,46.17,31.563z"/>
			<path fill="#121B21" d="M26.802,31.839c-1.299,0.252-2.662,1.382-5.352,0.158c0,0,2.012,2.639,5.744,0.999
				c1.645-0.724,2.896,0.852,2.896,0.852S29.341,31.352,26.802,31.839z"/>
			<g>
				<g>
					<path fill="#FF3B3B" d="M26.09,42.066c4.344,6.38,6.981,7.529,10.305,7.674c4.164,0.18,5.548-2.479,6.149-4.467
						c0.256-0.842,2.331-3.024,3.139-3.525c-2.584,0.609-5.142,0.343-9.052,0.512C33.396,42.4,28.661,43.361,26.09,42.066z"/>
				</g>
				<path fill="#A80A0A" d="M28.065,43.16c0,0,2.618,4.297,7.796,4.324c3.317,0.019,5.484-1.029,6.081-2.505
					c0.65-1.614,2.056-2.214,2.056-2.214C34.996,44.963,28.065,43.16,28.065,43.16z"/>
				<path fill="#FFF9F0" d="M29.991,43.52c0,0,0.177,1.309,2.024,1.79c2.371,0.618,4.918,0.624,7.537,0.206
					c1.766-0.279,2.609-2.348,2.609-2.348S37.118,44.366,29.991,43.52z"/>
				<path fill="#FFF9F0" d="M37.152,45.72c-2.367,0.112-4.336-0.012-5.531-0.712c-0.851-0.497-0.921,0.052-0.734,0.393
					c0,0,0.789,1.783,4.725,2.146c3.78,0.347,5.708-1.822,5.272-2.189C40.448,44.992,39.347,45.613,37.152,45.72z"/>
				<path fill="#E8DAC5" d="M29.991,43.52c0,0,0.143,0.607,0.483,0.918c0,0,8.848-0.823,10.976-0.118c0,0,0.613-0.731,0.712-1.151
					C42.162,43.168,35.987,44.319,29.991,43.52z"/>
				<path fill="#E8DAC5" d="M32.331,45.264c3.198,1.75,6.981,0.19,6.981,0.19C35.326,46.361,32.331,45.264,32.331,45.264z"/>
			</g>
		</g>
		<g>
			<path opacity="0.3" fill="#B54D26" d="M47.718,29.571c-1.521,0.076-3.038,0.306-4.516,0.691c-1.261,0.329-2.741,0.473-3.902,1.07
				c-1.07,0.553-1.521,0.914-2.813,0.856c-2.31-0.103-4.25-1.547-6.557-1.795c-2.4-0.257-4.856-0.549-7.229,0.094
				c-0.614,0.169-2.479,0.869-1.224,1.534c1.224,0.65,3.062,0.451,4.407,0.507c0.621,0.026,1.245,0.044,1.862,0.104
				c2.193,0.208,5.573-0.085,5.389,2.657c-0.127,1.881-1.346,3.809-2.876,4.157c-1.467,0.335-3.038,0.462-4.522,0.452
				c-1.137-0.011-2.233-0.234-3.266-0.717c-0.296-0.136-1.172-0.7-1.458-0.302c-0.489,0.671,1.292,1.799,1.76,2.01
				c1.07,0.488,2.203,0.636,3.362,0.764c2.862,0.313,5.812,0.173,7.437-2.454c0.944-1.524,1.421-3.318,2.293-4.883
				c1.429-2.56,2.088,0.924,2.532,2.449c0.252,0.855,0.617,1.686,1.137,2.409c0.922,1.28,2.737,1.978,4.259,2.053
				c0.938,0.047,4.274-0.448,4.946-1.12c0.921-0.922-1.419-0.072-2.056-0.316c-0.385-0.145-0.999-0.041-1.402-0.06
				c-0.589-0.025-1.19-0.034-1.768-0.146c-0.744-0.142-1.491-0.453-2.12-0.914c-0.439-0.324-0.817-0.724-1.097-1.193
				c-0.578-0.979-0.603-2.172-0.218-3.227c0.53-1.452,2.124-1.564,3.448-1.674c1.604-0.132,3.224-0.099,4.818-0.242
				c0.715-0.063,1.421,0.035,2.129,0.062c0.915,0.035,2.887-0.251,1.809-1.583C51.239,29.535,49.198,29.501,47.718,29.571z"/>
			<g>
				<path fill="#23232D" d="M20.428,29.474c-1.892,0.056-3.503-0.472-3.949-0.092c-0.58,0.492,0.428,2.182,0.428,2.182
					s0.602,0.426,1.487,0.499c0.12,1.314,0.04,4.707,2.448,6.853c2.007,1.788,8.577,2.317,10.624,1.295
					c2.533-1.27,3.615-3.63,4.066-5.959C36.64,28.542,23.093,29.392,20.428,29.474z M31.603,38.672
					c-2.5,1.607-8.888,0.836-10.544-1.219c-1.277-1.588-1.499-4.897-0.714-5.368c2.397-1.435,11.393-0.868,13.469,0.725
					C34.82,33.581,33.498,37.449,31.603,38.672z"/>
			</g>
			<g>
				<path fill="#23232D" d="M51.422,29.008c-2.409-0.002-14.664-0.46-13.506,5.213c0.472,2.316,1.515,4.644,3.838,5.838
					c1.874,0.965,7.794,0.246,9.556-1.602c2.112-2.217,1.949-5.604,2.021-6.919c0.797-0.101,1.326-0.542,1.326-0.542
					s0.866-1.716,0.328-2.195C54.57,28.435,53.131,29.012,51.422,29.008z M51.073,36.999c-1.438,2.106-7.182,3.063-9.485,1.526
					c-1.747-1.166-3.049-4.994-2.158-5.794c1.83-1.651,9.938-2.483,12.14-1.115C52.29,32.063,52.183,35.38,51.073,36.999z"/>
			</g>
			<path opacity="0.3" fill="#FFFFFF" d="M41.016,32.22c-1.335,0.577,1.088,1.282,1.609,1.361c1.804,0.265,3.853,0.141,5.777-0.216
				c1.01-0.187,3.184-1.109,2.558-1.668C50.087,30.918,42.489,31.586,41.016,32.22z"/>
			<path fill="#FFFFFF" d="M46.974,31.887c-0.727,0.117-1.198,0.326-0.999,0.652c0.392,0.644,4.644,0.277,4.93-0.216
				C51.188,31.84,48.514,31.643,46.974,31.887z"/>
			<path opacity="0.7" fill="#FFFFFF" d="M42.366,37.184c-0.458-0.021-0.774,0.074-0.695,0.36c0.153,0.565,2.794,0.927,3.036,0.585
				C44.94,37.791,43.338,37.227,42.366,37.184z"/>
			<path opacity="0.7" fill="#FFFFFF" d="M22.528,36.98c-0.476-0.076-0.819-0.021-0.771,0.275c0.087,0.58,2.804,1.264,3.099,0.953
				C25.147,37.902,23.539,37.144,22.528,36.98z"/>
			<path opacity="0.3" fill="#FFFFFF" d="M32.816,32.475c-1.688-0.604-10.066-1.247-10.933-0.507
				c-0.619,0.532,1.864,1.408,2.991,1.588c2.146,0.34,4.396,0.461,6.343,0.207C31.776,33.692,34.342,33.024,32.816,32.475z"/>
			<path fill="#FFFFFF" d="M29.173,31.982c-0.771,0.025-1.295,0.174-1.127,0.525c0.325,0.684,4.821,0.849,5.188,0.396
				C33.593,32.459,30.818,31.929,29.173,31.982z"/>
			<path fill="#23232D" d="M39.508,30.805c-1.752,0.798-3.456,0.922-5.896,0.053c-1.84-0.658,0.967,1.199,1.181,2.155
				c0.212,0.956-0.11,3.879,0.531,2.139c0.645-1.742,1.93-1.851,2.749-0.25c0.82,1.604,0.766-2.675,1.1-3.062
				C39.508,31.45,41.262,30.004,39.508,30.805z"/>
			<path fill="#C1C5C9" d="M21.313,30.036c5.103,0.266,9.178,0.417,12.258,1.613C31.564,29.995,28.105,29.622,21.313,30.036z"/>
			<path fill="#C1C5C9" d="M50.99,29.451c-6.229,0.216-9.132,0.255-10.811,1.836C42.88,30.01,46.363,30.105,50.99,29.451z"/>
		</g>
		<path fill="#E8E8E8" d="M28.02,57.387c-0.228,0.105-1.99,0.719-2.961,3.303c-0.461,1.227-0.98,4.206-1.258,6.308h3.477
			c0.111-1.335,0.333-2.849,0.756-4.135C28.411,61.711,28.236,57.287,28.02,57.387z"/>
		<path fill="#E8E8E8" d="M40.151,57.387c-0.217-0.1-0.392,4.324-0.013,5.476c0.422,1.286,0.644,2.8,0.756,4.135h3.477
			c-0.278-2.102-0.797-5.081-1.258-6.308C42.143,58.105,40.379,57.492,40.151,57.387z"/>
	</g>
</g>
</svg>
