<?xml version="1.0" encoding="utf-8"?>
<!-- Generator: Adobe Illustrator 16.0.0, SVG Export Plug-In . SVG Version: 6.00 Build 0)  -->
<!DOCTYPE svg PUBLIC "-//W3C//DTD SVG 1.1//EN" "http://www.w3.org/Graphics/SVG/1.1/DTD/svg11.dtd">
<svg version="1.1" id="Capa_1" xmlns="http://www.w3.org/2000/svg" xmlns:xlink="http://www.w3.org/1999/xlink" x="0px" y="0px"
	 width="67px" height="67px" viewBox="0 0 67 67" enable-background="new 0 0 67 67" xml:space="preserve">
<g>
	<defs>
		<circle id="SVGID_1_" cx="33.505" cy="33.495" r="33.495"/>
	</defs>
	<clipPath id="SVGID_2_">
		<use xlink:href="#SVGID_1_"  overflow="visible"/>
	</clipPath>
	<g clip-path="url(#SVGID_2_)">
		<g>
			<g>
				<path fill="#108D8E" d="M16.342,66.989c0-0.251-0.264-4.438-0.082-6.312c0.246-2.54,1.873-5.285,6.344-6.754l1.961,4.37
					c-2.31,1.202-2.623,8.695-2.623,8.695H16.342z"/>
			</g>
		</g>
		<g>
			<g>
				<path fill="#108D8E" d="M47.804,66.989c0-0.251,0.264-4.438,0.082-6.312c-0.247-2.54-1.872-5.285-6.343-6.754l-1.963,4.37
					c2.311,1.202,2.624,8.695,2.624,8.695H47.804z"/>
			</g>
		</g>
		<g>
			<path fill="#C9BEB7" d="M24.314,53.589c-4.141,2.692-3.737,6.961-2.721,13.4H42.51c1.111-6.327,1.601-11.63-2.45-13.806
				C35.017,50.477,27.665,51.409,24.314,53.589z"/>
			<g>
				<path fill="#108D8E" d="M39.855,52.729c0,0,4.457,1.649,4.88,2.756c0.318,0.826-0.774,6.248-1.678,11.505h-6.729
					C37.438,61.716,38.774,56.242,39.855,52.729z"/>
				<path fill="#27B3B0" d="M39.736,51.93c4.202,0.29,5.767,2.969,5.71,3.652c-0.059,0.684-6.816,2.709-6.647,2.025
					C38.972,56.925,39.736,51.93,39.736,51.93z"/>
				<path fill="#27B3B0" d="M39.168,55.683c0.525-0.905,5.055,2.986,4.771,3.783c-0.125,0.352-1.833,3.646-3.792,7.523l-4.061-0.001
					C37.242,61.441,38.587,56.683,39.168,55.683z"/>
			</g>
			<g>
				<path fill="#108D8E" d="M24.197,52.729c0,0-4.457,1.649-4.88,2.756c-0.318,0.826,0.775,6.248,1.677,11.505h6.729
					C26.614,61.716,25.278,56.242,24.197,52.729z"/>
				<path fill="#27B3B0" d="M24.316,51.93c-4.202,0.29-5.767,2.969-5.71,3.652c0.059,0.684,6.816,2.709,6.646,2.025
					C25.081,56.925,24.316,51.93,24.316,51.93z"/>
				<path fill="#27B3B0" d="M24.885,55.683c-0.525-0.905-5.055,2.986-4.771,3.783c0.125,0.352,1.833,3.646,3.792,7.523l4.062-0.001
					C26.811,61.441,25.466,56.683,24.885,55.683z"/>
			</g>
			<path opacity="0.5" fill="#949494" d="M32.036,60.036c9.472,0,12.21-13.516-0.8-13.516
				C21.883,46.521,21.905,60.036,32.036,60.036z"/>
			<path fill="#C9BEB7" d="M32.026,58.865c10.104,0,13.026-12.797-0.855-12.797C21.189,46.068,21.215,58.865,32.026,58.865z"/>
		</g>
		<g>
			<path fill="#2B221C" d="M48.836,16.857c-0.527-1.959-1.558-3.67-2.687-4.956c-5.13-5.844-13.817-6.62-23.73-2.547
				c0.899,0.078,2.737,0.288,5.109-0.117c-5.207,2.283-11.371,5.302-12.818,11.357c-1.65,6.917-0.488,15.08,3.377,15.64
				c3.313,0.48,7.513-6.776,9.769-6.085c4.755,1.454,16.675,0.131,20.094-4.757C49.491,23.189,49.636,19.835,48.836,16.857z"/>
			<path fill="#FFCB9E" d="M17.747,38.747c0.961,8.179,7.085,17.244,16.577,16.746c9.681-0.509,14.716-12.415,13.652-22.469
				c-1.157-10.933-6.152-20.121-17.501-18.125C22.371,16.324,16.467,27.828,17.747,38.747z"/>
			<path opacity="0.3" fill="#BF3C1B" d="M24.178,23.973c-1.152,0.57-4.193,1.965-5.689-0.487c-0.707-1.156-0.138-2.875,0.342-4.17
				c0.584-1.583,2.42-2.442,3.914-3.067c2.72-1.135,5.859-0.919,8.752-0.816c3.262,0.116,6.48,0.68,9.585,1.645
				c2.052,0.637,5.917,1.242,6.589,3.583c0.85,2.963-2.31,3.286-4.493,3.249C37.923,23.821,26.679,22.735,24.178,23.973z"/>
			<path fill="#FFCB9E" d="M15.73,42.215c1.03,0.393,2.133,0.464,3.197,0.408c0.02-0.032,0.043-0.063,0.064-0.098
				c0.488-0.742-0.098-4.975-0.326-5.772c-0.573-2.013-1.738-3.084-3.651-2.597C11.03,35.176,12.513,40.994,15.73,42.215z"/>
			<path opacity="0.3" fill="#C94614" d="M17.292,40.814c1.46-0.883,0.152-3.98-0.926-4.501c-0.884-0.427-3.121,0.271-2.108,2.034
				c0.581-1.605,1.546-0.529,1.374,0.615c-0.114,0.77-0.941,0.764-0.14,1.768C15.929,41.273,16.832,41.092,17.292,40.814z"/>
			<path fill="#2B221C" d="M43.223,12.02c-6.041-3.312-15.432-2.652-20.627,1.059c-5.304,3.786-6.766,10.704-6.881,16.91
				c-0.041,2.136,0.469,3.641,2.077,5.073c1.857,1.654,1.776-3.257,1.984-5.126c0.467-4.172,2.245-7.525,6.83-7.608
				c3.067-0.056,15.073-0.399,17.873,0.618c1.535,0.559,3.571,1.397,3.928-1.055c0.387-2.68-0.28-5.487-2.089-7.477
				C45.451,13.461,44.4,12.665,43.223,12.02z"/>
			<path fill="#45362E" d="M47.273,20.603c0.111-1.166,0.026-2.686-0.273-3.712c-0.443-1.516-1.286-2.717-2.399-3.817
				c-2.268-2.238-5.463-3.982-8.575-4.33c-1.622-0.181-4.889-0.18-6.454,0.476c0.512,0.294,1.85,0.614,2.292,0.984
				c-2.26,0.482-4.432,1.088-6.573,2.012c-0.654,0.283-6.054,3.805-6.053,3.806c1.468,0.833,3.22,0.565,4.827,0.239
				c2.453-0.499,4.873-0.67,7.321-0.066c2.273,0.563,4.304,1.74,6.559,2.31c0.088-1.021-0.874-1.934-1.296-2.635
				c1.298,0.003,6.204,3.236,7.209,4.083c-0.23-0.877-1.401-2.737-1.516-3.668C43.604,16.497,46.43,19.108,47.273,20.603z"/>
		</g>
		<g>
			<g>
				<path fill="#F7A286" d="M35.291,42.707c-2.28,0.077-5.287,0.398-7.803,0.184c-1.171-0.1-1.933,0.854-1.406,1.501
					c3.411,4.196,5.675,4.587,8.646,4.733c4.292,0.208,5.972-1.738,6.618-3.688c0.127-0.375,0.651-1.027,1.263-1.668
					c0.725-0.76-0.047-1.406-1.156-1.316C39.703,42.595,37.759,42.622,35.291,42.707z"/>
				<path fill="#8F3935" d="M26.438,43.255c0,0,7.129,1.821,16.445-0.267c0,0-1.459,0.578-2.151,2.157
					c-0.635,1.446-2.886,2.458-6.31,2.414C29.083,47.492,26.438,43.255,26.438,43.255z"/>
				<path fill="#FFF9F0" d="M28.424,43.623c0,0,0.161,1.285,2.063,1.77c2.438,0.627,5.063,0.652,7.773,0.262
					c1.825-0.262,2.723-2.285,2.723-2.285S35.765,44.508,28.424,43.623z"/>
				<path fill="#FFF9F0" d="M29.32,45.475c-0.189-0.336-0.109-0.874,0.762-0.379c1.225,0.697,3.254,0.833,5.697,0.74
					c2.266-0.086,3.412-0.688,3.855-0.326c0.446,0.363-1.572,2.479-5.469,2.109C30.109,47.232,29.32,45.475,29.32,45.475z"/>
				<path fill="#E8DAC5" d="M28.908,44.526c0,0,9.139-0.739,11.324-0.03c0,0,0.644-0.714,0.75-1.127c0,0-6.387,1.084-12.559,0.254
					C28.424,43.623,28.56,44.219,28.908,44.526z"/>
				<path fill="#E8DAC5" d="M30.812,45.353c0,0,3.074,1.101,7.202,0.239C38.014,45.592,34.088,47.094,30.812,45.353z"/>
			</g>
			<path fill="#FFA073" d="M46.39,37.746c0.116,0.176,0.202,0.377,0.258,0.607c0.53,2.234-4.493,1.381-5.069,0.401
				c-1.081-1.837,0.616-2.246,1.883-2.196C44.429,36.594,45.779,36.814,46.39,37.746z"/>
			<path fill="#FFA073" d="M27.499,37.148c0.161,0.148,0.304,0.332,0.418,0.551c1.12,2.132-4.208,2.569-5.048,1.725
				c-1.576-1.588,0.042-2.442,1.34-2.723C25.203,36.488,26.638,36.36,27.499,37.148z"/>
			<g>
				<path fill="#261B18" d="M25.677,35.948c-0.611-0.31-1.393-0.396-2.058-0.214c-1.396-1.232-0.02-4.899,2.045-3.966
					C27.199,32.466,27.086,35.252,25.677,35.948z"/>
			</g>
			<path opacity="0.3" fill="#B54D26" d="M38.03,38.559c-0.507-0.647-1.251,0.045-2.6,0.035c-1.218-0.008-1.688-0.572-2.548-0.08
				c-0.858,0.488,0.326,2.133,2.479,2.094C37.509,40.571,38.467,39.115,38.03,38.559z"/>
			<path fill="#FFDFC2" d="M35.196,34.019c-2.28-0.241-2.542,4.583-2.028,5.007c1.264,1.036,3.952,0.371,4.747-0.43
				C38.229,38.281,37.374,34.249,35.196,34.019z"/>
			<g>
				<path fill="#261B18" d="M45.702,32c1.122,0.702,1.067,3.045,0.202,3.969c-0.534-0.26-1.643-0.394-2.202-0.037
					C41.978,34.745,43.609,30.69,45.702,32z"/>
			</g>
			<path opacity="0.7" fill="#E6D2C3" d="M24.645,32.655c0.758-0.24,1.201,0.923,0.598,1.344
				C24.409,34.58,23.797,32.927,24.645,32.655z"/>
			<path opacity="0.7" fill="#E6D2C3" d="M44.601,32.684c0.741-0.132,1.018,1.027,0.395,1.35
				C44.134,34.482,43.766,32.837,44.601,32.684z"/>
			<path fill="#2B221C" d="M22.938,27.279c1.48-0.253,3.47,0.143,4.929,0.812c0.707,0.323,1.513,1.088,1.03,2.02
				c-0.382,0.736-2.5-0.898-4.787-0.861c-2.485,0.043-2.764,1.195-2.9,0.7C21.067,29.452,20.713,27.662,22.938,27.279z"/>
			<path fill="#2B221C" d="M46.249,27.711c-1.466-0.308-3.471,0.015-4.954,0.628c-0.717,0.297-1.553,1.031-1.105,1.98
				c0.354,0.75,2.534-0.804,4.817-0.683c2.48,0.136,2.716,1.297,2.874,0.808C48.037,29.952,48.458,28.175,46.249,27.711z"/>
			<path fill="#2B221C" d="M41.576,40.662c2.082,1.52,2.982,2.259,5.357,0.819c-0.295,2.837-3.21,4.086-5.754,3.253
				c-0.569-0.188-1.137-0.476-1.55-0.916c-0.924,1.541-3.156-0.096-3.887-0.9c-0.479,1.074-2.615,1.545-3.429,0.623
				c-2.035,2.652-10.009,3.143-10.468-2.074c1.729,2.105,4.924,1.625,6.191,0.282c2.701-2.864,3.987-1.75,7.481-1.738
				C38.149,39.745,39.41,39.082,41.576,40.662z"/>
			<path opacity="0.7" fill="#45362E" d="M42.209,42.167c-0.182,0.446-1.137,0.636-1.527,0.704c-0.856,0.15-1.644-0.016-2.469-0.23
				c-0.149,0.981-2.461-0.217-2.762-0.634c-0.163,0.544-0.852,0.909-1.378,1.005c-0.839,0.152-1.118-0.29-1.572-0.867
				c-0.611,0.51-1.374,0.937-2.187,0.986c-0.402,0.025-1.396,0.012-1.675-0.355c-0.515-0.68,1.523-1.981,2.047-2.319
				c0.695-0.448,1.56-0.404,2.341-0.276c1.067,0.176,2.149,0.29,3.229,0.157c1.265-0.155,2.592-0.408,3.801,0.151
				c0.523,0.243,1.88,0.755,2.134,1.313C42.253,41.938,42.253,42.061,42.209,42.167z"/>
		</g>
	</g>
</g>
</svg>
