<?xml version="1.0" encoding="utf-8"?>
<!-- Generator: Adobe Illustrator 16.0.0, SVG Export Plug-In . SVG Version: 6.00 Build 0)  -->
<!DOCTYPE svg PUBLIC "-//W3C//DTD SVG 1.1//EN" "http://www.w3.org/Graphics/SVG/1.1/DTD/svg11.dtd">
<svg version="1.1" id="Capa_1" xmlns="http://www.w3.org/2000/svg" xmlns:xlink="http://www.w3.org/1999/xlink" x="0px" y="0px"
	 width="67px" height="67px" viewBox="0 0 67 67" enable-background="new 0 0 67 67" xml:space="preserve">
<g>
	<defs>
		<circle id="SVGID_1_" cx="33.546" cy="33.464" r="33.536"/>
	</defs>
	<clipPath id="SVGID_2_">
		<use xlink:href="#SVGID_1_"  overflow="visible"/>
	</clipPath>
	<g clip-path="url(#SVGID_2_)">
		<g>
			<g>
				<path fill="#BBA7DB" d="M27.429,58.295c0.971-0.818,1.093-2.27,0.272-3.239c-0.818-0.972-2.271-1.091-3.24-0.272
					c-3.68,3.109-4.625,9.598-4.787,12.217h4.618C24.514,64.752,25.537,59.893,27.429,58.295z"/>
			</g>
			<g>
				<path fill="#BBA7DB" d="M44.913,54.783c-0.97-0.818-2.422-0.699-3.24,0.272c-0.82,0.97-0.698,2.421,0.272,3.239
					c1.892,1.598,2.915,6.457,3.136,8.705H49.7C49.537,64.381,48.593,57.893,44.913,54.783z"/>
			</g>
			<path fill="#DE3E78" d="M43.823,64.42c0.094-4.439,3.454-8.486,1.228-9.756c-4.873-2.783-14.559-3.882-20.401,0
				c-2.355,1.563,1.291,5.167,1.343,9.756c0.01,0.918,0.03,1.768,0.051,2.58H43.71C43.76,66.195,43.804,65.349,43.823,64.42z"/>
			<path fill="#F06799" d="M39.493,58.343c-1.796,1.844-7.86,1.999-10.148-0.356c-1.29-1.326-2.543,1.453-1.977,3.353
				c0.75,2.52,4.39,3.176,7.55,3.118c6.235-0.115,8.238-2.977,7.135-6.078C41.758,57.549,40.69,57.113,39.493,58.343z"/>
			<path fill="#FFD1E2" d="M24.514,51.374c-1.914,2.923,1.68,5.571,10.425,5.571c8.075,0,12.305-2.817,10.322-5.571
				C39.173,42.91,30.758,41.84,24.514,51.374z"/>
			<path fill="#DE3E78" d="M27.649,52.186c-0.877,2.477,2.751,3.831,7.301,3.766c4.549-0.064,9.25-1.488,6.935-4.227
				C39.803,49.264,28.687,49.254,27.649,52.186z"/>
			<path fill="#F1AA83" d="M35.007,48.195c-2.015-0.003-4.855,0.979-5.057,3.561c-0.095,1.201,0.12,1.897,0.863,2.563
				c1.191,1.065,2.667,1.931,4.193,1.956c1.526-0.025,3-0.891,4.191-1.956c0.744-0.666,0.958-1.362,0.863-2.563
				C39.859,49.175,37.021,48.192,35.007,48.195z"/>
			<g>
				<path fill="#FFD1E2" d="M40.006,56.119c-0.166-0.174-0.44-0.178-0.616-0.012c-0.173,0.168-0.178,0.443-0.011,0.617
					c1.296,1.342,2.276,3.25,2.911,5.675c0.053,0.196,0.229,0.325,0.422,0.325c0.036,0,0.073-0.004,0.111-0.014
					c0.231-0.061,0.371-0.299,0.311-0.533C42.46,59.607,41.407,57.569,40.006,56.119z"/>
			</g>
			<g>
				<path fill="#FFD1E2" d="M29.848,56.119c-1.402,1.45-2.454,3.488-3.127,6.059c-0.062,0.234,0.078,0.473,0.311,0.533
					c0.038,0.01,0.073,0.014,0.11,0.014c0.194,0,0.37-0.129,0.422-0.325c0.635-2.425,1.614-4.333,2.91-5.675
					c0.168-0.174,0.163-0.449-0.011-0.617C30.289,55.941,30.016,55.945,29.848,56.119z"/>
			</g>
			<path fill="#F06799" d="M39.985,50.945c-0.009,5.123-6.993,5.494-5.346,5.519C43.279,56.593,41.769,51.63,39.985,50.945z"/>
			<path fill="#F06799" d="M30.051,50.945c-1.784,0.685-3.294,5.647,5.345,5.519C37.044,56.439,29.377,55.792,30.051,50.945z"/>
		</g>
		<g>
			<path fill="#C93712" d="M53.722,28.998c2.554-0.712,5.391-6.331,1.037-5.971c1.196,1.75-1.581,2.595-2.51,1.272
				c-0.083-0.117-0.144-0.226-0.151-0.331c-0.176-2.194-2.457-3.683-4.195-5.019c-2.541-1.955-5.854-3.539-9.077-4.238
				c-5.68-1.235-12.446-0.837-16.902,2.958c-1.794,1.527-3.347,4.703-5.851,5.327c-3.076,0.768-4.751,3.923-2.286,5.868
				c-1.26,0.767-2.489-0.119-2.718-1.298c-2.639,1.874-3.593,5.464,0.103,7.042c-4.278,2.27-3.157,6.779,1.468,8.691
				c-2.137,2.024-0.992,5.41,1.191,6.73c-0.185-1.412,1.1-4.585,3.566-3c1.516,0.973,0.751,3.633-1.311,2.326
				c-0.513,2.407,5.529,4.587,8.702,1.705c3.042-2.762,6.193-3.625,9.845-3.625c7.583,0,8.229,1.814,10.289,3.498
				c2.787,2.281,6.373-1.164,6.186-2.701c-1.109,0.799-5.147-0.282-3.275-1.545c1.255-0.848,2.732,0.193,3.936-0.529
				c1.419-0.85,0.804-3.84,0.904-3.906c1.023-0.654,2.727-0.725,2.852,1.07c2.065-4.197,0.042-5.329-2.232-5.616
				C58.309,36.854,59.207,29.917,53.722,28.998z"/>
			<path fill="#FFF9F0" d="M48.661,40.346c-0.785,0.031-1.406,0.691-1.388,1.479c0.018,0.785,0.67,1.395,1.453,1.365
				c0.785-0.033,1.405-0.695,1.389-1.48C50.096,40.925,49.445,40.314,48.661,40.346z"/>
			<path fill="#FFCB9E" d="M33.291,14.316c-8.348,0.862-14.764,8.051-14.118,19.293c0.644,11.242,8.91,20.113,17.744,19.029
				c7.32-0.9,13.457-10.108,11.929-22.41C47.479,19.21,41.638,13.454,33.291,14.316z"/>
			<path fill="#FFCB9E" d="M16.995,31.853c-3.615,1.705-1.851,7.931,1.205,8.819c0.979,0.285,2.001,0.205,2.981-0.01
				c0.019-0.039,0.035-0.079,0.054-0.117c0.402-0.896-0.577-5.066-0.841-5.918C19.729,32.481,18.731,31.034,16.995,31.853z"/>
			<path opacity="0.4" fill="#D14F2E" d="M19.095,34.01c-0.981-0.51-3.509,0.207-2.417,2.236c0.692-1.799,1.747-0.549,1.525,0.742
				c-0.149,0.865-1.077,0.834-0.202,1.996c0.474,0.629,1.494,0.453,2.017,0.152C21.678,38.186,20.291,34.636,19.095,34.01z"/>
			<path opacity="0.2" fill="#BF3C1B" d="M30.239,18.732c-2.285,0.452-4.465,1.203-6.354,2.188c-2.956,1.543-3.13,3.103-4.542,5.958
				c-0.712,1.442-2.465,2.907-0.751,4.392c-1.7,0.669-2.059,3.612-0.97,4.928c0.303,0.365,0.652,0.625,1.127,0.695
				c-0.38,0.736-0.585,1.705-0.202,2.52c0.436,0.927,1.189,1.746,2.124,1.561c0.038,0.745,0.387,2.059,0.875,2.67
				c1.203,1.505,3.335,2.045,4.662,0.873c1.276-1.126,1.092-2.697-0.558-3.359c-0.145,0.477-0.7,0.992-1.206,0.619
				c-0.638-0.47,0.182-2.068,0.158-2.711c-0.058-1.715-1.107-1.039-2.092-1.925c0.498-0.482,1.202-1.054,1.175-1.893
				c-0.033-1.046-0.757-1.179-1.395-1.707c-1.067-0.883-0.743-0.728-0.184-1.684c0.689-1.182,1.116-2.724-0.317-3.612
				c0.689-0.076,1.39-0.395,1.491-1.14c1.23,0.634,2.648-0.67,3.026-1.774c-0.116,0.338,1.348-0.317,1.439-0.387
				c0.498-0.378,0.88-1.192,1.084-1.757c0.124,1.536,1.721,2.552,2.945,1.333c0.818,1.894,2.431,1.819,4.196,1.365
				c0.639,2.181-1.229,1.299-1.843,2.399c-1.019,1.83,2.734,2.579,3.736,2.207c1.17-0.432,1.801-1.719,1.726-2.917
				c0.158,1.424,2.192,0.737,2.919,0.194c0.454,1.994,2.312,2.389,3.75,1.015c0.291,3.292,4.596,3.192,3.691-0.64
				C47.87,19.296,38.397,17.113,30.239,18.732z"/>
			<path fill="#C93712" d="M50.87,14.909c1.79-3.855-5.805-6.699-8.654-4.58c-0.505-4.72-6.46-4.928-9.267-1.55
				c-1.066-1.696-3.438-2.084-3.797-2.14c-1.63-0.256-3.422,0.098-4.474,1.356c1.587-0.036,4.305,2.988-0.474,2.6
				c-1.982-0.161-3.164-0.901-5.129,0.189c-1.593,0.884-2.661,2.415-1.131,3.877c-0.016,0.015-3.545-0.163-4.041,3.03
				c-0.202,1.313,0.339,1.631-0.958,2.628c-0.873,0.671-1.789,1.073-2.938,0.727c0.003,1.287,1.224,2.912,1.843,3.348
				c1.24,0.87,2.589,0.717,3.9,0.062c-0.123,0.808,2.364,7.638,3.418,6.897c-1.732,1.218-2.452,3.643-0.718,4.736
				c0.274,0.17,0.608,0.311,1.009,0.406c-2.634,1.008-0.487,4.926,2.111,3.604c-2.236,2.723,4.548,5.801,4.652,2.555
				c0.028-0.868-0.584-1.82-1.455-1.992c0.446,0.09,0.64,2.07-0.549,1.584c-1.755-0.714,1.263-3.136-0.342-4.098
				c-0.787-0.469-3.078,0.084-2.241-1.371c0.595-1.036,1.898-1.587,0.317-2.822c-0.471-0.365-1.28-0.4-1.331-1.125
				c-0.047-0.678,0.785-0.992,1.094-1.433c1.077-1.551-0.645-3.351-2.046-3.896c0.895-0.063,3.438,0.347,3.127-1.351
				c1.42,1.209,3.459-0.539,2.876-2.183c0.265,0.745,1.609,0.483,2.053,0.174c0.827-0.577,0.737-1.677,1.155-2.507
				c0.181,0.896,0.383,1.793,1.249,2.244c0.868,0.452,1.805,0.286,2.254-0.608c0.551,1.832,2.38,3.302,3.966,1.438
				c0.368,0.7,0.592,1.698,0.089,2.391c-0.759,1.042-1.791-0.028-2.438,0.469c-0.81,0.622,0.696,1.897,1.244,2.064
				c1.067,0.324,2.583-0.23,3.222-1.139c0.521-0.74,0.377-1.586,0.41-2.431c0.909,1.434,2.417,2.384,3.885,0.86
				c1.091,1.345,2.163,1.98,3.688,0.618c0.753,1.22,0.644,2.875,2.423,3.111c2.07,0.276,1.923-2.113,1.535-3.488
				c-0.484-1.728-1.16-5.101,0.824-6.645c1.23-0.957,3.078-0.373,2.521,1.266c1.785-1.181,1.951-2.859,1.147-4.512
				C54.365,16.167,52.717,15.104,50.87,14.909z"/>
			<path fill="#FFF9F0" d="M19.605,41.279c-0.723,0.029-1.298,0.641-1.279,1.364c0.017,0.726,0.616,1.288,1.34,1.259
				c0.724-0.028,1.297-0.639,1.281-1.364C20.93,41.814,20.33,41.252,19.605,41.279z"/>
			<path fill="#E85216" d="M50.181,24.192c-0.053-0.963-0.001-1.534-0.241-2.542c-0.315-1.328-1.089-1.671-2.327-1.611
				c1.429-2.173,4.156-2.563,5.924-0.779c0.638-2.392-2.292-4.469-4.63-3.831c0.477-1.388,0.863-3.099-0.516-4.157
				c-1.477-1.134-3.823-1.21-5.367-0.247c-1.279,0.798-2.701,2.372-4.55,1.254c1.096,0.663,3.667-3.076,0.557-4.37
				c-1.937-0.804-3.594,0.298-4.887,1.594c-0.404,0.406-0.814,0.853-1.028,1.379c-1.348-2.479-3.377-3.976-6.548-3.18
				c2.416,0.012,3.467,3.762,1.305,4.842c-1.258,0.63-2.439-0.697-3.465-1.146c-0.958-0.418-2.419-0.569-3.446-0.281
				c-0.966,0.273-2.213,1.212-2.582,2.123c1.724-0.243,2.751,3.135,6.513,2.025c-1.574,1.347-3.302,1.49-4.741,0.839
				c-0.971-0.439-2.225-0.816-3.321-0.199c-1.592,0.897-1.16,3.136-1.935,4.53c-0.7,1.257-1.378,1.416-2.674,1.805
				c1.391,0.883,2.175,0.963,3.864,0.774c-1.141,0.128-1.79,1.742-1.878,2.622c-0.114,1.149,0.89,2.037,0.733,3.101
				c-0.132,0.899-1.351,1.503-2.188,1.483c0.574,0.624,1.469,0.629,2.242,0.353c0.966-0.345,1.161-1.619,1.958-1.802
				c1.091-0.25,2.249,1.571,2.24,2.413c1.633-0.812-0.341-3.323-1.315-4.049c1.081-0.003,4.048-0.168,3.828-1.683
				c0.132,0.913,2.087-0.021,2.334-0.518c0.345-0.689,0.162-1.752-0.543-2.185c0.612,0.075,1.752,0.647,2.224,0.076
				c0.398-0.484-0.1-1.606-0.368-2.037c4.961,1.849,3.492-3.242,0.466-3.135c2.289-0.212,2.895-0.565,3.128-4.077
				c-0.001-0.011-0.002-0.022-0.003-0.033c0.001-0.069,0.011-0.069,0.005,0.001c-0.001,0.011-0.002,0.021-0.002,0.032
				c0.189,2.034-0.325,4.086,3.126,3.726c-4.973,1.823-2.947,5.831,2.021,4.607c-0.756,0.187-0.793,1.614,0.349,2.416
				c0.705,0.495,2.199,0.194,2.475-0.173c0.901,1.351,1.189,2.542,0.146,3.757c1.2,0.052,1.628-1.735,1.797-2.606
				c0.909,0.534,1.739,1.361,2.858,0.901c0.848-0.347,1.292-1.275,1.834-1.929c0.029,1.5,0.609,2.61,1.521,2.795
				c1.095,0.225,1.948-0.165,2.733-0.993c-0.067,1.26,0.525,2.371,1.201,3.011c0.642,0.607,2.106,1.425,3.377,0.5
				c-0.553,0.007-1-0.26-1.236-0.725c2.102-0.229,3.732-1.365,3.521-3.522C53.235,26.016,50.304,26.39,50.181,24.192z"/>
			<path fill="#E85216" d="M28.942,13.545c0.001,0.011,0.002,0.021,0.003,0.033c0-0.011,0.001-0.021,0.002-0.032
				C28.953,13.476,28.943,13.476,28.942,13.545z"/>
			<path fill="#C93712" d="M41.031,21.386c0.985,3.337,3.873,4.203,5.561,1.447C44.814,24.458,41.861,23.131,41.031,21.386z"/>
			<path fill="#C93712" d="M18.828,25.402c2.052,1.686,4.457,0.02,3.409-2.436C22.03,24.577,20.081,25.867,18.828,25.402z"/>
			<path fill="#C93712" d="M46.786,24.04c-1.208,2.31,1.095,4.099,3.337,2.516C48.428,26.771,46.626,25.308,46.786,24.04z"/>
			<path fill="#C93712" d="M43.917,18.747c1.544,1.748,3.497,2.099,5.751,1.19l-0.106-1.535
				C48.175,19.133,46.042,19.517,43.917,18.747z"/>
			<path fill="#C93712" d="M44.948,14.254c1.545,1.748,2.956,1.606,4.389,1.09l0.235-1.741
				C48.572,14.468,46.472,15.091,44.948,14.254z"/>
			<path fill="#C93712" d="M13.866,23.116l0.489,1.501c2.449,0.026,4.114-1.005,4.846-3.179
				C17.542,22.918,15.44,23.291,13.866,23.116z"/>
			<path fill="#E85216" d="M10.728,29.669l-0.07-0.989c-1.027,1.151-1.765,2.445-0.986,3.843c0.509,0.914,1.906,1.882,3.016,1.08
				c0.447-0.324,0.581-1.158,0.675-1.641c-0.021-0.018-0.043-0.036-0.064-0.054C11.917,32.073,10.43,31.016,10.728,29.669z"/>
			<path fill="#E85216" d="M12.277,35.045l-0.827,0.506c-1.997,0.065-2.972,3.382-2.094,4.791c0.538,0.861,1.645,1.455,2.683,1.635
				c-0.733-1.102-1.424-2.422-1.093-3.756C11.225,37.094,12.259,36.256,12.277,35.045z"/>
			<path fill="#E85216" d="M55.202,30.656c-0.532-0.355-1.144-0.604-1.792-0.714l0.004,0.331c1.801,2.257,1.487,3.983,0.514,6.324
				c0.004,0,0.092,0.083,0.094,0.06C56.488,35.616,57.633,32.276,55.202,30.656z"/>
			<path fill="#E85216" d="M54.048,38.685l-0.835-0.21c-0.342,1.947,2.103,1.465,2.409,2.894
				C56.031,40.17,55.809,38.572,54.048,38.685z"/>
			<path fill="#E85216" d="M12.742,44.449c-1.005,1.005-0.844,3.153,0.242,4.109c0.039-0.625,0.438-1.115,0.43-1.751
				c-0.008-0.585-0.435-1.041-0.367-1.7L12.742,44.449z"/>
		</g>
		<g>
			<path fill="#FF9873" d="M47.613,37.868c-0.438-0.797-1.521-1.007-2.307-1.054c-1.023-0.061-2.423,0.258-1.658,1.828
				c0.409,0.838,4.432,1.643,4.137-0.258C47.756,38.189,47.697,38.02,47.613,37.868z"/>
			<path fill="#FF9873" d="M28.99,37.696c-0.617-0.825-1.843-0.817-2.715-0.69c-1.136,0.166-2.618,0.857-1.511,2.504
				c0.59,0.876,5.15,0.88,4.504-1.253C29.202,38.037,29.106,37.852,28.99,37.696z"/>
			<path fill="#C93712" d="M41.76,29.982c2.235,0.186,4.095-0.498,7.449-0.257C47.961,28.198,43.413,28.22,41.76,29.982z"/>
			<path opacity="0.4" fill="#D14F2E" d="M37.372,38.453c-0.761,0.018-1.067-0.299-1.596,0c-0.527,0.299,0.641,1.32,1.58,1.23
				c1.063-0.1,1.928-0.984,1.642-1.299C38.666,38.02,38.217,38.433,37.372,38.453z"/>
			<path fill="#C93712" d="M23.072,29.829c4.19,0.05,5.604,0.219,8.513,0.11C30.033,27.993,24.9,28.188,23.072,29.829z"/>
			<g>
				<path fill="#261B18" d="M27.766,31.227c-2.215-0.803-3.296,3.273-1.741,4.461c0.669-0.258,1.482-0.243,2.142,0.029
					C29.553,34.83,29.412,31.825,27.766,31.227z"/>
			</g>
			<path opacity="0.7" fill="#E6D2C3" d="M28.125,32.566c-0.913,0.151-0.549,2.014,0.397,1.531
				C29.205,33.75,28.936,32.436,28.125,32.566z"/>
			<g>
				<path fill="#261B18" d="M46.162,31.31c-2.231-1.387-4.115,3.814-1.645,4.528c0.59-0.415,1.305-0.426,1.94-0.334
					C47.291,34.393,47.357,32.052,46.162,31.31z"/>
			</g>
			<path opacity="0.7" fill="#E6D2C3" d="M46.045,32.412c-0.873,0.034-0.725,1.972,0.217,1.606
				C46.939,33.752,46.821,32.385,46.045,32.412z"/>
			<path fill="#121B21" d="M46.222,31.198c-2.037-0.756-2.675,1.659-2.675,1.659s0.969-1.226,2.36-0.473
				c3.157,1.712,5.151-0.438,5.151-0.438C48.584,32.812,47.315,31.606,46.222,31.198z"/>
			<path fill="#121B21" d="M26.29,31.354c-0.807,0.421-2.675,1.679-5.183,0.982c0,0,2.407,2.039,5.405,0.135
				c1.314-0.837,2.46,0.16,2.46,0.16S28.393,30.253,26.29,31.354z"/>
			<g>
				<path opacity="0.8" fill="#E63535" d="M26.998,40.281c2.373,6.596,4.88,8.59,9.348,8.712c4.289,0.117,6.556-2.661,7.082-5.2
					c0.163-0.782,2.045-3.205,2.687-3.774c-2.256,0.823-6.13,0.613-9.673,0.761C33.435,40.906,29.42,41.588,26.998,40.281z"/>
				<path fill="#8F2621" d="M27.912,41.13c0,0,1.721,6.12,8.132,5.864c5.771-0.23,6.653-2.33,7.051-3.8
					c0.529-1.965,2.158-2.75,2.158-2.75C35.206,43.063,27.912,41.13,27.912,41.13z"/>
				<path fill="#FFF9F0" d="M29.61,41.521c0,0-0.009,1.359,1.941,1.773c2.5,0.529,5.324,0.568,8.229,0.117
					c1.955-0.303,3.005-2.252,3.005-2.252S36.999,42.137,29.61,41.521z"/>
				<path fill="#FFF9F0" d="M37.55,45.652c-2.219,0.076-4.127-0.085-5.159-0.352c-0.86-0.222-0.873,0.117-0.717,0.414
					c0,0,0.262,1.22,4.304,1.339c3.533,0.103,5.097-1.487,4.706-1.798C40.293,44.947,39.771,45.576,37.55,45.652z"/>
				<path fill="#E8DAC5" d="M29.61,41.521c0,0-0.022,0.426,0.281,0.795c0,0,9.947-0.68,12.222-0.248c0,0,0.549-0.636,0.672-0.908
					C42.785,41.16,37.523,42.101,29.61,41.521z"/>
				<path fill="#E8DAC5" d="M32.746,45.559c3.47,1.092,7.346-0.092,7.346-0.092C35.763,46.194,32.746,45.559,32.746,45.559z"/>
			</g>
		</g>
	</g>
</g>
</svg>
