<?xml version="1.0" encoding="utf-8"?>
<!-- Generator: Adobe Illustrator 16.0.0, SVG Export Plug-In . SVG Version: 6.00 Build 0)  -->
<!DOCTYPE svg PUBLIC "-//W3C//DTD SVG 1.1//EN" "http://www.w3.org/Graphics/SVG/1.1/DTD/svg11.dtd">
<svg version="1.1" id="Capa_1" xmlns="http://www.w3.org/2000/svg" xmlns:xlink="http://www.w3.org/1999/xlink" x="0px" y="0px"
	 width="67px" height="67px" viewBox="0 0 67 67" enable-background="new 0 0 67 67" xml:space="preserve">
<g>
	<defs>
		<circle id="SVGID_1_" cx="33.524" cy="33.487" r="33.513"/>
	</defs>
	<clipPath id="SVGID_2_">
		<use xlink:href="#SVGID_1_"  overflow="visible"/>
	</clipPath>
	<g clip-path="url(#SVGID_2_)">
		<path fill="#1E1E29" d="M45.358,66.696c0.529-3.61,0.656-6.983-1.521-9.502l-1.71,2.108c0,0-1.705,4.061-2.208,7.695h5.411
			C45.338,66.898,45.344,66.8,45.358,66.696z"/>
		<path fill="#1E1E29" d="M26.049,57.194c-2.178,2.519-2.051,5.892-1.522,9.502c0.015,0.104,0.022,0.202,0.029,0.302h5.411
			c-0.502-3.635-2.208-7.695-2.208-7.695L26.049,57.194z"/>
		<g>
			<path fill="#1E1E29" d="M43.011,56.326c-3.481-2.794-12.731-2.488-15.987-0.135c-3.722,2.689,1.254,4.535,1.881,10.807h11.713
				C41.212,60.943,46.776,59.348,43.011,56.326z"/>
			<circle fill="#3A3A4A" cx="37.15" cy="62.743" r="0.692"/>
			<circle fill="#3A3A4A" cx="37.069" cy="65.202" r="0.692"/>
			<circle fill="#3A3A4A" cx="32.758" cy="62.743" r="0.692"/>
			<circle fill="#3A3A4A" cx="32.84" cy="65.202" r="0.692"/>
			<linearGradient id="SVGID_3_" gradientUnits="userSpaceOnUse" x1="34.9707" y1="53.5449" x2="34.9707" y2="56.883">
				<stop  offset="0" style="stop-color:#EE996D"/>
				<stop  offset="0.0163" style="stop-color:#EE9A6E"/>
				<stop  offset="0.3731" style="stop-color:#F8B181"/>
				<stop  offset="0.7088" style="stop-color:#FDBF8D"/>
				<stop  offset="1" style="stop-color:#FFC491"/>
			</linearGradient>
			<path fill="url(#SVGID_3_)" d="M38.791,54.869c-0.918-0.52-0.71-1.521-0.71-2.627c0-3.492-6.223-3.425-6.223,0
				c0,1.038,0.208,2.107-0.709,2.627c-0.437,0.246-1.01,0.947-0.61,2.186c0.479,1.486,2.797,3.084,4.431,3.823
				c1.635-0.739,3.953-2.337,4.431-3.823C39.801,55.816,39.229,55.115,38.791,54.869z"/>
			<path fill="#918FA0" d="M34.882,52.52c-2.108,0.029-3.409,0.242-4.101,0.922c-1.266,1.244,3.264,5.623,4.174,8.863
				c1.188-3.758,4.94-6.635,4.428-8.486C38.951,52.256,36.99,52.49,34.882,52.52z"/>
			<path fill="#121219" d="M38.909,57.065c-2.417,0.052-3.624,2.476-3.954,5.239c1.601-2.85,2.556-1.563,3.545-0.318
				c0.987,1.245,1.988,0.925,3.209-0.46c0.973-1.104,2.58-2.438,1.701-3.631C43.41,57.896,41.324,57.014,38.909,57.065z"/>
			<path fill="#3A3A4A" d="M40.28,53.85c-1.427-0.882-3.183,2.801-4.173,3.941c-0.988,1.143-1.098,3.269-1.152,4.514
				c0,0,0.877-3.268,1.647-3.476c0.769-0.208,2.361,3.165,3.294,3.165s3.725-3.293,4.312-4.253
				C44.794,56.779,41.709,54.73,40.28,53.85z"/>
			<path fill="#121219" d="M31.002,57.065c-2.416-0.052-4.502,0.83-4.502,0.83c-0.879,1.193,0.729,2.527,1.701,3.631
				c1.221,1.385,2.222,1.705,3.21,0.46c0.988-1.244,2.224-2.41,3.544,0.318C34.626,59.541,33.418,57.117,31.002,57.065z"/>
			<path fill="#3A3A4A" d="M29.629,53.85c-1.428,0.881-4.528,2.916-3.941,3.877s3.394,4.268,4.325,4.268
				c0.935,0,2.526-3.373,3.295-3.165s1.647,3.476,1.647,3.476c-0.055-1.245-0.165-3.371-1.152-4.514
				C32.813,56.65,31.057,52.968,29.629,53.85z"/>
			<path opacity="0.3" fill="#FFFFFF" d="M37.214,54.783c-0.054-0.01-0.106-0.012-0.16,0c-0.303,0.055-0.585,0.233-0.891,0.3
				c-0.778,0.171-1.568,0.097-2.33-0.108c-0.225-0.061-0.449-0.117-0.671-0.189c-0.343-0.113-0.658,0.059-0.338,0.387
				c0.105,0.106,0.23,0.182,0.354,0.26c0.049,0.03,0.265,0.234,0.307,0.231c-0.15,0.009-0.781-0.255-0.636,0.111
				c0.276,0.691,2.239,0.472,2.813,0.388c-0.512,0.135-1.033,0.244-1.542,0.389c-0.663,0.188-0.402,0.626,0.102,0.811
				c0.571,0.212,1.131-0.141,1.604-0.431c0.287-0.177,0.524-0.413,0.758-0.656C36.777,56.07,37.901,54.924,37.214,54.783z"/>
		</g>
		<g>
			<g>
				<path fill="#E0C082" d="M19.688,24.246c-10.31,1.407-11.531,14-6.115,19.895c4.241,4.619,3.769,7.711,0.363,7.975
					c1.982,2.15,15.425,7.152,18.091-9.641C34.69,25.68,24.623,23.57,19.688,24.246z"/>
				<path fill="#FFE1A8" d="M17.991,26.765c-2.646-0.257-7.047,2.84-6.865,9.327c0.087,3.018,1.808,6.396,1.808,6.396
					s-2.273-9.507,7.033-10.469C30.182,30.961,17.991,26.765,17.991,26.765z"/>
				<path fill="#CAA66C" d="M26.052,34.314c-2.036,1.475-7.376-0.219-4.177,9.801c2.26,7.086-0.613,9.634-6.114,8.802
					c0,0,8.439,4.159,15.273-4.287C38.465,39.443,35.207,27.679,26.052,34.314z"/>
				<path fill="#CAA66C" d="M20.317,32.356c-1.97-0.202-3.614,1.275-3.03,5.872c0.583,4.596,4.861,4.035,4.861,4.035
					S22.286,32.559,20.317,32.356z"/>
				<path fill="#E0C082" d="M33.795,9.951c-23.308,0.358-19.484,31.848-9.389,30.838c5.158-0.518,3.937-6.535,8.99-7.679
					c2.48-0.561,5.051-0.544,7.574-0.358c2.455,0.18,6.738,7.063,7.928,5.531C51.728,34.633,54.199,9.637,33.795,9.951z"/>
				<path fill="#FFC59A" d="M34.803,16.841c-10.781,0.346-14.322,7.71-14.047,18.719c0.275,11.012,7.906,18.27,15.867,18.758
					c6.11,0.374,13.821-9.479,13.194-20.476C49.2,22.99,45.167,16.509,34.803,16.841z"/>
				<path opacity="0.3" fill="#D14F2E" d="M34.906,21.394c-0.928,0.248,0.242,1.9,0.242,1.9c0.201-1.131,0.825-0.965,1.468-0.355
					C36.616,22.938,35.834,21.144,34.906,21.394z"/>
				<path opacity="0.3" fill="#D14F2E" d="M37.897,20.657c-1.857-0.053-1.274,2.294-1.274,2.294c0.386-1.253,1.92-1.427,3.332-0.297
					C39.955,22.654,39.758,20.711,37.897,20.657z"/>
				<path opacity="0.3" fill="#D14F2E" d="M26.121,18.821c-8.197,3.208-3.715,19.121-3.715,19.121
					c-2.735-22.395,10.979-15.514,12.742-14.648C33.638,20.84,31.921,16.552,26.121,18.821z"/>
				<path opacity="0.3" fill="#D14F2E" d="M42.771,16.965c-2.112,0.151-2.854,4.181-2.816,5.688c2.038-2.764,6.62-2.068,8.706,3.754
					C48.749,24.082,45.7,16.756,42.771,16.965z"/>
				<path fill="#FFC59A" d="M18.988,32.331c-2.97,1.325-1.769,7.464,0.66,8.583c0.776,0.358,1.604,0.371,2.4,0.249
					c0.016-0.035,0.03-0.07,0.045-0.107c0.357-0.825-0.283-4.92-0.465-5.762C21.17,33.172,20.416,31.694,18.988,32.331z"/>
				<path opacity="0.3" fill="#D14F2E" d="M19.943,34.383c-0.604-0.326-1.88,0.659-1.01,2.331c0.132-1.708,0.874-0.729,0.929,0.458
					c0.036,0.797-0.472,0.895,0.162,1.818c0.344,0.5,0.872,0.203,1.116-0.139C21.915,37.776,20.677,34.781,19.943,34.383z"/>
				<path fill="#E0C082" d="M31.301,11.38c-10.79,2.103-16.181,18.265-7.7,31.248c-1.44-4.284-2.823-16.06-0.115-19.722
					c2.72-3.678,8.588-1.949,11.663,0.388c0.023-0.48,0.104-0.98,0.247-1.418c0.114,0.116,1.078,0.828,1.221,1.063
					c0.373-1.895,2.29-1.502,3.339-0.285c1.087-4.156,7.278-4.487,9.282,6.26c0.223,1.198,0.188-4.649-0.024-5.86
					C48.229,17.438,41.348,9.422,31.301,11.38z"/>
				<path fill="#FFE1A8" d="M44.553,13.513c-9.447,8.667-21.37,0.482-21.37,0.482c-4.542,2.653-5.695,9.093-5.695,9.093
					s2.313,1.238,4.36-1.522c2.049-2.762,5.347-3.015,9.088-2.283c3.738,0.73,7.119-0.439,11.438-0.954
					c4.319-0.516,7.133,4.384,7.133,4.384C48.862,17.338,44.553,13.513,44.553,13.513z"/>
				<circle fill="#FFF9F0" cx="20.586" cy="42.129" r="1.171"/>
			</g>
			<g>
				<path fill="#FFB085" d="M46.223,37.623c-1.082-0.045-2.582,0.336-1.842,2.059c0.394,0.92,4.622,1.723,4.398-0.371
					c-0.023-0.217-0.079-0.404-0.159-0.569C48.193,37.865,47.053,37.66,46.223,37.623z"/>
				<path fill="#FFB085" d="M29.336,38.503c-0.623-0.9-1.908-0.884-2.824-0.741c-1.195,0.184-2.77,0.947-1.656,2.742
					c0.594,0.959,5.371,0.945,4.756-1.388C29.548,38.877,29.455,38.674,29.336,38.503z"/>
				<path opacity="0.3" fill="#D14F2E" d="M37.594,38.855c-0.839-0.016-1.171-0.379-1.76-0.074c-0.59,0.307,0.67,1.485,1.709,1.431
					c1.177-0.061,2.153-0.995,1.848-1.356C39.034,38.436,38.527,38.872,37.594,38.855z"/>
				<path fill="#6E4C3C" d="M41.989,29.041c0,0,1.938-0.188,3.93-0.062c1.992,0.127,4.23,0.622,4.23,0.622s-1.856-1.716-4.295-1.86
					C43.414,27.595,41.989,29.041,41.989,29.041z"/>
				<path fill="#6E4C3C" d="M22.296,29.667c0,0,2.457-0.542,4.642-0.68c2.184-0.141,4.31,0.065,4.31,0.065s-1.563-1.586-4.239-1.425
					C24.334,27.786,22.296,29.667,22.296,29.667z"/>
				<path fill="#1E4C76" d="M43.928,33.132c-0.148,1.657,0.226,2.964,1.688,3.108c2.069,0.205,2.74-1.531,2.88-2.676
					C47.563,33.136,45.461,32.922,43.928,33.132z"/>
				<path fill="#9CD0FF" d="M45.389,33.105c-0.83,0.091-0.484,1.581,0.371,1.225C46.381,34.074,46.125,33.026,45.389,33.105z"/>
				<path fill="#121B21" d="M42.846,33.401c0,0,1.864-0.284,3.668,0c3.664,0.578,4.839,0.167,4.839,0.167
					c-1.982-0.416-3.88-1.398-5.071-1.567C44.104,31.693,42.846,33.401,42.846,33.401z"/>
				<path fill="#1E4C76" d="M24.725,33.564c0.139,1.145,0.812,2.881,2.881,2.676c1.463-0.145,1.835-1.451,1.687-3.108
					C27.758,32.922,25.66,33.136,24.725,33.564z"/>
				<path fill="#9CD0FF" d="M26.822,33.218c-0.737-0.082-0.991,0.969-0.373,1.225C27.308,34.799,27.652,33.308,26.822,33.218z"/>
				<path fill="#121B21" d="M26.94,32.001c-1.192,0.169-3.088,1.152-5.071,1.567c0,0,1.176,0.411,4.838-0.167
					c1.805-0.284,3.67,0,3.67,0S29.117,31.693,26.94,32.001z"/>
				<g>
					<path opacity="0.5" fill="#DE6049" d="M45.391,42.668c-3.269,1.348-11.453,2.227-17.707,0.285
						c-0.069-0.021-0.138-0.031-0.207-0.029c-0.268,0.006-0.512,0.184-0.597,0.451c-0.104,0.338,0.085,0.697,0.423,0.802
						c6.626,2.058,15.047,1.134,18.578-0.323c0.327-0.137,0.483-0.511,0.348-0.839C46.096,42.688,45.719,42.533,45.391,42.668z"/>
				</g>
			</g>
			<g>
				<path fill="#131413" d="M51.734,31.307l-0.342,2.072c0,0,1.417-0.259,1.531-0.348c0.115-0.091,0.127-1.275,0.119-1.557
					C53.035,31.195,51.734,31.307,51.734,31.307z"/>
				<path opacity="0.1" d="M40.291,31.254c-7.751,0.184-21.17,0.473-24.746,1.831l0.405,1.695c0,0,2.862,0.63,4.109,0.386
					c0.358,2.543,1.132,4.852,3.63,5.806c2.332,0.889,6.858,0.483,9.122-1.407c1.778-1.484,1.313-2.875,2.923-4.265
					c1.811-1.564,2.801,0.39,3.34,1.722c0.969,2.389,3.183,3.252,5.613,3.428c2.486,0.184,4.374-0.748,5.114-1.973
					c0.926-1.533,1.899-5.173,0.535-6.481C48.896,30.613,42.654,31.199,40.291,31.254z"/>
				<path fill="#23232D" d="M52.96,31.328c-0.835-1.035-32.091-0.115-32.999,0.963c-0.027,0.033-0.055,0.065-0.082,0.097
					c-0.022,0.183,0.146,1.423,0.146,1.423s0.192-0.035,0.93-0.053c0.322,1.579,0.934,4.236,2.172,5.309
					c1.977,1.714,7.842,1.375,10.442-0.446c1.896-1.329,1.099-5.136,3.503-5.204c1.741-0.048,1.761,3.545,3.427,4.706
					c2.392,1.667,8.793,1.339,10.215-0.194c1.021-1.102,0.862-3.742,1.052-5.334c0.633-0.015,0.598,0.09,1.235,0.046
					c0.046-0.217,0.065-1.036,0.036-1.219C53.012,31.39,52.986,31.358,52.96,31.328z"/>
				<path fill="#23232D" d="M18.681,32.268l-3.86,1l0.117,1.276l1.013,0.235c0,0,3.091-0.482,3.528-0.587
					c0.451-0.107,0.796,0.123,0.964-0.405c0.152-0.476-0.012-1.257-0.163-1.71L18.681,32.268z"/>
				<path fill="#8B95A8" d="M23.626,32.291l26.271-0.701C37.797,30.506,23.626,32.291,23.626,32.291z"/>
				<path fill="#8B95A8" d="M40.509,32.847c-1.281,0.561-0.072,2.174-0.072,2.174s10.467-2.019,9.834-2.407
					C49.637,32.224,41.793,32.287,40.509,32.847z"/>
				<path fill="#8B95A8" d="M22.911,33.685c-1.283,0.561,0.599,3.639,0.599,3.639s5.385-0.673,8.617-1.441
					c2.557-0.609,3.241-2.667,2.963-2.838C34.456,32.656,24.192,33.125,22.911,33.685z"/>
				<polygon fill="#8B95A8" points="15.432,33.305 18.926,33.545 19.654,32.612 18.77,32.604 				"/>
			</g>
		</g>
	</g>
</g>
</svg>
