<?xml version="1.0" encoding="utf-8"?>
<!-- Generator: Adobe Illustrator 16.0.0, SVG Export Plug-In . SVG Version: 6.00 Build 0)  -->
<!DOCTYPE svg PUBLIC "-//W3C//DTD SVG 1.1//EN" "http://www.w3.org/Graphics/SVG/1.1/DTD/svg11.dtd">
<svg version="1.1" id="Capa_1" xmlns="http://www.w3.org/2000/svg" xmlns:xlink="http://www.w3.org/1999/xlink" x="0px" y="0px"
	 width="67px" height="67px" viewBox="0 0 67 67" enable-background="new 0 0 67 67" xml:space="preserve">
<g>
	<defs>
		<circle id="SVGID_1_" cx="33.529" cy="33.519" r="33.518"/>
	</defs>
	<clipPath id="SVGID_2_">
		<use xlink:href="#SVGID_1_"  overflow="visible"/>
	</clipPath>
	<g clip-path="url(#SVGID_2_)">
		<g>
			<path fill="#FFAE6D" d="M40.664,55.423l0.92,4.369c0.334,1.112,0.357,4.413,1.319,7.241h3.501
				C44.73,64.115,45.452,57.234,40.664,55.423z"/>
		</g>
		<g>
			<path fill="#FFAE6D" d="M30.665,55.423c-4.788,1.812-4.065,8.692-5.74,11.61h3.501c0.963-2.828,0.985-6.129,1.32-7.241
				L30.665,55.423z"/>
		</g>
		<g>
			<path fill="#FFAE6D" d="M42.036,65.342c0.364-1.281-2.979-2.062-6.307-2.166c-3.327,0.104-6.669,0.885-6.306,2.166
				c0.189,0.66,0.397,1.203,0.586,1.691h11.438C41.639,66.545,41.848,66.002,42.036,65.342z"/>
			<path fill="#FFAE6D" d="M39.674,54.955c-2.433-0.848-0.914-4.377-4.234-4.377c-3.372,0-1.527,3.327-4.098,4.451
				c-2.571,1.125-3.348,5.938-2.35,8.08c1.778,3.818,10.172,4.367,13.137,0.726C43.856,61.715,43.711,56.355,39.674,54.955z"/>
			<g>
				<g>
					<path fill="#FF392B" d="M40.637,55.225c0,0-0.229-0.219-0.54-0.203c0.74,4.451,0.397,6.407-4.561,6.407
						c-4.909,0-5.138-1.909-4.008-6.568c-0.224,0.03-0.647,0.323-0.647,0.323c-1.061,4.187-2.2,3.891-2.494,6.152
						c-0.17,1.316,0.042,2.605,0.991,3.729c1.276,1.502,11.656,1.346,12.664,0c0.94-1.256,1.186-2.349,1.052-3.448
						C42.871,59.784,41.274,59.982,40.637,55.225z"/>
				</g>
			</g>
			<path fill="#FF6C52" d="M40.025,61.23c-1.115-0.15-2.095,0.516-3.847,0.595c-2.852,0.129-3.881-0.728-4.906-0.709
				c-1.356,0.024-2.661,1.442-1.264,2.423c2.307,1.618,9.967,1.211,11.328,0.012C42.219,62.772,41.702,61.451,40.025,61.23z"/>
		</g>
		<path fill="#F58C5B" d="M32.822,53.326c-0.434,2.281,6.17,2.389,5.854,0.361C38.346,51.586,33.254,51.043,32.822,53.326z"/>
		<g>
			<path fill="#301E18" d="M53.868,29.461c0.104-0.085,0.198-0.171,0.282-0.255c1.447-1.434,0.107-2.737-0.563-4.183
				c-0.793-1.705-0.715-4.231-1.199-6.111c-0.377-1.454-1.666-3.198-1.331-4.716c0.318-1.439,1.602-2.364,1.53-3.957
				c-0.105-2.292-3.67-3.593-5.779-2.099c2.163-3.57-2.898-5.443-5.022-2.631c0.465-5.018-6.421-4.906-7.057-1.004
				c-0.737-4.262-7.481-3.798-7.594,0.482c-3.246-3.644-9.475,0.317-7.842,3.962c-3.7-1.436-7.152,2.773-3.363,5.991
				c-5.509-0.718-4.333,6.267-0.546,5.441c-0.524,1.005-0.51,0.606-0.461,1.704c0.052,1.176,0.81,4.448,0.512,5.617
				c-0.249,0.975-1.268,2.721-0.193,3.683c-1.963-0.945-5.899,2.129-2.992,5.329c-2.755-0.291-4.239,4.398-0.991,5.553
				c-3.311,1.57-0.726,6.592,2.449,5.436c-0.194,1.516-0.647,3.048,0.701,4.254c1.131,1.009,3.063,1.117,4.227,0.181
				c0.073,2.103,4.587,2.585,5.275,0.82c0.649,1.901,4.533,2.607,5.622,0.787c0.529-0.012,0.884,0.339,1.402,0.347
				c1.105,0.022,2.43-0.88,2.918-1.816c0.441-0.854,0.342-1.912,0.979-2.579c1.161-1.216,2.796-0.667,4.196-1.149
				c1.457-0.499,2.037-1.6,2.334-3.034c0.451-2.149,1.352-5.708,4.153-5.987c1.818-0.182,2.558,1.842,4.227,2.086
				c1.669,0.241,3.603-1.008,3.407-2.543c1.851-0.555,1.788-3.119,1.111-4.529C56.172,33.473,55.622,30.781,53.868,29.461z"/>
			<circle fill="#FFF9F0" cx="51.295" cy="38.63" r="1.295"/>
			<g>
				<path fill="#FFAE6D" d="M36.356,16.781c-8.104,0.413-15.828,6.404-15.621,17.609c0.204,11.212,8.407,19.233,16.504,19.782
					c6.216,0.424,14.825-10.143,14.264-21.338C50.944,21.785,44.462,16.366,36.356,16.781z"/>
				<path fill="#FFAE6D" d="M18.097,29.807c-3.502,1.021-2.413,6.378,0.341,7.445c0.883,0.344,1.839,0.389,2.764,0.318
					c0.02-0.032,0.041-0.061,0.06-0.092c0.45-0.698-0.089-4.261-0.258-4.999C20.576,30.628,19.776,29.318,18.097,29.807z"/>
				<path opacity="0.3" fill="#BF3C1B" d="M50.793,18.56c-1.213-1.174-3.377-1.328-4.952-1.618c-4.29-0.79-8.863-0.977-13.183-0.333
					c-2.991,0.441-6.18,1.426-8.078,3.932c-1.809,2.385-4.502,4.768-4.178,8.047c0.084,0.846,0.35,2.501,1.061,3.053
					c1.766,1.375,1.854-1.551,2.063-1.557c1.078-0.033,1.868-0.723,2.455-1.588c1.495,1.438,4.744,0.415,5.927-1.009
					c0.577,0.995,1.747,1.398,2.818,1.552c1.607,0.231,0.733-0.167,1.787,0.904c1.338,1.365,3.832,2.027,5.136,0.172
					c0.571-0.817-0.378-2.174,0.506-2.597c0.798-0.379,1.503,0.714,2.022,1.082c0.945,0.669,2.183,0.754,3.137,0.032
					c1.176,0.573,4.899,0.506,2.715-3.862C49.318,23.348,52.096,19.822,50.793,18.56z"/>
				<path opacity="0.4" fill="#B54319" d="M19.854,31.826c-0.868-0.53-3.273-0.21-2.44,1.592c0.803-1.417,1.668-0.265,1.351,0.781
					c-0.216,0.703-1.072,0.573-0.362,1.634c0.384,0.574,1.343,0.539,1.853,0.346C21.879,35.57,20.907,32.475,19.854,31.826z"/>
				<path fill="#301E18" d="M40.54,11.311c-1.683-0.276-3.242-0.888-4.979-0.978c-2.891-0.15-5.754,0.584-8.4,1.707
					c-3.938,1.67-6.713,5.93-8.119,9.796c-0.818,2.256-1.354,4.821-1.016,7.222c0.313,2.242,2.979,2.855,3.188,4.678
					c0.119,1.045-0.855,2.025-1.815,1.297c-1.218,2.846,5.957,3.313,4.739-0.952c-0.088-0.308-1.495-4.341-1.762-4.301
					c1.656-0.246,2.271-1.305,2.683-2.782c2.707,2.493,4.917,0.628,6.513-1.944c0.44,1.619,3.057,3.244,4.584,2.006
					c0.335,2.052,1.567,3.353,3.668,3.314c0.729-0.013,1.601-0.178,2.167-0.671c0.324-0.287,0.681-1.806,0.712-1.829
					c-0.627,0.476-2.162-0.015-1.584-0.94c0.401-0.644,2.494-0.542,3.254-0.923c0.979,1.687,1.934,2.604,3.667,1.183
					c0.397,0.94,1.233,1.036,2.026,0.554c2.479-1.507,1.629-6.467,0.988-8.721C49.682,14.208,45.335,12.098,40.54,11.311z"/>
				<path fill="#472C23" d="M46.773,20.586c-0.938-0.389-1.422,0.163-2.397,0.355c-0.847,0.167-1.866,0.107-2.714-0.042
					c-0.743-0.13-1.367-0.467-2.043-0.715c-0.92-0.336-1.344-0.226-2.348,0.042c-1.781,0.471-3.523,0.902-5.237,1.589
					c-1.514,0.609-4.086,1.755-4.658,3.437c-0.407,1.201,0.586,1.433,1.494,0.865c0.878-0.552,1.211-1.669,2.019-2.309
					c2.041,1.699,3.838,2.165,6.027,0.359c0.131,1.18,0.823,3.176,2.375,2.924c-0.516-1.68,2.516-2.896,3.771-3.067
					c1.384-0.188,1.172,1.003,2.358,1.557c0.996,0.467,1.951,0.134,2.608-0.634c0.839-0.978,0.979-1.98,0.57-2.818
					C48.284,21.496,47.655,20.955,46.773,20.586z"/>
				<g>
					<path fill="#301E18" d="M29.062,29.402c-1.966,0.276-3.889,1.299-3.804,1.903c0.057,0.393,1.469-0.864,4.182-0.935
						c2.164-0.055,3.984,0.926,4.035,0.029C33.522,29.603,31.213,29.1,29.062,29.402z"/>
					<path fill="#301E18" d="M47.862,29.144c-1.787-0.113-3.661,0.584-3.579,1.374c0.092,0.888,1.536-0.246,3.324-0.375
						c2.236-0.162,3.467,0.967,3.49,0.574C51.135,30.109,49.497,29.253,47.862,29.144z"/>
					<path fill="#FF8F57" d="M47.675,36.578c-1.364-0.199-3.28,0.068-2.452,2.271c0.44,1.176,5.729,2.717,5.576,0.127
						c-0.017-0.268-0.077-0.504-0.168-0.717C50.145,37.133,48.723,36.729,47.675,36.578z"/>
					<path fill="#FF8F57" d="M30.362,36.898c-1.067-0.838-2.694-0.529-3.817-0.169c-1.461,0.476-3.23,1.661-1.268,3.372
						c1.045,0.91,7.112-0.189,5.621-2.596C30.745,37.26,30.564,37.058,30.362,36.898z"/>
					<g>
						<path fill="#1F1A17" d="M30.467,32.172c-1.916-1.13-3.646,2.311-2.411,3.66c0.668-0.107,1.424,0.057,1.989,0.426
							C31.493,35.724,31.896,33.013,30.467,32.172z"/>
					</g>
					<path opacity="0.4" fill="#B54319" d="M39.252,38.752c-0.846,0.004-1.212-0.297-1.777-0.023
						c-0.562,0.272,0.299,1.398,1.792,1.359c1.485-0.039,2.133-1.078,1.788-1.377C40.654,38.362,40.189,38.745,39.252,38.752z"/>
					<g>
						<path fill="#1F1A17" d="M48.775,31.955c-2.127-1.313-4.128,3.309-1.738,4.038c0.566-0.371,1.284-0.547,1.904-0.441
							C49.809,34.6,49.912,32.656,48.775,31.955z"/>
					</g>
					<path fill="#A89191" d="M30.365,33.467c-0.859,0.176-0.436,1.856,0.444,1.376C31.44,34.496,31.129,33.312,30.365,33.467z"/>
					<path fill="#A89191" d="M48.484,33.023c-0.86,0.04-0.723,1.749,0.204,1.415C49.359,34.194,49.248,32.989,48.484,33.023z"/>
					<path fill="#1F1A17" d="M24.231,32.643c0,0,2.038,2.324,4.79,0.718l-0.204-1.112C28.817,32.249,26.588,34.223,24.231,32.643z"
						/>
					<path fill="#1F1A17" d="M48.977,32.105l-0.353,1.072c2.516,1.957,4.843-0.072,4.843-0.072
						C50.924,34.357,48.977,32.105,48.977,32.105z"/>
					<path fill="#FF8F57" d="M39.291,39.344c1.358-0.018,2.902-0.314,1.743-1.993C39.015,34.422,34.621,39.4,39.291,39.344z"/>
					<g>
						<path fill="#DE6049" d="M29.473,41.843c0.915,1.977,3.238,1.075,2.299-0.945C31.366,41.891,30.276,42.282,29.473,41.843z"/>
						<path fill="#DE6049" d="M44.749,40.807c-0.544,2.063,1.942,2.826,2.47,0.809C46.504,42.098,45.343,41.77,44.749,40.807z"/>
						<g>
							<path fill="#DE6049" d="M45.809,41.889c-0.286-0.11-0.595,0.023-0.689,0.295c-0.963,2.777-3.738,4.561-6.935,4.477
								c-3.079-0.078-5.509-1.875-6.478-4.207c-0.113-0.278-0.436-0.425-0.716-0.334c-0.279,0.096-0.414,0.395-0.298,0.673
								c1.11,2.672,3.822,4.729,7.242,4.915c0.098,0.004,0.191,0.009,0.289,0.011c3.677,0.095,6.826-1.938,7.937-5.144
								C46.255,42.302,46.099,41.996,45.809,41.889z"/>
						</g>
					</g>
				</g>
			</g>
			<path fill="#472C23" d="M15.557,35.401c-0.505-1.181-0.199-4.506-2.465-3.233c-1.941,1.089-0.898,3.904,0.122,4.904
				c-3.394,0.707-3.751,3.342-0.56,4.936c-2.348,0.732-3.29,4.029,0.107,4.072c-0.496-2.287,3.249-4.929,5.456-3.609
				c0.024-1.352,0.401-3.42,1.454-4.324C17.91,38.813,16.145,36.777,15.557,35.401z"/>
			<g>
				<path fill="#588A17" d="M31.724,13.215c-13.437-0.491-17.561,6.33-17.505,8.157c0.05,1.658,0.537,5.255,0.613,11.168
					c0.016,1.18,0.804,1.407,1.305,0.497c1.963-3.584,6.148-8.071,12.348-11.226c6.34-3.226,15.611-4.345,16.085-6.837
					C45.039,12.482,36.572,13.391,31.724,13.215z"/>
				<path fill="#85B428" d="M31.615,13.537c-2.989-0.055-5.646,0.299-8.478,1.329c-2.974,1.083-5.161,4.858-4.075,8.114
					c1.438,4.312,7.31-1.191,9.781-2.329c3.051-1.408,6.499-1.556,9.627-2.897l1.248-1.162c0.139-0.151,0.286-0.381,0.373-0.565
					C41.345,13.383,32.927,13.561,31.615,13.537z"/>
				<path fill="#DAEF3F" d="M29.8,16.282c0,0,0.589,0.295,0.801,1.108c0.214,0.812,1.294,0.13,0.806-0.646
					C30.914,15.968,29.8,16.282,29.8,16.282z"/>
				<path fill="#DAEF3F" d="M32.663,16.145c-4.563-3.384-8.779-0.09-8.779-0.09c0.935-0.421,4.563-0.429,5.157,2.345
					C29.638,21.17,36.209,18.775,32.663,16.145z M33.236,17.581c-0.17,0.396-1.17-0.436-1.104,0.296
					c0.015,0.166,0.603,0.486,0.362,0.724c-0.171,0.174-0.394-0.276-0.525-0.345c-0.847-0.439-0.453,0.543-0.562,1
					c-0.71,0.053-0.235-0.719-0.667-0.923c-0.479-0.229-0.51,0.602-0.919,0.508c-0.774-0.175,0.431-0.914,0.131-1.151
					c-0.046-0.035-0.123-0.059-0.246-0.068c-0.182-0.016-0.899,0.38-0.667-0.241c0.072-0.194,0.823-0.301,0.433-0.63
					c-0.271-0.233-0.675,0.342-0.978,0.025c-0.291-0.307,0.32-0.311,0.129-0.581c-0.171-0.24-1.633,0.506-0.827-0.493
					c-0.48-0.303-0.882,0.545-1.315,0.093c0.057-0.043,0.111-0.154,0.155-0.189c-0.133,0.002-0.273-0.107-0.396-0.134
					c0.082-0.219,0.262-0.315,0.493-0.293c0.187,0.014,0.325,0.316,0.456,0.296c0.266-0.046,0.032-0.243,0.151-0.321
					c0.604-0.397,0.193,0.031,0.627,0.254c0.043-0.307,0.163-0.624,0.465-0.431c0.101,0.063-0.08,0.341,0.09,0.436
					c0.257,0.136,0.222-0.11,0.318-0.171c0.138-0.08-0.056-0.332,0.255-0.322c0.276,0.007,0.119,0.16,0.192,0.255
					c0.08,0.097-0.193,0.354,0.105,0.392c0.247,0.03,0.141-0.192,0.24-0.259c0.248-0.169,0.334-0.503,0.601-0.066
					c0.165,0.274-0.209,0.708,0.363,0.463c0.192-0.083,0.265-0.718,0.569-0.111c0.131,0.257-0.338,0.622,0.281,0.601
					c0.193-0.004,0.25-0.365,0.48-0.324c0.42,0.076,0.124,0.704,0.094,0.92c0.156-0.047,0.47-0.281,0.635-0.195
					c-0.022,0.107-0.109,0.208-0.125,0.319c-0.055,0.376-0.392,0.252,0.047,0.417C32.672,17.367,33.436,17.114,33.236,17.581z"/>
				<path fill="#588A17" d="M53.337,16.039c-0.751-1.329-6.97-2.396-11.101-2.38c-4.13,0.018-7.854,3.24-1.796,3.762
					c6.056,0.522,11.228,4.641,12.55,6.343c0.688,0.884,1.43,0.073,1.251-0.636C53.822,21.458,54.088,17.37,53.337,16.039z"/>
				<path fill="#82C126" d="M53.305,21.671c0.033-0.561-0.605-0.262-0.857-0.322c-0.346-0.081-0.919-0.534-0.502-0.851
					c0.252-0.196,0.845,0.344,0.915-0.188c0.102-0.719-1.796-0.018-1.308-0.793c0.162-0.251,0.751,0.094,0.794-0.328
					c0.055-0.505-0.573-0.12-0.759-0.135c-0.346-0.031-1.011-0.411-0.634-0.779c0.339-0.329,0.702,0.346,1.03,0.184
					c0.479-0.242-0.573-0.511-0.658-0.657c-0.344-0.591,0.263-0.377,0.528-0.285c0.164,0.058,0.735,0.6,0.608-0.032
					c-0.06-0.295-0.733-0.326-0.571-0.727c0.184-0.456,0.616,0.353,0.89,0.291c0.477-0.112-0.294-0.553-0.314-0.741
					c-0.05-0.447,0.425-0.321,0.732-0.322c-0.794-1.121-2.758,1.488-3.216,1.941c0,0,0.653,1.678,1.172,2.351
					c0.446,0.576,0.331,1.275,0.681,1.84c0.068,0.112,0.149,0.209,0.242,0.295c0.345,0.333,0.822,0.522,1.217,0.783
					c-0.24-0.159-1.23-1.047-0.947-1.324C52.592,21.633,53.273,22.198,53.305,21.671z"/>
				<path opacity="0.3" fill="#004022" d="M46.224,14.811c-1.823,0.026-3.142,1.023-1.835,2.736l1.211,0.404
					c1.358,0.506,3.471,2.625,4.859,2.545c1.255-0.069-0.783-1.156-0.763-1.785c0.034-1.226,2.856-0.619,3.128-1.979
					C53.209,14.776,47.339,14.794,46.224,14.811z"/>
				<path opacity="0.3" fill="#004022" d="M33.355,13.975c-1.732-0.004-3.469,0.106-5.173,0.403
					c-0.535,0.091-4.026,0.424-2.662,1.418c0.444,0.324,1.716,0.321,2.269,0.359c0.2,0.013,3.005,0.305,2.86,0.564
					c-0.407,0.729-1.993,1.358-0.849,1.975c0.824,0.44,2.408-0.086,3.232-0.268c1.371-0.303,2.721-0.528,4.122-0.653
					c0.462-0.042,1.104,0.003,1.648-0.111c0.32-0.067,0.608-0.189,0.804-0.417C41.844,14.656,34.502,13.977,33.355,13.975z"/>
				<path fill="#85B428" d="M35.762,7.373c-3.049-0.869-6.169,0.667-9.259,0.554c2.703,6.631,6.714,9.915,13.39,7.521
					c0.96-0.344,1.887-0.697,2.875-0.947l-1.607-2.142C39.039,10.272,38.952,8.282,35.762,7.373z"/>
				<path fill="#579418" d="M34.66,9.808c0.668,0.836,2.104,1.814,2.282,2.877c-0.694,0.181-2.176-0.766-2.887-0.991
					c-1.009-0.32-1.995-0.684-2.971-1.086c1.009,3.218,4.713,5.525,8.189,4.972c0.551-0.087,1.36-0.247,1.657-0.745l-1.622-1.457
					C38.926,11.477,36.564,9.908,34.66,9.808z"/>
				<path fill="#85B428" d="M48.449,8.978c-5.089,1.925-6.525,6.421-6.525,6.421c2.664,0.49,4.705,3.153,7.365,2.32
					c3.148-0.988,5.637-4.595,6.577-8.145C54.129,9.674,50.144,8.338,48.449,8.978z"/>
				<path fill="#579418" d="M44.611,14.136c-1.047,3.3,4.287,2.125,5.666,0.854c-0.39-0.216-0.885-0.132-1.311-0.284
					c0.679-1.274,2.125-1.659,2.523-3.292c-1.982,0.445-3.414,2.071-5.358,2.537L44.611,14.136z"/>
				<path fill="#85B428" d="M44.755,11.212c-1.238-0.292-4.208-1.223-5.142,0.032c-0.659,0.886-0.848,4.144-0.736,5.195
					c0.242,2.23,2.881,2.751,4.826,2.782c2.426,0.039,3.353-2.695,3.639-4.734C47.604,12.592,46.524,11.625,44.755,11.212z"/>
				<path fill="#BBE351" d="M45.297,11.538c-0.004-0.001-1.139-0.247-1.139-0.247c-1.181-0.034-2.419-0.44-3.506,0.196
					c-1.029,0.605-0.547,1.324-0.953,2.279c0.242-0.353,0.331-0.824,0.58-1.205c0.328,1.334,0.967,0.583,0.678-0.444
					c-0.054,0.003,0.32-0.088,0.283-0.074c0.082,0.346,0.123,0.709,0.223,1.049c0.67,2.324,0.625-0.587,1.136-0.879
					c0.985-0.56-0.003,2.445,0.337,2.716c0.908,0.718,1.017-2.294,1.154-2.67c0.917,0.46-0.257,1.879,0.557,2.183
					c0.872,0.324,0.479-1.551,0.771-1.924c0.945,0.588,0,1.305,0.383,1.977c0.399,0.7,0.631-1.02,0.725-1.138
					c0.769,0.446,0.223,1.6,0.211,2.33c-0.007,0.003,0.089,0.034,0.084,0.018C47.595,14.402,46.911,11.893,45.297,11.538z"/>
				<path fill="#BBE351" d="M35.369,7.532c-1.955-0.366-3.825,0.231-5.771,0.476c-0.8,0.103-1.704,0.04-2.433,0.4
					c0.371,0.88,0.826,1.891,1.527,2.553c0.334-0.747-0.946-1.415-0.906-1.553c0.213-0.727,0.814-0.129,1.3,0.048
					c-0.245-0.278-0.208-0.528-0.276-0.852c0.475,0.159,0.769,0.49,1.258,0.474c-0.21-0.45-0.169-0.702,0.275-0.753
					c0.357-0.042,0.555,0.637,1.021,0.605c0.149-0.009-0.167-0.665,0.317-0.73c0.436-0.057,0.249,0.774,0.848,0.568
					c0.103-0.035,0.174-0.823,0.189-0.98c0.686,0.282,0.149,1.01,1.057,1.115c0.014-0.008,0.025-0.016,0.041-0.024
					c-0.121-0.37-0.055-0.672,0.125-0.984c0.484,0.251,0.255,0.859,0.438,1.004c0.946,0.75,0.37-0.229,0.646-0.4
					c0.401-0.249,0.157-0.722,0.804-0.07c0.277,0.279-0.571,0.917,0.343,0.947c-0.02-0.29,0.2-0.619,0.223-0.867
					c0.949,0.191,0.128,0.844,0.536,1.194c0.496,0.427,0.529-0.148,0.424-0.535c0.142,0.024,1.802,1.959,1.879,2.137l-0.365-0.839
					C37.898,8.84,37.294,7.891,35.369,7.532z"/>
				<path fill="#BBE351" d="M48.941,9.316c-1.467,0.075-2.143,0.919-3.25,1.822c0.255-0.207,0.981-0.179,1.336-0.356
					c0.541-0.271,0.877-0.891,1.549-0.922c-0.094,0.325-0.089,0.613-0.396,0.887c0.883,0.285,1.133-1.598,1.844-0.95
					c0.199,0.185-0.789,0.807-0.003,1.059c0.483,0.152,0.835-0.795,1.248-0.809c0.577-0.019,0.698,0.343,0.396,0.848
					c0.712,0.189,1.349-0.747,1.992-0.372c0.321,0.189-0.854,0.654,0.123,0.854c0.028,0.007,0.596-0.556,0.806-0.612
					c0.202-0.054-0.885,1.072-0.87,1.038c-0.229,0.447-0.127,1.063-0.146,1.58c0.641-1.01,1.635-2.119,1.664-3.377
					c-0.652-0.156-1.259-0.091-1.914-0.136C51.856,9.769,50.418,9.241,48.941,9.316z"/>
				<path fill="#579418" d="M40.676,16.644c-0.573-0.291-1.096-0.6-1.417-1.167c-0.621,3.297,5.028,4.519,6.892,2.183
					c0.402-0.506,0.628-1.072,0.739-1.705l-0.3,0.458C45.965,18.683,42.125,17.369,40.676,16.644z"/>
				<path fill="#DAEF3F" d="M19.605,16.123c0.439-0.107,0.063,0.719,0.063,0.749c0.184,1.64,1.08-0.751,1.773,0.02
					c-0.255,0.347-0.454,1.112,0.296,0.995c0.621-0.097,0.374-1.299,1.301-0.552c-0.109,0.12-0.313,0.387-0.297,0.563
					c0.132,1.708,0.736-0.196,1.235-0.247c0.847-0.082-0.374,1.758,0.765,1.386c0.364-0.118,0.115-0.759,0.622-0.715
					c0.591,0.051,0.232,0.563,0.337,0.767c0.577,1.133,0.479,0.015,1.021-0.191c0.984-0.372,0.725,0.88-0.09,1.154
					c-0.232,0.08-0.775-0.135-0.837,0.247c-0.071,0.453,0.455,0.154,0.614,0.246c0.674,0.398,0.613,0.5-0.155,0.695
					c-0.366,0.094-1.427,0.194-0.716,0.747c0.156,0.122,1.458-0.087,0.451,0.595c-0.196,0.134-0.521-0.086-0.742,0.03
					c-0.24,0.126-0.384,0.669-0.492,0.907c1.436-0.582,1.726-1.048,2.427-2.379c0.396-0.75,0.833-1.574,1.212-2.288
					c-1.19-0.423-2.412-0.861-3.61-1.288C23.547,17.121,20.872,15.814,19.605,16.123z"/>
				<path fill="#DAEF3F" d="M21.192,21.156c-1.144,0.334-0.699,1.894,0.212,1.292c0.914-0.601,1.74-0.394,1.74-0.394
					S22.34,20.82,21.192,21.156z"/>
				<path fill="#DAEF3F" d="M41.386,15.458c-0.996-0.288-1.297-0.973-1.297-0.973s-0.533,1.257,0.379,1.857
					C41.385,16.942,42.38,15.743,41.386,15.458z"/>
				<path fill="#DAEF3F" d="M45.346,15.414c-0.163,0.793-0.722,1.108-0.722,1.108s1.101,0.257,1.537-0.518
					C46.597,15.232,45.514,14.618,45.346,15.414z"/>
				<path fill="#DAEF3F" d="M31.876,9.526c-0.889,0.193-0.639,1.401,0.089,0.994c0.726-0.407,1.34-0.205,1.34-0.205
					S32.764,9.336,31.876,9.526z"/>
				<path fill="#DAEF3F" d="M51.386,13.858c-0.052,0.658-0.468,0.965-0.468,0.965s0.91,0.097,1.18-0.566
					C52.371,13.594,51.438,13.204,51.386,13.858z"/>
				<path fill="#8CCE29" d="M16.539,20.773c-0.266,1.16-1.086,1.605-1.086,1.605s1.603,0.404,2.26-0.718
					C18.371,20.54,16.803,19.614,16.539,20.773z"/>
				<path fill="#8CCE29" d="M17.206,25.374c0,0-0.995,0.909-0.487,1.859s1.865,0.296,1.154-0.402
					C17.162,26.13,17.206,25.374,17.206,25.374z"/>
				<path fill="#DAEF3F" d="M32.563,14.303c0.852,0.449,1.602,0.122,1.602,0.122l-1.768-1.54
					C32.396,12.885,31.713,13.854,32.563,14.303z"/>
				<path fill="#DAEF3F" d="M48.546,11.638c-0.663,0.603-0.601,1.356-0.601,1.356l1.928-1.07
					C49.873,11.923,49.207,11.034,48.546,11.638z"/>
				<path fill="#BBE351" d="M15.846,18.967c0,0,0.24,0.98,1.982-0.573c1.74-1.548,4.927-3.439,9.137-4.547
					C26.965,13.847,19.381,14.375,15.846,18.967z"/>
			</g>
			<path fill="#472C23" d="M41.55,6.609c-0.271-4.713-5.257-6.024-6.771-1.004c-0.514-4.417-7.529-4.79-7.216,0.37
				c-3.737-3.974-9.849,0.564-7.03,3.847c-2.795-1.351-8.359,1.463-3.416,5.505c-4.057-0.931-6.126,3.85-2.787,4.419
				c0,0,2.3-6.183,9.625-6.901c1.738-0.171,2.445-1.237,2.144-2.116c-0.302-0.882-0.434-3.031-0.434-3.031s3.49-1.517,8.144-1.609
				c4.65-0.092,6.85,3.927,6.85,3.927c4.238-0.536,3.432,2.243,5.559-1.246C48.342,5.283,44.524,2.626,41.55,6.609z"/>
			<circle fill="#FFF9F0" cx="19.472" cy="39.513" r="1.295"/>
		</g>
	</g>
</g>
</svg>
