<?xml version="1.0" encoding="utf-8"?>
<!-- Generator: Adobe Illustrator 16.0.0, SVG Export Plug-In . SVG Version: 6.00 Build 0)  -->
<!DOCTYPE svg PUBLIC "-//W3C//DTD SVG 1.1//EN" "http://www.w3.org/Graphics/SVG/1.1/DTD/svg11.dtd">
<svg version="1.1" id="Capa_1" xmlns="http://www.w3.org/2000/svg" xmlns:xlink="http://www.w3.org/1999/xlink" x="0px" y="0px"
	 width="67px" height="67px" viewBox="0 0 67 67" enable-background="new 0 0 67 67" xml:space="preserve">
<g>
	<defs>
		<circle id="SVGID_1_" cx="33.506" cy="33.494" r="33.494"/>
	</defs>
	<clipPath id="SVGID_2_">
		<use xlink:href="#SVGID_1_"  overflow="visible"/>
	</clipPath>
	<g clip-path="url(#SVGID_2_)">
		<g>
			<path fill="#85B428" d="M26.459,56.733c-4.178,1.646-8.227,5.267-9.232,10.255h7.408C26.573,62.053,27.727,56.233,26.459,56.733z
				"/>
		</g>
		<g>
			<path fill="#85B428" d="M40.532,56.733c-1.267-0.5-0.114,5.319,1.825,10.255h7.408C48.76,62,44.711,58.379,40.532,56.733z"/>
		</g>
		<g>
			<path fill="#85B428" d="M33.461,55.645c-8.217,0.043-9.215,2.688-9.105,2.99c0.271,0.749-0.148,4.389,0.061,8.354H42.53
				c0.297-4.021,0.013-7.619,0.416-8.401C43.103,58.281,41.926,55.604,33.461,55.645z"/>
			<path fill="#BBE351" d="M27.895,56.453c-1.87,2.752,5.602,5.826,5.602,5.826s6.606-2.875,5.896-5.361
				C38.555,53.971,29.576,53.979,27.895,56.453z"/>
			<path fill="#8F4721" d="M33.521,50.867c-1.905-0.004-4.589,1.142-4.779,4.15c-0.089,1.4,0.113,2.211,0.817,2.988
				c1.125,1.242,2.52,2.249,3.962,2.278c1.442-0.029,2.835-1.036,3.962-2.278c0.704-0.777,0.905-1.588,0.816-2.988
				C38.109,52.009,35.425,50.863,33.521,50.867z"/>
		</g>
		<g>
			<path fill="#261B18" d="M51.441,16.037c0.793-0.991-0.414-2.596-1.648-2.491c0.257-0.941-0.581-1.668-1.691-1.187
				c-0.091-1.766-1.637-2.115-3.018-1.554c-0.301-1.214-1.508-1.574-2.416-0.727c-0.316-1.514-2.049-1.379-3.17-0.71
				c-0.855-1.196-2.49-1.434-3.678-0.528c-1.038-1.069-2.945-0.677-3.907,0.391c-1.183-1.014-2.502-0.484-3.225,0.764
				c-1.141-1.195-2.649-0.056-3.469,0.977c-1.11-1.011-2.8-0.092-3.167,1.21c-1.168-0.565-2.991,0.242-3.143,1.645
				c-1.694-0.146-3.474,1.37-2.434,3.066c-1.265,0.195-2.614,1.72-1.257,2.754c-1.361,0.144-1.446,1.622-0.723,2.505
				c-1.517,0.699-1.624,3.935-0.25,3.15c-1.065,0.609-1.161,2.01,0.22,2.178c-0.996,0.657-2.005,2.048-0.096,2.275
				c-0.642,0.61-1.121,2.013,0.051,2.329c-0.696,1.233-0.701,1.715,0.528,2.602c-0.328-0.236-0.257,1.461-0.191,1.611
				c0.285,0.664,1.013,1.071,1.549,1.495c0.966,0.763,1.633,1.724,2.466,2.653c2.186,2.443,3.75,5.363,5.874,7.801
				c2.05,2.355,4.401-1.691,6.121-2.676c2.28-1.305,5.054-2.01,7.673-1.621c2.324,0.345,3.959,2.771,6.321,2.824
				c2.448,0.053,3.503-3.459,3.979-5.266c0.309-1.169,0.386-2.806,0.984-3.737c0.525-0.815,1.756-1.298,0.881-2.645
				c0.757,0.063,1.156-1.634,0.241-1.917c0.919-0.148,0.996-1.581,0.298-2.03c1.142-0.417,1.548-1.204,0.241-1.813
				c1.937-0.437,1.03-2.551-0.435-2.922c1.489-0.658,1.635-2.175,0.508-2.62c1.306-0.417,1.521-2.162,0.44-2.521
				c1.106-0.417,0.861-1.808-0.082-2.718C53.186,18.39,53.264,15.58,51.441,16.037z"/>
			<path fill="#9C552C" d="M31.371,14.061c-8.496,1.657-14.483,13.873-12.924,25.333c1.17,8.585,7.79,18.001,17.763,17.293
				c10.175-0.725,15.238-13.346,13.923-23.902C48.705,21.308,43.27,11.742,31.371,14.061z"/>
			<path fill="#261B18" d="M28.359,29.332c-2.682-0.354-5.707,0.396-6.537,1.99c3.958-0.525,7.342,1.347,8.742,0.333
				C32.063,30.572,30.587,29.623,28.359,29.332z"/>
			<path fill="#261B18" d="M44.797,28.886c-2.084,0.392-3.498,1.421-2.148,2.467c1.262,0.98,4.488-1.075,8.147-0.701
				C50.09,29.056,47.307,28.415,44.797,28.886z"/>
			<path opacity="0.4" fill="#661004" d="M42.317,15.866c-3.347-1.002-6.808-1.557-10.302-1.618
				c-3.103-0.055-6.472-0.229-9.363,1.08c-1.59,0.719-3.539,1.705-4.135,3.463c-0.738,2.188-0.383,4.943-0.024,7.179
				c0.395,2.448,0.99,4.949,2.293,7.09c0.103-1.521,0.782-2.964,1.117-4.443c1.077-4.762,4.139-6.486,7.822-7.101
				c3.059-0.511,6.546-0.255,9.68-0.338c1.679-0.044,11.401,1.6,9.315-2.298C47.784,17.131,44.035,16.38,42.317,15.866z"/>
			<path fill="#9C552C" d="M15.483,34.621c-4.171,1.148-2.498,7.238,0.909,8.461c1.093,0.393,2.252,0.445,3.371,0.367
				c0.021-0.033,0.043-0.067,0.066-0.104c0.499-0.792-0.199-5.232-0.453-6.068C18.733,35.173,17.485,34.068,15.483,34.621z"/>
			<path opacity="0.4" fill="#661004" d="M16.947,36.863c-0.938-0.434-3.277,0.346-2.177,2.178c0.579-1.699,1.616-0.586,1.457,0.622
				c-0.106,0.812-0.978,0.821-0.112,1.862c0.468,0.563,1.415,0.353,1.894,0.053C19.527,40.62,18.092,37.39,16.947,36.863z"/>
			<path fill="#261B18" d="M38.297,10.594c-2.834-0.548-5.879-0.603-8.738-0.263c-4.811,0.574-10.616,2.857-12.138,7.954
				c-0.935,3.132-0.447,6.762-0.207,9.962c0.146,1.938-0.637,5.68,1.021,7.142c1.928,1.704,2.692-0.859,2.876-2.7
				c0.205-2.068,0.044-4.329,0.642-6.345c1.455-4.895,4.055-5.835,11.099-6.377c3.654-0.28,12.684-0.975,14.419,2.277
				c0.646,1.21,5.952-2.351,1.166-7.671C46.352,12.255,41.25,11.164,38.297,10.594z"/>
			<g>
				<path fill="#BF6C3C" d="M49.136,36.634c-0.835-0.792-2.231-0.657-3.203-0.435c-1.272,0.288-2.858,1.16-1.333,2.756
					c0.813,0.849,6.016,0.382,4.942-1.766C49.43,36.967,49.295,36.783,49.136,36.634z"/>
				<path fill="#BF6C3C" d="M28.544,37.582c-0.665-0.931-2.063-1.105-3.062-1.109c-1.304-0.001-3.685,0.873-2.041,2.443
					c1.184,1.132,6.031,1.543,5.393-0.721C28.77,37.959,28.67,37.758,28.544,37.582z"/>
				<path fill="#261B18" d="M27.52,32.155c-3.039-0.822-4.951,2.568-2.88,3.675c0.967-0.179,2.109-0.112,3.011,0.16
					C29.688,35.326,29.78,32.769,27.52,32.155z"/>
				<path opacity="0.4" fill="#661004" d="M37.319,39.162c-1.28,0.016-2.404-0.567-3.605-0.035
					c-1.199,0.531,0.179,2.236,3.573,2.154c3.38-0.08,4.32-1.629,3.688-2.207C40.246,38.402,38.738,39.146,37.319,39.162z"/>
				<path fill="#BF6C3C" d="M37.244,32.972c-2.406-0.208-4.297,4.457-3.273,5.985c0.718,1.07,6.013,1.035,6.844-0.221
					C41.117,38.279,39.537,33.171,37.244,32.972z"/>
				<path opacity="0.7" fill="#F0DED1" d="M26.437,32.747c-1.233,0.263-0.294,1.771,0.908,1.222
					C28.214,33.572,27.534,32.514,26.437,32.747z"/>
				<path fill="#261B18" d="M47.196,31.634c-3.121-0.411-4.564,3.206-2.363,4.026c0.933-0.305,2.073-0.393,3.005-0.241
					C49.77,34.489,49.519,31.941,47.196,31.634z"/>
				<path opacity="0.7" fill="#F0DED1" d="M46.203,32.365c-1.188,0.424-0.057,1.794,1.063,1.092
					C48.073,32.947,47.259,31.988,46.203,32.365z"/>
				<g opacity="0.8">
					<path fill="#541D15" d="M45.275,40.789c-1.187,2.529,1.974,3.543,3.128,1.067C47.339,42.43,45.86,41.994,45.275,40.789z"/>
					<path fill="#541D15" d="M24.525,42.346c0.786,2.464,4.102,1.413,3.291-1.104C27.055,42.455,25.505,42.908,24.525,42.346z"/>
					<g>
						<path fill="#541D15" d="M46.369,42.264c-0.379-0.104-0.804,0.095-0.947,0.439c-1.213,2.915-4.415,5.237-8.549,5.466
							c-4.297,0.245-8.102-1.835-9.501-5.216c-0.137-0.33-0.559-0.479-0.941-0.333c-0.38,0.145-0.582,0.53-0.444,0.86
							c1.617,3.904,5.932,6.271,10.873,5.994c0.131-0.008,0.26-0.018,0.389-0.026c4.591-0.378,8.159-3.029,9.549-6.372
							C46.941,42.73,46.749,42.368,46.369,42.264z"/>
					</g>
				</g>
			</g>
			<path fill="#45362E" d="M17.728,22.82c-0.007-0.001-0.011,0.001-0.017,0c0.008,0,0.016,0.003,0.024,0.003
				C17.771,22.822,17.768,22.821,17.728,22.82z"/>
			<path fill="#45362E" d="M49.1,15.964c0.32-0.894-0.438-2.162-1.454-1.554c0.678-0.929-0.542-2.683-1.53-1.249
				c-0.244-0.54,0.031-1.028-0.799-0.99c-0.734,0.036-0.922,0.635-1.229,1.19c-0.342-1.064-0.391-2.447-1.704-2.869
				c-1.513-0.484-1.784,0.888-2.498,1.794c-0.374-0.633-0.463-1.457-1.127-1.917c-0.918-0.636-1.389,0.275-1.829,0.961
				c-0.512-0.334-0.673-1.018-1.396-0.759c-0.806,0.289-1.073,1.514-1.46,2.186c-0.699-0.797-1.283-2.087-2.408-2.354
				c-1.438-0.34-2.033,0.759-2.546,1.816c-0.573-0.316-0.926-0.894-1.667-0.596c-0.695,0.279-0.947,1.117-1.173,1.761
				c-0.687-0.489-1.675,0.003-1.483,0.897c-0.439-0.896-1.947-1.372-2.832-1.071c-0.688,0.233-0.998,0.669-1.029,1.184
				c-0.023,0.391,0.113,0.825,0.37,1.252c-1.276-0.65-1.729,0.407-1.081,1.514c-0.509-0.476-1.806-1.319-2.508-0.871
				c-0.698,0.447-0.572,2.485-0.113,3.03c0.003-0.015-0.007-0.02-0.027-0.02c-1.326,0.176-0.328,0.892,0.424,1.121
				c-1.945-0.593-1.587,2.394-0.287,2.399c0.006,0.001,0.01-0.001,0.017,0c0.04,0.001,0.043,0.002,0.008,0.003
				c-0.009,0-0.017-0.003-0.024-0.003c-1.268-0.211-1.5,1.563-0.351,1.857c-1.466-0.31-0.76,1.168,0.204,1.406
				c1.292,0.318,1.6-0.997,0.557-1.595c1.391,0.799,1.702-0.619,0.712-1.464c1.753,0.724,0.814-1.902,0.505-2.595
				c0.502,0.223,0.977,0.874,1.572,0.721c0.658-0.169,0.671-1.053,0.646-1.626c0.246,0.689,1.506,1.308,2.113,0.768
				c0.497-0.438,0.282-1.773,0.443-2.359c0.428,0.574,1.473,2.051,2.386,1.618c0.687-0.328,0.455-1.658,0.646-2.287
				c0.385,0.945,1.368,1.84,2.449,1.745c1.358-0.118,1.421-1.004,1.799-2.195c0.198,0.75,1.149,1.867,2.075,1.794
				c1.171-0.093,1.377-1.249,1.805-2.295c1.195,2.252,3.756,2.688,4.674,0c0.717,3.515,3.483,2.195,5.41,0.603
				c-0.321,1.981,1.134,2.58,2.25,1.064c-0.949,1.289,0.503,2.258,1.742,1.913c0.73-0.203,1.203-0.795,1.298-1.554
				c0.061-0.498-0.084-0.984-0.356-1.4C50.223,16.831,49.145,15.837,49.1,15.964z"/>
		</g>
	</g>
</g>
</svg>
