<?xml version="1.0" encoding="utf-8"?>
<!-- Generator: Adobe Illustrator 16.0.0, SVG Export Plug-In . SVG Version: 6.00 Build 0)  -->
<!DOCTYPE svg PUBLIC "-//W3C//DTD SVG 1.1//EN" "http://www.w3.org/Graphics/SVG/1.1/DTD/svg11.dtd">
<svg version="1.1" id="Capa_1" xmlns="http://www.w3.org/2000/svg" xmlns:xlink="http://www.w3.org/1999/xlink" x="0px" y="0px"
	 width="67px" height="67px" viewBox="0 0 67 67" enable-background="new 0 0 67 67" xml:space="preserve">
<g>
	<defs>
		<circle id="SVGID_1_" cx="33.5" cy="33.5" r="33.5"/>
	</defs>
	<clipPath id="SVGID_2_">
		<use xlink:href="#SVGID_1_"  overflow="visible"/>
	</clipPath>
	<g clip-path="url(#SVGID_2_)">
		<g>
			<path fill="#62698A" d="M26.506,59.351c0.315-1.206,0.955-5.902-0.104-5.69c-4.781,0.96-6.188,8.084-5.288,13.338h5.751
				C27.087,63.848,26.201,60.519,26.506,59.351z"/>
		</g>
		<g>
			<path fill="#62698A" d="M45.796,53.66c-1.059-0.212-0.419,4.484-0.104,5.69c0.306,1.168-0.58,4.497-0.358,7.647h5.751
				C51.984,61.744,50.576,54.62,45.796,53.66z"/>
		</g>
		<g>
			<path fill="#323240" d="M28.007,52.532c-4.119-0.132-5.388,9.106-2.383,11.362c0.708,0.531,1.782,0.629,2.589,0.248
				c-0.007-2.33,0.587-4.681,0.818-7.019c0.09-0.926,0.635-3.399-0.074-4.157C28.68,52.668,28.351,52.543,28.007,52.532z"/>
			<path fill="#323240" d="M43.48,54.42c1.596,2.73,0.975,6.307,0.965,9.369c0.7,0.369,1.628,0.275,2.24-0.241
				c2.205-1.854,1.932-7.486-0.315-10.187C45.209,51.967,42.184,52.199,43.48,54.42z"/>
			<path fill="#E62628" d="M43.682,52.063c-3.064-1.866-13.352-1.324-15.979,0.908c-1.617,1.375-1.711,6-1.62,10.326
				c0.026,1.29,0.063,2.538,0.128,3.701h19.76c0.021-1.334,0.035-2.761,0.106-4.145C46.304,58.483,46.452,53.752,43.682,52.063z"/>
			<path opacity="0.3" fill="#870708" d="M37.721,55.723l-2.563-0.246c0.056,1.543,0.647,6.229,0.622,11.521h2.342
				C38.202,63.498,38.155,59.343,37.721,55.723z"/>
			<path fill="#FFF9F0" d="M37.376,55.723l-1.54-0.246c0.032,1.543,0.389,6.229,0.373,11.521h1.408
				C37.666,63.498,37.638,59.343,37.376,55.723z"/>
		</g>
		<g>
			<path opacity="0.3" fill="#870708" d="M44.477,53.227c-1.459-0.918-5.329,0.114-6.844,0.654
				c-1.524,0.546-6.683,3.586-2.897,4.685c1.191,0.347,2.579,0.062,3.757-0.198c0.311-0.067,3.038-0.613,3.063-1.004
				c-0.343,5.069-6.463,3.793-9.098,1.277c-1.212-1.156-1.686-5.102-4.255-3.918c-0.016,0.006-0.031,0.014-0.047,0.021
				c-0.653,0.328-0.987,1.056-1.091,1.721c-0.294,1.844,0.278,4.064,0.793,5.825c0.389,1.327,1.9,5.289,3.044,2.212
				c0.157-0.422,0.359-1.347,0.421-1.785c1.374,2.295,4.165,2.74,6.667,2.559c4.4-0.32,8.363-2.969,8.254-7.352
				C46.209,56.544,45.806,54.063,44.477,53.227z"/>
			<path fill="#FF9819" d="M31.354,52.689l-2.661-2.809c-1.572,0.34-2.27,9.518-3.364,17.117h5.697
				C31.737,62.264,31.714,57.41,31.354,52.689z"/>
			<path fill="#FF9819" d="M38.785,47.36c-4.07-0.525-11.395-0.517-10.474,5.824c0.659,4.537,6.532,5.06,10.352,4.413
				C45.28,56.475,46.041,48.296,38.785,47.36z"/>
			<path fill="#FF9819" d="M43.271,51.861c-1.545-0.027-0.869,3.344-0.854,4.191c0.036,1.957-0.613,3.355-2.784,3.746
				c-1.721,0.309-3.389-0.06-4.5-1.363c-1.752-2.053-2.08-5.586-4.404-7.117c-0.885-0.582-1.518-0.639-1.963-0.371
				c-1.27,0.762-1.005,4.166-0.688,5.517c0.55,2.344,2.001,4.427,3.794,6.065c3.149,2.875,8.264,2.705,11.589,0.135
				c1.689-1.306,2.34-3.098,2.257-5.151C45.673,56.413,45.047,51.895,43.271,51.861z"/>
			<path fill="#FFB224" d="M44.42,55.574c-0.126-0.99-0.717-1.672-1.13-0.424c-0.562,1.694-0.202,2.955-1.731,4.21
				c-1.537,1.263-3.604,2.219-5.524,1.098c-1.96-1.147-2.845-2.962-4.038-4.69c-0.369-0.534-1.108-0.819-1.028,0.242
				c0,0-0.177,0.005-0.171,0c-0.167,0.137-2.441-5.072-1.856-0.328c0.03,0.229,0.064,0.455,0.108,0.676
				c0.448,2.307,1.703,4.232,3.762,5.602c2.736,1.82,6.348,2.347,9.261,0.52c1.614-1.012,2.315-2.557,2.801-4.281
				c-0.328,0.057-0.625,0.229-0.881,0.438C44.271,57.736,44.539,56.524,44.42,55.574z"/>
			<path fill="#FFB224" d="M35.039,55.393c-0.054-0.012-0.087-0.01-0.131-0.014c-0.039-0.006-0.078-0.002-0.116-0.006L35.039,55.393
				z"/>
			<path fill="#FFB224" d="M41.248,55.305c0.195-0.246,1.186-1.211,0.878-1.571c-0.22-0.255-1.167,0.272-1.421,0.37
				c-1.297,0.496-2.598,1.115-4.001,1.252c-0.603,0.058-1.195,0.088-1.796,0.023c0.044,0.004,0.077,0.002,0.131,0.014l-0.247-0.02
				c0.038,0.004,0.077,0,0.116,0.006c-0.76-0.096-0.26,0.598,0.226,0.793c-0.926,0.486,0.88,0.977,1.151,0.992
				c1.365,0.086,2.938-0.16,4.212-0.621c0.773-0.28,1.603-0.73,2.026-1.44C42.288,54.805,41.574,55.242,41.248,55.305z"/>
			<path fill="#ED671A" d="M29.3,51.539c1.7,3.859,11.675,3.055,13.805,0.32C47.414,46.324,27.093,46.529,29.3,51.539z"/>
			<path fill="#FFB224" d="M30.254,60.311c-0.65,1.146-0.785,2.429-1.32,3.599c-0.088-1.743,0.096-3.685-0.341-5.36
				c-0.588,1.01-0.724,2.672-0.817,3.645L27.5,59.989c-0.239,2.253-0.335,4.653-0.623,7.009h3.148
				C30.461,64.767,30.696,62.508,30.254,60.311z"/>
		</g>
		<g>
			<path fill="#3D2518" d="M51.927,17.945c0.665,0.285,1.384,0.429,2.1,0.476c-0.267-0.663-3.063-7.496-8.919-8.53
				c0.859-0.638,2.369-0.774,3.417-0.901c-1.826-1.054-6.199-2.983-10.446-1.3c-0.249-0.04-2.679-1.869-4.801-1.92
				c0.271,0.425,1.577,1.377,1.617,1.884c-2.881-1.049-5.435-0.497-8.402,0.301c-1.364,0.368-3.646,1.507-4.396,2.729
				c0.605-0.221,1.259-0.034,1.748,0.359c-2.734,0.932-5.943,3.38-6.891,6.253c0.71-0.098,1.414-0.458,2.147-0.525
				c-0.628,0.057-1.528,1.792-1.782,2.288c-0.462,0.899-0.749,1.865-0.943,2.855c-0.358,1.823-0.775,4.037-0.397,5.885
				c0.39-0.565,0.964-1.002,1.428-1.502c-1.271,2.885-0.245,5.597,0.882,8.258c0.545,1.286,1.284,2.418,1.961,3.608
				c0.512,0.901,0.781,1.948,1.358,2.818c1.797,2.699,3.673,1.588,6.229,0.968c1.961-0.476,4.013-0.81,5.997-0.901
				c2.267-0.107,4.599-0.25,6.829,0.262c2.128,0.488,4.47,1.445,6.625,0.537c4.059-1.709,3.979-7.109,4.113-10.702
				c0.358,0.271,0.725,0.6,1.047,0.839c0.081-2.523,0.354-4.993,0.425-7.544c0.512,0.38,1.097,0.846,1.65,1.122
				C54.415,24.292,53.297,18.535,51.927,17.945z"/>
			<path fill="#FFB06B" d="M32.725,16.582c-7.491,1.462-12.985,12.266-11.395,22.339c1.078,6.828,9.133,15.248,15.662,15.248
				c7.612,0,13.438-11.767,12.277-21.075C48.011,22.973,43.217,14.536,32.725,16.582z"/>
			<path opacity="0.3" fill="#BF3C1B" d="M45.08,19.11c-3.408-1.768-8.008-2.296-11.786-2.363c-2.735-0.049-5.707-0.201-8.256,0.953
				c-3.813,1.728-5.438,4.333-5.93,8.315c-0.184,1.487-0.095,3.979,1.881,4.119c2.744,0.194,2.879-3.236,3.764-4.994
				c1.399,0.811,3.159,1.351,4.724,1.713c-0.511-0.935-0.548-2.287-0.417-3.33c1.445,0.577,11.613,2.404,11.613,2.404
				s-0.42-1.294-0.407-1.885c1.703,1.835,3.602,3.218,6.212,3.143C46.401,24.364,48.328,20.794,45.08,19.11z"/>
			<path fill="#FFB06B" d="M18.716,34.711c-3.679,1.014-2.202,6.385,0.802,7.463c0.964,0.346,1.986,0.393,2.973,0.322
				c0.019-0.03,0.038-0.059,0.057-0.091c0.443-0.698-0.174-4.612-0.4-5.349C21.583,35.198,20.481,34.226,18.716,34.711z"/>
			<path opacity="0.3" fill="#BF3C1B" d="M20.007,36.688c-0.827-0.379-2.89,0.307-1.921,1.923c0.513-1.498,1.425-0.517,1.285,0.548
				c-0.092,0.715-0.86,0.725-0.1,1.643c0.414,0.495,1.249,0.311,1.67,0.047C22.281,40.002,21.016,37.152,20.007,36.688z"/>
			<path fill="#3D2518" d="M47.555,19.054c-1.317-1.562-2.356-3.203-3.943-4.548c-4.144-3.511-9.539-3.481-14.636-2.602
				c-1.952,0.336-4.027,0.831-5.772,1.805c-1.521,0.851-2.126,2.85-2.826,4.366c-1.646,3.551-2.958,14.149-1.15,16.535
				c0.382-0.021,1.168-0.043,1.753,0.504c0.78,0.728,0.774,1.543,0.993,1.949c0.102,0.207,0.944,0.496,1.667,0.442
				c-0.538-3.663-1.408-11.349,1.609-14.077c0.091,1.152,2.327,2.657,3.417,2.841c-0.485-1.219-0.232-2.583-0.468-3.842
				c3.188,0.48,8.255,1.601,11.387,2.336c-0.217-0.516-0.419-1.822-0.644-2.502c2.291,1.58,3.752,3.105,6.581,3.881
				c0.2-0.955,0.349-1.977,0.327-2.958c0.009,0.404,4.388,0.959,4.82,1.035c-0.092-0.944-0.486-1.79-1.007-2.573
				C49.041,20.71,48.24,19.865,47.555,19.054z"/>
			<path fill="#82572E" d="M30.904,17.229c0.004,0,0.008,0,0.012,0c-0.004-0.001-0.01-0.003-0.014-0.004
				C30.858,17.226,30.858,17.227,30.904,17.229z"/>
			<path fill="#82572E" d="M44.763,13.37c0.964-0.363,2.171-0.55,3.208-0.45c-1.326-1.787-4.466-2.818-6.513-2.96
				c0.21-0.662,0.325-1.382,0.845-1.838c-0.734,0.643-2.585,0.555-3.492,1.178c-0.438-0.543-1.252-0.88-1.955-0.958
				c0.171,0.452,0.427,0.953,0.52,1.454c-1.931-0.69-3.979-0.776-6.002-0.87c-0.506-0.024-3.398,0.243-3.687-0.205
				c0.458,0.845,1.477,1.149,2.293,1.493c-1.862-0.089-3.482,0.89-5.264,1.214c0.588,0.49,1.407,0.371,2.12,0.399
				c-2.87,1.185-5.835,2.725-7.354,5.722c1.252-0.23,2.527-0.59,3.789-0.826c-0.406,1.332-1.438,2.698-1.467,4.259
				c4.205-3.665,10.533-1.455,15.031,0.365c-1.558-1.529-3.646-3.507-5.92-4.117c-0.004,0-0.008,0-0.012,0
				c-0.046-0.002-0.046-0.003-0.002-0.004c0.004,0.001,0.01,0.003,0.014,0.004c2.241-0.006,4.773,0.752,6.843,1.629
				c2.433,1.033,4.967,3.574,7.646,3.746c-0.291-1.601-1.544-3.257-2.426-4.476c2.482,0.892,4.587,2.422,7.163,3.01
				c-0.367-0.085-1.278-2.201-1.339-2.636c0.934,0.278,1.86,0.711,2.848,0.736C50.229,16.465,47.09,15.107,44.763,13.37z"/>
		</g>
		<g>
			<path fill="#F58A53" d="M45.836,36.66c-1.159-0.146-2.767,0.023-1.967,1.52c0.426,0.797,4.962,1.879,4.713,0.127
				c-0.025-0.182-0.085-0.344-0.172-0.487C47.948,37.055,46.727,36.771,45.836,36.66z"/>
			<path fill="#F58A53" d="M30.438,37.229c-0.849-0.574-2.15-0.438-3.044-0.246c-1.167,0.25-2.581,0.945-1.016,2.105
				c0.833,0.618,5.676,0.135,4.488-1.454C30.743,37.469,30.6,37.338,30.438,37.229z"/>
			<g>
				<path fill="#202930" d="M29.871,32.313c-1.931-0.831-3.146,2.596-1.828,3.713c0.613-0.18,1.338-0.113,1.911,0.163
					C31.248,35.519,31.307,32.932,29.871,32.313z"/>
			</g>
			<g>
				<path fill="#202930" d="M46.543,32.183c-1.963-1.178-3.406,2.853-1.786,3.923c0.513-0.34,1.544-0.234,2.043-0.004
					C47.587,35.23,47.596,32.814,46.543,32.183z"/>
			</g>
			<path opacity="0.7" fill="#C3CEE6" d="M29.184,32.989c-0.783,0.266-0.188,1.79,0.577,1.234
				C30.312,33.823,29.881,32.753,29.184,32.989z"/>
			<path opacity="0.7" fill="#C3CEE6" d="M45.699,33.037c-0.775,0.156-0.405,1.676,0.389,1.244
				C46.658,33.971,46.386,32.9,45.699,33.037z"/>
			<g>
				<path fill="#DE6049" d="M27.501,40.207c0,0,2.444,8.32,8.872,8.745c4.619,0.307,6.151-2.534,7.78-4.908
					c0.966-1.409,1.625-2.939,2.744-4.087C44.252,41.736,36.056,43.482,27.501,40.207z"/>
				<path fill="#8F2A25" d="M28.889,41.271c0,0,1.637,5.334,7.875,5.553c3.097,0.109,5.691-1.676,6.635-3.096
					c1.053-1.584,2.38-2.624,2.38-2.624C36.561,45.91,28.889,41.271,28.889,41.271z"/>
				<path fill="#FFF7EA" d="M28.889,41.271c0,0,1.695,2.273,3.799,3.024c2.697,0.964,5.175,1.065,8.273,0.458
					c2.089-0.41,4.817-3.649,4.817-3.649S38.481,45.134,28.889,41.271z"/>
				<path fill="#FFF7EA" d="M38.063,44.785c-2.86-0.036-4.369-0.542-5.702-1.017c-1.108-0.394-0.986,0.539-0.782,0.996
					c0,0,1.055,1.948,5.185,2.06c3.88,0.103,5.751-2.051,5.246-2.545C41.508,43.785,40.926,44.823,38.063,44.785z"/>
				<path fill="#ECDCC4" d="M28.889,41.271c0,0,0.842,1.223,1.639,1.707c0,0,7.074,1.346,13.762-0.329c0,0,1.369-1.105,1.489-1.545
					C45.778,41.104,38.24,45.066,28.889,41.271z"/>
				<path fill="#ECDCC4" d="M31.57,43.776c6.049,3.087,9.968,0.704,9.968,0.704C36.027,45.524,31.57,43.776,31.57,43.776z"/>
			</g>
			<path fill="#2B221C" d="M30.694,29.403c-0.977-0.08-1.868-0.364-2.823-0.533c-1.251-0.221-2.773,0.511-3.164,1.335
				c0.289,0.009,0.569-0.018,0.846-0.051c0.41-0.049,0.813-0.113,1.226-0.1c0.804,0.024,1.636,0.292,2.429,0.403
				c0.598,0.085,3.493,0.763,3.498,0.087c0.001-0.225-0.158-0.852-0.418-1.023C31.951,29.301,31.088,29.433,30.694,29.403z"/>
			<path fill="#2B221C" d="M46.661,28.621c-0.879,0.216-1.694,0.544-2.599,0.67c-0.363,0.051-1.172-0.039-1.474,0.199
				c-0.234,0.184-0.353,0.817-0.34,1.042c0.035,0.674,2.692-0.146,3.245-0.26c0.73-0.15,1.489-0.458,2.236-0.522
				c0.382-0.034,0.76,0.011,1.144,0.04c0.259,0.02,0.52,0.033,0.786,0.009C49.261,28.994,47.813,28.338,46.661,28.621z"/>
			<path opacity="0.3" fill="#BF3C1B" d="M38.001,38.469c-0.868,0.047-1.229-0.305-1.825,0.054c-0.592,0.36,0.779,1.489,1.85,1.354
				c1.214-0.15,2.171-1.193,1.834-1.543C39.468,37.928,38.969,38.415,38.001,38.469z"/>
			<path fill="#121B21" d="M28.072,31.672c-1.103,0.275-2.186,1.333-4.617,0.361c0,0,2.025,2.462,5.114,0.857
				c1.362-0.708,2.28,0.664,2.28,0.664S30.228,31.135,28.072,31.672z"/>
			<path fill="#121B21" d="M46.977,31.802c-2.155-0.537-2.777,1.882-2.777,1.882s0.918-1.371,2.281-0.665
				c3.091,1.605,5.115-0.856,5.115-0.856C49.162,33.134,48.08,32.078,46.977,31.802z"/>
		</g>
		<g>
			<path opacity="0.3" fill="#1F0300" d="M17.278,18.696c2.236,6.479,29.193,3.21,31.372-3.148
				C52.969,2.943,14.834,11.614,17.278,18.696z"/>
			<path fill="#E62628" d="M37.154,3.661c-7.712,0.713-14.07,2.988-19.281,8.769c-1.686,1.872-4.573,6.159-0.382,7.446
				c6.389,1.959,12.552,1.971,18.989,0.283c3.382-0.887,10.654-2.572,12.16-6.402C51.58,6.275,45.703,2.87,37.154,3.661z"/>
			<path fill="#FF3B3B" d="M39.696,4.348c-1.224-0.012-3.62-0.304-4.62,0.701c-0.752,0.761-0.332,2.143,0.949,2.068
				c-2.283,0.132-4.66,0.972-6.811,1.152c0.461-0.402,1.902-1.159,2.083-1.654c0.862-2.35-4.213-0.002-4.814,0.281
				c-2.915,1.367-7.515,4.302-8.107,7.727c1.733,1.275,2.468-0.391,4.032-0.457c1.151-0.048,1.28,0.915,2.666,1.093
				c1.006,0.131,1.777-0.468,2.746-0.549c3.836-0.32,7.386,0.832,11.001-1.128c1.156-0.625,1.757-1.93,2.97-2.425
				c0.943-0.388,2.188,0.239,3.046-0.546c0.892-0.82,0.069-1.561,0.618-2.283c0.466-0.614,1.641-0.287,1.729-1.159
				C47.413,4.856,41.135,4.364,39.696,4.348z"/>
			<path fill="#FF3B3B" d="M33.026,2.222c-0.971,1.685-1.025,2.913-0.737,4.452l0.993,0.023c0.233-1.327,0.893-2.745,2.19-4.024
				C35.39,1.937,33.426,1.758,33.026,2.222z"/>
		</g>
	</g>
</g>
</svg>
